<svg xmlns="http://www.w3.org/2000/svg" xmlns:xlink="http://www.w3.org/1999/xlink" viewBox="0 0 81 55"><defs><style>.cls-1{stroke:#b5b5b5;stroke-miterlimit:10;fill:url(#Безымянный_градиент);}.cls-2{fill:url(#Безымянный_градиент_11);}.cls-3{fill:url(#Безымянный_градиент_11-2);}.cls-4{fill:url(#Безымянный_градиент_11-3);}.cls-5{fill:url(#Безымянный_градиент_11-4);}.cls-6{fill:url(#Безымянный_градиент_11-5);}.cls-7{fill:url(#Безымянный_градиент_11-6);}.cls-8{fill:url(#Безымянный_градиент_11-7);}.cls-9{fill:url(#Безымянный_градиент_11-8);}.cls-10{fill:url(#Безымянный_градиент_11-9);}.cls-11{fill:url(#Безымянный_градиент_11-10);}</style><linearGradient id="Безымянный_градиент" x1="40.5" y1="-871.5" x2="40.5" y2="-925.5" gradientTransform="matrix(1, 0, 0, -1, 0, -871)" gradientUnits="userSpaceOnUse"><stop offset="0" stop-color="#fff"/><stop offset="0.97" stop-color="#d9d9d9"/><stop offset="1" stop-color="#e2e9f1"/></linearGradient><radialGradient id="Безымянный_градиент_11" cx="14.07" cy="-12.88" r="86.78" gradientTransform="translate(0 12)" gradientUnits="userSpaceOnUse"><stop offset="0" stop-color="#00b1e7"/><stop offset="0.43" stop-color="#0098cd"/><stop offset="0.52" stop-color="#008dbe"/><stop offset="0.84" stop-color="#006c91"/><stop offset="1" stop-color="#005f80"/></radialGradient><radialGradient id="Безымянный_градиент_11-2" cx="14.08" cy="-12.88" r="86.77" xlink:href="#Безымянный_градиент_11"/><radialGradient id="Безымянный_градиент_11-3" cx="14.08" cy="-12.88" r="86.77" xlink:href="#Безымянный_градиент_11"/><radialGradient id="Безымянный_градиент_11-4" cx="14.07" cy="-12.88" r="86.78" xlink:href="#Безымянный_градиент_11"/><radialGradient id="Безымянный_градиент_11-5" cx="14.07" cy="-12.88" r="86.77" xlink:href="#Безымянный_градиент_11"/><radialGradient id="Безымянный_градиент_11-6" cx="14.07" cy="-12.88" r="86.77" xlink:href="#Безымянный_градиент_11"/><radialGradient id="Безымянный_градиент_11-7" cx="14.08" cy="-12.89" r="86.78" xlink:href="#Безымянный_градиент_11"/><radialGradient id="Безымянный_градиент_11-8" cx="14.08" cy="-12.88" r="86.77" xlink:href="#Безымянный_градиент_11"/><radialGradient id="Безымянный_градиент_11-9" cx="14.07" cy="-12.88" r="86.77" xlink:href="#Безымянный_градиент_11"/><radialGradient id="Безымянный_градиент_11-10" cx="14.08" cy="-12.88" r="86.77" xlink:href="#Безымянный_градиент_11"/></defs><title>Ресурс 1</title><g id="Слой_2" data-name="Слой 2"><g id="Layer_1" data-name="Layer 1"><path class="cls-1" d="M77.5,54.5H3.5a3,3,0,0,1-3-3V3.5a3,3,0,0,1,3-3h74a3,3,0,0,1,3,3v48A3,3,0,0,1,77.5,54.5Z"/><path id="SVGID" class="cls-2" d="M41.6,24.7V23a1.43,1.43,0,0,0-1.5-1.3H37.9v3.1H35.7V16h5.4a2.46,2.46,0,0,1,2.8,2.6,2.39,2.39,0,0,1-1.3,2.1,2.15,2.15,0,0,1,1.1,2v2.2l-2.1-.2m-3.7-5.1h2.3c.7,0,1.2-.4,1.2-.8s-.6-.8-1.2-.8H37.9v1.6h0"/><path id="SVGID-2" data-name="SVGID" class="cls-3" d="M68,24.7l-3.5-5.9v5.9H60l-.8-1.8H55.1l-.8,1.8H50.9s-3-.4-3-4.2c0-4.9,3.4-4.7,3.5-4.7l2.8.1v2H51.9s-1.5,0-1.7,1.9v.6c0,3,2.6,2.1,2.7,2l2.8-6.6h3.1l3.4,8v-8h3.2l3.5,5.8V15.8h2.3v8.8H68m-11.9-4h2.2L57.2,18l-1.1,2.6h0"/><path id="SVGID-3" data-name="SVGID" class="cls-4" d="M24,24.7V18.6l-2.8,6.1H19.4l-2.8-6.1v6.1H12.1l-.8-1.8h-4l-.8,1.8H4.1l3.7-8.8h3.1L14.3,24V15.9h3.5l2.5,5.5,2.4-5.5h3.5v8.8H24M8.3,20.6h2.2L9.3,18l-1,2.6h0"/><polyline id="SVGID-4" data-name="SVGID" class="cls-5" points="27.5 24.7 27.5 15.9 34.5 15.9 34.5 18 29.8 18 29.8 19.3 34.4 19.3 34.4 21.3 29.8 21.3 29.8 22.8 34.5 22.8 34.5 24.7 27.5 24.7"/><polyline id="SVGID-5" data-name="SVGID" class="cls-6" points="44.9 24.8 44.9 15.9 47.1 15.9 47.1 24.8 44.9 24.8"/><path id="SVGID-6" data-name="SVGID" class="cls-7" d="M50.2,39.7V38a1.43,1.43,0,0,0-1.5-1.3H46.5v3.1H44.3V31h5.4a2.46,2.46,0,0,1,2.8,2.6,2.39,2.39,0,0,1-1.3,2.1,2.15,2.15,0,0,1,1.1,2v2.2l-2.1-.2m-3.7-5.1h2.3c.7,0,1.2-.4,1.2-.8s-.6-.8-1.2-.8H46.5v1.6h0"/><path id="SVGID-7" data-name="SVGID" class="cls-8" d="M35.3,39.7h-2L31,37.1l-2.4,2.6H20.2V30.9h8.2L31,33.7l2.6-2.8h7.1a2.46,2.46,0,0,1,2.8,2.6c0,2.6-.9,3.4-3.8,3.4H37.5v2.8H35.3m-2.8-4.4,2.8,3.1V32.3l-2.8,3h0m-10,2.5h4.7l2.2-2.4L27.2,33H22.5v1.4h4.6v2H22.5v1.4h0m15-3.3h2.3c.7,0,1.2-.4,1.2-.8s-.6-.8-1.2-.8H37.5v1.6h0"/><path id="SVGID-8" data-name="SVGID" class="cls-9" d="M65.5,39.7h-4v-2H65s1.3.1,1.3-.7-1.9-.7-1.9-.7-3.1.3-3.1-2.6A2.56,2.56,0,0,1,64.1,31h4.3v2.1H64.9s-1.2-.2-1.2.6,1.6.6,1.6.6,3.4-.3,3.4,2.4a2.83,2.83,0,0,1-3,3.1.31.31,0,0,0-.2-.1"/><polyline id="SVGID-9" data-name="SVGID" class="cls-10" points="53.5 39.7 53.5 30.9 60.5 30.9 60.5 32.9 55.7 32.9 55.7 34.3 60.3 34.3 60.3 36.3 55.7 36.3 55.7 37.8 60.5 37.8 60.5 39.7 53.5 39.7"/><path id="SVGID-10" data-name="SVGID" class="cls-11" d="M73.3,39.7h-4v-2h3.5s1.3.1,1.3-.7-1.9-.7-1.9-.7-3.1.3-3.1-2.6A2.56,2.56,0,0,1,71.9,31h4.3v2.1H72.8s-1.2-.2-1.2.6,1.6.6,1.6.6,3.4-.3,3.4,2.4a2.83,2.83,0,0,1-3,3.1.49.49,0,0,0-.3-.1"/></g></g></svg>