<svg xmlns="http://www.w3.org/2000/svg" xmlns:xlink="http://www.w3.org/1999/xlink" viewBox="0 0 81 55"><defs><style>.cls-1{stroke:#b5b5b5;stroke-miterlimit:10;fill:url(#Безымянный_градиент);}.cls-2{fill:#e0761e;}.cls-3{fill:url(#Безымянный_градиент_4);}.cls-4{fill:#00000b;}.cls-5{fill:#201600;}</style><linearGradient id="Безымянный_градиент" x1="40.47" y1="-124.68" x2="40.47" y2="-178.68" gradientTransform="matrix(1, 0, 0, -1, 0.03, -124.18)" gradientUnits="userSpaceOnUse"><stop offset="0" stop-color="#fff"/><stop offset="0.97" stop-color="#d9d9d9"/><stop offset="1" stop-color="#e2e9f1"/></linearGradient><radialGradient id="Безымянный_градиент_4" cx="35.98" cy="518.63" r="6.17" gradientTransform="matrix(1, 0, 0, -1, 6.42, 542.08)" gradientUnits="userSpaceOnUse"><stop offset="0" stop-color="#f0f0f0"/><stop offset="1" stop-color="#ff8330"/></radialGradient></defs><title>Ресурс 1</title><g id="Слой_2" data-name="Слой 2"><g id="Layer_1" data-name="Layer 1"><path class="cls-1" d="M77.5,54.5H3.5a3,3,0,0,1-3-3V3.5a3,3,0,0,1,3-3h74a3,3,0,0,1,3,3v48A3,3,0,0,1,77.5,54.5Z"/><path class="cls-2" d="M77.1,54H23.2c24.2,0,56.9-19.3,56.9-27.5V50.9A3.1,3.1,0,0,1,77.1,54Z"/><path class="cls-3" d="M42.42,17.4a6.1,6.1,0,1,0,6.2,6.1A6,6,0,0,0,42.42,17.4Z"/><path class="cls-4" d="M6.92,17.6H3.62V29.3h3.3a5.79,5.79,0,0,0,4.2-1.4,6,6,0,0,0,2.1-4.5C13.22,20,10.62,17.6,6.92,17.6Zm2.7,8.8a4.59,4.59,0,0,1-3.1.9h-.7V19.6h.6a4.42,4.42,0,0,1,3.1.9,3.93,3.93,0,0,1,1.3,2.9A3.72,3.72,0,0,1,9.62,26.4Z"/><rect class="cls-4" x="14.32" y="17.6" width="2.3" height="11.7"/><path class="cls-4" d="M22.12,22.1c-1.4-.5-1.8-.8-1.8-1.5s.7-1.3,1.7-1.3a2.42,2.42,0,0,1,1.8.9L25,18.6a5,5,0,0,0-3.4-1.3,3.45,3.45,0,0,0-3.7,3.4c0,1.6.7,2.4,2.9,3.2a5,5,0,0,1,1.6.7,1.31,1.31,0,0,1,.7,1.2,1.77,1.77,0,0,1-1.8,1.7,2.58,2.58,0,0,1-2.5-1.6l-1.5,1.4a4.68,4.68,0,0,0,4.1,2.2,3.73,3.73,0,0,0,4-3.8C25.52,23.9,24.72,23,22.12,22.1Z"/><path class="cls-4" d="M26.22,23.4a6.08,6.08,0,0,0,6.2,6.1,6.48,6.48,0,0,0,2.9-.7V26.1a3.69,3.69,0,0,1-2.8,1.3,3.81,3.81,0,0,1-3.9-4,3.91,3.91,0,0,1,3.8-4,4.05,4.05,0,0,1,2.9,1.3V18a5.81,5.81,0,0,0-2.8-.7A6.17,6.17,0,0,0,26.22,23.4Z"/><polygon class="cls-4" points="53.82 25.4 50.72 17.6 48.22 17.6 53.12 29.6 54.42 29.6 59.42 17.6 56.92 17.6 53.82 25.4"/><polygon class="cls-4" points="60.52 29.3 66.92 29.3 66.92 27.3 62.72 27.3 62.72 24.1 66.82 24.1 66.82 22.2 62.72 22.2 62.72 19.6 66.92 19.6 66.92 17.6 60.52 17.6 60.52 29.3"/><path class="cls-4" d="M76,21c0-2.2-1.5-3.5-4.1-3.5h-3.4V29.2h2.3V24.5h.3l3.2,4.7h2.8l-3.7-4.9A3.1,3.1,0,0,0,76,21Zm-4.6,2h-.7V19.5h.7c1.4,0,2.2.6,2.2,1.7S72.92,23,71.42,23Z"/><path class="cls-5" d="M77.62,18.4c0-.2-.1-.3-.4-.3h-.3v1h.2v-.4l.3.4h.3l-.3-.4C77.52,18.7,77.62,18.6,77.62,18.4Zm-.4.2h0v-.3h0c.1,0,.2,0,.2.1A.22.22,0,0,1,77.22,18.6Z"/><path class="cls-5" d="M77.32,17.7a.9.9,0,1,0,.9.9A.9.9,0,0,0,77.32,17.7Zm0,1.7a.7.7,0,1,1,.7-.7A.85.85,0,0,1,77.32,19.4Z"/><path d="M26.34,38.58h-.71l-2.74-4.22v4.22h-.63V33.3H23l2.75,4.22V33.3h.63v5.28Z"/><path d="M31.51,38.58h-4V33.3h3.9v.64H28.24v1.58h3v.63h-3V38h3.27Z"/><path d="M36.26,33.85H34.57V38.5h-.74V33.85H32v-.63h4.22Z"/><path d="M43.44,33.22,42,38.5h-.64l-1.26-4.65L38.79,38.5h-.63l-1.48-5.28h.74l1.06,4.33,1.16-4.33h.84l1.16,4.33,1.06-4.33Z"/><path d="M46.39,33.11a2.17,2.17,0,0,1,1.79.74,3.08,3.08,0,0,1,0,4,2.53,2.53,0,0,1-3.58,0,3.07,3.07,0,0,1-.74-2,2.63,2.63,0,0,1,.74-2A2.29,2.29,0,0,1,46.39,33.11Zm0,5a1.74,1.74,0,0,0,1.27-.52,2.66,2.66,0,0,0,0-3.17,1.49,1.49,0,0,0-1.27-.63,1.74,1.74,0,0,0-1.27.52,2.66,2.66,0,0,0,0,3.17A1.49,1.49,0,0,0,46.39,38.07Z"/><path d="M54.31,38.58h-.74l-.5-1.35a2.24,2.24,0,0,0-.42-.63.87.87,0,0,0-.74-.21H50.64v2.32H49.9V33.43h2.33a3.11,3.11,0,0,1,1.05.11,1,1,0,0,1,.63.52,1.18,1.18,0,0,1,.22.85,1.72,1.72,0,0,1-.32,1,1.5,1.5,0,0,1-.85.53h0a1.28,1.28,0,0,1,.85.94Zm-3.7-2.95h1.58a2.07,2.07,0,0,0,1-.22.8.8,0,0,0,.32-.73,1,1,0,0,0-1-1l-.21,0H50.61Z"/><path d="M59.58,38.58h-.95l-1.9-2.64-.84.85v1.79h-.71V33.3h.74v2.54l2.64-2.64h.95l-2.22,2.21Z"/></g></g></svg>