<svg xmlns="http://www.w3.org/2000/svg" xmlns:xlink="http://www.w3.org/1999/xlink" viewBox="0 0 81 55"><defs><style>.cls-1{stroke:#b5b5b5;stroke-miterlimit:10;fill:url(#Безымянный_градиент);}.cls-2{fill:#fff;}.cls-3{fill:#fbb231;}.cls-4{fill:#ec1c2e;}.cls-5{fill:none;stroke:#fff;stroke-miterlimit:2.61;stroke-width:0.22px;}</style><linearGradient id="Безымянный_градиент" x1="40.5" y1="927.5" x2="40.5" y2="981.5" gradientTransform="translate(0 -927)" gradientUnits="userSpaceOnUse"><stop offset="0" stop-color="#fff"/><stop offset="0.97" stop-color="#d9d9d9"/><stop offset="1" stop-color="#e2e9f1"/></linearGradient></defs><title>Ресурс 1</title><g id="Слой_2" data-name="Слой 2"><g id="Layer_1" data-name="Layer 1"><path class="cls-1" d="M77.5,54.5H3.5a3,3,0,0,1-3-3V3.5a3,3,0,0,1,3-3h74a3,3,0,0,1,3,3v48A3,3,0,0,1,77.5,54.5Z"/><path class="cls-2" d="M59.36,31.36a.5.5,0,1,1,.49.49A.49.49,0,0,1,59.36,31.36Zm.49.38a.38.38,0,1,0-.38-.38A.38.38,0,0,0,59.85,31.74Zm-.07-.16h-.1v-.44h.19a.2.2,0,0,1,.11,0,.14.14,0,0,1,.06.11.11.11,0,0,1-.08.11l.08.2h-.11l-.07-.18h-.08Zm0-.25h.12a.05.05,0,0,0,0-.05s0,0,0,0h-.12Z"/><path class="cls-2" d="M30.17,23.93c-.13.61-.2.95-.39,1.68a4.33,4.33,0,0,0-3.89,0,3.14,3.14,0,0,0-1.42,3.06,1.87,1.87,0,0,0,1.15,1.42,3.85,3.85,0,0,0,3.28-.34c-.16.75-.29,1.33-.43,1.86a6.69,6.69,0,0,1-4.08.05,3.38,3.38,0,0,1-2.33-2.74,4.56,4.56,0,0,1,2.52-4.81A8.5,8.5,0,0,1,30.17,23.93Z"/><path class="cls-2" d="M49.74,30.8A3.22,3.22,0,0,1,47.07,32c-1.53,0-2.51-1.13-2-3.68l.63-3h2.35l-.64,3c-.22,1-.16,1.8.87,1.8,1.22,0,1.58-.74,1.81-1.8l.64-3h2.34l-1,4.81c-.12.57-.23,1.17-.3,1.76h-2.2S49.7,31.05,49.74,30.8Z"/><path class="cls-2" d="M53.89,27.37c0,.83.55,1.4,1.79,1.83,1,.33,1.11.43,1.11.72s-.43.59-1.35.59a8.81,8.81,0,0,1-2.12-.25S53,31.62,53,31.78a18.51,18.51,0,0,0,2.46.18c2.48,0,3.63-.69,3.63-2.19,0-.89-.48-1.42-1.66-1.83-1-.32-1.1-.4-1.1-.71s.39-.53,1.15-.53c.46,0,1.11,0,1.7.1l.33-1.52a19.28,19.28,0,0,0-2.07-.14C54.8,25.14,53.88,26.16,53.89,27.37Z"/><polygon class="cls-2" points="31.17 25.29 33.52 25.29 32.12 31.86 29.77 31.86 31.17 25.29"/><path class="cls-2" d="M45.07,25.27a2.66,2.66,0,0,0-2.68,1,4.47,4.47,0,0,0,.14-1H40.37c-.3,2-.86,4.09-1.29,6.12l-.11.45h2.45a19.73,19.73,0,0,1,1-4,1.58,1.58,0,0,1,1.89-.8Z"/><path class="cls-2" d="M39.73,25.27a2.68,2.68,0,0,0-2.69,1,4.47,4.47,0,0,0,.14-1H35c-.31,2-.86,4.09-1.29,6.12l-.11.45h2.44a20.43,20.43,0,0,1,1-4A1.58,1.58,0,0,1,39,27.1Z"/><polygon class="cls-3" points="53.36 47.23 54.35 47.2 55.33 47.13 56.29 47.01 57.24 46.84 58.17 46.62 59.09 46.37 59.98 46.06 60.86 45.72 61.71 45.33 62.54 44.91 63.35 44.44 64.13 43.94 64.89 43.4 65.61 42.83 66.31 42.23 66.98 41.59 67.62 40.92 68.22 40.22 68.8 39.49 69.33 38.74 69.83 37.95 70.3 37.15 70.72 36.32 71.11 35.47 71.45 34.59 71.76 33.69 72.02 32.78 72.23 31.85 72.4 30.9 72.52 29.94 72.6 28.96 72.62 27.97 72.6 26.98 72.52 26.01 72.4 25.05 72.23 24.11 72.02 23.18 71.76 22.27 71.45 21.38 71.11 20.51 70.72 19.66 70.3 18.83 69.83 18.03 69.33 17.25 68.8 16.5 68.22 15.78 67.62 15.07 66.98 14.41 66.31 13.77 65.61 13.17 64.89 12.6 64.13 12.06 63.35 11.56 62.54 11.1 61.71 10.68 60.86 10.29 59.98 9.95 59.09 9.64 58.17 9.38 57.24 9.17 56.29 9 55.33 8.88 54.35 8.8 53.36 8.78 52.38 8.8 51.4 8.88 50.44 9 49.49 9.17 48.56 9.38 47.65 9.64 46.76 9.95 45.88 10.29 45.03 10.68 44.21 11.1 43.41 11.56 42.63 12.06 41.88 12.6 41.15 13.17 40.46 13.77 39.79 14.41 39.15 15.07 38.55 15.78 37.98 16.5 37.45 17.25 36.95 18.03 36.49 18.83 36.06 19.66 35.68 20.51 35.33 21.38 35.03 22.27 34.77 23.18 34.56 24.11 34.39 25.05 34.27 26.01 34.2 26.98 34.17 27.97 34.2 28.96 34.27 29.94 34.39 30.9 34.56 31.85 34.77 32.78 35.03 33.69 35.33 34.59 35.68 35.47 36.06 36.32 36.49 37.15 36.95 37.95 37.45 38.74 37.98 39.49 38.55 40.22 39.15 40.92 39.79 41.59 40.46 42.23 41.15 42.83 41.88 43.4 42.63 43.94 43.41 44.44 44.21 44.91 45.03 45.33 45.88 45.72 46.76 46.06 47.65 46.37 48.56 46.62 49.49 46.84 50.44 47.01 51.4 47.13 52.38 47.2 53.36 47.23"/><polygon class="cls-4" points="27.64 47.23 28.63 47.2 29.61 47.13 30.57 47.01 31.51 46.84 32.44 46.62 33.35 46.37 34.24 46.06 35.12 45.72 35.97 45.33 36.79 44.91 37.6 44.44 38.37 43.94 39.13 43.4 39.85 42.83 40.55 42.23 41.22 41.59 41.85 40.92 42.45 40.22 43.02 39.49 43.55 38.74 44.05 37.95 44.52 37.15 44.94 36.32 45.33 35.47 45.67 34.59 45.97 33.69 46.23 32.78 46.44 31.85 46.61 30.9 46.73 29.94 46.8 28.96 46.83 27.97 46.8 26.98 46.73 26.01 46.61 25.05 46.44 24.11 46.23 23.18 45.97 22.27 45.67 21.38 45.33 20.51 44.94 19.66 44.52 18.83 44.05 18.03 43.55 17.25 43.02 16.5 42.45 15.78 41.85 15.07 41.22 14.41 40.55 13.77 39.85 13.17 39.13 12.6 38.37 12.06 37.6 11.56 36.79 11.1 35.97 10.68 35.12 10.29 34.24 9.95 33.35 9.64 32.44 9.38 31.51 9.17 30.57 9 29.61 8.88 28.63 8.8 27.64 8.78 26.65 8.8 25.67 8.88 24.71 9 23.75 9.17 22.83 9.38 21.91 9.64 21.02 9.95 20.14 10.29 19.29 10.68 18.46 11.1 17.65 11.56 16.87 12.06 16.12 12.6 15.39 13.17 14.69 13.77 14.02 14.41 13.38 15.07 12.78 15.78 12.21 16.5 11.67 17.25 11.17 18.03 10.7 18.83 10.28 19.66 9.89 20.51 9.55 21.38 9.24 22.27 8.98 23.18 8.77 24.11 8.6 25.05 8.48 26.01 8.41 26.98 8.38 27.97 8.41 28.96 8.48 29.94 8.6 30.9 8.77 31.85 8.98 32.78 9.24 33.69 9.55 34.59 9.89 35.47 10.28 36.32 10.7 37.15 11.17 37.95 11.67 38.74 12.21 39.49 12.78 40.22 13.38 40.92 14.02 41.59 14.69 42.23 15.39 42.83 16.12 43.4 16.87 43.94 17.65 44.44 18.46 44.91 19.29 45.33 20.14 45.72 21.02 46.06 21.91 46.37 22.83 46.62 23.75 46.84 24.71 47.01 25.67 47.13 26.65 47.2 27.64 47.23"/><polygon class="cls-3" points="38.25 16.15 48.46 16.15 48.46 15.11 39.13 15.11 38.25 16.15"/><polygon class="cls-3" points="36.72 18.47 48.46 18.47 48.46 17.43 37.34 17.43 36.72 18.47"/><polygon class="cls-3" points="35.58 20.79 48.46 20.79 48.46 19.74 36.03 19.74 35.58 20.79"/><polygon class="cls-3" points="34.8 23.11 48.46 23.11 48.46 22.07 35.12 22.07 34.8 23.11"/><polygon class="cls-3" points="35.25 34.33 48.5 34.33 48.5 33.28 34.92 33.28 35.25 34.33"/><polygon class="cls-3" points="36.23 36.65 48.5 36.65 48.5 35.61 35.74 35.61 36.23 36.65"/><polygon class="cls-3" points="37.6 38.97 48.5 38.97 48.5 37.92 36.95 37.92 37.6 38.97"/><polygon class="cls-3" points="39.5 41.29 48.5 41.29 48.5 40.24 38.58 40.24 39.5 41.29"/><polygon class="cls-3" points="34.33 25.42 48.46 25.42 48.46 24.38 34.53 24.38 34.33 25.42"/><polygon class="cls-3" points="42.94 32.01 48.34 32.01 48.34 30.97 43.14 30.97 42.94 32.01"/><polygon class="cls-3" points="43.38 29.7 48.34 29.7 48.34 28.65 43.57 28.65 43.38 29.7"/><polygon class="cls-3" points="33.98 28.65 35.38 28.65 35.38 29.7 34.04 29.7 33.98 28.65"/><polygon class="cls-2" points="31.36 27.38 31.27 27.38 31.18 27.36 31.1 27.35 31.01 27.34 30.94 27.33 30.85 27.31 30.77 27.3 30.68 27.29 30.59 27.27 30.48 27.27 30.36 27.26 30.24 27.25 30.11 27.25 29.95 27.26 29.79 27.27 29.6 27.29 29.47 27.31 29.35 27.33 29.24 27.36 29.14 27.4 29.05 27.45 28.96 27.5 28.9 27.57 28.84 27.62 28.8 27.69 28.77 27.77 28.76 27.84 28.76 27.92 28.77 28.01 28.8 28.09 28.85 28.17 28.92 28.26 29.05 28.38 29.2 28.48 29.38 28.56 29.58 28.64 29.79 28.7 30 28.77 30.22 28.85 30.42 28.93 30.62 29.04 30.8 29.18 30.96 29.34 31.1 29.54 31.2 29.79 31.27 30.08 31.29 30.43 31.27 30.84 31.22 31.14 31.14 31.41 31.04 31.66 30.91 31.87 30.76 32.06 30.59 32.22 30.41 32.36 30.21 32.49 30 32.59 29.79 32.67 29.57 32.73 29.34 32.79 29.12 32.82 28.91 32.84 28.69 32.86 28.49 32.86 28.21 32.86 27.95 32.86 27.72 32.86 27.51 32.85 27.32 32.84 27.14 32.83 26.99 32.82 26.84 32.8 26.7 32.79 26.58 32.76 26.45 32.74 26.34 32.71 26.23 32.68 26.13 32.64 26.02 32.6 25.91 32.57 26.21 31.13 26.27 31.14 26.34 31.16 26.43 31.19 26.54 31.22 26.66 31.24 26.79 31.27 26.93 31.3 27.08 31.33 27.25 31.35 27.41 31.38 27.59 31.4 27.77 31.42 27.96 31.42 28.15 31.43 28.33 31.43 28.52 31.42 28.71 31.39 28.86 31.33 28.98 31.26 29.07 31.17 29.13 31.08 29.18 30.98 29.22 30.87 29.24 30.77 29.26 30.59 29.2 30.43 29.09 30.29 28.93 30.18 28.73 30.09 28.5 29.99 28.25 29.9 28 29.8 27.74 29.68 27.49 29.54 27.27 29.37 27.06 29.17 26.89 28.93 26.78 28.64 26.72 28.29 26.73 27.87 26.76 27.62 26.8 27.38 26.87 27.16 26.95 26.95 27.05 26.75 27.17 26.59 27.3 26.42 27.47 26.28 27.66 26.16 27.86 26.05 28.1 25.96 28.35 25.89 28.65 25.83 28.96 25.78 29.31 25.76 29.7 25.75 29.94 25.75 30.16 25.76 30.36 25.76 30.54 25.77 30.7 25.78 30.85 25.79 30.98 25.81 31.1 25.82 31.21 25.83 31.3 25.85 31.38 25.87 31.46 25.88 31.52 25.89 31.58 25.9 31.64 25.91 31.69 25.92 31.36 27.38"/><polyline class="cls-5" points="31.36 27.38 31.36 27.38 31.27 27.38 31.18 27.36 31.1 27.35 31.01 27.34 30.94 27.33 30.85 27.31 30.77 27.3 30.68 27.29 30.59 27.27 30.48 27.27 30.36 27.26 30.24 27.25 30.11 27.25 29.95 27.26 29.79 27.27 29.6 27.29 29.6 27.29 29.47 27.31 29.35 27.33 29.24 27.36 29.14 27.4 29.05 27.45 28.96 27.5 28.9 27.57 28.84 27.62 28.8 27.69 28.77 27.77 28.76 27.84 28.76 27.92 28.77 28.01 28.8 28.09 28.85 28.17 28.92 28.26 28.92 28.26 29.05 28.38 29.2 28.48 29.38 28.56 29.58 28.64 29.79 28.7 30 28.77 30.22 28.85 30.42 28.93 30.62 29.04 30.8 29.18 30.96 29.34 31.1 29.54 31.2 29.79 31.27 30.08 31.29 30.43 31.27 30.84 31.27 30.84 31.22 31.14 31.14 31.41 31.04 31.66 30.91 31.87 30.76 32.06 30.59 32.22 30.41 32.36 30.21 32.49 30 32.59 29.79 32.67 29.57 32.73 29.34 32.79 29.12 32.82 28.91 32.84 28.69 32.86 28.49 32.86 28.49 32.86 28.21 32.86 27.95 32.86 27.72 32.86 27.51 32.85 27.32 32.84 27.14 32.83 26.99 32.82 26.84 32.8 26.7 32.79 26.58 32.76 26.45 32.74 26.34 32.71 26.23 32.68 26.13 32.64 26.02 32.6 25.91 32.57 26.21 31.13 26.21 31.13 26.27 31.14 26.34 31.16 26.43 31.19 26.54 31.22 26.66 31.24 26.79 31.27 26.93 31.3 27.08 31.33 27.25 31.35 27.41 31.38 27.59 31.4 27.77 31.42 27.96 31.42 28.15 31.43 28.33 31.43 28.52 31.42 28.52 31.42 28.71 31.39 28.86 31.33 28.98 31.26 29.07 31.17 29.13 31.08 29.18 30.98 29.22 30.87 29.24 30.77 29.24 30.77 29.26 30.59 29.2 30.43 29.09 30.29 28.93 30.18 28.73 30.09 28.5 29.99 28.25 29.9 28 29.8 27.74 29.68 27.49 29.54 27.27 29.37 27.06 29.17 26.89 28.93 26.78 28.64 26.72 28.29 26.73 27.87 26.73 27.87 26.76 27.62 26.8 27.38 26.87 27.16 26.95 26.95 27.05 26.75 27.17 26.59 27.3 26.42 27.47 26.28 27.66 26.16 27.86 26.05 28.1 25.96 28.35 25.89 28.65 25.83 28.96 25.78 29.31 25.76 29.7 25.75 29.7 25.75 29.94 25.75 30.16 25.76 30.36 25.76 30.54 25.77 30.7 25.78 30.85 25.79 30.98 25.81 31.1 25.82 31.21 25.83 31.3 25.85 31.38 25.87 31.46 25.88 31.52 25.89 31.58 25.9 31.64 25.91 31.69 25.92 31.36 27.38"/><polygon class="cls-2" points="32.9 24.32 34.7 24.32 34.43 25.89 35.51 25.89 35.28 27.35 34.14 27.32 33.52 30.94 33.51 31.07 33.54 31.18 33.61 31.26 33.69 31.33 33.81 31.38 33.94 31.42 34.08 31.44 34.24 31.46 34.38 31.45 34.51 31.44 34.63 31.42 34.73 31.39 34.81 31.37 34.87 31.35 34.91 31.33 34.92 31.33 34.7 32.53 34.65 32.57 34.6 32.59 34.56 32.62 34.52 32.64 34.47 32.66 34.42 32.68 34.36 32.7 34.3 32.72 34.24 32.74 34.17 32.75 34.09 32.77 34.02 32.78 33.93 32.79 33.84 32.81 33.73 32.82 33.62 32.83 33.13 32.83 32.87 32.81 32.64 32.79 32.43 32.75 32.26 32.7 32.11 32.64 31.99 32.58 31.88 32.5 31.79 32.42 31.73 32.33 31.68 32.22 31.65 32.1 31.63 31.98 31.62 31.84 31.62 31.7 31.64 31.55 31.66 31.39 32.9 24.32"/><polyline class="cls-5" points="32.9 24.32 34.7 24.32 34.43 25.89 35.51 25.89 35.28 27.35 34.14 27.32 33.52 30.94 33.52 30.94 33.51 31.07 33.54 31.18 33.61 31.26 33.69 31.33 33.81 31.38 33.94 31.42 34.08 31.44 34.24 31.46 34.24 31.46 34.38 31.45 34.51 31.44 34.63 31.42 34.73 31.39 34.81 31.37 34.87 31.35 34.91 31.33 34.92 31.33 34.7 32.53 34.7 32.53 34.65 32.57 34.6 32.59 34.56 32.62 34.52 32.64 34.47 32.66 34.42 32.68 34.36 32.7 34.3 32.72 34.24 32.74 34.17 32.75 34.09 32.77 34.02 32.78 33.93 32.79 33.84 32.81 33.73 32.82 33.62 32.83 33.13 32.83 33.13 32.83 32.87 32.81 32.64 32.79 32.43 32.75 32.26 32.7 32.11 32.64 31.99 32.58 31.88 32.5 31.79 32.42 31.73 32.33 31.68 32.22 31.65 32.1 31.63 31.98 31.62 31.84 31.62 31.7 31.64 31.55 31.66 31.39 32.9 24.32"/><polyline class="cls-5" points="36.95 29.8 36.95 29.8 36.93 29.91 36.92 30.02 36.93 30.14 36.96 30.27 37.01 30.39 37.06 30.51 37.13 30.63 37.21 30.74 37.3 30.85 37.4 30.95 37.5 31.05 37.61 31.13 37.73 31.2 37.86 31.25 37.99 31.3 38.12 31.33 38.12 31.33 38.29 31.35 38.45 31.37 38.62 31.39 38.79 31.41 38.96 31.41 39.13 31.41 39.3 31.41 39.48 31.39 39.65 31.37 39.83 31.33 40.01 31.29 40.18 31.24 40.37 31.16 40.55 31.09 40.73 30.98 40.92 30.87 40.66 32.47 40.66 32.47 40.56 32.52 40.46 32.57 40.35 32.61 40.25 32.65 40.16 32.68 40.05 32.71 39.95 32.74 39.84 32.76 39.72 32.78 39.59 32.79 39.46 32.81 39.31 32.82 39.14 32.82 38.97 32.82 38.76 32.83 38.55 32.83 38.55 32.83 38.23 32.82 37.91 32.79 37.58 32.75 37.26 32.67 36.94 32.57 36.64 32.45 36.34 32.28 36.07 32.1 35.82 31.88 35.6 31.61 35.41 31.31 35.25 30.97 35.14 30.59 35.07 30.15 35.05 29.67 35.09 29.14 35.09 29.14 35.11 28.93 35.15 28.69 35.2 28.44 35.27 28.17 35.37 27.89 35.49 27.61 35.64 27.33 35.82 27.05 36.02 26.79 36.28 26.55 36.56 26.33 36.89 26.13 37.27 25.97 37.69 25.85 38.15 25.78 38.68 25.75 38.68 25.75 38.93 25.76 39.2 25.78 39.46 25.83 39.73 25.89 39.99 25.99 40.24 26.11 40.48 26.26 40.69 26.44 40.88 26.66 41.05 26.92 41.17 27.22 41.27 27.57 41.32 27.95 41.33 28.39 41.28 28.89 41.18 29.43 41.15 29.83 36.42 29.83 36.72 28.55 39.56 28.55 39.56 28.55 39.57 28.39 39.57 28.23 39.55 28.09 39.53 27.96 39.48 27.84 39.44 27.73 39.37 27.63 39.31 27.54 39.23 27.46 39.15 27.4 39.05 27.34 38.95 27.29 38.85 27.25 38.74 27.22 38.63 27.2 38.52 27.19 38.52 27.19 38.39 27.2 38.28 27.21 38.17 27.24 38.06 27.28 37.95 27.33 37.85 27.39 37.75 27.46 37.67 27.54 37.58 27.63 37.5 27.73 37.43 27.83 37.38 27.94 37.32 28.06 37.27 28.19 37.23 28.32 37.21 28.45 36.95 29.8"/><polygon class="cls-2" points="52.41 26.27 52.33 26.23 52.25 26.19 52.15 26.14 52.06 26.1 51.96 26.06 51.85 26.02 51.74 25.98 51.62 25.94 51.5 25.91 51.38 25.89 51.24 25.86 51.1 25.84 50.96 25.83 50.81 25.81 50.65 25.81 50.49 25.81 50.33 25.81 50.16 25.83 49.98 25.85 49.8 25.88 49.62 25.93 49.44 26 49.26 26.09 49.07 26.21 48.9 26.35 48.73 26.52 48.57 26.73 48.41 26.97 48.27 27.25 48.13 27.58 48.01 27.94 47.91 28.36 47.87 28.59 47.84 28.82 47.83 29.04 47.84 29.26 47.85 29.48 47.9 29.69 47.96 29.89 48.03 30.08 48.13 30.26 48.24 30.43 48.38 30.57 48.54 30.71 48.71 30.83 48.91 30.92 49.13 31.01 49.38 31.07 49.46 31.09 49.56 31.11 49.68 31.12 49.81 31.13 49.95 31.14 50.1 31.14 50.26 31.14 50.42 31.13 50.59 31.11 50.76 31.08 50.92 31.04 51.09 30.98 51.25 30.91 51.4 30.83 51.53 30.73 51.66 30.61 51.37 32.34 51.33 32.37 51.29 32.41 51.24 32.46 51.18 32.49 51.11 32.55 51.02 32.59 50.91 32.64 50.8 32.67 50.65 32.72 50.48 32.75 50.29 32.78 50.06 32.81 49.81 32.82 49.52 32.82 49.19 32.82 48.82 32.8 48.52 32.77 48.23 32.7 47.93 32.6 47.63 32.47 47.34 32.32 47.07 32.12 46.81 31.9 46.57 31.64 46.36 31.35 46.17 31.02 46.02 30.66 45.9 30.26 45.83 29.83 45.8 29.37 45.81 28.86 45.88 28.32 45.94 28.06 45.99 27.8 46.06 27.55 46.12 27.31 46.19 27.08 46.28 26.85 46.37 26.64 46.45 26.44 46.55 26.24 46.65 26.05 46.76 25.87 46.88 25.7 46.99 25.54 47.12 25.38 47.25 25.24 47.39 25.1 47.54 24.97 47.69 24.85 47.84 24.74 48.01 24.63 48.18 24.54 48.35 24.45 48.54 24.38 48.73 24.3 48.93 24.24 49.13 24.19 49.33 24.14 49.55 24.1 49.77 24.07 50.01 24.04 50.24 24.03 50.49 24.02 50.7 24.03 50.9 24.04 51.09 24.06 51.29 24.09 51.47 24.11 51.64 24.15 51.81 24.19 51.97 24.22 52.11 24.26 52.25 24.3 52.37 24.34 52.47 24.38 52.56 24.41 52.64 24.44 52.7 24.46 52.74 24.48 52.41 26.27"/><polyline class="cls-5" points="52.41 26.27 52.41 26.27 52.33 26.23 52.25 26.19 52.15 26.14 52.06 26.1 51.96 26.06 51.85 26.02 51.74 25.98 51.62 25.94 51.5 25.91 51.38 25.89 51.24 25.86 51.1 25.84 50.96 25.83 50.81 25.81 50.65 25.81 50.49 25.81 50.49 25.81 50.33 25.81 50.16 25.83 49.98 25.85 49.8 25.88 49.62 25.93 49.44 26 49.26 26.09 49.07 26.21 48.9 26.35 48.73 26.52 48.57 26.73 48.41 26.97 48.27 27.25 48.13 27.58 48.01 27.94 47.91 28.36 47.91 28.36 47.87 28.59 47.84 28.82 47.83 29.04 47.84 29.26 47.85 29.48 47.9 29.69 47.96 29.89 48.03 30.08 48.13 30.26 48.24 30.43 48.38 30.57 48.54 30.71 48.71 30.83 48.91 30.92 49.13 31.01 49.38 31.07 49.38 31.07 49.46 31.09 49.56 31.11 49.68 31.12 49.81 31.13 49.95 31.14 50.1 31.14 50.26 31.14 50.42 31.13 50.59 31.11 50.76 31.08 50.92 31.04 51.09 30.98 51.25 30.91 51.4 30.83 51.53 30.73 51.66 30.61 51.37 32.34 51.37 32.34 51.33 32.37 51.29 32.41 51.24 32.46 51.18 32.49 51.11 32.55 51.02 32.59 50.91 32.64 50.8 32.67 50.65 32.72 50.48 32.75 50.29 32.78 50.06 32.81 49.81 32.82 49.52 32.82 49.19 32.82 48.82 32.8 48.82 32.8 48.52 32.77 48.23 32.7 47.93 32.6 47.63 32.47 47.34 32.32 47.07 32.12 46.81 31.9 46.57 31.64 46.36 31.35 46.17 31.02 46.02 30.66 45.9 30.26 45.83 29.83 45.8 29.37 45.81 28.86 45.88 28.32 45.88 28.32 45.94 28.06 45.99 27.8 46.06 27.55 46.12 27.31 46.19 27.08 46.28 26.85 46.37 26.64 46.45 26.44 46.55 26.24 46.65 26.05 46.76 25.87 46.88 25.7 46.99 25.54 47.12 25.38 47.25 25.24 47.39 25.1 47.54 24.97 47.69 24.85 47.84 24.74 48.01 24.63 48.18 24.54 48.35 24.45 48.54 24.38 48.73 24.3 48.93 24.24 49.13 24.19 49.33 24.14 49.55 24.1 49.77 24.07 50.01 24.04 50.24 24.03 50.49 24.02 50.49 24.02 50.7 24.03 50.9 24.04 51.09 24.06 51.29 24.09 51.47 24.11 51.64 24.15 51.81 24.19 51.97 24.22 52.11 24.26 52.25 24.3 52.37 24.34 52.47 24.38 52.56 24.41 52.64 24.44 52.7 24.46 52.74 24.48 52.41 26.27"/><polygon class="cls-2" points="68.38 32.83 66.58 32.83 66.72 32.11 66.72 32.05 66.61 32.18 66.5 32.29 66.39 32.4 66.27 32.49 66.16 32.57 66.04 32.64 65.92 32.7 65.8 32.76 65.68 32.81 65.55 32.84 65.43 32.87 65.3 32.89 65.17 32.91 65.05 32.92 64.92 32.93 64.79 32.93 64.45 32.9 64.14 32.83 63.85 32.72 63.59 32.57 63.36 32.38 63.15 32.16 62.97 31.92 62.82 31.65 62.69 31.36 62.58 31.05 62.51 30.74 62.46 30.41 62.44 30.07 62.45 29.74 62.48 29.41 62.53 29.08 62.63 28.69 62.75 28.33 62.89 28 63.05 27.69 63.22 27.4 63.41 27.14 63.61 26.9 63.83 26.69 64.06 26.5 64.29 26.34 64.54 26.2 64.79 26.09 65.05 26 65.31 25.94 65.56 25.9 65.83 25.89 66.02 25.89 66.2 25.91 66.37 25.94 66.52 25.99 66.68 26.04 66.81 26.1 66.93 26.17 67.05 26.24 67.15 26.32 67.25 26.4 67.34 26.49 67.42 26.57 67.48 26.66 67.54 26.74 67.59 26.82 67.63 26.9 67.63 26.9 68.08 24.35 69.85 24.35 68.38 32.83"/><polyline class="cls-5" points="68.38 32.83 66.58 32.83 66.72 32.11 66.72 32.05 66.72 32.05 66.61 32.18 66.5 32.29 66.39 32.4 66.27 32.49 66.16 32.57 66.04 32.64 65.92 32.7 65.8 32.76 65.68 32.81 65.55 32.84 65.43 32.87 65.3 32.89 65.17 32.91 65.05 32.92 64.92 32.93 64.79 32.93 64.79 32.93 64.45 32.9 64.14 32.83 63.85 32.72 63.59 32.57 63.36 32.38 63.15 32.16 62.97 31.92 62.82 31.65 62.69 31.36 62.58 31.05 62.51 30.74 62.46 30.41 62.44 30.07 62.45 29.74 62.48 29.41 62.53 29.08 62.53 29.08 62.63 28.69 62.75 28.33 62.89 28 63.05 27.69 63.22 27.4 63.41 27.14 63.61 26.9 63.83 26.69 64.06 26.5 64.29 26.34 64.54 26.2 64.79 26.09 65.05 26 65.31 25.94 65.56 25.9 65.83 25.89 65.83 25.89 66.02 25.89 66.2 25.91 66.37 25.94 66.52 25.99 66.68 26.04 66.81 26.1 66.93 26.17 67.05 26.24 67.15 26.32 67.25 26.4 67.34 26.49 67.42 26.57 67.48 26.66 67.54 26.74 67.59 26.82 67.63 26.9 67.63 26.9 68.08 24.35 69.85 24.35 68.38 32.83"/><polygon class="cls-3" points="65.44 31.26 65.62 31.25 65.79 31.21 65.95 31.16 66.1 31.09 66.23 31.02 66.36 30.92 66.49 30.81 66.6 30.69 66.69 30.56 66.78 30.42 66.87 30.27 66.94 30.11 67 29.95 67.06 29.78 67.1 29.61 67.14 29.43 67.17 29.25 67.19 29.07 67.19 28.89 67.18 28.71 67.16 28.54 67.14 28.38 67.09 28.22 67.04 28.07 66.97 27.94 66.9 27.82 66.81 27.71 66.72 27.62 66.6 27.55 66.49 27.5 66.36 27.46 66.23 27.45 66.05 27.46 65.89 27.49 65.74 27.54 65.59 27.6 65.46 27.69 65.33 27.79 65.22 27.9 65.11 28.02 65.01 28.17 64.92 28.32 64.84 28.47 64.77 28.64 64.7 28.82 64.65 28.99 64.6 29.18 64.56 29.37 64.53 29.65 64.54 29.96 64.59 30.28 64.67 30.59 64.8 30.85 64.97 31.07 65.18 31.21 65.44 31.26"/><polygon class="cls-2" points="25.62 31.39 25.36 32.83 23.72 32.83 23.77 32.57 23.8 32.33 23.83 32.14 23.85 32.05 23.76 32.15 23.66 32.25 23.54 32.35 23.4 32.44 23.25 32.53 23.08 32.61 22.91 32.69 22.74 32.75 22.55 32.81 22.36 32.86 22.17 32.9 21.98 32.92 21.79 32.94 21.61 32.94 21.42 32.92 21.25 32.9 21.02 32.84 20.81 32.77 20.63 32.69 20.47 32.59 20.33 32.49 20.2 32.37 20.09 32.25 20 32.12 19.92 31.98 19.86 31.84 19.81 31.7 19.77 31.55 19.74 31.41 19.72 31.25 19.71 31.11 19.71 30.97 19.73 30.71 19.77 30.48 19.83 30.25 19.92 30.03 20.02 29.82 20.14 29.64 20.28 29.45 20.43 29.29 20.59 29.14 20.77 29 20.96 28.88 21.16 28.78 21.36 28.69 21.58 28.62 21.8 28.56 22.03 28.52 22.04 28.52 22.07 28.51 22.12 28.51 22.19 28.5 22.27 28.49 22.36 28.48 22.45 28.47 22.56 28.45 22.67 28.44 22.79 28.43 22.9 28.42 23 28.41 23.11 28.4 23.2 28.39 23.3 28.39 23.37 28.39 23.52 28.39 23.67 28.39 23.82 28.4 23.96 28.4 24.07 28.41 24.17 28.41 24.23 28.42 24.25 28.42 24.26 28.38 24.3 28.26 24.33 28.12 24.34 28 24.32 27.86 24.26 27.73 24.18 27.61 24.08 27.51 23.96 27.43 23.82 27.37 23.66 27.33 23.5 27.32 23.32 27.31 23.12 27.31 22.92 27.31 22.71 27.31 22.5 27.33 22.29 27.35 22.08 27.36 21.88 27.39 21.69 27.42 21.5 27.45 21.33 27.48 21.17 27.51 21.03 27.55 20.91 27.59 20.83 27.64 20.75 27.68 21.21 26.11 21.36 26.05 21.5 26 21.66 25.96 21.81 25.93 21.97 25.89 22.14 25.87 22.3 25.84 22.48 25.83 22.66 25.81 22.85 25.81 23.04 25.8 23.25 25.8 23.45 25.8 23.66 25.8 23.89 25.81 24.12 25.81 24.3 25.83 24.5 25.86 24.7 25.91 24.9 25.96 25.11 26.04 25.3 26.13 25.49 26.24 25.68 26.36 25.84 26.51 25.98 26.66 26.11 26.84 26.21 27.03 26.27 27.24 26.31 27.46 26.31 27.71 26.27 27.97 25.62 31.39"/><polyline class="cls-5" points="25.62 31.39 25.36 32.83 23.72 32.83 23.72 32.83 23.77 32.57 23.8 32.33 23.83 32.14 23.85 32.05 23.85 32.05 23.76 32.15 23.66 32.25 23.54 32.35 23.4 32.44 23.25 32.53 23.08 32.61 22.91 32.69 22.74 32.75 22.55 32.81 22.36 32.86 22.17 32.9 21.98 32.92 21.79 32.94 21.61 32.94 21.42 32.92 21.25 32.9 21.25 32.9 21.02 32.84 20.81 32.77 20.63 32.69 20.47 32.59 20.33 32.49 20.2 32.37 20.09 32.25 20 32.12 19.92 31.98 19.86 31.84 19.81 31.7 19.77 31.55 19.74 31.41 19.72 31.25 19.71 31.11 19.71 30.97 19.71 30.97 19.73 30.71 19.77 30.48 19.83 30.25 19.92 30.03 20.02 29.82 20.14 29.64 20.28 29.45 20.43 29.29 20.59 29.14 20.77 29 20.96 28.88 21.16 28.78 21.36 28.69 21.58 28.62 21.8 28.56 22.03 28.52 22.03 28.52 22.04 28.52 22.07 28.51 22.12 28.51 22.19 28.5 22.27 28.49 22.36 28.48 22.45 28.47 22.56 28.45 22.67 28.44 22.79 28.43 22.9 28.42 23 28.41 23.11 28.4 23.2 28.39 23.3 28.39 23.37 28.39 23.37 28.39 23.52 28.39 23.67 28.39 23.82 28.4 23.96 28.4 24.07 28.41 24.17 28.41 24.23 28.42 24.25 28.42 24.25 28.42 24.26 28.38 24.3 28.26 24.33 28.12 24.34 28 24.34 28 24.32 27.86 24.26 27.73 24.18 27.61 24.08 27.51 23.96 27.43 23.82 27.37 23.66 27.33 23.5 27.32 23.5 27.32 23.32 27.31 23.12 27.31 22.92 27.31 22.71 27.31 22.5 27.33 22.29 27.35 22.08 27.36 21.88 27.39 21.69 27.42 21.5 27.45 21.33 27.48 21.17 27.51 21.03 27.55 20.91 27.59 20.83 27.64 20.75 27.68 21.21 26.11 21.21 26.11 21.36 26.05 21.5 26 21.66 25.96 21.81 25.93 21.97 25.89 22.14 25.87 22.3 25.84 22.48 25.83 22.66 25.81 22.85 25.81 23.04 25.8 23.25 25.8 23.45 25.8 23.66 25.8 23.89 25.81 24.12 25.81 24.12 25.81 24.3 25.83 24.5 25.86 24.7 25.91 24.9 25.96 25.11 26.04 25.3 26.13 25.49 26.24 25.68 26.36 25.84 26.51 25.98 26.66 26.11 26.84 26.21 27.03 26.27 27.24 26.31 27.46 26.31 27.71 26.27 27.97 25.62 31.39"/><polygon class="cls-4" points="24.05 29.7 24.05 29.67 24.02 29.64 23.98 29.61 23.92 29.6 23.85 29.59 23.76 29.58 23.66 29.58 23.57 29.58 23.46 29.59 23.36 29.6 23.25 29.61 23.15 29.63 23.05 29.64 22.96 29.66 22.88 29.68 22.81 29.7 22.77 29.71 22.71 29.73 22.64 29.76 22.57 29.79 22.48 29.83 22.4 29.87 22.31 29.92 22.23 29.97 22.14 30.04 22.05 30.1 21.97 30.18 21.9 30.26 21.84 30.34 21.79 30.43 21.75 30.53 21.73 30.64 21.73 30.86 21.76 31.04 21.82 31.16 21.91 31.26 22.01 31.33 22.12 31.37 22.22 31.39 22.32 31.39 22.52 31.39 22.69 31.37 22.86 31.34 23.01 31.3 23.14 31.25 23.27 31.2 23.37 31.14 23.47 31.07 23.56 31 23.63 30.92 23.7 30.85 23.75 30.77 23.79 30.7 23.84 30.62 23.87 30.55 23.88 30.48 23.94 30.29 23.98 30.07 24.02 29.87 24.05 29.7"/><polygon class="cls-2" points="11.97 32.83 10.21 32.83 11.68 24.32 14.75 24.32 15.04 29.37 17.16 24.32 20.37 24.32 18.86 32.83 17.09 32.83 18.21 26.47 18.14 26.47 15.5 32.83 13.51 32.83 13.5 32.57 13.45 31.86 13.39 30.85 13.33 29.7 13.26 28.54 13.2 27.52 13.16 26.78 13.15 26.47 13.13 26.47 13.09 26.47 13.05 26.47 13.05 26.47 11.97 32.83"/><polyline class="cls-5" points="11.97 32.83 10.21 32.83 11.68 24.32 14.75 24.32 15.04 29.37 17.16 24.32 20.37 24.32 18.86 32.83 17.09 32.83 18.21 26.47 18.14 26.47 15.5 32.83 13.51 32.83 13.51 32.83 13.5 32.57 13.45 31.86 13.39 30.85 13.33 29.7 13.26 28.54 13.2 27.52 13.16 26.78 13.15 26.47 13.15 26.47 13.13 26.47 13.09 26.47 13.05 26.47 13.05 26.47 11.97 32.83"/><polygon class="cls-2" points="57.8 31.39 57.54 32.83 55.91 32.83 55.92 32.57 55.93 32.33 55.93 32.16 55.94 32.08 55.86 32.18 55.76 32.27 55.64 32.36 55.51 32.46 55.38 32.54 55.22 32.62 55.06 32.7 54.9 32.76 54.72 32.81 54.54 32.86 54.36 32.9 54.18 32.92 53.99 32.94 53.81 32.94 53.63 32.92 53.46 32.9 53.22 32.84 53.02 32.77 52.84 32.69 52.67 32.59 52.52 32.49 52.4 32.37 52.3 32.25 52.21 32.12 52.13 31.98 52.07 31.84 52.02 31.7 51.99 31.55 51.96 31.41 51.94 31.25 51.93 31.11 51.93 30.97 51.94 30.71 51.98 30.48 52.04 30.25 52.12 30.03 52.22 29.82 52.34 29.64 52.48 29.45 52.63 29.29 52.8 29.14 52.97 29 53.16 28.88 53.36 28.78 53.56 28.69 53.77 28.62 53.99 28.56 54.21 28.52 54.22 28.52 54.26 28.51 54.3 28.51 54.37 28.5 54.45 28.49 54.54 28.48 54.64 28.47 54.74 28.45 54.85 28.44 54.97 28.43 55.08 28.42 55.19 28.41 55.29 28.4 55.38 28.39 55.47 28.39 55.55 28.39 55.7 28.39 55.86 28.39 56.01 28.4 56.15 28.4 56.27 28.41 56.38 28.41 56.43 28.42 56.46 28.42 56.47 28.38 56.49 28.26 56.51 28.12 56.52 28 56.5 27.86 56.45 27.73 56.36 27.61 56.27 27.51 56.15 27.43 56.01 27.37 55.87 27.33 55.71 27.32 55.53 27.31 55.34 27.31 55.14 27.31 54.93 27.31 54.72 27.33 54.51 27.35 54.3 27.36 54.1 27.39 53.9 27.42 53.72 27.45 53.55 27.48 53.39 27.51 53.25 27.55 53.13 27.59 53.04 27.64 52.97 27.68 53.43 26.11 53.57 26.05 53.72 26 53.87 25.96 54.02 25.93 54.19 25.89 54.35 25.87 54.52 25.84 54.69 25.83 54.87 25.81 55.06 25.81 55.25 25.8 55.45 25.8 55.65 25.8 55.86 25.8 56.08 25.81 56.3 25.81 56.48 25.83 56.67 25.86 56.88 25.91 57.08 25.96 57.29 26.04 57.49 26.13 57.68 26.24 57.86 26.36 58.02 26.51 58.17 26.66 58.3 26.84 58.4 27.03 58.47 27.24 58.52 27.46 58.52 27.71 58.48 27.97 57.8 31.39"/><polygon class="cls-2" points="57.54 32.88 57.58 32.84 57.84 31.4 57.76 31.39 57.5 32.82 57.54 32.79 57.54 32.88 57.57 32.87 57.58 32.84 57.54 32.88"/><polygon class="cls-2" points="55.87 32.83 55.91 32.88 57.54 32.88 57.54 32.79 55.91 32.79 55.95 32.83 55.87 32.83 55.86 32.88 55.91 32.88 55.87 32.83"/><polygon class="cls-2" points="55.97 32.1 55.92 32.05 55.89 32.16 55.88 32.33 55.88 32.57 55.87 32.83 55.95 32.83 55.96 32.57 55.97 32.33 55.97 32.16 55.97 32.1 55.91 32.05 55.97 32.1"/><polygon class="cls-2" points="53.45 32.94 53.45 32.94 53.63 32.96 53.81 32.98 53.99 32.98 54.18 32.96 54.37 32.94 54.55 32.9 54.73 32.85 54.91 32.8 55.07 32.73 55.24 32.66 55.4 32.58 55.53 32.49 55.67 32.4 55.78 32.31 55.89 32.2 55.97 32.1 55.91 32.05 55.83 32.15 55.73 32.24 55.62 32.33 55.49 32.42 55.36 32.5 55.2 32.58 55.05 32.66 54.88 32.72 54.72 32.77 54.53 32.82 54.35 32.86 54.18 32.88 53.99 32.9 53.81 32.9 53.63 32.88 53.47 32.86 53.47 32.86 53.45 32.94"/><polygon class="cls-2" points="51.88 30.97 51.88 30.97 51.89 31.11 51.9 31.25 51.92 31.41 51.95 31.56 51.98 31.7 52.03 31.85 52.09 32 52.17 32.14 52.27 32.27 52.37 32.4 52.5 32.52 52.65 32.62 52.82 32.73 53.01 32.81 53.22 32.88 53.45 32.94 53.47 32.86 53.23 32.8 53.03 32.73 52.86 32.65 52.69 32.56 52.55 32.46 52.43 32.34 52.33 32.22 52.24 32.1 52.17 31.96 52.11 31.82 52.06 31.69 52.02 31.55 52 31.4 51.98 31.25 51.97 31.11 51.97 30.97 51.97 30.97 51.88 30.97"/><polygon class="cls-2" points="54.21 28.48 54.21 28.48 53.98 28.52 53.77 28.58 53.55 28.65 53.34 28.74 53.14 28.84 52.95 28.97 52.77 29.11 52.6 29.26 52.45 29.43 52.31 29.61 52.18 29.8 52.08 30.02 52 30.24 51.94 30.47 51.9 30.71 51.88 30.97 51.97 30.97 51.98 30.71 52.02 30.48 52.08 30.26 52.16 30.04 52.26 29.84 52.38 29.66 52.51 29.48 52.65 29.32 52.82 29.17 53 29.04 53.18 28.92 53.38 28.82 53.58 28.73 53.79 28.66 54 28.6 54.21 28.56 54.21 28.56 54.21 28.48"/><polygon class="cls-2" points="55.55 28.34 55.55 28.34 55.47 28.34 55.38 28.36 55.29 28.36 55.19 28.37 55.08 28.38 54.97 28.39 54.85 28.4 54.74 28.41 54.64 28.43 54.54 28.44 54.45 28.45 54.37 28.46 54.3 28.47 54.25 28.47 54.22 28.48 54.21 28.48 54.21 28.56 54.22 28.56 54.26 28.55 54.3 28.54 54.37 28.54 54.45 28.53 54.54 28.52 54.64 28.51 54.74 28.49 54.85 28.48 54.97 28.47 55.08 28.46 55.19 28.45 55.29 28.44 55.38 28.43 55.47 28.43 55.55 28.43 55.55 28.43 55.55 28.34"/><polygon class="cls-2" points="56.42 28.41 56.46 28.38 56.43 28.38 56.38 28.38 56.27 28.37 56.15 28.36 56.01 28.36 55.86 28.36 55.7 28.34 55.55 28.34 55.55 28.43 55.7 28.43 55.86 28.43 56.01 28.45 56.15 28.45 56.27 28.45 56.38 28.45 56.43 28.46 56.46 28.46 56.5 28.43 56.46 28.46 56.49 28.47 56.5 28.43 56.42 28.41"/><polygon class="cls-2" points="56.49 28 56.48 28 56.47 28.12 56.45 28.25 56.43 28.37 56.42 28.41 56.5 28.43 56.51 28.38 56.53 28.27 56.55 28.12 56.57 28 56.56 28 56.49 28"/><polygon class="cls-2" points="55.71 27.36 55.71 27.36 55.86 27.37 56 27.41 56.13 27.47 56.24 27.55 56.33 27.64 56.41 27.75 56.46 27.86 56.49 28 56.56 28 56.54 27.85 56.49 27.71 56.4 27.59 56.29 27.48 56.17 27.39 56.03 27.33 55.88 27.29 55.71 27.27 55.71 27.28 55.71 27.36"/><polygon class="cls-2" points="52.93 27.67 53 27.71 53.06 27.68 53.15 27.63 53.26 27.59 53.4 27.55 53.56 27.52 53.72 27.49 53.91 27.45 54.1 27.43 54.3 27.4 54.51 27.38 54.72 27.36 54.93 27.35 55.14 27.35 55.34 27.35 55.53 27.35 55.71 27.36 55.71 27.28 55.53 27.27 55.34 27.26 55.14 27.26 54.93 27.27 54.72 27.29 54.51 27.31 54.3 27.33 54.1 27.35 53.9 27.38 53.71 27.41 53.54 27.44 53.38 27.48 53.24 27.51 53.12 27.55 53.02 27.6 52.95 27.64 53.01 27.68 52.93 27.67"/><polygon class="cls-2" points="53.41 26.07 53.38 26.11 52.93 27.67 53.01 27.68 53.47 26.12 53.44 26.15 53.41 26.07 53.39 26.08 53.38 26.11 53.41 26.07"/><polygon class="cls-2" points="56.3 25.78 56.3 25.78 56.08 25.76 55.86 25.76 55.65 25.76 55.45 25.76 55.25 25.76 55.06 25.77 54.87 25.78 54.69 25.79 54.52 25.8 54.34 25.83 54.18 25.85 54.02 25.89 53.86 25.92 53.7 25.96 53.56 26.02 53.41 26.07 53.44 26.15 53.58 26.09 53.73 26.04 53.87 26 54.03 25.96 54.19 25.93 54.35 25.91 54.52 25.88 54.69 25.87 54.87 25.85 55.06 25.85 55.25 25.85 55.45 25.85 55.65 25.85 55.86 25.85 56.08 25.85 56.3 25.85 56.3 25.85 56.3 25.78"/><polygon class="cls-2" points="58.52 27.97 58.52 27.97 58.56 27.71 58.56 27.46 58.51 27.23 58.44 27.02 58.33 26.82 58.2 26.64 58.05 26.48 57.89 26.33 57.7 26.21 57.51 26.09 57.3 26 57.1 25.93 56.88 25.87 56.68 25.82 56.48 25.79 56.3 25.78 56.3 25.85 56.48 25.87 56.67 25.9 56.87 25.94 57.07 26 57.27 26.08 57.47 26.17 57.66 26.27 57.84 26.4 58 26.54 58.14 26.69 58.27 26.86 58.36 27.05 58.43 27.25 58.48 27.46 58.48 27.71 58.45 27.96 58.45 27.96 58.52 27.97"/><polygon class="cls-2" points="57.84 31.4 57.84 31.4 58.52 27.97 58.45 27.96 57.76 31.39 57.76 31.39 57.84 31.4"/><polygon class="cls-3" points="56.23 29.7 56.22 29.66 56.2 29.63 56.15 29.61 56.09 29.59 56.01 29.58 55.93 29.57 55.83 29.57 55.73 29.58 55.63 29.59 55.53 29.61 55.42 29.62 55.33 29.64 55.23 29.65 55.15 29.67 55.06 29.69 54.99 29.7 54.95 29.71 54.9 29.73 54.83 29.74 54.76 29.77 54.68 29.81 54.6 29.85 54.51 29.89 54.43 29.95 54.34 30.01 54.26 30.08 54.19 30.15 54.11 30.24 54.05 30.33 54.01 30.43 53.97 30.53 53.95 30.64 53.95 30.86 53.98 31.04 54.03 31.16 54.11 31.26 54.2 31.33 54.31 31.37 54.43 31.39 54.53 31.39 54.73 31.39 54.91 31.37 55.08 31.33 55.23 31.29 55.37 31.24 55.49 31.18 55.61 31.11 55.71 31.04 55.81 30.96 55.88 30.88 55.95 30.8 56.01 30.71 56.06 30.64 56.09 30.56 56.12 30.48 56.13 30.41 56.16 30.23 56.2 30.04 56.22 29.86 56.23 29.7"/><polygon class="cls-2" points="69.59 31.94 69.61 31.79 69.66 31.62 69.75 31.46 69.86 31.33 69.99 31.22 70.15 31.14 70.32 31.09 70.5 31.07 70.68 31.09 70.85 31.14 71.01 31.22 71.14 31.33 71.25 31.46 71.34 31.62 71.4 31.79 71.41 31.94 71.21 31.94 71.21 31.82 71.17 31.68 71.1 31.55 71.02 31.44 70.92 31.35 70.79 31.29 70.65 31.24 70.5 31.23 70.35 31.24 70.21 31.29 70.09 31.35 69.98 31.44 69.9 31.55 69.83 31.68 69.8 31.82 69.78 31.94 69.59 31.94"/><polygon class="cls-2" points="70.17 31.94 70.17 31.55 70.53 31.55 70.61 31.56 70.68 31.57 70.73 31.59 70.78 31.62 70.81 31.66 70.84 31.7 70.85 31.74 70.86 31.79 70.85 31.84 70.84 31.89 70.82 31.93 70.81 31.94 70.53 31.94 70.56 31.94 70.6 31.93 70.64 31.92 70.68 31.91 70.7 31.89 70.72 31.86 70.73 31.83 70.73 31.79 70.72 31.75 70.71 31.73 70.69 31.71 70.67 31.7 70.64 31.7 70.6 31.69 70.57 31.69 70.53 31.69 70.34 31.69 70.34 31.94 70.17 31.94"/><polygon class="cls-2" points="69.59 31.94 69.59 31.98 69.61 32.17 69.66 32.34 69.75 32.5 69.86 32.63 69.99 32.74 70.15 32.82 70.32 32.88 70.5 32.9 70.68 32.88 70.85 32.82 71.01 32.74 71.14 32.63 71.25 32.5 71.34 32.34 71.4 32.17 71.41 31.98 71.41 31.94 71.21 31.94 71.22 31.98 71.21 32.14 71.17 32.28 71.1 32.4 71.02 32.51 70.92 32.6 70.79 32.67 70.65 32.72 70.5 32.73 70.35 32.72 70.21 32.67 70.09 32.6 69.98 32.51 69.9 32.4 69.83 32.28 69.8 32.14 69.78 31.98 69.78 31.94 69.59 31.94"/><polygon class="cls-2" points="70.17 31.94 70.17 32.34 70.34 32.34 70.34 32.01 70.5 32.01 70.69 32.34 70.83 32.34 70.63 32.01 70.68 32.01 70.72 32 70.76 31.99 70.79 31.96 70.81 31.94 70.53 31.94 70.5 31.95 70.34 31.95 70.34 31.94 70.17 31.94"/><path class="cls-5" d="M69.59,32h0l0-.19,0-.17.09-.16.11-.13.14-.11.15-.08.17-.05.18,0h0l.18,0,.17.05.16.08.13.11.11.13.09.16.06.17,0,.19h0l0,.19-.06.17-.09.16-.11.13-.13.11-.16.08-.17.06-.18,0h0l-.18,0-.17-.06L70,32.74l-.14-.11-.11-.13-.09-.16,0-.17,0-.19m.75.36h-.17v-.79h.51l0,0,0,0,0,0,0,0,0,0v.05h0v.05l0,.05,0,0,0,0,0,0h-.13l.19.33h-.13L70.5,32h-.16v.33M70.5,32h.14l0,0,0,0,0,0v-.07h0v-.06h0l0,0h-.33V32h.16m0,.78h.15l.14,0,.13-.08.1-.09.08-.11.07-.12,0-.14V32h0v-.15l0-.15-.07-.12L71,31.44l-.1-.09-.13-.06-.14-.05h-.3l-.14.05-.12.06-.11.09-.08.12-.07.12,0,.15V32h0v.16l0,.14.07.12.08.11.11.09.12.08.14,0h.15"/><polygon class="cls-2" points="58.29 32.83 60.12 32.83 60.12 32.83 60.77 29.14 60.8 29 60.84 28.86 60.88 28.71 60.93 28.57 60.99 28.43 61.07 28.29 61.16 28.16 61.26 28.04 61.38 27.93 61.51 27.82 61.66 27.73 61.82 27.65 62.01 27.59 62.22 27.53 62.45 27.5 62.7 27.48 62.79 27.48 62.84 27.48 62.86 27.48 62.86 27.48 63.15 25.81 62.97 25.83 62.8 25.85 62.63 25.88 62.48 25.93 62.34 25.98 62.2 26.04 62.07 26.11 61.95 26.19 61.83 26.28 61.72 26.37 61.62 26.48 61.51 26.58 61.41 26.69 61.32 26.81 61.22 26.93 61.13 27.06 61.33 25.89 59.5 25.89 58.29 32.83"/><polyline class="cls-5" points="58.29 32.83 60.12 32.83 60.12 32.83 60.77 29.14 60.77 29.14 60.8 29 60.84 28.86 60.88 28.71 60.93 28.57 60.99 28.43 61.07 28.29 61.16 28.16 61.26 28.04 61.38 27.93 61.51 27.82 61.66 27.73 61.82 27.65 62.01 27.59 62.22 27.53 62.45 27.5 62.7 27.48 62.7 27.48 62.79 27.48 62.84 27.48 62.86 27.48 62.86 27.48 63.15 25.81 63.15 25.81 62.97 25.83 62.8 25.85 62.63 25.88 62.48 25.93 62.34 25.98 62.2 26.04 62.07 26.11 61.95 26.19 61.83 26.28 61.72 26.37 61.62 26.48 61.51 26.58 61.41 26.69 61.32 26.81 61.22 26.93 61.13 27.06 61.33 25.89 59.5 25.89 58.29 32.83 58.29 32.83"/><polygon class="cls-2" points="41.12 32.83 42.94 32.83 42.98 32.83 43.6 29.14 43.63 29 43.66 28.86 43.69 28.73 43.74 28.6 43.79 28.47 43.85 28.34 43.93 28.23 44.02 28.12 44.13 28.02 44.24 27.92 44.39 27.84 44.54 27.77 44.72 27.71 44.92 27.66 45.15 27.63 45.4 27.61 45.42 27.61 45.44 27.62 45.48 27.62 45.51 27.62 45.54 27.63 45.56 27.64 45.59 27.64 45.59 27.64 45.6 27.62 45.62 27.54 45.64 27.42 45.68 27.28 45.72 27.11 45.77 26.93 45.83 26.75 45.88 26.57 45.94 26.44 46 26.32 46.06 26.2 46.13 26.09 46.19 25.99 46.23 25.91 46.27 25.87 46.28 25.85 46.27 25.85 46.25 25.84 46.22 25.83 46.17 25.83 46.12 25.83 46.07 25.82 46.03 25.81 45.98 25.81 45.78 25.83 45.6 25.85 45.43 25.88 45.27 25.92 45.13 25.97 44.99 26.04 44.87 26.1 44.75 26.18 44.64 26.26 44.53 26.36 44.44 26.45 44.34 26.57 44.24 26.68 44.15 26.8 44.05 26.93 43.96 27.06 44.19 25.89 42.33 25.89 41.12 32.83"/><polyline class="cls-5" points="41.12 32.83 42.94 32.83 42.98 32.83 43.6 29.14 43.6 29.14 43.63 29 43.66 28.86 43.69 28.73 43.74 28.6 43.79 28.47 43.85 28.34 43.93 28.23 44.02 28.12 44.13 28.02 44.24 27.92 44.39 27.84 44.54 27.77 44.72 27.71 44.92 27.66 45.15 27.63 45.4 27.61 45.4 27.61 45.42 27.61 45.44 27.62 45.48 27.62 45.51 27.62 45.54 27.63 45.56 27.64 45.59 27.64 45.59 27.64 45.59 27.64 45.6 27.62 45.62 27.54 45.64 27.42 45.68 27.28 45.72 27.11 45.77 26.93 45.83 26.75 45.88 26.57 45.88 26.57 45.94 26.44 46 26.32 46.06 26.2 46.13 26.09 46.19 25.99 46.23 25.91 46.27 25.87 46.28 25.85 46.28 25.85 46.27 25.85 46.25 25.84 46.22 25.83 46.17 25.83 46.12 25.83 46.07 25.82 46.03 25.81 45.98 25.81 45.98 25.81 45.78 25.83 45.6 25.85 45.43 25.88 45.27 25.92 45.13 25.97 44.99 26.04 44.87 26.1 44.75 26.18 44.64 26.26 44.53 26.36 44.44 26.45 44.34 26.57 44.24 26.68 44.15 26.8 44.05 26.93 43.96 27.06 44.19 25.89 42.33 25.89 41.12 32.83 41.12 32.83"/><polygon class="cls-3" points="69.61 39.65 69.61 39.63 69.66 39.46 69.75 39.31 69.86 39.18 69.99 39.08 70.15 39 70.32 38.95 70.5 38.93 70.68 38.95 70.85 39 71.01 39.08 71.14 39.18 71.25 39.31 71.34 39.46 71.4 39.63 71.4 39.65 71.21 39.65 71.17 39.52 71.1 39.4 71.02 39.28 70.92 39.19 70.79 39.12 70.65 39.08 70.5 39.06 70.35 39.08 70.21 39.12 70.09 39.19 69.98 39.28 69.9 39.4 69.83 39.52 69.8 39.65 69.61 39.65"/><polygon class="cls-3" points="70.17 39.65 70.17 39.43 70.53 39.43 70.61 39.43 70.68 39.44 70.73 39.45 70.78 39.48 70.81 39.51 70.84 39.55 70.85 39.59 70.86 39.65 70.73 39.65 70.73 39.62 70.72 39.59 70.71 39.56 70.69 39.55 70.67 39.54 70.64 39.53 70.6 39.52 70.57 39.52 70.53 39.52 70.34 39.52 70.34 39.65 70.17 39.65"/><polygon class="cls-3" points="69.59 39.8 69.61 39.65 69.8 39.65 69.8 39.66 69.78 39.8 69.59 39.8"/><polygon class="cls-3" points="70.17 39.8 70.17 39.65 70.34 39.65 70.34 39.78 70.5 39.78 70.56 39.77 70.6 39.76 70.64 39.75 70.68 39.74 70.7 39.72 70.72 39.7 70.73 39.67 70.73 39.65 70.86 39.65 70.86 39.65 70.85 39.7 70.84 39.74 70.82 39.77 70.79 39.8 70.17 39.8"/><polygon class="cls-3" points="71.22 39.8 71.21 39.66 71.21 39.65 71.4 39.65 71.41 39.8 71.22 39.8"/><polygon class="cls-3" points="69.59 39.8 69.59 39.81 69.61 40 69.66 40.18 69.75 40.33 69.86 40.47 69.99 40.58 70.15 40.66 70.32 40.71 70.5 40.73 70.68 40.71 70.85 40.66 71.01 40.58 71.14 40.47 71.25 40.33 71.34 40.18 71.4 40 71.41 39.81 71.41 39.8 71.22 39.8 71.22 39.81 71.21 39.97 71.17 40.12 71.1 40.24 71.02 40.34 70.92 40.44 70.79 40.51 70.65 40.55 70.5 40.57 70.35 40.55 70.21 40.51 70.09 40.44 69.98 40.34 69.9 40.24 69.83 40.12 69.8 39.97 69.78 39.81 69.78 39.8 69.59 39.8"/><polygon class="cls-3" points="70.17 39.8 70.17 40.17 70.34 40.17 70.34 39.85 70.5 39.85 70.69 40.17 70.83 40.17 70.63 39.85 70.68 39.85 70.72 39.83 70.76 39.82 70.79 39.8 70.79 39.8 70.17 39.8"/><path class="cls-2" d="M41.32,28l0-.39-.09-.34-.13-.3-.17-.26-.19-.22-.21-.18-.24-.16L40,26l-.26-.1-.27-.06-.26,0-.27,0h-.25l-.53,0-.47.07-.42.12-.37.16-.33.2-.28.22-.25.24-.21.26-.18.28-.15.28-.12.28-.09.28-.07.27-.06.25,0,.24,0,.21,0,.53,0,.48.07.44.11.38.16.35.18.3.22.26.26.22.27.19.29.16.3.13.32.1.32.07.33,0,.32,0h1.36l.13,0,.11,0,.11,0,.11,0,.1,0,.1,0,.1,0,.1,0,.11-.06.1-.05.26-1.59-.19.11-.18.1-.19.08-.18.07L40,31.3l-.18,0-.18,0-.18,0h-.85l-.17,0-.16,0-.17,0-.13,0-.13-.05-.13-.05-.11-.07-.12-.08-.1-.1-.1-.1-.09-.11-.08-.11-.07-.12L37,30.39l0-.12,0-.13,0-.12v-.19h4.21l0-.4.1-.54,0-.5Zm-1.76.6H37.19l0-.09,0-.13,0-.13,0-.13.06-.12.06-.11.07-.1.08-.1.08-.09.09-.08.1-.07.09-.06.12,0,.11,0,.11,0,.11,0h.24l.11,0,.1,0,.11,0,.1.05.09.06.09.06.07.08.07.09.07.1,0,.11.05.12,0,.13v.46Z"/></g></g></svg>