<?xml version="1.0" encoding="utf-8"?>
<!-- Generator: Adobe Illustrator 22.1.0, SVG Export Plug-In . SVG Version: 6.00 Build 0)  -->
<svg version="1.1" id="Layer_1" xmlns="http://www.w3.org/2000/svg" xmlns:xlink="http://www.w3.org/1999/xlink" x="0px" y="0px"
	 viewBox="0 0 81 55" style="enable-background:new 0 0 81 55;" xml:space="preserve">
<style type="text/css">
	.st0{fill:url(#SVGID_1_);stroke:#B5B5B5;stroke-miterlimit:10;}
	.st1{fill:#009CDE;}
	.st2{fill:#003087;}
</style>
<title>paypal_Logo1</title>
<linearGradient id="SVGID_1_" gradientUnits="userSpaceOnUse" x1="40.5" y1="927.5" x2="40.5" y2="981.5" gradientTransform="matrix(1 0 0 1 0 -927)">
	<stop  offset="0" style="stop-color:#FFFFFF"/>
	<stop  offset="0.97" style="stop-color:#D9D9D9"/>
	<stop  offset="1" style="stop-color:#E2E9F1"/>
</linearGradient>
<path class="st0" d="M77.5,54.5h-74c-1.7,0-3-1.3-3-3v-48c0-1.7,1.3-3,3-3h74c1.7,0,3,1.3,3,3v48C80.5,53.2,79.2,54.5,77.5,54.5z"/>
<g>
	<path class="st1" d="M67.4,24.2c-0.8-0.4-2-0.7-3.7-0.7c-0.8,0-1.7,0.1-2.5,0.2c-0.6,0.1-0.7,0.1-1.1,0.2c-0.8,0.2-0.9,1-0.9,1
		l-0.3,1c-0.1,0.7,0.2,0.6,0.4,0.6c0.3-0.1,0.5-0.2,1.2-0.4c0.7-0.2,1.4-0.3,1.9-0.3c0.8,0,1.5,0.1,1.9,0.3c0.4,0.2,0.6,0.5,0.6,0.9
		c0,0.1,0,0.2,0,0.3c0,0.1-0.1,0.2-0.3,0.2c-1.2,0.1-2,0.2-3.1,0.3c-1,0.1-1.9,0.4-2.6,0.7c-0.8,0.3-1.4,0.8-1.8,1.4
		c-0.4,0.6-0.6,1.3-0.6,2.2c0,0.8,0.3,1.5,0.8,2c0.6,0.5,1.3,0.7,2.2,0.7c0.6,0,1,0,1.3-0.1c0.3-0.1,0.6-0.2,1-0.3
		c0.3-0.1,0.6-0.3,0.9-0.5c0.3-0.2,0.5-0.3,0.8-0.5l0,0l-0.1,0.3c0,0,0,0,0,0v0c-0.1,0.4,0.2,0.7,0.6,0.8l0,0h0l0,0
		c0.3,0,1.2,0,1.6,0H66c0,0,0,0,0,0c0.4,0,0.8-0.4,0.9-0.8l1.5-6.5c0-0.2,0.1-0.3,0.1-0.5c0-0.2,0-0.4,0-0.5
		C68.6,25.3,68.2,24.6,67.4,24.2z M63.7,32c-0.3,0.2-0.5,0.3-0.8,0.4c-0.4,0.2-0.7,0.2-1.1,0.2c-0.5,0-0.9-0.1-1.2-0.2
		c-0.3-0.1-0.4-0.4-0.4-0.8c0-0.4,0.1-0.8,0.3-1c0.2-0.2,0.5-0.4,0.9-0.6c0.4-0.1,0.8-0.2,1.4-0.3c0.5-0.1,1.4-0.2,1.5-0.2
		s0.2-0.1,0.1,0.3c0,0.1-0.3,1.2-0.4,1.8C64,31.7,63.8,31.9,63.7,32z"/>
	<path class="st2" d="M41.3,23.7c-0.4,0-1,0.4-1.3,0.8c0,0-3,5.1-3.3,5.6c-0.2,0.3-0.3,0.1-0.3,0c0-0.1-0.9-5.6-0.9-5.6
		c-0.1-0.4-0.6-0.8-1.1-0.8l-1.9,0c-0.4,0-0.7,0.4-0.6,0.8c0,0,1.4,8,1.7,9.9c0.1,1,0,1.2,0,1.2l-1.8,3.2c-0.3,0.4-0.1,0.8,0.3,0.8
		l2.1,0c0.4,0,1-0.4,1.3-0.8l8.3-14c0,0,0.8-1.2,0.1-1.2C43.3,23.7,41.3,23.7,41.3,23.7"/>
	<path class="st2" d="M15.2,26.5c-0.6,0.5-1.5,0.7-2.6,0.7h-0.5c-0.4,0-0.7-0.4-0.6-0.8l0.6-2.7c0.1-0.4,0.5-0.8,1-0.8l0.7,0
		c0.8,0,1.4,0.1,1.8,0.4c0.4,0.3,0.6,0.7,0.6,1.2C16.2,25.4,15.9,26.1,15.2,26.5 M19.7,22.4c-0.3-0.5-0.6-0.9-1.1-1.2
		c-0.5-0.3-1.1-0.5-1.8-0.7c-0.7-0.1-1.5-0.2-2.4-0.2l-4.3,0c-0.4,0-0.9,0.4-1,0.8L6.1,33.8c-0.1,0.4,0.2,0.8,0.6,0.8h2.1
		c0.4,0,0.9-0.3,1-0.8l0.7-3.1c0.1-0.4,0.5-0.8,1-0.8h0.6c2.5,0,4.5-0.5,5.9-1.6c1.4-1,2.1-2.4,2.1-4.1C20.1,23.5,20,22.9,19.7,22.4
		"/>
	<path class="st1" d="M52.9,26.6c-0.6,0.5-1.5,0.7-2.6,0.7h-0.5c-0.4,0-0.7-0.4-0.6-0.8l0.6-2.7c0.1-0.4,0.5-0.8,1-0.8l0.7,0
		c0.8,0,1.4,0.1,1.8,0.4c0.4,0.3,0.6,0.7,0.6,1.2C53.9,25.5,53.5,26.1,52.9,26.6 M57.4,22.4c-0.3-0.5-0.6-0.9-1.1-1.2
		c-0.5-0.3-1.1-0.5-1.8-0.7c-0.7-0.1-1.5-0.2-2.4-0.2h-4.3c-0.4,0-0.9,0.4-1,0.8l-2.9,12.7c-0.1,0.4,0.2,0.8,0.6,0.8l2.1,0
		c0.4,0,0.9-0.4,1-0.8l0.7-3.1c0.1-0.4,0.5-0.8,1-0.8h0.6c2.5,0,4.5-0.5,5.9-1.6c1.4-1,2.1-2.4,2.1-4.1
		C57.8,23.5,57.7,22.9,57.4,22.4"/>
	<path class="st2" d="M29.7,24.2c-0.8-0.4-2-0.7-3.7-0.7c-0.8,0-1.7,0.1-2.5,0.2c-0.6,0.1-0.7,0.1-1.1,0.2c-0.8,0.2-0.9,1-0.9,1
		l-0.3,1c-0.1,0.7,0.2,0.6,0.4,0.6c0.3-0.1,0.5-0.2,1.2-0.4c0.7-0.2,1.4-0.3,1.9-0.3c0.8,0,1.5,0.1,1.9,0.3c0.4,0.2,0.6,0.5,0.6,0.9
		c0,0.1,0,0.2,0,0.3c0,0.1-0.1,0.2-0.3,0.2c-1.2,0.1-2,0.2-3.1,0.3c-1,0.1-1.9,0.4-2.6,0.7C20.6,29,20,29.4,19.6,30
		c-0.4,0.6-0.6,1.3-0.6,2.2c0,0.8,0.3,1.5,0.8,2c0.6,0.5,1.3,0.8,2.2,0.8c0.6,0,1,0,1.3-0.1c0.3-0.1,0.6-0.2,1-0.3
		c0.3-0.1,0.6-0.3,0.9-0.5c0.3-0.2,0.5-0.3,0.8-0.5l0,0l-0.1,0.3c0,0,0,0,0,0l0,0c-0.1,0.4,0.2,0.7,0.6,0.8l0,0h0v0
		c0.3,0,1.2,0,1.6,0h0.3c0,0,0,0,0,0c0.4-0.1,0.8-0.4,0.9-0.8l1.5-6.5c0-0.2,0.1-0.3,0.1-0.5c0-0.2,0-0.4,0-0.5
		C30.9,25.3,30.5,24.6,29.7,24.2z M26.1,32c-0.3,0.2-0.5,0.3-0.8,0.4c-0.4,0.2-0.7,0.2-1.1,0.2c-0.5,0-0.9-0.1-1.2-0.2
		c-0.3-0.1-0.4-0.4-0.4-0.8c0-0.4,0.1-0.8,0.3-1c0.2-0.3,0.5-0.4,0.9-0.6c0.4-0.1,0.8-0.2,1.4-0.3c0.5-0.1,1.4-0.2,1.5-0.2
		c0.1,0,0.2-0.1,0.1,0.3c0,0.1-0.3,1.2-0.4,1.8C26.4,31.7,26.2,31.9,26.1,32z"/>
	<g>
		<g>
			<path class="st1" d="M74.6,20.4h-1.9h0h0c-0.4,0-0.8,0.3-1,0.7c0,0,0,0,0,0.1c0,0,0,0.2-0.1,0.5L69,33.3
				c-0.1,0.3-0.1,0.5-0.1,0.5l0,0c-0.1,0.4,0.2,0.7,0.5,0.8l0,0h1.9c0.4,0,0.8-0.3,1-0.7c0,0,0,0,0-0.1l2.8-12.6l0,0
				C75.3,20.8,75,20.4,74.6,20.4z"/>
		</g>
	</g>
</g>
</svg>
