<?xml version="1.0" encoding="utf-8"?>
<!-- Generator: Adobe Illustrator 22.1.0, SVG Export Plug-In . SVG Version: 6.00 Build 0)  -->
<svg version="1.1" id="Layer_1" xmlns="http://www.w3.org/2000/svg" xmlns:xlink="http://www.w3.org/1999/xlink" x="0px" y="0px"
	 viewBox="0 0 81 55" style="enable-background:new 0 0 81 55;" xml:space="preserve">
<style type="text/css">
	.st0{fill:url(#SVGID_1_);stroke:#B5B5B5;stroke-miterlimit:10;}
	.st1{fill:#0066B2;}
	.st2{fill:#F9A533;}
</style>
<title>visa_Logo1</title>
<linearGradient id="SVGID_1_" gradientUnits="userSpaceOnUse" x1="40.5" y1="113.3" x2="40.5" y2="59.3" gradientTransform="matrix(1 0 0 -1 0 113.8)">
	<stop  offset="0" style="stop-color:#FFFFFF"/>
	<stop  offset="0.97" style="stop-color:#D9D9D9"/>
	<stop  offset="1" style="stop-color:#E2E9F1"/>
</linearGradient>
<path class="st0" d="M77.5,54.5h-74c-1.7,0-3-1.3-3-3v-48c0-1.7,1.3-3,3-3h74c1.7,0,3,1.3,3,3v48C80.5,53.2,79.2,54.5,77.5,54.5z"/>
<g>
	<g>
		<polygon class="st1" points="35.9,38.3 30.3,38.3 33.8,16.8 39.4,16.8 		"/>
		<path class="st1" d="M25.6,16.8l-5.3,14.8l-0.6-3.2l0,0l-1.9-9.7c0,0-0.2-1.9-2.7-1.9H6.3l-0.1,0.4c0,0,2.7,0.6,5.9,2.5l4.9,18.7
			h5.8l8.9-21.5C31.7,16.8,25.6,16.8,25.6,16.8z"/>
		<path class="st1" d="M69.7,38.3h5.1l-4.5-21.5h-4.5c-2.1,0-2.6,1.6-2.6,1.6l-8.3,19.9h5.8l1.2-3.2H69L69.7,38.3z M63.5,30.7l2.9-8
			l1.7,8C68.1,30.7,63.5,30.7,63.5,30.7z"/>
		<path class="st1" d="M55.3,21.9l0.8-4.6c0,0-2.5-0.9-5-0.9c-2.8,0-9.4,1.2-9.4,7.1c0,5.6,7.7,5.6,7.7,8.5c0,2.9-6.9,2.4-9.2,0.6
			l-0.8,4.8c0,0,2.5,1.2,6.3,1.2c3.8,0,9.6-2,9.6-7.4c0-5.6-7.8-6.1-7.8-8.5C47.5,20.3,52.9,20.6,55.3,21.9z"/>
	</g>
	<path class="st2" d="M19.7,28.4l-1.9-9.7c0,0-0.2-1.9-2.7-1.9H6.3l-0.1,0.4c0,0,4.2,0.9,8.3,4.2C18.4,24.4,19.7,28.4,19.7,28.4z"/>
</g>
</svg>
