<svg xmlns="http://www.w3.org/2000/svg" xmlns:xlink="http://www.w3.org/1999/xlink" viewBox="0 0 49 33"><defs><style>.cls-1{stroke:#b5b5b5;stroke-miterlimit:10;fill:url(#Безымянный_градиент_2);}.cls-2{fill:url(#Безымянный_градиент_11);}.cls-3{fill:url(#Безымянный_градиент_11-2);}.cls-4{fill:url(#Безымянный_градиент_11-4);}.cls-5{fill:url(#Безымянный_градиент_11-5);}.cls-6{fill:url(#Безымянный_градиент_11-7);}</style><linearGradient id="Безымянный_градиент_2" x1="24.5" y1="915.5" x2="24.5" y2="947.5" gradientTransform="translate(0 -915)" gradientUnits="userSpaceOnUse"><stop offset="0" stop-color="#fff"/><stop offset="0.97" stop-color="#d9d9d9"/><stop offset="1" stop-color="#e2e9f1"/></linearGradient><radialGradient id="Безымянный_градиент_11" cx="8.64" cy="46.53" r="52.07" gradientTransform="matrix(1, 0, 0, -1, 0, 46)" gradientUnits="userSpaceOnUse"><stop offset="0" stop-color="#00b1e7"/><stop offset="0.43" stop-color="#0098cd"/><stop offset="0.52" stop-color="#008dbe"/><stop offset="0.84" stop-color="#006c91"/><stop offset="1" stop-color="#005f80"/></radialGradient><radialGradient id="Безымянный_градиент_11-2" cx="8.65" cy="41.73" r="52.06" gradientTransform="matrix(1, 0, 0, -1, 0, 34)" xlink:href="#Безымянный_градиент_11"/><radialGradient id="Безымянный_градиент_11-4" cx="8.64" cy="41.73" r="52.07" gradientTransform="matrix(1, 0, 0, -1, 0, 34)" xlink:href="#Безымянный_градиент_11"/><radialGradient id="Безымянный_градиент_11-5" cx="8.64" cy="41.73" r="52.06" gradientTransform="matrix(1, 0, 0, -1, 0, 34)" xlink:href="#Безымянный_градиент_11"/><radialGradient id="Безымянный_градиент_11-7" cx="8.65" cy="41.73" r="52.07" gradientTransform="matrix(1, 0, 0, -1, 0, 34)" xlink:href="#Безымянный_градиент_11"/></defs><title>Ресурс 1</title><g id="Слой_2" data-name="Слой 2"><g id="Слой_1-2" data-name="Слой 1"><path class="cls-1" d="M46.7,32.5H2.3A1.79,1.79,0,0,1,.5,30.72V2.28A1.79,1.79,0,0,1,2.3.5H46.7a1.79,1.79,0,0,1,1.8,1.78V30.72A1.79,1.79,0,0,1,46.7,32.5Z"/><path id="SVGID" class="cls-2" d="M25.16,14.82v-1a.86.86,0,0,0-.9-.78H22.94v1.86H21.62V9.6h3.24a1.48,1.48,0,0,1,1.67,1.25,1.63,1.63,0,0,1,0,.31,1.45,1.45,0,0,1-.78,1.26,1.29,1.29,0,0,1,.66,1.2v1.32l-1.26-.12m-2.22-3.06h1.38c.42,0,.72-.24.72-.48s-.36-.48-.72-.48H22.94v1h0"/><path id="SVGID-2" class="cls-3" d="M41,14.82l-2.1-3.54v3.54H36.2l-.48-1.08H33.26l-.48,1.08h-2a2.28,2.28,0,0,1-1.8-2.52c0-2.94,2-2.82,2.1-2.82l1.68.06v1.2H31.34s-.9,0-1,1.14v.36c0,1.8,1.56,1.26,1.62,1.2l1.68-4h1.86l2,4.8V9.48h1.92L41.54,13V9.48h1.38v5.28H41m-7.14-2.4h1.32l-.66-1.56-.66,1.56h0"/><path id="SVGID-3" class="cls-3" d="M14.6,14.82V11.16l-1.68,3.66H11.84l-1.68-3.66v3.66H7.46L7,13.74H4.58L4.1,14.82H2.66L4.88,9.54H6.74l2,4.86V9.54h2.1l1.5,3.3,1.44-3.3h2.1v5.28H14.6M5.18,12.36H6.5L5.78,10.8l-.6,1.56h0"/><polyline id="SVGID-4" class="cls-4" points="16.7 14.82 16.7 9.54 20.9 9.54 20.9 10.8 18.08 10.8 18.08 11.58 20.84 11.58 20.84 12.78 18.08 12.78 18.08 13.68 20.9 13.68 20.9 14.82 16.7 14.82"/><polyline id="SVGID-5" class="cls-5" points="27.14 14.88 27.14 9.54 28.46 9.54 28.46 14.88 27.14 14.88"/><path id="SVGID-6" class="cls-5" d="M30.32,23.82v-1a.86.86,0,0,0-.9-.78H28.1v1.86H26.78V18.6H30a1.48,1.48,0,0,1,1.67,1.25,1.63,1.63,0,0,1,0,.31,1.45,1.45,0,0,1-.78,1.26,1.29,1.29,0,0,1,.66,1.2v1.32l-1.26-.12M28.1,20.76h1.38c.42,0,.72-.24.72-.48s-.36-.48-.72-.48H28.1v1h0"/><path id="SVGID-7" class="cls-6" d="M21.38,23.82h-1.2L18.8,22.26l-1.44,1.56h-5V18.54h4.92l1.56,1.68,1.56-1.68h4.26a1.48,1.48,0,0,1,1.67,1.25,1.63,1.63,0,0,1,0,.31c0,1.56-.54,2-2.28,2H22.7v1.68H21.38M19.7,21.18,21.38,23V19.38l-1.68,1.8h0m-6,1.5h2.82l1.32-1.44L16.52,19.8H13.7v.84h2.76v1.2H13.7v.84h0m9-2h1.38c.42,0,.72-.24.72-.48s-.36-.48-.72-.48H22.7v1h0"/><path id="SVGID-8" class="cls-3" d="M39.5,23.82H37.1v-1.2h2.1s.78.06.78-.42-1.14-.42-1.14-.42S37,22,37,20.22a1.53,1.53,0,0,1,1.44-1.62,1,1,0,0,1,.24,0h2.58v1.26h-2.1s-.72-.12-.72.36,1,.36,1,.36,2-.18,2,1.44a1.71,1.71,0,0,1-1.52,1.86,2.61,2.61,0,0,1-.28,0,.17.17,0,0,0-.12-.06"/><polyline id="SVGID-9" class="cls-5" points="32.3 23.82 32.3 18.54 36.5 18.54 36.5 19.74 33.62 19.74 33.62 20.58 36.38 20.58 36.38 21.78 33.62 21.78 33.62 22.68 36.5 22.68 36.5 23.82 32.3 23.82"/><path id="SVGID-10" class="cls-3" d="M44.18,23.82h-2.4v-1.2h2.1s.78.06.78-.42-1.14-.42-1.14-.42-1.86.18-1.86-1.56A1.53,1.53,0,0,1,43.1,18.6a1,1,0,0,1,.24,0h2.58v1.26h-2s-.72-.12-.72.36,1,.36,1,.36,2-.18,2,1.44a1.71,1.71,0,0,1-1.52,1.86,2.61,2.61,0,0,1-.28,0,.3.3,0,0,0-.18-.06"/></g></g></svg>