<svg xmlns="http://www.w3.org/2000/svg" xmlns:xlink="http://www.w3.org/1999/xlink" viewBox="0 0 49 33"><defs><style>.cls-1{stroke:#b5b5b5;stroke-miterlimit:10;fill:url(#Безымянный_градиент_2);}.cls-2{fill:#005eb6;}.cls-3{fill:#0099df;}.cls-4{fill:#559fdb;}.cls-5{fill:#fff;}</style><linearGradient id="Безымянный_градиент_2" x1="24.5" y1="904.5" x2="24.5" y2="936.5" gradientTransform="translate(0 -904)" gradientUnits="userSpaceOnUse"><stop offset="0" stop-color="#fff"/><stop offset="0.97" stop-color="#d9d9d9"/><stop offset="1" stop-color="#e2e9f1"/></linearGradient></defs><title>Ресурс 2</title><g id="Слой_2" data-name="Слой 2"><g id="Слой_1-2" data-name="Слой 1"><path class="cls-1" d="M46.7,32.5H2.3A1.79,1.79,0,0,1,.5,30.72V2.28A1.79,1.79,0,0,1,2.3.5H46.7a1.79,1.79,0,0,1,1.8,1.78V30.72A1.79,1.79,0,0,1,46.7,32.5Z"/><circle class="cls-2" cx="16.78" cy="16.76" r="11.49"/><path class="cls-3" d="M32.21,5.27a11.41,11.41,0,0,0-7.71,3,10.11,10.11,0,0,0-1.16,1.2h2.32a10.18,10.18,0,0,1,.87,1.2H22.46q-.36.59-.66,1.2h5.4c.18.39.34.8.49,1.2H21.31c-.13.39-.24.8-.33,1.2h7a11.66,11.66,0,0,1,.26,2.43,11.35,11.35,0,0,1-.6,3.65H21.31c.15.41.31.81.49,1.2h5.4q-.3.61-.66,1.2H22.47a10.18,10.18,0,0,0,.87,1.2h2.32a10.11,10.11,0,0,1-1.16,1.2A11.49,11.49,0,1,0,32.21,5.27Z"/><path class="cls-4" d="M42.2,23.17a.38.38,0,0,1,.37-.38h0a.38.38,0,0,1,.42.33.37.37,0,0,1-.32.41h-.1a.36.36,0,0,1-.37-.36Zm.37.28a.29.29,0,0,0,0-.57.29.29,0,0,0,0,.57Zm0-.12h-.07V23h.22a.13.13,0,0,1,0,.09.08.08,0,0,1-.06.08l.06.15h-.08l-.05-.13h-.06v.13Zm0-.19h.09v-.07h-.09Z"/><path class="cls-5" d="M35.37,18.92a.29.29,0,1,1,.58,0,.29.29,0,1,1-.58,0Zm.29.22a.23.23,0,0,0,.23-.23.23.23,0,0,0-.46,0h0A.24.24,0,0,0,35.66,19.14ZM35.6,19h-.06v-.25h.18a.07.07,0,0,1,0,.06.08.08,0,0,1,0,.07l0,.11h-.08l0-.1h0Zm0-.14h.07v0H35.6Z"/><path class="cls-5" d="M17.92,14.48c-.08.36-.13.56-.24,1a2.56,2.56,0,0,0-2.32,0,1.86,1.86,0,0,0-.85,1.83,1.11,1.11,0,0,0,.69.85,2.33,2.33,0,0,0,2-.2c-.1.44-.17.79-.26,1.11a4.06,4.06,0,0,1-2.44,0,2,2,0,0,1-1.39-1.65,2.71,2.71,0,0,1,1.53-2.84A5,5,0,0,1,17.92,14.48Z"/><path class="cls-5" d="M29.6,18.6a2,2,0,0,1-1.6.7c-.91,0-1.5-.68-1.2-2.2l.38-1.8h1.41l-.39,1.8c-.12.6-.09,1.07.52,1.07s1-.43,1.09-1.07l.38-1.8h1.4L31,18.18c-.08.34-.14.68-.19,1H29.51S29.6,18.73,29.6,18.6Z"/><path class="cls-5" d="M32.1,16.53c0,.5.32.84,1.06,1.09s.67.26.67.43-.26.36-.81.36a5.36,5.36,0,0,1-1.26-.15l-.2.9a9.11,9.11,0,0,0,1.47.12c1.48,0,2.17-.42,2.17-1.32,0-.53-.29-.84-1-1.09s-.66-.24-.66-.42.23-.32.69-.32a6.17,6.17,0,0,1,1,.06l.2-.91a10.19,10.19,0,0,0-1.24-.08C32.64,15.2,32.09,15.81,32.1,16.53Z"/><polygon class="cls-5" points="18.51 15.29 19.92 15.29 19.08 19.21 17.68 19.21 18.51 15.29"/><path class="cls-5" d="M26.83,15.27a1.61,1.61,0,0,0-1.61.6,2.47,2.47,0,0,0,.08-.6H24c-.18,1.2-.51,2.45-.76,3.66l-.07.27h1.46a11.84,11.84,0,0,1,.6-2.36.94.94,0,0,1,1.13-.48Z"/><path class="cls-5" d="M23.63,15.27a1.61,1.61,0,0,0-1.61.6,3.11,3.11,0,0,0,.09-.6H20.82c-.18,1.2-.51,2.45-.77,3.66L20,19.2h1.46a11.84,11.84,0,0,1,.6-2.36.94.94,0,0,1,1.13-.48Z"/></g></g></svg>