<svg xmlns="http://www.w3.org/2000/svg" xmlns:xlink="http://www.w3.org/1999/xlink" viewBox="0 0 49 33"><defs><style>.cls-1{stroke:#b5b5b5;stroke-miterlimit:10;fill:url(#Безымянный_градиент_3);}.cls-2{fill:#e0761e;}.cls-3{fill:url(#Безымянный_градиент_2);}.cls-4{fill:#00000b;}.cls-5{fill:#201600;}</style><linearGradient id="Безымянный_градиент_3" x1="24.47" y1="157.68" x2="24.47" y2="189.68" gradientTransform="translate(0.03 -157.18)" gradientUnits="userSpaceOnUse"><stop offset="0" stop-color="#fff"/><stop offset="0.97" stop-color="#d9d9d9"/><stop offset="1" stop-color="#e2e9f1"/></linearGradient><radialGradient id="Безымянный_градиент_2" cx="23.86" cy="-495.56" r="4.16" gradientTransform="translate(4.43 449.16) scale(0.89 0.88)" gradientUnits="userSpaceOnUse"><stop offset="0" stop-color="#f0f0f0"/><stop offset="1" stop-color="#ff8330"/></radialGradient></defs><title>Ресурс 3</title><g id="Слой_2" data-name="Слой 2"><g id="Слой_1-2" data-name="Слой 1"><path class="cls-1" d="M46.7,32.5H2.3A1.79,1.79,0,0,1,.5,30.72V2.28A1.79,1.79,0,0,1,2.3.5H46.7a1.79,1.79,0,0,1,1.8,1.78V30.72A1.79,1.79,0,0,1,46.7,32.5Z"/><path class="cls-2" d="M46.46,32.2H14.12c14.52,0,34.14-11.43,34.14-16.29V30.37A1.84,1.84,0,0,1,46.46,32.2Z"/><path class="cls-3" d="M25.65,10.51a3.62,3.62,0,1,0,3.72,3.62,3.58,3.58,0,0,0-3.54-3.62Z"/><path class="cls-4" d="M4.35,10.63h-2v6.94h2a3.55,3.55,0,0,0,3.78-3.5A3.48,3.48,0,0,0,4.35,10.63ZM6,15.85a2.79,2.79,0,0,1-1.86.53H3.69V11.82h.36a2.68,2.68,0,0,1,1.86.53,2.28,2.28,0,0,1,.78,1.72A2.2,2.2,0,0,1,6,15.85Z"/><rect class="cls-4" x="8.79" y="10.63" width="1.38" height="6.93"/><path class="cls-4" d="M13.47,13.3c-.84-.3-1.08-.47-1.08-.89s.42-.77,1-.77a1.48,1.48,0,0,1,1.08.53l.71-.94a3,3,0,0,0-2-.77A2,2,0,0,0,11,12.35a.49.49,0,0,0,0,.12c0,.95.42,1.42,1.74,1.9a3,3,0,0,1,1,.41.77.77,0,0,1,.42.71,1.06,1.06,0,0,1-1.08,1,1.55,1.55,0,0,1-1.5-.95l-.9.83A2.83,2.83,0,0,0,13,17.69a2.24,2.24,0,0,0,2.39-2.05,1.48,1.48,0,0,0,0-.21C15.51,14.37,15,13.83,13.47,13.3Z"/><path class="cls-4" d="M15.93,14.07a3.63,3.63,0,0,0,3.64,3.62h.08a4,4,0,0,0,1.74-.42v-1.6a2.2,2.2,0,0,1-1.68.77,2.27,2.27,0,0,1-2.34-2.2v-.17a2.34,2.34,0,0,1,2.28-2.37,2.44,2.44,0,0,1,1.74.77v-1.6a3.37,3.37,0,0,0-1.68-.41A3.68,3.68,0,0,0,15.93,14Z"/><polygon class="cls-4" points="32.49 15.26 30.63 10.63 29.13 10.63 32.07 17.74 32.85 17.74 35.85 10.63 34.35 10.63 32.49 15.26"/><polygon class="cls-4" points="36.51 17.57 40.35 17.57 40.35 16.38 37.83 16.38 37.83 14.48 40.29 14.48 40.29 13.36 37.83 13.36 37.83 11.82 40.35 11.82 40.35 10.63 36.51 10.63 36.51 17.57"/><path class="cls-4" d="M45.8,12.65c0-1.31-.9-2.08-2.46-2.08h-2v6.94h1.38V14.72h.18l1.92,2.79h1.68L44.24,14.6A1.84,1.84,0,0,0,45.8,12.65ZM43,13.83h-.42V11.76H43c.84,0,1.32.35,1.32,1s-.41,1.06-1.31,1.06Z"/><path class="cls-5" d="M46.77,11.11c0-.12-.06-.18-.24-.18h-.18v.59h.12v-.23l.18.23h.18l-.18-.23C46.71,11.29,46.77,11.23,46.77,11.11Zm-.24.12h0v-.18h0c.06,0,.12,0,.12.06A.13.13,0,0,1,46.53,11.23Z"/><path class="cls-5" d="M46.59,10.69a.54.54,0,1,0,.54.54.54.54,0,0,0-.54-.54Zm0,1a.42.42,0,1,1,.42-.41h0A.5.5,0,0,1,46.59,11.7Z"/><path d="M16,23.07h-.42l-1.65-2.5v2.5h-.37V19.94H14l1.65,2.5v-2.5H16v3.13Z"/><path d="M19.11,23.07h-2.4V19.94h2.34v.38H17.14v.93h1.8v.38h-1.8v1.09h2Z"/><path d="M22,20.26h-1V23H20.5V20.26H19.4v-.37h2.53Z"/><path d="M26.26,19.89,25.4,23H25l-.76-2.76L23.47,23H23.1l-.89-3.13h.44l.64,2.57L24,19.89h.51l.69,2.57.64-2.57Z"/><path d="M28,19.82a1.36,1.36,0,0,1,1.08.44,1.81,1.81,0,0,1,0,2.37,1.53,1.53,0,0,1-2.15,0h0a1.78,1.78,0,0,1-.44-1.18A1.56,1.56,0,0,1,27,20.26,1.43,1.43,0,0,1,28,19.82Zm0,3a1.09,1.09,0,0,0,.77-.31,1.56,1.56,0,0,0,0-1.88.92.92,0,0,0-.77-.37,1,1,0,0,0-.76.31,1.55,1.55,0,0,0,0,1.87.88.88,0,0,0,.76.35Z"/><path d="M32.79,23.07h-.45l-.3-.8a1.39,1.39,0,0,0-.25-.38.54.54,0,0,0-.44-.12h-.77v1.37h-.44V20h1.4a1.94,1.94,0,0,1,.63.07.62.62,0,0,1,.38.31.73.73,0,0,1,.13.5,1,1,0,0,1-.19.59,1,1,0,0,1-.51.32h0a.77.77,0,0,1,.51.55Zm-2.22-1.75h.94a1.35,1.35,0,0,0,.6-.13.5.5,0,0,0,.2-.44.6.6,0,0,0-.6-.59H30.57Z"/><path d="M36,23.07h-.57L34.24,21.5l-.51.51v1.06h-.42V19.94h.44v1.5l1.59-1.56h.57l-1.34,1.31Z"/></g></g></svg>