<svg id="Layer_1" data-name="Layer 1" xmlns="http://www.w3.org/2000/svg" xmlns:xlink="http://www.w3.org/1999/xlink" viewBox="0 0 81 55">
  <defs>
    <style>
      .cls-1 {
        stroke: #00264f;
        stroke-miterlimit: 10;
        fill: url(#Безымянный_градиент);
      }

      .cls-2 {
        fill: #0066cb;
      }

      .cls-3 {
        fill: none;
        stroke: #0066cb;
        stroke-width: 0.31px;
      }

      .cls-4 {
        fill: #cc0001;
      }

      .cls-5 {
        fill: #231f20;
      }

      .cls-6 {
        fill: #fff;
      }
    </style>
    <linearGradient id="Безымянный_градиент" data-name="Безымянный градиент" x1="43" y1="-40.9" x2="43" y2="13.1" gradientTransform="translate(-2.5 41.4)" gradientUnits="userSpaceOnUse">
      <stop offset="0" stop-color="#0259aa"/>
      <stop offset="1" stop-color="#013c86"/>
    </linearGradient>
  </defs>
  <title>maestro</title>
  <path class="cls-1" d="M77.5,54.5H3.5a3,3,0,0,1-3-3V3.5a3,3,0,0,1,3-3h74a3,3,0,0,1,3,3v48A3,3,0,0,1,77.5,54.5Z"/>
  <g id="layer1">
    <path id="path618" class="cls-2" d="M41,41.02a17.69,17.69,0,0,0,1.21193-24.98807Q41.63569,15.39695,41,14.82a17.7,17.7,0,1,0,0,26.2"/>
    <path id="path620" class="cls-2" d="M41,41.02a17.69,17.69,0,0,0,1.21193-24.98807Q41.63569,15.39695,41,14.82"/>
    <path id="path622" class="cls-3" d="M41,41.02a17.69,17.69,0,0,0,1.21193-24.98807Q41.63569,15.39695,41,14.82"/>
    <path id="path624" class="cls-4" d="M52.9,10.22A17.32,17.32,0,0,0,41,14.82c-0.6.6-1.2,1.2-1.8,1.9h3.6a12.72987,12.72987,0,0,1,1.3,1.9H37.8a11.39992,11.39992,0,0,0-1,1.9h8.3a10.66012,10.66012,0,0,1,.7,1.9H36a10.55015,10.55015,0,0,0-.5,1.9H46.4a15.53005,15.53005,0,0,1,.4,3.7,16.86,16.86,0,0,1-.9,5.6H36.1a14.58007,14.58007,0,0,0,.7,1.9h8.3a17.37972,17.37972,0,0,1-1,1.9H37.8c0.4,0.7.9,1.3,1.3,1.9h3.6c-0.6.7-1.2,1.3-1.8,1.9a17.76,17.76,0,1,0,12-31"/>
    <path id="path626" class="cls-5" d="M68.7,37.72h0.1a0.1,0.1,0,0,0,.1-0.1l-0.1-.1H68.6v0.2h0.1Zm0,0.3H68.6v-0.5h0.3l0.1,0.1c0,0.1,0,.1-0.1.1l0.1,0.2H68.9l-0.1-.2H68.7v0.3h0Zm0.1,0.2a0.4,0.4,0,1,0-.4-0.4A0.37,0.37,0,0,0,68.8,38.22Zm-0.6-.4a0.6,0.6,0,1,1,.6.6h0a0.74,0.74,0,0,1-.6-0.6"/>
    <path id="path628" class="cls-5" d="M26.3,32.82H24.1l1.3-6.9-3,6.9H20.6l-0.4-6.9-1.5,6.9h-2l1.7-9h3.5L22,29.4l2.4-5.6h3.7l-1.8,9"/>
    <path id="path630" class="cls-5" d="M51,32.72a4.68,4.68,0,0,1-1.6.2,1.5,1.5,0,0,1-1.7-1.6,2.00005,2.00005,0,0,1,.1-0.7l0.1-.7,0.1-.6,1-5.6h2.2L50.9,25.4H52l-0.3,1.8H50.6l-0.6,3v0.3c0,0.4.2,0.5,0.7,0.5a1.08,1.08,0,0,0,.6-0.1L51,32.7"/>
    <path id="path632" class="cls-5" d="M42.2,27.82a2.07,2.07,0,0,0,1.7,2c0.9,0.4,1.1.5,1.1,0.8,0,0.5-.4.7-1.3,0.7a6.93,6.93,0,0,1-2-.3l-0.3,1.7h0.1l0.4,0.1a1.76,1.76,0,0,1,.6.1c0.5,0,.9.1,1.2,0.1,2.3,0,3.4-.8,3.4-2.4a1.9,1.9,0,0,0-1.6-2c-0.9-.4-1.1-0.4-1.1-0.8s0.4-.6,1.1-0.6a9.15,9.15,0,0,1,1.6.1l0.3-1.7a12.74988,12.74988,0,0,0-1.9-.1c-2.4-.1-3.3,1-3.3,2.3"/>
    <path id="path634" class="cls-5" d="M32,29.62H31.5c-1.2,0-1.9.4-1.9,1.1a0.67,0.67,0,0,0,.8.7,1.76,1.76,0,0,0,1.6-1.8h0Zm1.5,3.2H31.7l0.1-.8a3,3,0,0,1-2.3.9,1.89,1.89,0,0,1-2-2c0-1.8,1.4-2.8,3.9-2.8a2.77,2.77,0,0,1,.9.1,0.9,0.9,0,0,0,.1-0.5c0-.5-0.4-0.7-1.4-0.7a9.9,9.9,0,0,0-1.8.2l-0.3.1H28.7l0.3-1.6a9.15,9.15,0,0,1,2.6-.4c1.9,0,2.9.7,2.9,2.1a4.5,4.5,0,0,1-.2,1.4L33.9,31.4l-0.1.5-0.1.4-0.1.3-0.1.2"/>
    <path id="path636" class="cls-5" d="M39.6,28.32v-0.4a0.91,0.91,0,0,0-1.1-.9,1.48,1.48,0,0,0-1.4,1.3h2.5Zm1.1,4.4a9.07993,9.07993,0,0,1-2.3.3c-2.5,0-3.7-1.1-3.7-3.3,0-2.5,1.6-4.4,3.8-4.4,1.8,0,3,1,3,2.7a6.72,6.72,0,0,1-.3,1.8H36.8v0.2c0,0.8.7,1.3,1.9,1.3a4.79,4.79,0,0,0,2.3-.5l-0.3,1.9"/>
    <path id="path638" class="cls-5" d="M62,28.62a1.25,1.25,0,0,0-1.2-1.5c-1.1,0-1.8,1.3-1.8,2.5,0,1,.5,1.7,1.3,1.6A2.23,2.23,0,0,0,62,29.4V28.62Zm2.2,0.9c-0.3,2.4-2,3.5-4.3,3.5-2.5,0-3.5-1.5-3.5-3.4a4,4,0,0,1,4.3-4.3,3.16,3.16,0,0,1,3.5,3.3,1.38,1.38,0,0,1,0,.9"/>
    <path id="path640" class="cls-6" d="M65,31.72h0.1v-0.1H64.9v0.1H65Zm0,0.3H64.9v-0.5h0.3l0.1,0.1c0,0.1,0,.1-0.1.1l0.1,0.2H65.2l-0.1-.2H65v0.3h0Zm0,0.2a0.4,0.4,0,1,0-.4-0.4A0.43,0.43,0,0,0,65,32.22Zm-0.5-.5a0.6,0.6,0,1,1,.6.6h0a0.58,0.58,0,0,1-.6-0.55929q-0.00071-.02035,0-0.04071"/>
    <path id="path642" class="cls-6" d="M26.9,32.32H24.7L26,25.4l-3,6.9H21l-0.4-6.9-1.3,6.9h-2l1.7-9h3.4l0.2,5.6L25,23.3h3.6l-1.7,9"/>
    <path id="path644" class="cls-6" d="M51.5,32.22a4.68,4.68,0,0,1-1.6.2,1.5,1.5,0,0,1-1.7-1.6,2.00005,2.00005,0,0,1,.1-0.7l0.1-.7,0.1-.6,1-5.6h2.2l-0.3,1.7h1.1l-0.3,1.8H51.1l-0.6,3v0.3c0,0.4.2,0.5,0.8,0.5a1.27,1.27,0,0,0,.6-0.1l-0.4,1.8"/>
    <path id="path646" class="cls-5" d="M57.2,27.12l-0.1-.2,0.4-1.1H56.9a2.3,2.3,0,0,0-1.9,1.2l0.2-1.3H52.9l-1.3,7.3h2.2c0.3-1.7.4-2.6,0.6-3.4a2,2,0,0,1,2-1.8,0.2,0.2,0,0,1,.2.1h0.1l0.5-.8"/>
    <path id="path648" class="cls-6" d="M57.9,25.12l-0.2-.1H57.3a2.3,2.3,0,0,0-1.9,1.2l0.2-1.1h-2L52.3,32.4h2.2c0.8-4.5,1.1-5.2,2.2-5.2H57l0.3,0.1,0.6-2.2"/>
    <path id="path650" class="cls-6" d="M42.8,27.32a2.07,2.07,0,0,0,1.7,2c0.9,0.4,1,.5,1,0.8,0,0.5-.4.7-1.3,0.7a6.93,6.93,0,0,1-2-.3l-0.3,1.7H42l0.4,0.1a1.76,1.76,0,0,1,.6.1c0.5,0,.9.1,1.2,0.1,2.4,0,3.4-.8,3.4-2.4a1.9,1.9,0,0,0-1.6-2c-0.9-.4-1-0.5-1-0.8a0.93394,0.93394,0,0,1,1.1-.6,9.74,9.74,0,0,1,1.6.1l0.3-1.7a13.41,13.41,0,0,0-2-.1c-2.4-.2-3.2,1-3.2,2.3"/>
    <path id="path652" class="cls-6" d="M32.4,29.12H31.9c-1.2,0-1.9.4-1.9,1.1a0.67,0.67,0,0,0,.8.7,1.63,1.63,0,0,0,1.60876-1.651Q32.4078,29.19436,32.4,29.12h0Zm1.6,3.2H32.2l0.1-.8a3,3,0,0,1-2.3.9,1.89,1.89,0,0,1-2-2c0-1.8,1.4-2.8,3.9-2.8a3.09,3.09,0,0,1,.9.1,0.9,0.9,0,0,0,.1-0.5c0-.5-0.4-0.7-1.4-0.7a9.9,9.9,0,0,0-1.8.2l-0.3.1H29.2l0.3-1.6a9.15,9.15,0,0,1,2.6-.4c1.9,0,2.9.7,2.9,2.1a4.5,4.5,0,0,1-.2,1.4l-0.5,2.6-0.1.5-0.1.4v0.3l-0.1.2"/>
    <path id="path654" class="cls-6" d="M40.1,27.82V27.4a0.87,0.87,0,0,0-1-.9,1.48,1.48,0,0,0-1.4,1.3h2.4v0.02Zm1.2,4.3a8.33,8.33,0,0,1-2.2.3c-2.5,0-3.8-1.1-3.8-3.3,0-2.5,1.6-4.3,3.8-4.3,1.8,0,3,1,3,2.7a6.72,6.72,0,0,1-.3,1.8H37.4v0.2c0,0.8.7,1.3,1.9,1.3a4.79,4.79,0,0,0,2.3-.5l-0.3,1.8"/>
    <path id="path656" class="cls-6" d="M62.5,28.12a1.25,1.25,0,0,0-1.2-1.5c-1.1,0-1.8,1.3-1.8,2.5,0,1,.5,1.7,1.3,1.6a2.23,2.23,0,0,0,1.7-1.8v-0.8Zm2.3,0.9c-0.3,2.4-2,3.5-4.3,3.5-2.5,0-3.5-1.5-3.5-3.4a4,4,0,0,1,4.3-4.3,3.16,3.16,0,0,1,3.5,3.3,1.39,1.39,0,0,1,0,.9"/>
  </g>
</svg>
