<svg xmlns="http://www.w3.org/2000/svg" xmlns:xlink="http://www.w3.org/1999/xlink" viewBox="0 0 49 33"><defs><style>.cls-1{stroke:#b5b5b5;stroke-miterlimit:10;fill:url(#Безымянный_градиент_2);}.cls-2{fill:#fff;}.cls-3{fill:#fbb231;}.cls-4{fill:#ec1c2e;}.cls-5{fill:none;stroke:#fff;stroke-miterlimit:2.61;stroke-width:0.22px;}</style><linearGradient id="Безымянный_градиент_2" x1="24.5" y1="-894.5" x2="24.5" y2="-926.5" gradientTransform="matrix(1, 0, 0, -1, 0, -894)" gradientUnits="userSpaceOnUse"><stop offset="0" stop-color="#fff"/><stop offset="0.97" stop-color="#d9d9d9"/><stop offset="1" stop-color="#e2e9f1"/></linearGradient></defs><title>Ресурс 3</title><g id="Слой_2" data-name="Слой 2"><g id="Слой_1-2" data-name="Слой 1"><path class="cls-1" d="M46.7,32.5H2.3A1.79,1.79,0,0,1,.5,30.72V2.28A1.79,1.79,0,0,1,2.3.5H46.7a1.79,1.79,0,0,1,1.8,1.78V30.72A1.79,1.79,0,0,1,46.7,32.5Z"/><path class="cls-2" d="M35.82,18.82a.29.29,0,0,1,.29-.31.31.31,0,0,1,.31.29.3.3,0,0,1-.3.31h0a.29.29,0,0,1-.29-.29Zm.29.22a.23.23,0,1,0-.23-.22A.22.22,0,0,0,36.11,19Zm0-.09H36v-.27h.18a.09.09,0,0,1,0,.07.06.06,0,0,1,0,.07l0,.12h-.06l0-.11h0Zm0-.15h.07a0,0,0,0,0,0,0h-.07Z"/><path class="cls-2" d="M18.3,14.36c-.08.36-.12.57-.23,1a2.61,2.61,0,0,0-2.34,0,1.9,1.9,0,0,0-.85,1.83,1.12,1.12,0,0,0,.69.85,2.31,2.31,0,0,0,2-.2c-.1.45-.17.8-.26,1.12a4.1,4.1,0,0,1-2.45,0,2,2,0,0,1-1.39-1.65A2.71,2.71,0,0,1,15,14.47,5,5,0,0,1,18.3,14.36Z"/><path class="cls-2" d="M30,18.48a1.93,1.93,0,0,1-1.6.72c-.92,0-1.5-.68-1.2-2.21l.38-1.8H29L28.65,17c-.14.6-.1,1.08.52,1.08s.95-.44,1.08-1.08l.39-1.8H32l-.6,2.89c-.07.34-.14.7-.18,1.05H29.94S30,18.63,30,18.48Z"/><path class="cls-2" d="M32.53,16.42c0,.5.33.84,1.08,1.1s.66.26.66.43-.25.36-.81.36a5.51,5.51,0,0,1-1.27-.15S32,19,32,19.07a12.13,12.13,0,0,0,1.48.11c1.48,0,2.17-.42,2.17-1.32,0-.53-.28-.85-1-1.1s-.66-.24-.66-.42.23-.32.69-.32a6.35,6.35,0,0,1,1,.06l.2-.91c-.42-.05-.83-.08-1.25-.09C33.08,15.08,32.53,15.7,32.53,16.42Z"/><polygon class="cls-2" points="18.9 15.17 20.31 15.17 19.47 19.12 18.06 19.12 18.9 15.17"/><path class="cls-2" d="M27.24,15.16a1.61,1.61,0,0,0-1.61.6,3,3,0,0,0,.09-.6h-1.3c-.18,1.2-.51,2.46-.77,3.67l-.07.27h1.47a12.58,12.58,0,0,1,.6-2.4,1,1,0,0,1,1.14-.48Z"/><path class="cls-2" d="M24,15.16a1.63,1.63,0,0,0-1.62.6,3,3,0,0,0,.09-.6H21.2c-.19,1.2-.52,2.46-.77,3.67l-.07.27h1.46a12.58,12.58,0,0,1,.6-2.4,1,1,0,0,1,1.18-.44Z"/><polygon class="cls-3" points="32.22 28.34 32.81 28.32 33.4 28.28 33.97 28.21 34.54 28.1 35.1 27.97 35.65 27.82 36.19 27.64 36.72 27.43 37.23 27.2 37.72 26.95 38.21 26.66 38.68 26.36 39.13 26.04 39.57 25.7 39.99 25.34 40.39 24.95 40.77 24.55 41.13 24.13 41.48 23.69 41.8 23.24 42.1 22.77 42.38 22.29 42.63 21.79 42.87 21.28 43.07 20.75 43.26 20.21 43.41 19.67 43.54 19.11 43.64 18.54 43.71 17.96 43.76 17.38 43.77 16.78 43.76 16.19 43.71 15.61 43.64 15.03 43.54 14.47 43.41 13.91 43.26 13.36 43.07 12.83 42.87 12.31 42.63 11.8 42.38 11.3 42.1 10.82 41.8 10.35 41.48 9.9 41.13 9.47 40.77 9.04 40.39 8.65 39.99 8.26 39.57 7.9 39.13 7.56 38.68 7.24 38.21 6.94 37.72 6.66 37.23 6.41 36.72 6.17 36.19 5.97 35.65 5.78 35.1 5.63 34.54 5.5 33.97 5.4 33.4 5.33 32.81 5.28 32.22 5.27 31.63 5.28 31.04 5.33 30.46 5.4 29.89 5.5 29.34 5.63 28.79 5.78 28.26 5.97 27.73 6.17 27.22 6.41 26.73 6.66 26.25 6.94 25.78 7.24 25.33 7.56 24.89 7.9 24.48 8.26 24.07 8.65 23.69 9.04 23.33 9.47 22.99 9.9 22.67 10.35 22.37 10.82 22.09 11.3 21.84 11.8 21.61 12.31 21.4 12.83 21.22 13.36 21.06 13.91 20.94 14.47 20.83 15.03 20.76 15.61 20.72 16.19 20.7 16.78 20.72 17.38 20.76 17.96 20.83 18.54 20.94 19.11 21.06 19.67 21.22 20.21 21.4 20.75 21.61 21.28 21.84 21.79 22.09 22.29 22.37 22.77 22.67 23.24 22.99 23.69 23.33 24.13 23.69 24.55 24.07 24.95 24.48 25.34 24.89 25.7 25.33 26.04 25.78 26.36 26.25 26.66 26.73 26.95 27.22 27.2 27.73 27.43 28.26 27.64 28.79 27.82 29.34 27.97 29.89 28.1 30.46 28.21 31.04 28.28 31.63 28.32 32.22 28.34"/><polygon class="cls-4" points="16.78 28.34 17.38 28.32 17.97 28.28 18.54 28.21 19.11 28.1 19.66 27.97 20.21 27.82 20.74 27.64 21.27 27.43 21.78 27.2 22.27 26.95 22.76 26.66 23.22 26.36 23.68 26.04 24.11 25.7 24.53 25.34 24.93 24.95 25.31 24.55 25.67 24.13 26.01 23.69 26.33 23.24 26.63 22.77 26.91 22.29 27.16 21.79 27.4 21.28 27.6 20.75 27.78 20.21 27.94 19.67 28.06 19.11 28.17 18.54 28.24 17.96 28.28 17.38 28.3 16.78 28.28 16.19 28.24 15.61 28.17 15.03 28.06 14.47 27.94 13.91 27.78 13.36 27.6 12.83 27.4 12.31 27.16 11.8 26.91 11.3 26.63 10.82 26.33 10.35 26.01 9.9 25.67 9.47 25.31 9.04 24.93 8.65 24.53 8.26 24.11 7.9 23.68 7.56 23.22 7.24 22.76 6.94 22.27 6.66 21.78 6.41 21.27 6.17 20.74 5.97 20.21 5.78 19.66 5.63 19.11 5.5 18.54 5.4 17.97 5.33 17.38 5.28 16.78 5.27 16.19 5.28 15.6 5.33 15.03 5.4 14.45 5.5 13.9 5.63 13.35 5.78 12.81 5.97 12.28 6.17 11.77 6.41 11.28 6.66 10.79 6.94 10.32 7.24 9.87 7.56 9.43 7.9 9.01 8.26 8.61 8.65 8.23 9.04 7.87 9.47 7.53 9.9 7.2 10.35 6.9 10.82 6.62 11.3 6.37 11.8 6.13 12.31 5.93 12.83 5.74 13.36 5.59 13.91 5.46 14.47 5.36 15.03 5.29 15.61 5.25 16.19 5.23 16.78 5.25 17.38 5.29 17.96 5.36 18.54 5.46 19.11 5.59 19.67 5.74 20.21 5.93 20.75 6.13 21.28 6.37 21.79 6.62 22.29 6.9 22.77 7.2 23.24 7.53 23.69 7.87 24.13 8.23 24.55 8.61 24.95 9.01 25.34 9.43 25.7 9.87 26.04 10.32 26.36 10.79 26.66 11.28 26.95 11.77 27.2 12.28 27.43 12.81 27.64 13.35 27.82 13.9 27.97 14.45 28.1 15.03 28.21 15.6 28.28 16.19 28.32 16.78 28.34"/><polygon class="cls-3" points="23.15 9.69 29.28 9.69 29.28 9.07 23.68 9.07 23.15 9.69"/><polygon class="cls-3" points="22.23 11.08 29.28 11.08 29.28 10.46 22.6 10.46 22.23 11.08"/><polygon class="cls-3" points="21.55 12.47 29.28 12.47 29.28 11.84 21.82 11.84 21.55 12.47"/><polygon class="cls-3" points="21.08 13.87 29.28 13.87 29.28 13.24 21.27 13.24 21.08 13.87"/><polygon class="cls-3" points="21.35 20.6 29.3 20.6 29.3 19.97 21.15 19.97 21.35 20.6"/><polygon class="cls-3" points="21.94 21.99 29.3 21.99 29.3 21.37 21.64 21.37 21.94 21.99"/><polygon class="cls-3" points="22.76 23.38 29.3 23.38 29.3 22.75 22.37 22.75 22.76 23.38"/><polygon class="cls-3" points="23.9 24.77 29.3 24.77 29.3 24.14 23.35 24.14 23.9 24.77"/><polygon class="cls-3" points="20.8 15.25 29.28 15.25 29.28 14.63 20.92 14.63 20.8 15.25"/><polygon class="cls-3" points="25.96 19.21 29.2 19.21 29.2 18.58 26.08 18.58 25.96 19.21"/><polygon class="cls-3" points="26.23 17.82 29.2 17.82 29.2 17.19 26.34 17.19 26.23 17.82"/><polygon class="cls-3" points="20.59 17.19 21.43 17.19 21.43 17.82 20.62 17.82 20.59 17.19"/><polygon class="cls-2" points="19.02 16.43 18.96 16.43 18.91 16.42 18.86 16.41 18.81 16.4 18.76 16.4 18.71 16.39 18.66 16.38 18.61 16.37 18.55 16.36 18.49 16.36 18.42 16.36 18.34 16.35 18.27 16.35 18.17 16.36 18.07 16.36 17.96 16.37 17.88 16.39 17.81 16.4 17.74 16.42 17.68 16.44 17.63 16.47 17.58 16.5 17.54 16.54 17.5 16.57 17.48 16.61 17.46 16.66 17.46 16.7 17.46 16.75 17.46 16.81 17.48 16.85 17.51 16.9 17.55 16.96 17.63 17.03 17.72 17.09 17.83 17.14 17.95 17.18 18.07 17.22 18.2 17.26 18.33 17.31 18.45 17.36 18.57 17.42 18.68 17.51 18.78 17.6 18.86 17.72 18.92 17.87 18.96 18.05 18.97 18.26 18.96 18.5 18.93 18.68 18.88 18.85 18.82 19 18.75 19.12 18.66 19.24 18.55 19.33 18.45 19.42 18.33 19.49 18.2 19.55 18.07 19.6 17.94 19.64 17.8 19.67 17.67 19.69 17.55 19.7 17.41 19.72 17.29 19.72 17.13 19.72 16.97 19.72 16.83 19.72 16.71 19.71 16.59 19.7 16.48 19.7 16.39 19.69 16.3 19.68 16.22 19.67 16.15 19.66 16.07 19.64 16 19.63 15.94 19.61 15.88 19.58 15.81 19.56 15.75 19.54 15.93 18.68 15.96 18.68 16 18.7 16.06 18.71 16.12 18.73 16.2 18.74 16.27 18.76 16.36 18.78 16.45 18.8 16.55 18.81 16.65 18.83 16.75 18.84 16.86 18.85 16.98 18.85 17.09 18.86 17.2 18.86 17.31 18.85 17.43 18.83 17.52 18.8 17.59 18.76 17.64 18.7 17.68 18.65 17.71 18.59 17.73 18.52 17.74 18.46 17.76 18.35 17.72 18.26 17.65 18.17 17.56 18.11 17.44 18.05 17.3 17.99 17.15 17.94 17 17.88 16.84 17.81 16.69 17.72 16.56 17.62 16.44 17.5 16.33 17.36 16.27 17.18 16.23 16.97 16.24 16.72 16.26 16.57 16.28 16.43 16.32 16.3 16.37 16.17 16.43 16.05 16.5 15.95 16.58 15.85 16.68 15.77 16.8 15.7 16.92 15.63 17.06 15.58 17.21 15.53 17.39 15.5 17.58 15.47 17.79 15.46 18.02 15.45 18.16 15.45 18.3 15.46 18.42 15.46 18.52 15.46 18.62 15.47 18.71 15.47 18.79 15.49 18.86 15.49 18.93 15.5 18.98 15.51 19.03 15.52 19.08 15.53 19.11 15.53 19.15 15.54 19.18 15.55 19.21 15.55 19.02 16.43"/><polyline class="cls-5" points="19.02 16.43 19.02 16.43 18.96 16.43 18.91 16.42 18.86 16.41 18.81 16.4 18.76 16.4 18.71 16.39 18.66 16.38 18.61 16.37 18.55 16.36 18.49 16.36 18.42 16.36 18.34 16.35 18.27 16.35 18.17 16.36 18.07 16.36 17.96 16.37 17.96 16.37 17.88 16.39 17.81 16.4 17.74 16.42 17.68 16.44 17.63 16.47 17.58 16.5 17.54 16.54 17.5 16.57 17.48 16.61 17.46 16.66 17.46 16.7 17.46 16.75 17.46 16.81 17.48 16.85 17.51 16.9 17.55 16.96 17.55 16.96 17.63 17.03 17.72 17.09 17.83 17.14 17.95 17.18 18.07 17.22 18.2 17.26 18.33 17.31 18.45 17.36 18.57 17.42 18.68 17.51 18.78 17.6 18.86 17.72 18.92 17.87 18.96 18.05 18.97 18.26 18.96 18.5 18.96 18.5 18.93 18.68 18.88 18.85 18.82 19 18.75 19.12 18.66 19.24 18.55 19.33 18.45 19.42 18.33 19.49 18.2 19.55 18.07 19.6 17.94 19.64 17.8 19.67 17.67 19.69 17.55 19.7 17.41 19.72 17.29 19.72 17.29 19.72 17.13 19.72 16.97 19.72 16.83 19.72 16.71 19.71 16.59 19.7 16.48 19.7 16.39 19.69 16.3 19.68 16.22 19.67 16.15 19.66 16.07 19.64 16 19.63 15.94 19.61 15.88 19.58 15.81 19.56 15.75 19.54 15.93 18.68 15.93 18.68 15.96 18.68 16 18.7 16.06 18.71 16.12 18.73 16.2 18.74 16.27 18.76 16.36 18.78 16.45 18.8 16.55 18.81 16.65 18.83 16.75 18.84 16.86 18.85 16.98 18.85 17.09 18.86 17.2 18.86 17.31 18.85 17.31 18.85 17.43 18.83 17.52 18.8 17.59 18.76 17.64 18.7 17.68 18.65 17.71 18.59 17.73 18.52 17.74 18.46 17.74 18.46 17.76 18.35 17.72 18.26 17.65 18.17 17.56 18.11 17.44 18.05 17.3 17.99 17.15 17.94 17 17.88 16.84 17.81 16.69 17.72 16.56 17.62 16.44 17.5 16.33 17.36 16.27 17.18 16.23 16.97 16.24 16.72 16.24 16.72 16.26 16.57 16.28 16.43 16.32 16.3 16.37 16.17 16.43 16.05 16.5 15.95 16.58 15.85 16.68 15.77 16.8 15.7 16.92 15.63 17.06 15.58 17.21 15.53 17.39 15.5 17.58 15.47 17.79 15.46 18.02 15.45 18.02 15.45 18.16 15.45 18.3 15.46 18.42 15.46 18.52 15.46 18.62 15.47 18.71 15.47 18.79 15.49 18.86 15.49 18.93 15.5 18.98 15.51 19.03 15.52 19.08 15.53 19.11 15.53 19.15 15.54 19.18 15.55 19.21 15.55 19.02 16.43"/><polygon class="cls-2" points="19.94 14.59 21.02 14.59 20.86 15.53 21.51 15.53 21.37 16.41 20.68 16.39 20.31 18.56 20.31 18.64 20.32 18.71 20.37 18.76 20.41 18.8 20.49 18.83 20.56 18.85 20.65 18.86 20.74 18.88 20.83 18.87 20.91 18.86 20.98 18.85 21.04 18.83 21.09 18.82 21.12 18.81 21.15 18.8 21.15 18.8 21.02 19.52 20.99 19.54 20.96 19.55 20.94 19.57 20.91 19.58 20.88 19.6 20.85 19.61 20.82 19.62 20.78 19.63 20.74 19.64 20.7 19.65 20.65 19.66 20.61 19.67 20.56 19.67 20.5 19.69 20.44 19.69 20.37 19.7 20.08 19.7 19.92 19.69 19.78 19.67 19.66 19.65 19.56 19.62 19.47 19.58 19.39 19.55 19.33 19.5 19.27 19.45 19.24 19.4 19.21 19.33 19.19 19.26 19.18 19.19 19.17 19.1 19.17 19.02 19.18 18.93 19.2 18.83 19.94 14.59"/><polyline class="cls-5" points="19.94 14.59 21.02 14.59 20.86 15.53 21.51 15.53 21.37 16.41 20.68 16.39 20.31 18.56 20.31 18.56 20.31 18.64 20.32 18.71 20.37 18.76 20.41 18.8 20.49 18.83 20.56 18.85 20.65 18.86 20.74 18.88 20.74 18.88 20.83 18.87 20.91 18.86 20.98 18.85 21.04 18.83 21.09 18.82 21.12 18.81 21.15 18.8 21.15 18.8 21.02 19.52 21.02 19.52 20.99 19.54 20.96 19.55 20.94 19.57 20.91 19.58 20.88 19.6 20.85 19.61 20.82 19.62 20.78 19.63 20.74 19.64 20.7 19.65 20.65 19.66 20.61 19.67 20.56 19.67 20.5 19.69 20.44 19.69 20.37 19.7 20.08 19.7 20.08 19.7 19.92 19.69 19.78 19.67 19.66 19.65 19.56 19.62 19.47 19.58 19.39 19.55 19.33 19.5 19.27 19.45 19.24 19.4 19.21 19.33 19.19 19.26 19.18 19.19 19.17 19.1 19.17 19.02 19.18 18.93 19.2 18.83 19.94 14.59"/><polyline class="cls-5" points="22.37 17.88 22.37 17.88 22.36 17.95 22.35 18.01 22.36 18.08 22.38 18.16 22.41 18.23 22.44 18.31 22.48 18.38 22.53 18.44 22.58 18.51 22.64 18.57 22.7 18.63 22.77 18.68 22.84 18.72 22.92 18.75 22.99 18.78 23.07 18.8 23.07 18.8 23.17 18.81 23.27 18.82 23.37 18.83 23.47 18.85 23.58 18.85 23.68 18.85 23.78 18.85 23.89 18.83 23.99 18.82 24.1 18.8 24.21 18.77 24.31 18.74 24.42 18.7 24.53 18.65 24.64 18.59 24.75 18.52 24.6 19.48 24.6 19.48 24.54 19.51 24.48 19.54 24.41 19.57 24.35 19.59 24.3 19.61 24.23 19.63 24.17 19.64 24.1 19.66 24.03 19.67 23.95 19.67 23.88 19.69 23.79 19.69 23.68 19.69 23.58 19.69 23.46 19.7 23.33 19.7 23.33 19.7 23.14 19.69 22.95 19.67 22.75 19.65 22.56 19.6 22.36 19.54 22.18 19.47 22 19.37 21.84 19.26 21.69 19.13 21.56 18.97 21.45 18.79 21.35 18.58 21.28 18.35 21.24 18.09 21.23 17.8 21.25 17.48 21.25 17.48 21.27 17.36 21.29 17.21 21.32 17.06 21.36 16.9 21.42 16.73 21.49 16.57 21.58 16.4 21.69 16.23 21.81 16.07 21.97 15.93 22.14 15.8 22.33 15.68 22.56 15.58 22.81 15.51 23.09 15.47 23.41 15.45 23.41 15.45 23.56 15.46 23.72 15.47 23.88 15.5 24.04 15.53 24.19 15.59 24.34 15.67 24.49 15.76 24.61 15.86 24.73 16 24.83 16.15 24.9 16.33 24.96 16.54 24.99 16.77 25 17.03 24.97 17.33 24.91 17.66 24.89 17.9 22.05 17.9 22.23 17.13 23.94 17.13 23.94 17.13 23.94 17.03 23.94 16.94 23.93 16.85 23.92 16.78 23.89 16.7 23.86 16.64 23.82 16.58 23.79 16.52 23.74 16.48 23.69 16.44 23.63 16.4 23.57 16.37 23.51 16.35 23.44 16.33 23.38 16.32 23.31 16.31 23.31 16.31 23.23 16.32 23.17 16.33 23.1 16.34 23.04 16.37 22.97 16.4 22.91 16.43 22.85 16.48 22.8 16.52 22.75 16.58 22.7 16.64 22.66 16.7 22.63 16.76 22.59 16.84 22.56 16.91 22.54 16.99 22.53 17.07 22.37 17.88"/><polygon class="cls-2" points="31.65 15.76 31.6 15.74 31.55 15.71 31.49 15.68 31.44 15.66 31.38 15.64 31.31 15.61 31.24 15.59 31.17 15.56 31.1 15.55 31.03 15.53 30.94 15.52 30.86 15.5 30.78 15.5 30.69 15.49 30.59 15.49 30.49 15.49 30.4 15.49 30.3 15.5 30.19 15.51 30.08 15.53 29.97 15.56 29.86 15.6 29.76 15.65 29.64 15.73 29.54 15.81 29.44 15.91 29.34 16.04 29.25 16.18 29.16 16.35 29.08 16.55 29.01 16.76 28.95 17.02 28.92 17.15 28.9 17.29 28.9 17.42 28.9 17.56 28.91 17.69 28.94 17.81 28.98 17.93 29.02 18.05 29.08 18.16 29.14 18.26 29.23 18.34 29.32 18.43 29.43 18.5 29.55 18.55 29.68 18.61 29.83 18.64 29.88 18.65 29.94 18.67 30.01 18.67 30.09 18.68 30.17 18.68 30.26 18.68 30.36 18.68 30.45 18.68 30.55 18.67 30.66 18.65 30.75 18.62 30.85 18.59 30.95 18.55 31.04 18.5 31.12 18.44 31.2 18.37 31.02 19.4 31 19.42 30.97 19.45 30.94 19.48 30.91 19.49 30.87 19.53 30.81 19.55 30.75 19.58 30.68 19.6 30.59 19.63 30.49 19.65 30.37 19.67 30.24 19.69 30.09 19.69 29.91 19.69 29.71 19.69 29.49 19.68 29.31 19.66 29.14 19.62 28.96 19.56 28.78 19.48 28.6 19.39 28.44 19.27 28.29 19.14 28.14 18.98 28.02 18.81 27.9 18.61 27.81 18.4 27.74 18.16 27.7 17.9 27.68 17.62 27.69 17.32 27.73 16.99 27.76 16.84 27.79 16.68 27.84 16.53 27.87 16.39 27.91 16.25 27.97 16.11 28.02 15.98 28.07 15.86 28.13 15.74 28.19 15.63 28.26 15.52 28.33 15.42 28.39 15.32 28.47 15.23 28.55 15.14 28.63 15.06 28.72 14.98 28.81 14.91 28.9 14.84 29.01 14.78 29.11 14.72 29.21 14.67 29.32 14.63 29.44 14.58 29.56 14.54 29.68 14.51 29.8 14.48 29.93 14.46 30.06 14.44 30.21 14.42 30.34 14.42 30.49 14.41 30.62 14.42 30.74 14.42 30.85 14.44 30.97 14.45 31.08 14.47 31.18 14.49 31.29 14.51 31.38 14.53 31.47 14.56 31.55 14.58 31.62 14.6 31.68 14.63 31.74 14.65 31.78 14.66 31.82 14.68 31.84 14.69 31.65 15.76"/><polyline class="cls-5" points="31.65 15.76 31.65 15.76 31.6 15.74 31.55 15.71 31.49 15.68 31.44 15.66 31.38 15.64 31.31 15.61 31.24 15.59 31.17 15.56 31.1 15.55 31.03 15.53 30.94 15.52 30.86 15.5 30.78 15.5 30.69 15.49 30.59 15.49 30.49 15.49 30.49 15.49 30.4 15.49 30.3 15.5 30.19 15.51 30.08 15.53 29.97 15.56 29.86 15.6 29.76 15.65 29.64 15.73 29.54 15.81 29.44 15.91 29.34 16.04 29.25 16.18 29.16 16.35 29.08 16.55 29.01 16.76 28.95 17.02 28.95 17.02 28.92 17.15 28.9 17.29 28.9 17.42 28.9 17.56 28.91 17.69 28.94 17.81 28.98 17.93 29.02 18.05 29.08 18.16 29.14 18.26 29.23 18.34 29.32 18.43 29.43 18.5 29.55 18.55 29.68 18.61 29.83 18.64 29.83 18.64 29.88 18.65 29.94 18.67 30.01 18.67 30.09 18.68 30.17 18.68 30.26 18.68 30.36 18.68 30.45 18.68 30.55 18.67 30.66 18.65 30.75 18.62 30.85 18.59 30.95 18.55 31.04 18.5 31.12 18.44 31.2 18.37 31.02 19.4 31.02 19.4 31 19.42 30.97 19.45 30.94 19.48 30.91 19.49 30.87 19.53 30.81 19.55 30.75 19.58 30.68 19.6 30.59 19.63 30.49 19.65 30.37 19.67 30.24 19.69 30.09 19.69 29.91 19.69 29.71 19.69 29.49 19.68 29.49 19.68 29.31 19.66 29.14 19.62 28.96 19.56 28.78 19.48 28.6 19.39 28.44 19.27 28.29 19.14 28.14 18.98 28.02 18.81 27.9 18.61 27.81 18.4 27.74 18.16 27.7 17.9 27.68 17.62 27.69 17.32 27.73 16.99 27.73 16.99 27.76 16.84 27.79 16.68 27.84 16.53 27.87 16.39 27.91 16.25 27.97 16.11 28.02 15.98 28.07 15.86 28.13 15.74 28.19 15.63 28.26 15.52 28.33 15.42 28.39 15.32 28.47 15.23 28.55 15.14 28.63 15.06 28.72 14.98 28.81 14.91 28.9 14.84 29.01 14.78 29.11 14.72 29.21 14.67 29.32 14.63 29.44 14.58 29.56 14.54 29.68 14.51 29.8 14.48 29.93 14.46 30.06 14.44 30.21 14.42 30.34 14.42 30.49 14.41 30.49 14.41 30.62 14.42 30.74 14.42 30.85 14.44 30.97 14.45 31.08 14.47 31.18 14.49 31.29 14.51 31.38 14.53 31.47 14.56 31.55 14.58 31.62 14.6 31.68 14.63 31.74 14.65 31.78 14.66 31.82 14.68 31.84 14.69 31.65 15.76"/><polygon class="cls-2" points="41.23 19.7 40.15 19.7 40.23 19.27 40.23 19.23 40.17 19.31 40.1 19.37 40.03 19.44 39.96 19.49 39.9 19.54 39.82 19.58 39.75 19.62 39.68 19.66 39.61 19.69 39.53 19.7 39.46 19.72 39.38 19.73 39.3 19.75 39.23 19.75 39.15 19.76 39.07 19.76 38.87 19.74 38.68 19.7 38.51 19.63 38.35 19.54 38.22 19.43 38.09 19.3 37.98 19.15 37.89 18.99 37.81 18.82 37.75 18.63 37.71 18.44 37.68 18.25 37.66 18.04 37.67 17.84 37.69 17.65 37.72 17.45 37.78 17.21 37.85 17 37.93 16.8 38.03 16.61 38.13 16.44 38.25 16.28 38.37 16.14 38.5 16.01 38.64 15.9 38.77 15.8 38.92 15.72 39.07 15.65 39.23 15.6 39.39 15.56 39.54 15.54 39.7 15.53 39.81 15.53 39.92 15.55 40.02 15.56 40.11 15.59 40.21 15.62 40.29 15.66 40.36 15.7 40.43 15.74 40.49 15.79 40.55 15.84 40.6 15.89 40.65 15.94 40.69 16 40.72 16.04 40.75 16.09 40.78 16.14 40.78 16.14 41.05 14.61 42.11 14.61 41.23 19.7"/><polyline class="cls-5" points="41.23 19.7 40.15 19.7 40.23 19.27 40.23 19.23 40.23 19.23 40.17 19.31 40.1 19.37 40.03 19.44 39.96 19.49 39.9 19.54 39.82 19.58 39.75 19.62 39.68 19.66 39.61 19.69 39.53 19.7 39.46 19.72 39.38 19.73 39.3 19.75 39.23 19.75 39.15 19.76 39.07 19.76 39.07 19.76 38.87 19.74 38.68 19.7 38.51 19.63 38.35 19.54 38.22 19.43 38.09 19.3 37.98 19.15 37.89 18.99 37.81 18.82 37.75 18.63 37.71 18.44 37.68 18.25 37.66 18.04 37.67 17.84 37.69 17.65 37.72 17.45 37.72 17.45 37.78 17.21 37.85 17 37.93 16.8 38.03 16.61 38.13 16.44 38.25 16.28 38.37 16.14 38.5 16.01 38.64 15.9 38.77 15.8 38.92 15.72 39.07 15.65 39.23 15.6 39.39 15.56 39.54 15.54 39.7 15.53 39.7 15.53 39.81 15.53 39.92 15.55 40.02 15.56 40.11 15.59 40.21 15.62 40.29 15.66 40.36 15.7 40.43 15.74 40.49 15.79 40.55 15.84 40.6 15.89 40.65 15.94 40.69 16 40.72 16.04 40.75 16.09 40.78 16.14 40.78 16.14 41.05 14.61 42.11 14.61 41.23 19.7"/><polygon class="cls-3" points="39.46 18.76 39.57 18.75 39.67 18.73 39.77 18.7 39.86 18.65 39.94 18.61 40.02 18.55 40.09 18.49 40.16 18.41 40.21 18.34 40.27 18.25 40.32 18.16 40.36 18.07 40.4 17.97 40.44 17.87 40.46 17.77 40.48 17.66 40.5 17.55 40.51 17.44 40.51 17.33 40.51 17.23 40.5 17.12 40.48 17.03 40.45 16.93 40.42 16.84 40.38 16.76 40.34 16.69 40.29 16.63 40.23 16.57 40.16 16.53 40.09 16.5 40.02 16.48 39.94 16.47 39.83 16.48 39.73 16.49 39.64 16.52 39.55 16.56 39.48 16.61 39.4 16.67 39.33 16.74 39.27 16.81 39.21 16.9 39.15 16.99 39.1 17.08 39.06 17.18 39.02 17.29 38.99 17.39 38.96 17.51 38.94 17.62 38.92 17.79 38.92 17.98 38.95 18.17 39 18.35 39.08 18.51 39.18 18.64 39.31 18.73 39.46 18.76"/><polygon class="cls-2" points="15.57 18.83 15.42 19.7 14.43 19.7 14.46 19.54 14.48 19.4 14.5 19.28 14.51 19.23 14.46 19.29 14.4 19.35 14.32 19.41 14.24 19.46 14.15 19.52 14.05 19.57 13.95 19.61 13.84 19.65 13.73 19.69 13.62 19.72 13.5 19.74 13.39 19.75 13.27 19.76 13.17 19.76 13.05 19.75 12.95 19.74 12.81 19.7 12.69 19.66 12.58 19.61 12.48 19.55 12.4 19.49 12.32 19.42 12.25 19.35 12.2 19.27 12.15 19.19 12.12 19.1 12.09 19.02 12.06 18.93 12.04 18.85 12.03 18.75 12.03 18.67 12.03 18.58 12.04 18.43 12.06 18.29 12.1 18.15 12.15 18.02 12.21 17.89 12.28 17.78 12.37 17.67 12.46 17.57 12.55 17.48 12.66 17.4 12.78 17.33 12.9 17.27 13.02 17.21 13.15 17.17 13.28 17.14 13.42 17.11 13.42 17.11 13.44 17.11 13.47 17.11 13.51 17.1 13.56 17.09 13.62 17.09 13.67 17.08 13.74 17.07 13.8 17.06 13.87 17.06 13.94 17.05 14 17.05 14.07 17.04 14.12 17.03 14.18 17.03 14.22 17.03 14.31 17.03 14.4 17.03 14.49 17.04 14.58 17.04 14.64 17.05 14.7 17.05 14.74 17.05 14.75 17.05 14.76 17.03 14.78 16.96 14.8 16.87 14.8 16.8 14.79 16.72 14.76 16.64 14.71 16.57 14.65 16.51 14.58 16.46 14.49 16.42 14.4 16.4 14.3 16.39 14.19 16.39 14.07 16.39 13.95 16.39 13.83 16.39 13.7 16.4 13.57 16.41 13.45 16.42 13.33 16.43 13.21 16.45 13.1 16.47 13 16.49 12.9 16.51 12.82 16.53 12.75 16.55 12.7 16.58 12.65 16.61 12.93 15.67 13.02 15.63 13.1 15.6 13.2 15.58 13.29 15.56 13.38 15.53 13.48 15.52 13.58 15.5 13.69 15.5 13.8 15.49 13.91 15.49 14.02 15.48 14.15 15.48 14.27 15.48 14.4 15.48 14.53 15.49 14.67 15.49 14.78 15.5 14.9 15.52 15.02 15.55 15.14 15.58 15.27 15.62 15.38 15.68 15.49 15.74 15.61 15.82 15.7 15.91 15.79 16 15.87 16.1 15.93 16.22 15.96 16.34 15.99 16.48 15.99 16.63 15.96 16.78 15.57 18.83"/><polyline class="cls-5" points="15.57 18.83 15.42 19.7 14.43 19.7 14.43 19.7 14.46 19.54 14.48 19.4 14.5 19.28 14.51 19.23 14.51 19.23 14.46 19.29 14.4 19.35 14.32 19.41 14.24 19.46 14.15 19.52 14.05 19.57 13.95 19.61 13.84 19.65 13.73 19.69 13.62 19.72 13.5 19.74 13.39 19.75 13.27 19.76 13.17 19.76 13.05 19.75 12.95 19.74 12.95 19.74 12.81 19.7 12.69 19.66 12.58 19.61 12.48 19.55 12.4 19.49 12.32 19.42 12.25 19.35 12.2 19.27 12.15 19.19 12.12 19.1 12.09 19.02 12.06 18.93 12.04 18.85 12.03 18.75 12.03 18.67 12.03 18.58 12.03 18.58 12.04 18.43 12.06 18.29 12.1 18.15 12.15 18.02 12.21 17.89 12.28 17.78 12.37 17.67 12.46 17.57 12.55 17.48 12.66 17.4 12.78 17.33 12.9 17.27 13.02 17.21 13.15 17.17 13.28 17.14 13.42 17.11 13.42 17.11 13.42 17.11 13.44 17.11 13.47 17.11 13.51 17.1 13.56 17.09 13.62 17.09 13.67 17.08 13.74 17.07 13.8 17.06 13.87 17.06 13.94 17.05 14 17.05 14.07 17.04 14.12 17.03 14.18 17.03 14.22 17.03 14.22 17.03 14.31 17.03 14.4 17.03 14.49 17.04 14.58 17.04 14.64 17.05 14.7 17.05 14.74 17.05 14.75 17.05 14.75 17.05 14.76 17.03 14.78 16.96 14.8 16.87 14.8 16.8 14.8 16.8 14.79 16.72 14.76 16.64 14.71 16.57 14.65 16.51 14.58 16.46 14.49 16.42 14.4 16.4 14.3 16.39 14.3 16.39 14.19 16.39 14.07 16.39 13.95 16.39 13.83 16.39 13.7 16.4 13.57 16.41 13.45 16.42 13.33 16.43 13.21 16.45 13.1 16.47 13 16.49 12.9 16.51 12.82 16.53 12.75 16.55 12.7 16.58 12.65 16.61 12.93 15.67 12.93 15.67 13.02 15.63 13.1 15.6 13.2 15.58 13.29 15.56 13.38 15.53 13.48 15.52 13.58 15.5 13.69 15.5 13.8 15.49 13.91 15.49 14.02 15.48 14.15 15.48 14.27 15.48 14.4 15.48 14.53 15.49 14.67 15.49 14.67 15.49 14.78 15.5 14.9 15.52 15.02 15.55 15.14 15.58 15.27 15.62 15.38 15.68 15.49 15.74 15.61 15.82 15.7 15.91 15.79 16 15.87 16.1 15.93 16.22 15.96 16.34 15.99 16.48 15.99 16.63 15.96 16.78 15.57 18.83"/><polygon class="cls-4" points="14.63 17.82 14.63 17.8 14.61 17.78 14.59 17.77 14.55 17.76 14.51 17.75 14.46 17.75 14.4 17.75 14.34 17.75 14.28 17.75 14.22 17.76 14.15 17.77 14.09 17.78 14.03 17.78 13.98 17.8 13.93 17.81 13.89 17.82 13.86 17.83 13.83 17.84 13.78 17.86 13.74 17.87 13.69 17.9 13.64 17.92 13.59 17.95 13.54 17.98 13.48 18.02 13.43 18.06 13.38 18.11 13.34 18.16 13.3 18.2 13.27 18.26 13.25 18.32 13.24 18.38 13.24 18.52 13.26 18.62 13.29 18.7 13.35 18.76 13.41 18.8 13.47 18.82 13.53 18.83 13.59 18.83 13.71 18.83 13.81 18.82 13.92 18.8 14.01 18.78 14.08 18.75 14.16 18.72 14.22 18.68 14.28 18.64 14.34 18.6 14.38 18.55 14.42 18.51 14.45 18.46 14.47 18.42 14.5 18.37 14.52 18.33 14.53 18.29 14.56 18.17 14.59 18.04 14.61 17.92 14.63 17.82"/><polygon class="cls-2" points="7.38 19.7 6.33 19.7 7.21 14.59 9.05 14.59 9.22 17.62 10.5 14.59 12.42 14.59 11.52 19.7 10.45 19.7 11.13 15.88 11.08 15.88 9.5 19.7 8.31 19.7 8.3 19.54 8.27 19.12 8.23 18.51 8.2 17.82 8.16 17.12 8.12 16.51 8.1 16.07 8.09 15.88 8.08 15.88 8.05 15.88 8.03 15.88 8.03 15.88 7.38 19.7"/><polyline class="cls-5" points="7.38 19.7 6.33 19.7 7.21 14.59 9.05 14.59 9.22 17.62 10.5 14.59 12.42 14.59 11.52 19.7 10.45 19.7 11.13 15.88 11.08 15.88 9.5 19.7 8.31 19.7 8.31 19.7 8.3 19.54 8.27 19.12 8.23 18.51 8.2 17.82 8.16 17.12 8.12 16.51 8.1 16.07 8.09 15.88 8.09 15.88 8.08 15.88 8.05 15.88 8.03 15.88 8.03 15.88 7.38 19.7"/><polygon class="cls-2" points="34.88 18.83 34.72 19.7 33.75 19.7 33.75 19.54 33.76 19.4 33.76 19.3 33.76 19.25 33.72 19.31 33.66 19.36 33.58 19.42 33.51 19.48 33.43 19.52 33.33 19.57 33.24 19.62 33.14 19.66 33.03 19.69 32.92 19.72 32.82 19.74 32.71 19.75 32.59 19.76 32.49 19.76 32.38 19.75 32.28 19.74 32.13 19.7 32.01 19.66 31.9 19.61 31.8 19.55 31.71 19.49 31.64 19.42 31.58 19.35 31.53 19.27 31.48 19.19 31.44 19.1 31.41 19.02 31.39 18.93 31.38 18.85 31.36 18.75 31.36 18.67 31.36 18.58 31.36 18.43 31.39 18.29 31.42 18.15 31.47 18.02 31.53 17.89 31.6 17.78 31.69 17.67 31.78 17.57 31.88 17.48 31.98 17.4 32.1 17.33 32.22 17.27 32.34 17.21 32.46 17.17 32.59 17.14 32.73 17.11 32.73 17.11 32.76 17.11 32.78 17.11 32.82 17.1 32.87 17.09 32.92 17.09 32.98 17.08 33.04 17.07 33.11 17.06 33.18 17.06 33.25 17.05 33.31 17.05 33.37 17.04 33.43 17.03 33.48 17.03 33.53 17.03 33.62 17.03 33.72 17.03 33.81 17.04 33.89 17.04 33.96 17.05 34.03 17.05 34.06 17.05 34.08 17.05 34.08 17.03 34.09 16.96 34.11 16.87 34.11 16.8 34.1 16.72 34.07 16.64 34.02 16.57 33.96 16.51 33.89 16.46 33.81 16.42 33.72 16.4 33.63 16.39 33.52 16.39 33.4 16.39 33.28 16.39 33.16 16.39 33.03 16.4 32.91 16.41 32.78 16.42 32.66 16.43 32.54 16.45 32.43 16.47 32.33 16.49 32.23 16.51 32.15 16.53 32.08 16.55 32.02 16.58 31.98 16.61 32.26 15.67 32.34 15.63 32.43 15.6 32.52 15.58 32.61 15.56 32.71 15.53 32.81 15.52 32.91 15.5 33.01 15.5 33.12 15.49 33.24 15.49 33.35 15.48 33.47 15.48 33.59 15.48 33.72 15.48 33.85 15.49 33.98 15.49 34.09 15.5 34.2 15.52 34.33 15.55 34.45 15.58 34.57 15.62 34.69 15.68 34.81 15.74 34.92 15.82 35.01 15.91 35.1 16 35.18 16.1 35.24 16.22 35.28 16.34 35.31 16.48 35.31 16.63 35.29 16.78 34.88 18.83"/><polygon class="cls-2" points="34.72 19.73 34.75 19.7 34.9 18.84 34.86 18.83 34.7 19.69 34.72 19.67 34.72 19.73 34.74 19.72 34.75 19.7 34.72 19.73"/><polygon class="cls-2" points="33.72 19.7 33.75 19.73 34.72 19.73 34.72 19.67 33.75 19.67 33.77 19.7 33.72 19.7 33.72 19.73 33.75 19.73 33.72 19.7"/><polygon class="cls-2" points="33.78 19.26 33.75 19.23 33.73 19.3 33.73 19.4 33.73 19.54 33.72 19.7 33.77 19.7 33.78 19.54 33.78 19.4 33.78 19.3 33.78 19.26 33.75 19.23 33.78 19.26"/><polygon class="cls-2" points="32.27 19.76 32.27 19.76 32.38 19.78 32.49 19.79 32.59 19.79 32.71 19.78 32.82 19.76 32.93 19.74 33.04 19.71 33.15 19.68 33.24 19.64 33.34 19.6 33.44 19.55 33.52 19.49 33.6 19.44 33.67 19.39 33.73 19.32 33.78 19.26 33.75 19.23 33.7 19.29 33.64 19.34 33.57 19.4 33.49 19.45 33.42 19.5 33.32 19.55 33.23 19.6 33.13 19.63 33.03 19.66 32.92 19.69 32.81 19.72 32.71 19.73 32.59 19.74 32.49 19.74 32.38 19.73 32.28 19.72 32.28 19.72 32.27 19.76"/><polygon class="cls-2" points="31.33 18.58 31.33 18.58 31.33 18.67 31.34 18.75 31.35 18.85 31.37 18.94 31.39 19.02 31.42 19.11 31.45 19.2 31.5 19.28 31.56 19.36 31.62 19.44 31.7 19.51 31.79 19.57 31.89 19.64 32.01 19.69 32.13 19.73 32.27 19.76 32.28 19.72 32.14 19.68 32.02 19.64 31.92 19.59 31.81 19.54 31.73 19.48 31.66 19.4 31.6 19.33 31.54 19.26 31.5 19.18 31.47 19.09 31.44 19.01 31.41 18.93 31.4 18.84 31.39 18.75 31.38 18.67 31.38 18.58 31.38 18.58 31.33 18.58"/><polygon class="cls-2" points="32.73 17.09 32.73 17.09 32.59 17.11 32.46 17.15 32.33 17.19 32.2 17.24 32.08 17.3 31.97 17.38 31.86 17.47 31.76 17.56 31.67 17.66 31.59 17.77 31.51 17.88 31.45 18.01 31.4 18.14 31.36 18.28 31.34 18.43 31.33 18.58 31.38 18.58 31.39 18.43 31.41 18.29 31.45 18.16 31.5 18.02 31.56 17.9 31.63 17.8 31.71 17.69 31.79 17.59 31.89 17.5 32 17.42 32.11 17.35 32.23 17.29 32.35 17.24 32.47 17.2 32.6 17.16 32.73 17.14 32.73 17.14 32.73 17.09"/><polygon class="cls-2" points="33.53 17 33.53 17 33.48 17 33.43 17.02 33.37 17.02 33.31 17.02 33.25 17.03 33.18 17.03 33.11 17.04 33.04 17.05 32.98 17.06 32.92 17.06 32.87 17.07 32.82 17.08 32.78 17.08 32.75 17.08 32.73 17.09 32.73 17.09 32.73 17.14 32.73 17.14 32.76 17.13 32.78 17.12 32.82 17.12 32.87 17.12 32.92 17.11 32.98 17.11 33.04 17.09 33.11 17.09 33.18 17.08 33.25 17.08 33.31 17.07 33.37 17.06 33.43 17.06 33.48 17.06 33.53 17.06 33.53 17.06 33.53 17"/><polygon class="cls-2" points="34.05 17.05 34.08 17.03 34.06 17.03 34.03 17.03 33.96 17.02 33.89 17.02 33.81 17.02 33.72 17.02 33.62 17 33.53 17 33.53 17.06 33.62 17.06 33.72 17.06 33.81 17.07 33.89 17.07 33.96 17.07 34.03 17.07 34.06 17.08 34.08 17.08 34.1 17.06 34.08 17.08 34.09 17.08 34.1 17.06 34.05 17.05"/><polygon class="cls-2" points="34.09 16.8 34.09 16.8 34.08 16.87 34.07 16.95 34.06 17.02 34.05 17.05 34.1 17.06 34.11 17.03 34.12 16.96 34.13 16.87 34.14 16.8 34.14 16.8 34.09 16.8"/><polygon class="cls-2" points="33.63 16.42 33.63 16.42 33.72 16.42 33.8 16.45 33.88 16.48 33.94 16.53 34 16.58 34.05 16.65 34.08 16.72 34.09 16.8 34.14 16.8 34.12 16.71 34.09 16.63 34.04 16.55 33.97 16.49 33.9 16.43 33.82 16.4 33.73 16.37 33.63 16.36 33.63 16.37 33.63 16.42"/><polygon class="cls-2" points="31.96 16.6 32 16.63 32.04 16.61 32.09 16.58 32.16 16.55 32.24 16.53 32.34 16.51 32.43 16.49 32.55 16.47 32.66 16.46 32.78 16.44 32.91 16.43 33.03 16.42 33.16 16.41 33.28 16.41 33.4 16.41 33.52 16.41 33.63 16.42 33.63 16.37 33.52 16.36 33.4 16.36 33.28 16.36 33.16 16.36 33.03 16.37 32.91 16.39 32.78 16.4 32.66 16.41 32.54 16.43 32.43 16.45 32.32 16.46 32.23 16.49 32.14 16.51 32.07 16.53 32.01 16.56 31.97 16.58 32.01 16.61 31.96 16.6"/><polygon class="cls-2" points="32.25 15.64 32.23 15.67 31.96 16.6 32.01 16.61 32.28 15.67 32.26 15.69 32.25 15.64 32.23 15.65 32.23 15.67 32.25 15.64"/><polygon class="cls-2" points="33.98 15.47 33.98 15.47 33.85 15.46 33.72 15.46 33.59 15.46 33.47 15.46 33.35 15.46 33.24 15.46 33.12 15.47 33.01 15.47 32.91 15.48 32.8 15.5 32.71 15.51 32.61 15.53 32.52 15.55 32.42 15.58 32.34 15.61 32.25 15.64 32.26 15.69 32.35 15.65 32.44 15.62 32.52 15.6 32.62 15.58 32.71 15.56 32.81 15.55 32.91 15.53 33.01 15.52 33.12 15.51 33.24 15.51 33.35 15.51 33.47 15.51 33.59 15.51 33.72 15.51 33.85 15.51 33.98 15.51 33.98 15.51 33.98 15.47"/><polygon class="cls-2" points="35.31 16.78 35.31 16.78 35.34 16.63 35.34 16.48 35.31 16.34 35.26 16.21 35.2 16.09 35.12 15.98 35.03 15.89 34.93 15.8 34.82 15.73 34.71 15.65 34.58 15.6 34.46 15.56 34.33 15.52 34.21 15.49 34.09 15.47 33.98 15.47 33.98 15.51 34.09 15.52 34.2 15.54 34.32 15.56 34.44 15.6 34.56 15.65 34.68 15.7 34.8 15.76 34.9 15.84 35 15.92 35.08 16.01 35.16 16.12 35.22 16.23 35.26 16.35 35.29 16.48 35.29 16.63 35.27 16.78 35.27 16.78 35.31 16.78"/><polygon class="cls-2" points="34.9 18.84 34.9 18.84 35.31 16.78 35.27 16.78 34.86 18.83 34.86 18.83 34.9 18.84"/><polygon class="cls-3" points="33.94 17.82 33.93 17.8 33.92 17.78 33.89 17.77 33.85 17.75 33.81 17.75 33.76 17.74 33.7 17.74 33.64 17.75 33.58 17.75 33.52 17.77 33.45 17.77 33.4 17.78 33.34 17.79 33.29 17.8 33.24 17.81 33.19 17.82 33.17 17.83 33.14 17.84 33.1 17.84 33.06 17.86 33.01 17.89 32.96 17.91 32.91 17.93 32.86 17.97 32.8 18.01 32.76 18.05 32.71 18.09 32.67 18.14 32.63 18.2 32.61 18.26 32.58 18.32 32.57 18.38 32.57 18.52 32.59 18.62 32.62 18.7 32.67 18.76 32.72 18.8 32.79 18.82 32.86 18.83 32.92 18.83 33.04 18.83 33.15 18.82 33.25 18.8 33.34 18.77 33.42 18.74 33.49 18.71 33.57 18.67 33.63 18.62 33.69 18.58 33.73 18.53 33.77 18.48 33.81 18.43 33.84 18.38 33.85 18.34 33.87 18.29 33.88 18.25 33.9 18.14 33.92 18.02 33.93 17.92 33.94 17.82"/><polygon class="cls-2" points="41.95 19.16 41.97 19.07 42 18.97 42.05 18.88 42.12 18.8 42.19 18.73 42.29 18.68 42.39 18.65 42.5 18.64 42.61 18.65 42.71 18.68 42.81 18.73 42.88 18.8 42.95 18.88 43 18.97 43.04 19.07 43.05 19.16 42.93 19.16 42.93 19.09 42.9 19.01 42.86 18.93 42.81 18.86 42.75 18.81 42.67 18.77 42.59 18.74 42.5 18.74 42.41 18.74 42.33 18.77 42.25 18.81 42.19 18.86 42.14 18.93 42.1 19.01 42.08 19.09 42.07 19.16 41.95 19.16"/><polygon class="cls-2" points="42.3 19.16 42.3 18.93 42.52 18.93 42.57 18.94 42.61 18.94 42.64 18.95 42.67 18.97 42.69 19 42.7 19.02 42.71 19.04 42.72 19.07 42.71 19.1 42.7 19.13 42.69 19.16 42.69 19.16 42.52 19.16 42.54 19.16 42.56 19.16 42.58 19.15 42.61 19.15 42.62 19.13 42.63 19.12 42.64 19.1 42.64 19.07 42.63 19.05 42.63 19.04 42.61 19.03 42.6 19.02 42.58 19.02 42.56 19.01 42.54 19.01 42.52 19.01 42.4 19.01 42.4 19.16 42.3 19.16"/><polygon class="cls-2" points="41.95 19.16 41.95 19.19 41.97 19.3 42 19.4 42.05 19.5 42.12 19.58 42.19 19.64 42.29 19.69 42.39 19.73 42.5 19.74 42.61 19.73 42.71 19.69 42.81 19.64 42.88 19.58 42.95 19.5 43 19.4 43.04 19.3 43.05 19.19 43.05 19.16 42.93 19.16 42.93 19.19 42.93 19.28 42.9 19.37 42.86 19.44 42.81 19.51 42.75 19.56 42.67 19.6 42.59 19.63 42.5 19.64 42.41 19.63 42.33 19.6 42.25 19.56 42.19 19.51 42.14 19.44 42.1 19.37 42.08 19.28 42.07 19.19 42.07 19.16 41.95 19.16"/><polygon class="cls-2" points="42.3 19.16 42.3 19.4 42.4 19.4 42.4 19.21 42.5 19.21 42.61 19.4 42.7 19.4 42.58 19.21 42.61 19.21 42.63 19.2 42.66 19.19 42.67 19.18 42.69 19.16 42.52 19.16 42.5 19.17 42.4 19.17 42.4 19.16 42.3 19.16"/><path class="cls-5" d="M42,19.2h0V19l.06-.09.06-.08.09-.07.09,0,.1,0h.22l.1,0,.09,0,.08.07.07.08L43,19l0,.11v.11h0v.11l0,.11-.05.09-.07.08-.08.07-.09,0-.1,0h-.22l-.1,0,0-.06-.08-.06-.07-.08,0-.1v-.21m.45.21h-.11v-.47h.31v0h0V19h-.08l.12.2h-.08l-.11,0h-.1v.2m.1-.2h.08v0h0v0h-.19v.08h.09m0,.47h.18l.07-.05.06-.05.05-.07,0-.07V19.2h0V19l0-.07,0-.09-.06-.05-.08,0-.08,0H42.4l-.09,0-.07,0-.06.05,0,.08,0,.07v.19h0v.18l0,.07,0,.07.06.05.07.05h.18"/><polygon class="cls-2" points="35.17 19.7 36.27 19.7 36.27 19.7 36.66 17.48 36.68 17.4 36.7 17.32 36.73 17.23 36.76 17.14 36.79 17.06 36.84 16.97 36.9 16.9 36.96 16.82 37.03 16.76 37.11 16.69 37.2 16.64 37.29 16.59 37.41 16.55 37.53 16.52 37.67 16.5 37.82 16.49 37.87 16.49 37.9 16.49 37.92 16.49 37.92 16.49 38.09 15.49 37.98 15.5 37.88 15.51 37.78 15.53 37.69 15.56 37.6 15.59 37.52 15.62 37.44 15.67 37.37 15.71 37.3 15.77 37.23 15.82 37.17 15.89 37.11 15.95 37.05 16.01 36.99 16.09 36.93 16.16 36.88 16.24 37 15.53 35.9 15.53 35.17 19.7"/><polyline class="cls-5" points="35.17 19.7 36.27 19.7 36.27 19.7 36.66 17.48 36.66 17.48 36.68 17.4 36.7 17.32 36.73 17.23 36.76 17.14 36.79 17.06 36.84 16.97 36.9 16.9 36.96 16.82 37.03 16.76 37.11 16.69 37.2 16.64 37.29 16.59 37.41 16.55 37.53 16.52 37.67 16.5 37.82 16.49 37.82 16.49 37.87 16.49 37.9 16.49 37.92 16.49 37.92 16.49 38.09 15.49 38.09 15.49 37.98 15.5 37.88 15.51 37.78 15.53 37.69 15.56 37.6 15.59 37.52 15.62 37.44 15.67 37.37 15.71 37.3 15.77 37.23 15.82 37.17 15.89 37.11 15.95 37.05 16.01 36.99 16.09 36.93 16.16 36.88 16.24 37 15.53 35.9 15.53 35.17 19.7 35.17 19.7"/><polygon class="cls-2" points="24.87 19.7 25.96 19.7 25.99 19.7 26.36 17.48 26.38 17.4 26.4 17.32 26.41 17.24 26.44 17.16 26.47 17.08 26.51 17 26.56 16.94 26.61 16.87 26.68 16.81 26.74 16.75 26.83 16.7 26.92 16.66 27.03 16.63 27.15 16.6 27.29 16.58 27.44 16.57 27.45 16.57 27.46 16.57 27.49 16.57 27.51 16.57 27.52 16.58 27.54 16.58 27.55 16.58 27.55 16.58 27.56 16.57 27.57 16.52 27.58 16.45 27.61 16.37 27.63 16.27 27.66 16.16 27.7 16.05 27.73 15.94 27.76 15.86 27.8 15.79 27.84 15.72 27.88 15.65 27.91 15.59 27.94 15.55 27.96 15.52 27.97 15.51 27.96 15.51 27.95 15.5 27.93 15.5 27.9 15.5 27.87 15.5 27.84 15.49 27.82 15.49 27.79 15.49 27.67 15.5 27.56 15.51 27.46 15.53 27.36 15.55 27.28 15.58 27.19 15.62 27.12 15.66 27.05 15.71 26.98 15.76 26.92 15.82 26.86 15.87 26.8 15.94 26.74 16.01 26.69 16.08 26.63 16.16 26.58 16.24 26.71 15.53 25.6 15.53 24.87 19.7"/><polyline class="cls-5" points="24.87 19.7 25.96 19.7 25.99 19.7 26.36 17.48 26.36 17.48 26.38 17.4 26.4 17.32 26.41 17.24 26.44 17.16 26.47 17.08 26.51 17 26.56 16.94 26.61 16.87 26.68 16.81 26.74 16.75 26.83 16.7 26.92 16.66 27.03 16.63 27.15 16.6 27.29 16.58 27.44 16.57 27.44 16.57 27.45 16.57 27.46 16.57 27.49 16.57 27.51 16.57 27.52 16.58 27.54 16.58 27.55 16.58 27.55 16.58 27.55 16.58 27.56 16.57 27.57 16.52 27.58 16.45 27.61 16.37 27.63 16.27 27.66 16.16 27.7 16.05 27.73 15.94 27.73 15.94 27.76 15.86 27.8 15.79 27.84 15.72 27.88 15.65 27.91 15.59 27.94 15.55 27.96 15.52 27.97 15.51 27.97 15.51 27.96 15.51 27.95 15.5 27.93 15.5 27.9 15.5 27.87 15.5 27.84 15.49 27.82 15.49 27.79 15.49 27.79 15.49 27.67 15.5 27.56 15.51 27.46 15.53 27.36 15.55 27.28 15.58 27.19 15.62 27.12 15.66 27.05 15.71 26.98 15.76 26.92 15.82 26.86 15.87 26.8 15.94 26.74 16.01 26.69 16.08 26.63 16.16 26.58 16.24 26.71 15.53 25.6 15.53 24.87 19.7 24.87 19.7"/><polygon class="cls-3" points="41.97 23.79 41.97 23.78 42 23.68 42.05 23.59 42.12 23.51 42.19 23.45 42.29 23.4 42.39 23.37 42.5 23.36 42.61 23.37 42.71 23.4 42.81 23.45 42.88 23.51 42.95 23.59 43 23.68 43.04 23.78 43.04 23.79 42.93 23.79 42.9 23.71 42.86 23.64 42.81 23.57 42.75 23.51 42.67 23.47 42.59 23.45 42.5 23.44 42.41 23.45 42.33 23.47 42.25 23.51 42.19 23.57 42.14 23.64 42.1 23.71 42.08 23.79 41.97 23.79"/><polygon class="cls-3" points="42.3 23.79 42.3 23.66 42.52 23.66 42.57 23.66 42.61 23.66 42.64 23.67 42.67 23.69 42.69 23.71 42.7 23.73 42.71 23.75 42.72 23.79 42.64 23.79 42.64 23.77 42.63 23.75 42.63 23.74 42.61 23.73 42.6 23.72 42.58 23.72 42.56 23.71 42.54 23.71 42.52 23.71 42.4 23.71 42.4 23.79 42.3 23.79"/><polygon class="cls-3" points="41.95 23.88 41.97 23.79 42.08 23.79 42.08 23.8 42.07 23.88 41.95 23.88"/><polygon class="cls-3" points="42.3 23.88 42.3 23.79 42.4 23.79 42.4 23.87 42.5 23.87 42.54 23.86 42.56 23.86 42.58 23.85 42.61 23.84 42.62 23.83 42.63 23.82 42.64 23.8 42.64 23.79 42.72 23.79 42.72 23.79 42.71 23.82 42.7 23.84 42.69 23.86 42.67 23.88 42.3 23.88"/><polygon class="cls-3" points="42.93 23.88 42.93 23.8 42.93 23.79 43.04 23.79 43.05 23.88 42.93 23.88"/><polygon class="cls-3" points="41.95 23.88 41.95 23.89 41.97 24 42 24.11 42.05 24.2 42.12 24.28 42.19 24.35 42.29 24.4 42.39 24.43 42.5 24.44 42.61 24.43 42.71 24.4 42.81 24.35 42.88 24.28 42.95 24.2 43 24.11 43.04 24 43.05 23.89 43.05 23.88 42.93 23.88 42.93 23.89 42.93 23.98 42.9 24.07 42.86 24.14 42.81 24.2 42.75 24.26 42.67 24.31 42.59 24.33 42.5 24.34 42.41 24.33 42.33 24.31 42.25 24.26 42.19 24.2 42.14 24.14 42.1 24.07 42.08 23.98 42.07 23.89 42.07 23.88 41.95 23.88"/><polygon class="cls-3" points="42.3 23.88 42.3 24.1 42.4 24.1 42.4 23.91 42.5 23.91 42.61 24.1 42.7 24.1 42.58 23.91 42.61 23.91 42.63 23.9 42.66 23.89 42.67 23.88 42.67 23.88 42.3 23.88"/><path class="cls-2" d="M25,16.8v-.23l0-.21-.08-.18-.1-.15-.12-.14-.12-.1-.15-.1-.17-.09L24,15.54l-.16,0H23.1l-.29.05-.25.07-.22.09-.2.12L22,16l-.15.14-.12.16-.11.16-.09.17-.07.17-.06.17,0,.16,0,.15v.88l0,.26.06.23.1.21.11.18.13.15.16.14.16.11.17.1.18.07.19.06.2.05h1.72l.06,0,.06,0,.16-.95-.11.06-.11.06-.12.05-.1,0-.16-.1H23l-.08,0-.08,0-.06,0-.08-.05-.06-.06-.06-.06-.05-.07-.05-.06,0-.07,0-.08V17.9h2.53v-.24l.06-.33V16.8Zm-1,.36H22.51v-.29l0-.07,0-.07,0-.06.05-.06,0-.05.06,0,.06,0,.05,0h.61l.06,0,.05,0,.06,0,0,0,0,.06,0,.06v.06l0,.08v.35Z"/></g></g></svg>