<svg xmlns="http://www.w3.org/2000/svg" xmlns:xlink="http://www.w3.org/1999/xlink" viewBox="0 0 49 33"><defs><style>.cls-1{stroke:#b5b5b5;stroke-miterlimit:10;fill:url(#Безымянный_градиент_2);}.cls-2{fill:#009cde;}.cls-3{fill:#003087;}</style><linearGradient id="Безымянный_градиент_2" x1="24.5" y1="-894.5" x2="24.5" y2="-926.5" gradientTransform="matrix(1, 0, 0, -1, 0, -894)" gradientUnits="userSpaceOnUse"><stop offset="0" stop-color="#fff"/><stop offset="0.97" stop-color="#d9d9d9"/><stop offset="1" stop-color="#e2e9f1"/></linearGradient></defs><title>Ресурс 5</title><g id="Слой_2" data-name="Слой 2"><g id="Слой_1-2" data-name="Слой 1"><path class="cls-1" d="M46.7,32.5H2.3A1.76,1.76,0,0,1,.5,30.72V2.28A1.76,1.76,0,0,1,2.3.5H46.7a1.76,1.76,0,0,1,1.8,1.78V30.72A1.76,1.76,0,0,1,46.7,32.5Z"/><path class="cls-2" d="M40.64,14.52a5,5,0,0,0-2.22-.42,12.63,12.63,0,0,0-1.5.12c-.36.06-.42.06-.66.12a.74.74,0,0,0-.54.6l-.18.6c-.06.42.12.36.24.36s.3-.12.72-.24a4.43,4.43,0,0,1,1.14-.18,2.82,2.82,0,0,1,1.14.18.58.58,0,0,1,.36.54v.18c0,.06-.06.12-.18.12l-1.86.18a5.36,5.36,0,0,0-1.56.42,2.21,2.21,0,0,0-1.08.84,2.28,2.28,0,0,0-.36,1.32,1.68,1.68,0,0,0,.48,1.2,1.94,1.94,0,0,0,1.32.42,2.71,2.71,0,0,0,.78-.06c.18-.06.36-.12.6-.18a2.43,2.43,0,0,0,.54-.3l.48-.3h0l-.06.18h0c-.06.24.12.42.36.48h1.2a.64.64,0,0,0,.54-.48l.9-3.9c0-.12.06-.18.06-.3v-.3A1.13,1.13,0,0,0,40.64,14.52ZM38.42,19.2a1.8,1.8,0,0,1-.48.24,1.29,1.29,0,0,1-.66.12,2.24,2.24,0,0,1-.72-.12c-.18-.06-.24-.24-.24-.48a.9.9,0,0,1,.18-.6A2.09,2.09,0,0,1,37,18c.24-.06.48-.12.84-.18s.84-.12.9-.12.12-.06.06.18c0,.06-.18.72-.24,1.08C38.6,19,38.48,19.14,38.42,19.2Z"/><path class="cls-3" d="M25,14.22a1.23,1.23,0,0,0-.78.48l-2,3.36c-.12.18-.18.06-.18,0s-.54-3.36-.54-3.36a.72.72,0,0,0-.66-.48H19.7a.38.38,0,0,0-.36.48s.84,4.8,1,5.94a1.78,1.78,0,0,1,0,.72l-1.08,1.92c-.18.24-.06.48.18.48h1.26a1.23,1.23,0,0,0,.78-.48l5-8.4s.48-.72.06-.72-1.56.06-1.56.06"/><path class="cls-3" d="M9.32,15.9a2.41,2.41,0,0,1-1.56.42h-.3a.38.38,0,0,1-.36-.48l.36-1.62a.65.65,0,0,1,.6-.48h.42A1.8,1.8,0,0,1,9.56,14a.86.86,0,0,1,.36.72,1.27,1.27,0,0,1-.6,1.2M12,13.44a1.91,1.91,0,0,0-.66-.72,4.51,4.51,0,0,0-1.08-.42,10,10,0,0,0-1.44-.12H6.26a.71.71,0,0,0-.6.48l-1.8,7.62a.38.38,0,0,0,.36.48H5.48a.63.63,0,0,0,.6-.48l.42-1.86a.65.65,0,0,1,.6-.48h.36A5.64,5.64,0,0,0,11,17a2.89,2.89,0,0,0,1.26-2.46A2.05,2.05,0,0,0,12,13.44"/><path class="cls-2" d="M31.94,16a2.41,2.41,0,0,1-1.56.42h-.3a.38.38,0,0,1-.36-.48l.36-1.62a.65.65,0,0,1,.6-.48h.42a1.8,1.8,0,0,1,1.08.24.86.86,0,0,1,.36.72,1.48,1.48,0,0,1-.6,1.2m2.7-2.52a1.91,1.91,0,0,0-.66-.72,4.51,4.51,0,0,0-1.08-.42,10,10,0,0,0-1.44-.12H28.88a.71.71,0,0,0-.6.48l-1.74,7.62a.38.38,0,0,0,.36.48h1.26a.71.71,0,0,0,.6-.48l.42-1.86a.65.65,0,0,1,.6-.48h.36a5.64,5.64,0,0,0,3.54-1,2.89,2.89,0,0,0,1.26-2.46,2.85,2.85,0,0,0-.3-1.08"/><path class="cls-3" d="M18,14.52a5,5,0,0,0-2.22-.42,12.63,12.63,0,0,0-1.5.12c-.36.06-.42.06-.66.12a.74.74,0,0,0-.54.6l-.18.6c-.06.42.12.36.24.36s.3-.12.72-.24A4.43,4.43,0,0,1,15,15.48a2.82,2.82,0,0,1,1.14.18.58.58,0,0,1,.36.54v.18c0,.06-.06.12-.18.12l-1.86.18a5.36,5.36,0,0,0-1.56.42,4.61,4.61,0,0,0-1,.9,2.28,2.28,0,0,0-.36,1.32,1.68,1.68,0,0,0,.48,1.2A2,2,0,0,0,13.4,21a2.71,2.71,0,0,0,.78-.06c.18-.06.36-.12.6-.18a2.43,2.43,0,0,0,.54-.3l.48-.3h0l-.06.18h0c-.06.24.12.42.36.48h1.14a.73.73,0,0,0,.54-.48l.9-3.9c0-.12.06-.18.06-.3v-.3A1.32,1.32,0,0,0,18,14.52ZM15.86,19.2a1.8,1.8,0,0,1-.48.24,1.29,1.29,0,0,1-.66.12,2.24,2.24,0,0,1-.72-.12c-.18-.06-.24-.24-.24-.48a.9.9,0,0,1,.18-.6,1.22,1.22,0,0,1,.54-.36c.24-.06.48-.12.84-.18s.84-.12.9-.12.12-.06.06.18c0,.06-.18.72-.24,1.08C16,19,15.92,19.14,15.86,19.2Z"/><path class="cls-2" d="M45,12.24H43.82a.72.72,0,0,0-.6.42v.06a1.05,1.05,0,0,1-.06.3L41.6,20a1.05,1.05,0,0,0-.06.3h0a.41.41,0,0,0,.3.48H43a.72.72,0,0,0,.6-.42v-.06l1.68-7.56h0A.33.33,0,0,0,45,12.24Z"/></g></g></svg>