<svg xmlns="http://www.w3.org/2000/svg" xmlns:xlink="http://www.w3.org/1999/xlink" viewBox="0 0 49 33"><defs><style>.cls-1{stroke:#b5b5b5;stroke-miterlimit:10;fill:url(#Безымянный_градиент_2);}.cls-2{fill:#0066b2;}.cls-3{fill:#f9a533;}</style><linearGradient id="Безымянный_градиент_2" x1="24.5" y1="-80.3" x2="24.5" y2="-48.3" gradientTransform="translate(0 80.8)" gradientUnits="userSpaceOnUse"><stop offset="0" stop-color="#fff"/><stop offset="0.97" stop-color="#d9d9d9"/><stop offset="1" stop-color="#e2e9f1"/></linearGradient></defs><title>Ресурс 4</title><g id="Слой_2" data-name="Слой 2"><g id="Слой_1-2" data-name="Слой 1"><path class="cls-1" d="M46.7,32.5H2.3A1.76,1.76,0,0,1,.5,30.72V2.28A1.76,1.76,0,0,1,2.3.5H46.7a1.76,1.76,0,0,1,1.8,1.78V30.72A1.76,1.76,0,0,1,46.7,32.5Z"/><polygon class="cls-2" points="21.74 22.98 18.38 22.98 20.48 10.08 23.84 10.08 21.74 22.98"/><path class="cls-2" d="M15.56,10.08,12.38,19,12,17h0l-1.14-5.82s-.12-1.14-1.62-1.14H4l-.06.24a13.42,13.42,0,0,1,3.54,1.5L10.4,23h3.48l5.34-12.9C19.22,10.08,15.56,10.08,15.56,10.08Z"/><path class="cls-2" d="M42,23h3.06l-2.7-12.9h-2.7a1.54,1.54,0,0,0-1.56,1L33.14,23h3.48l.72-1.92H41.6ZM38.3,18.42,40,13.62l1,4.8Z"/><path class="cls-2" d="M33.38,13.14l.48-2.76a10.18,10.18,0,0,0-3-.54c-1.68,0-5.64.72-5.64,4.26,0,3.36,4.62,3.36,4.62,5.1s-4.14,1.44-5.52.36l-.48,2.88a9.48,9.48,0,0,0,3.78.72c2.28,0,5.76-1.2,5.76-4.44s-4.68-3.66-4.68-5.1S31.94,12.36,33.38,13.14Z"/><path class="cls-3" d="M12,17l-1.14-5.82s-.12-1.14-1.62-1.14H4l-.06.24a13.28,13.28,0,0,1,5,2.52A9.67,9.67,0,0,1,12,17Z"/></g></g></svg>