<?xml version="1.0" encoding="utf-8"?>
<!-- Generator: Adobe Illustrator 22.1.0, SVG Export Plug-In . SVG Version: 6.00 Build 0)  -->
<svg version="1.1" id="Слой_1" xmlns="http://www.w3.org/2000/svg" xmlns:xlink="http://www.w3.org/1999/xlink" x="0px" y="0px"
	 viewBox="0 0 63.9 54" style="enable-background:new 0 0 63.9 54;" xml:space="preserve">
<style type="text/css">
	.st0{fill:#003366;stroke:#003366;stroke-width:0.216;stroke-linecap:round;stroke-linejoin:round;stroke-miterlimit:22.9256;}
</style>
<g>
	<path class="st0" d="M13.6,12.3c1.4,0.3,2.4,1.7,2.2,3.1c-0.3,1.5-1.7,2.4-3.1,2.2c-1.4-0.3-2.4-1.7-2.1-3.1
		C10.7,13,12.1,12.1,13.6,12.3L13.6,12.3z M12.3,19.4c2.5,0.4,4.8-1.2,5.3-3.7s-1.2-4.8-3.7-5.3c-2.5-0.4-4.8,1.2-5.3,3.7
		C8.2,16.6,9.8,19,12.3,19.4L12.3,19.4z"/>
	<path class="st0" d="M16.9,37.7c-1.4-0.3-2.4-1.7-2.2-3.1c0.3-1.5,1.7-2.4,3.1-2.2c1.4,0.3,2.4,1.7,2.1,3.1
		C19.8,37,18.4,38,16.9,37.7L16.9,37.7z M21.9,35.9c0.4-2.5-1.2-4.8-3.7-5.3c-2.5-0.4-4.8,1.2-5.3,3.7c-0.4,2.5,1.2,4.8,3.7,5.3
		S21.4,38.3,21.9,35.9L21.9,35.9z"/>
	<path class="st0" d="M9.7,28.6c-1.5-0.3-2.5-1.7-2.2-3.2c0.3-1.5,1.7-2.5,3.2-2.2s2.5,1.7,2.2,3.2C12.6,27.8,11.2,28.8,9.7,28.6
		L9.7,28.6z M11,21.4c-2.5-0.5-4.9,1.2-5.3,3.7c-0.5,2.5,1.2,4.9,3.7,5.3c2.5,0.5,4.9-1.2,5.3-3.7C15.2,24.2,13.5,21.8,11,21.4
		L11,21.4z"/>
	<path class="st0" d="M41.8,40.3c-0.2,0.2-0.5,0.2-0.7,0L34.8,34c-0.2-0.2-0.2-0.5,0-0.7l0.2-0.2c0.2-0.2,0.5-0.2,0.7,0
		c6.8,6.8,6.4,6.4,6.4,6.6C42.1,40,41.9,40.1,41.8,40.3L41.8,40.3z M34.8,43.7c-1.4-1.4-2-2-3.4-3.4l2.8-4.1l4.7,4.7L34.8,43.7
		L34.8,43.7z M31.5,49.7c-2.2,2.2-5.4,3-8.2,2c-1.4-4.1,1.3-9.6,5.5-9.6c1.1,0,2.2,0.4,3,1.2C33.5,45,33.4,47.9,31.5,49.7L31.5,49.7
		z M22,45.1C9.6,44.2,0.5,33,2.2,20.6C3.8,9.4,13.6,1.7,24.3,2c4.9,0.2,9,1.9,9.3,4c0.3,1.8-2.1,3.7-2.4,3.9l-3.8,2.9
		c-3,2.3-3.4,6.6-0.9,9.4c2.1,2.3,5.8,2.8,8.5,0.8l3.8-2.9c0.9-0.6,2.3-1.4,3.5-1.4c1.6,0,2.6,1.6,2.8,4.7l-9,7.9
		c-2-0.7-4.1,1.5-3.2,3.4c-3.7,5.5-3.6,5.2-3.7,5.5C26,40,23.4,42.2,22,45.1L22,45.1z M63,12.1c-1.8-1.8-4.4-0.5-5.5,0.4l-10.7,9.4
		c-0.6-4.1-2.7-5.1-4.5-5.1c-2,0-4,1.3-4.6,1.8l-3.8,2.9c-2.1,1.6-5.1,1-6.5-1.3c-1.2-2-0.7-4.5,1.1-5.9l3.8-2.9
		c5.5-4.2,3.9-9.9-6.2-11.1c-12.2-1.5-24,7.1-25.9,20c-1.9,13.3,7.8,25.4,21,26.7c-0.5,1.9-0.4,4,0.4,5.9c0.1,0.2,0.3,0.4,0.5,0.5
		c5.7,2.4,13-1.8,12.6-7.5c0.3,0-0.1,0.2,5.6-3.7c2,0.9,4.2-1.1,3.4-3.1l13.3-15.1c0.3-0.4,0.3-1-0.1-1.3c-0.4-0.3-1-0.3-1.3,0.1
		l-13,14.9l-5-5c0.4-0.4,20.2-17.7,21.1-18.5c0,0,1.9-1.6,3-0.5c1.1,1.1-0.5,2.9-0.5,3l-3.5,4c-0.3,0.4-0.3,1,0.1,1.3
		c0.4,0.3,1,0.3,1.3-0.1l3.5-4C63.5,16.5,64.9,13.9,63,12.1L63,12.1z"/>
</g>
</svg>
