<?xml version="1.0" encoding="utf-8"?>
<!-- Generator: Adobe Illustrator 22.1.0, SVG Export Plug-In . SVG Version: 6.00 Build 0)  -->
<svg version="1.1" id="Слой_1" xmlns="http://www.w3.org/2000/svg" xmlns:xlink="http://www.w3.org/1999/xlink" x="0px" y="0px"
	 viewBox="0 0 66.8 54" style="enable-background:new 0 0 66.8 54;" xml:space="preserve">
<style type="text/css">
	.st0{fill:#003758;}
</style>
<path class="st0" d="M62.4,5c-5.7-6-15.2-6.5-21.6-1.2L33.4,10L26,3.8C19.7-1.5,10.2-1,4.4,5C1.4,8.2-0.2,12.6,0,17
	c0.2,4.4,2.3,8.6,5.7,11.4L9,31.2c-0.7,1.6-0.6,3.4,0.5,4.8c0.8,1.1,2,1.7,3.3,1.9c0.3,0,0.6,0,0.9,0c0,0.2,0,0.4,0,0.7
	c0,1.5,0.7,2.8,1.9,3.7c1,0.8,2.2,1.1,3.3,1c0,0.2,0,0.5,0,0.7c0,1.5,0.7,2.8,1.9,3.7c1,0.8,2.1,1.1,3.3,1c0,0.2,0,0.5,0,0.7
	c0,1.5,0.7,2.8,1.9,3.7c0.8,0.7,1.8,1,2.9,1c1.1,0,2.3-0.4,3.2-1.2l0.4-0.3c0.9,0.8,2.1,1.2,3.2,1.2c1.2,0,2.4-0.4,3.3-1.3
	c1-0.9,1.5-2.2,1.5-3.5c0-0.1,0-0.2,0-0.4c0.2,0,0.4,0.1,0.7,0.1c1.2,0,2.4-0.4,3.3-1.3c1-0.9,1.5-2.2,1.5-3.5c0-0.1,0-0.2,0-0.4
	c0.2,0,0.4,0.1,0.7,0.1c1.2,0,2.4-0.4,3.3-1.3c1-0.9,1.5-2.2,1.5-3.5c0-0.1,0-0.2,0-0.4c0.2,0,0.4,0.1,0.7,0.1
	c1.2,0,2.4-0.4,3.3-1.3c1-0.9,1.5-2.2,1.5-3.5c0-0.4-0.1-0.7-0.1-1c0,0,0,0,0,0l4.7-4c3.4-2.8,5.5-7,5.7-11.4
	C67,12.6,65.4,8.2,62.4,5z M7.1,26.8c-3-2.5-4.7-6-4.9-9.9C2,13,3.3,9.3,6,6.5c5-5.2,13.2-5.6,18.6-1l17.5,14.7
	c0.6,0.5,0.9,1.2,1,1.9c0,0.8-0.2,1.5-0.7,2c-1,1-2.5,1.1-3.6,0.2l-7.9-6.4c-0.5-0.4-1.1-0.3-1.5,0.2c0,0,0,0,0,0l0,0
	c-1.3,1.7-3.3,2.6-5.4,2.6c-3.8,0-6.9-3.1-6.9-6.9H15c0,3.4,1.8,6.3,4.5,7.9l-9.1,7.6c-0.1,0-0.1,0.1-0.1,0.1L7.1,26.8z M27.1,51.3
	c-0.6-0.5-1-1.3-1-2.1c0-0.8,0.3-1.6,1-2.1l0.6-0.5c0.2,1.1,0.7,2.1,1.5,2.9l1.6,1.5l-0.2,0.2C29.5,52,28.1,52.1,27.1,51.3z
	 M37.3,50.8c-1,0.9-2.6,1-3.6,0L30.6,48c-0.5-0.5-0.9-1.2-0.9-1.9c0-0.7,0.3-1.4,0.8-2c0.5-0.5,1.1-0.7,1.8-0.7
	c0.6,0,1.3,0.2,1.8,0.7l1,1l2.1,2c0.5,0.5,0.8,1.2,0.9,1.9C38.1,49.6,37.8,50.3,37.3,50.8z M42.7,45.7c-1,0.9-2.6,1-3.6,0l-0.4-0.4
	c0,0,0,0,0,0L36,42.8l0,0c-0.5-0.5-0.9-1.2-0.9-1.9c0-0.7,0.3-1.4,0.8-2c0.5-0.5,1.1-0.7,1.8-0.7c0.6,0,1.3,0.2,1.8,0.7l3.2,2.9
	c0.5,0.5,0.9,1.2,0.9,1.9C43.5,44.5,43.2,45.2,42.7,45.7z M48.1,40.6c-1,0.9-2.6,1-3.6,0l-3.2-2.9c-0.5-0.5-0.9-1.2-0.9-1.9
	s0.3-1.4,0.8-2c0.5-0.5,1.2-0.7,1.8-0.7c0.6,0,1.3,0.2,1.8,0.7l2.3,2.1l0.9,0.8c0.5,0.5,0.8,1.2,0.9,1.9
	C48.9,39.4,48.6,40.1,48.1,40.6z M53.5,35.4c-1,0.9-2.6,1-3.6,0l-0.4-0.4c0,0,0,0,0,0l-2.5-2.3l-0.3-0.3c-0.5-0.5-0.9-1.2-0.9-1.9
	c0-0.7,0.3-1.4,0.8-2c0.5-0.5,1.1-0.7,1.8-0.7c0.6,0,1.3,0.2,1.8,0.7l3.2,2.9c0.5,0.5,0.9,1.2,0.9,1.9S54,34.9,53.5,35.4z
	 M64.6,16.9c-0.2,3.9-2,7.4-4.9,9.9l-4.3,3.7c-0.1-0.2-0.3-0.3-0.4-0.5l-3.2-2.9c-1.8-1.7-4.7-1.7-6.5,0.1c-1,0.9-1.5,2.2-1.5,3.5
	c0,0.1,0,0.2,0,0.4c-1.4-0.2-2.9,0.2-3.9,1.2c-1,0.9-1.5,2.2-1.5,3.5c0,0.1,0,0.2,0,0.4c-1.4-0.2-2.9,0.2-3.9,1.2
	c-1,0.9-1.5,2.2-1.5,3.5c0,0.1,0,0.2,0,0.4c-1.4-0.2-2.9,0.2-3.9,1.2c-0.3,0.3-0.5,0.6-0.7,0.9c-0.1,0-0.3,0.1-0.4,0.2l-2.3,1.9
	c0,0,0,0,0,0l-0.3,0.3c-1,0.8-2.4,0.9-3.4,0.1c-0.6-0.5-1-1.3-1-2.1c0-0.8,0.3-1.6,0.9-2.1l0,0l0,0l11.2-9.4l-1.4-1.7l-11.2,9.4l0,0
	h0h0l-0.3,0.3c-1,0.8-2.4,0.9-3.4,0.1c-0.6-0.5-1-1.3-1-2.1s0.3-1.6,0.9-2.1l0,0l11.4-9.5l-1.4-1.7l-11.4,9.5c0,0,0,0,0,0L15,35.1
	c-0.6,0.5-1.2,0.7-2,0.6c-0.7-0.1-1.4-0.4-1.8-1c-0.8-1.1-0.6-2.8,0.6-3.8l10-8.3c0.7,0.2,1.5,0.3,2.3,0.3c2.4,0,4.7-0.9,6.3-2.6
	l7.2,5.8c2,1.6,4.7,1.4,6.5-0.4c0.9-1,1.4-2.3,1.3-3.6c-0.1-1.3-0.7-2.6-1.7-3.5l-8.5-7.1l7.1-5.9c5.5-4.6,13.7-4.1,18.6,1
	C63.5,9.3,64.8,13,64.6,16.9z"/>
</svg>
