<?xml version="1.0" encoding="utf-8"?>
<!-- Generator: Adobe Illustrator 22.1.0, SVG Export Plug-In . SVG Version: 6.00 Build 0)  -->
<svg version="1.1" id="Слой_1" xmlns="http://www.w3.org/2000/svg" xmlns:xlink="http://www.w3.org/1999/xlink" x="0px" y="0px"
	 viewBox="0 0 60.3 54" style="enable-background:new 0 0 60.3 54;" xml:space="preserve">
<style type="text/css">
	.st0{fill:#003366;stroke:#003366;stroke-width:0.4069;stroke-linecap:round;stroke-linejoin:round;stroke-miterlimit:22.9256;}
	.st1{fill:none;stroke:#003366;stroke-width:2.4414;stroke-linecap:round;stroke-linejoin:round;stroke-miterlimit:22.9256;}
</style>
<g>
	<path class="st0" d="M53.4,46.2v6H42v-6c-1.6,0-3.3,0-4.9,0c3.5-4.5,6.9-9.1,10.4-13.6c0.1-0.1,0.2-0.1,0.3,0
		c3.2,4.4,6.4,8.8,9.5,13.2c0.1,0.1,0.2,0.5-0.3,0.5L53.4,46.2L53.4,46.2z M29,0.8c-7.2,9.6-14,16.5-21.2,26.1
		C7.2,27.8,7.4,29,8.9,29h8.6v6.4c-1.2-1.6-2.3-3.2-3.5-4.8c-0.5-0.6-1.4-0.6-2,0c-3.9,5.1-7.5,9.8-11.5,15C-0.2,46.8,0.6,48,1.8,48
		h3.8v5.8h49.7V48c1,0,2,0,2.9,0c1.6-0.1,2.1-1.3,1.4-2.3c-3.6-5-7.2-10-10.8-14.9c-0.5-0.7-1.5-0.7-2,0l-3.7,4.9V29h7
		c1.1,0.1,2.2-1.1,1.4-2.3L31.4,0.8C30.7,0,29.7,0.1,29,0.8L29,0.8z M40.2,52.2H20.6c0-1.4,0-2.8,0-4.2c1,0,2,0,2.9,0
		c1.7,0,2.3-1,1.4-2.3l-5.7-7.8V27.2c-2.9,0-5.7,0-8.6,0c-0.6,0-0.5-0.5-0.3-0.8L29.5,3.2c0.4-0.5,1-0.5,1.3,0
		c6,8.5,12,14.8,18.1,23.3c0.3,0.4,0.1,0.8-0.4,0.8h-7.4V38c-2,2.6-3.9,5.1-5.9,7.7c-0.8,1.2-0.2,2.3,1.4,2.3h3.6L40.2,52.2
		L40.2,52.2z M18.8,46.2v6H7.4v-6c-1.3,0-3,0-4.3,0c-0.3,0-0.4-0.2-0.3-0.5c3.2-4.2,6.6-8.6,9.8-12.8c0.3-0.4,0.7-0.2,0.9,0
		c3.1,4.3,6.2,8.5,9.3,12.8c0.2,0.2,0,0.5-0.2,0.4L18.8,46.2L18.8,46.2z"/>
	<path class="st1" d="M51,47.2V50h-4.5 M16.4,47.2V50h-4.5"/>
</g>
</svg>
