<?xml version="1.0" encoding="utf-8"?>
<!-- Generator: Adobe Illustrator 22.1.0, SVG Export Plug-In . SVG Version: 6.00 Build 0)  -->
<svg version="1.1" id="Слой_1" xmlns="http://www.w3.org/2000/svg" xmlns:xlink="http://www.w3.org/1999/xlink" x="0px" y="0px"
	 viewBox="0 0 69.1 54" style="enable-background:new 0 0 69.1 54;" xml:space="preserve">
<style type="text/css">
	.st0{fill:#003366;stroke:#003366;stroke-width:0.7087;stroke-linecap:round;stroke-linejoin:round;stroke-miterlimit:22.9256;}
</style>
<g>
	<path class="st0" d="M57.5,32c-0.3,0.2-0.3,0.6-0.2,0.9l4.2,9.9l-26.8-7l4.8-18.3l26.9,7.1L57.5,32L57.5,32z M68.7,24
		c-0.1-0.3-0.3-0.5-0.6-0.6l-29.1-7.6c-0.2-0.1-0.4,0-0.6,0.1c-0.2,0.1-0.3,0.3-0.4,0.5l-5.2,19.8l-4.3,16.5
		c-0.1,0.4,0.1,0.8,0.6,0.9c0.1,0,0.1,0,0.2,0c0.3,0,0.7-0.2,0.7-0.6l4.1-15.8l28.4,7.4c0.1,0,0.1,0,0.2,0c0.2,0,0.4-0.1,0.6-0.3
		c0.2-0.2,0.2-0.5,0.1-0.8L59,32.8l9.5-8.1C68.7,24.6,68.8,24.3,68.7,24L68.7,24z"/>
	<path class="st0" d="M30.5,23.1L2.8,20.9l7.2-8c0.2-0.3,0.3-0.6,0.1-0.9L4.2,2L32,4.2L30.5,23.1L30.5,23.1z M33.4,3
		c-0.1-0.2-0.3-0.3-0.5-0.3l-30-2.4c-0.3,0-0.6,0.1-0.7,0.4C2,1,2,1.3,2.1,1.5l6.3,10.7L0.6,21c-0.2,0.2-0.3,0.5-0.1,0.8
		c0.1,0.3,0.4,0.5,0.7,0.5l29.2,2.3l-0.7,9.1c0,0.4,0.3,0.8,0.7,0.8c0,0,0,0,0.1,0c0.4,0,0.7-0.3,0.8-0.7l0.8-9.8l1.6-20.4
		C33.6,3.4,33.5,3.1,33.4,3L33.4,3z"/>
	<path class="st0" d="M11.4,43.4c0.2,0,0.4-0.1,0.5-0.2l1.9-1.9c0.3-0.3,0.3-0.8,0-1.1s-0.8-0.3-1.1,0l-1.9,1.9
		c-0.3,0.3-0.3,0.8,0,1.1C11,43.3,11.2,43.4,11.4,43.4L11.4,43.4z"/>
	<path class="st0" d="M16.1,38.7c0.2,0,0.4-0.1,0.5-0.2l1.9-1.9c0.3-0.3,0.3-0.8,0-1.1s-0.8-0.3-1.1,0l-1.9,1.9
		c-0.3,0.3-0.3,0.8,0,1.1C15.7,38.6,15.9,38.7,16.1,38.7L16.1,38.7z"/>
	<path class="st0" d="M12.8,38.4c0.2,0.2,0.3,0.2,0.5,0.2c0.2,0,0.4-0.1,0.5-0.2c0.3-0.3,0.3-0.8,0-1.1L12,35.4
		c-0.3-0.3-0.8-0.3-1.1,0c-0.3,0.3-0.3,0.8,0,1.1L12.8,38.4L12.8,38.4z"/>
	<path class="st0" d="M17.5,43.2c0.2,0.2,0.3,0.2,0.5,0.2c0.2,0,0.4-0.1,0.5-0.2c0.3-0.3,0.3-0.8,0-1.1l-1.9-1.9
		c-0.3-0.3-0.8-0.3-1.1,0c-0.3,0.3-0.3,0.8,0,1.1L17.5,43.2L17.5,43.2z"/>
	<path class="st0" d="M39.1,34.4c0.1,0,0.1,0,0.2,0c0.3,0,0.7-0.2,0.7-0.6l3.3-13c0.1-0.4-0.1-0.8-0.6-0.9c-0.4-0.1-0.8,0.1-0.9,0.6
		l-3.3,13C38.5,33.9,38.7,34.3,39.1,34.4L39.1,34.4z"/>
	<path class="st0" d="M27.2,20.5C27.2,20.5,27.2,20.5,27.2,20.5c0.5,0,0.8-0.3,0.8-0.7l1-13.5c0-0.4-0.3-0.8-0.7-0.8
		c-0.4,0-0.8,0.3-0.8,0.7l-1,13.5C26.4,20.1,26.8,20.5,27.2,20.5L27.2,20.5z"/>
</g>
</svg>
