<?xml version="1.0" encoding="utf-8"?>
<!-- Generator: Adobe Illustrator 22.1.0, SVG Export Plug-In . SVG Version: 6.00 Build 0)  -->
<svg version="1.1" id="Слой_1" xmlns="http://www.w3.org/2000/svg" xmlns:xlink="http://www.w3.org/1999/xlink" x="0px" y="0px"
	 viewBox="0 0 52.8 54" style="enable-background:new 0 0 52.8 54;" xml:space="preserve">
<style type="text/css">
	.st0{fill:#003366;stroke:#003366;stroke-width:0.216;stroke-linecap:round;stroke-linejoin:round;stroke-miterlimit:22.9256;}
	.st1{fill:none;stroke:#003366;stroke-width:2.5511;stroke-linecap:round;stroke-linejoin:round;stroke-miterlimit:22.9256;}
	.st2{fill:none;stroke:#003366;stroke-width:2.5513;stroke-linecap:round;stroke-linejoin:round;stroke-miterlimit:22.9256;}
	.st3{fill:none;stroke:#003366;stroke-width:2.5512;stroke-linecap:round;stroke-linejoin:round;stroke-miterlimit:22.9256;}
</style>
<path class="st0" d="M36.6,15.1l-1.1-1.1c-1.6-1.6-3.9-2.3-6.1-2l-0.3-1.9c0.5-0.1,0.9-0.1,1.4-0.1c2.4,0,4.6,0.9,6.3,2.6l1.1,1.1
	L36.6,15.1L36.6,15.1z"/>
<path class="st0" d="M24.5,15.1l-1.3-1.3l1.1-1.1c0.7-0.7,1.5-1.3,2.4-1.7l0.8,1.7c-0.7,0.3-1.4,0.8-1.9,1.4L24.5,15.1L24.5,15.1z"
	/>
<polygon class="st0" points="4.4,37 6.2,37.2 6.5,35.3 4.6,35.1 "/>
<path class="st0" d="M19.7,46.6l-1.2-1.5l2-1.6c1-0.8,2-1.4,3.1-1.4c2.2-0.1,3.5-0.4,4.4-1.1L40.5,31c0.5-0.4,0.8-1,0.9-1.7
	s-0.1-1.3-0.5-1.8l-8.2-10.4c-0.8-1-2.5-1.2-3.5-0.4l-10.3,8.2c-0.3,0.2-0.6,0.3-1,0.3c-0.6-0.1-1.1-0.6-1.2-1.2l-0.6-7
	c-0.1-0.9-0.8-1.6-1.7-1.7c-1-0.1-2,0.6-2.1,1.7c0,0.1,0,0.2,0,0.3l0.5,11.3c0,0.3,0,0.6,0,0.9c-0.2,1.4-0.9,2.8-2.1,3.7L9.7,34
	l-1.2-1.5l1.1-0.9c0.7-0.6,1.2-1.5,1.3-2.4c0-0.2,0-0.4,0-0.6l-0.5-11.3c0-0.2,0-0.4,0-0.6c0.2-2.1,2.1-3.6,4.2-3.3
	c1.8,0.2,3.2,1.7,3.3,3.4l0.5,6l9.5-7.5c0.9-0.7,2.1-1.1,3.2-0.9s2.2,0.7,2.9,1.6l8.2,10.4c0.7,0.9,1.1,2.1,0.9,3.2
	s-0.7,2.2-1.6,2.9l-12.5,9.9c-1.6,1.2-3.6,1.5-5.5,1.5c-0.6,0-1.1,0.3-2,1L19.7,46.6L19.7,46.6z"/>
<path class="st0" d="M16.8,54l-1.2-1.5l2.7-2.1c0.5-0.4,0.8-1,0.9-1.7s-0.1-1.3-0.5-1.8L8,33.4c-0.8-1-2.5-1.2-3.5-0.4l-2.7,2.1
	l-1.2-1.5l2.7-2.1c0.9-0.7,2.1-1.1,3.2-0.9c1.1,0.1,2.2,0.7,2.9,1.6l10.7,13.5c0.7,0.9,1.1,2.1,0.9,3.2s-0.7,2.2-1.6,2.9L16.8,54
	L16.8,54z"/>
<path class="st1" d="M1.3,26c0-5.7,1.9-11.3,5.6-15.8c8.6-10.4,24-11.9,34.4-3.3"/>
<path class="st2" d="M51.2,32.1C48.8,43.3,39.4,51.6,28,52.8"/>
<path class="st3" d="M47,13.2c2.4,3.2,4,7,4.4,11"/>
</svg>
