<svg id="Layer_1" data-name="Layer 1" xmlns="http://www.w3.org/2000/svg" xmlns:xlink="http://www.w3.org/1999/xlink" viewBox="0 0 80 54"><defs><style>.cls-1{fill:url(#Безымянный_градиент);}.cls-2{fill:#fff;}</style><radialGradient id="Безымянный_градиент" cx="40" cy="-208.3" r="34.12" gradientTransform="matrix(1, 0, 0, -1, 0, -181.3)" gradientUnits="userSpaceOnUse"><stop offset="0" stop-color="#9dd5f6"/><stop offset="0.07" stop-color="#98d3f5"/><stop offset="0.16" stop-color="#89cef3"/><stop offset="0.25" stop-color="#70c6ef"/><stop offset="0.35" stop-color="#4ebbea"/><stop offset="0.45" stop-color="#23ade3"/><stop offset="0.5" stop-color="#0da6e0"/><stop offset="1" stop-color="#2e77bc"/></radialGradient></defs><title>american_express_Logo1</title><path class="cls-1" d="M77,54H3a3,3,0,0,1-3-3V3A3,3,0,0,1,3,0H77a3,3,0,0,1,3,3V51A3,3,0,0,1,77,54Z"/><path class="cls-2" d="M7.4,18.4L5.9,14.7,4.4,18.4m36.7-1.5a2,2,0,0,1-1.1.2H37.3V15h2.8a2,2,0,0,1,1.1.2,0.79,0.79,0,0,1,.5.8A1.46,1.46,0,0,1,41.1,16.9Zm19.4,1.5L59,14.7l-1.6,3.7h3.1Zm-36.1,4H22.1V15.1l-3.2,7.3h-2l-3.2-7.3v7.3H9.2L8.3,20.3H3.6L2.7,22.4H0.3l4-9.4H7.6l3.8,8.9V13H15l2.9,6.3L20.6,13h3.8v9.4h0Zm9.1,0H26V13h7.5v1.9H28.3v1.7h5.1v1.9H28.3v1.9h5.2v2Zm10.6-6.8a2.58,2.58,0,0,1-1.6,2.5,2.42,2.42,0,0,1,1.1.8,2.86,2.86,0,0,1,.4,1.7v1.8H41.7V21.2a2.23,2.23,0,0,0-.4-1.8,2.2,2.2,0,0,0-1.6-.4H37.3v3.4H35.1V13h5.1a5.51,5.51,0,0,1,2.7.4A2.48,2.48,0,0,1,44.1,15.6Zm3.5,6.8H45.4V13h2.3v9.4H47.6Zm26.5,0H70.9l-4.2-7v7H62.1l-0.9-2.1H56.6l-0.8,2.1H53.2a4.41,4.41,0,0,1-3.2-1,4.74,4.74,0,0,1-1.2-3.6A4.89,4.89,0,0,1,50,14.1,4.78,4.78,0,0,1,53.4,13h2.2v2H53.4a1.89,1.89,0,0,0-1.7.6,2.93,2.93,0,0,0-.6,2.1,3.4,3.4,0,0,0,.6,2.2,2.07,2.07,0,0,0,1.6.5h1L57.5,13h3.3l3.8,8.8V13H68l3.9,6.5V13h2.3l-0.1,9.4h0ZM0.3,24.3H4.1L5,22.2H6.9l0.9,2.1h7.5V22.7L16,24.3h3.9l0.7-1.6v1.6H39.3V20.9h0.4c0.3,0,.3,0,0.3.4v3h9.7V23.5a8,8,0,0,0,3.6.8h4.1l0.9-2.1h1.9l0.9,2.1h7.8v-2l1.2,2h6.3v-13H70.2v1.5l-0.9-1.5H62.9v1.5l-0.8-1.5H53.5a7.23,7.23,0,0,0-3.7.8V11.3H43.9v0.8a3.59,3.59,0,0,0-2.5-.8H19.3l-1.5,3.4-1.4-3.5H9.6v1.5L8.8,11.2H3L0.3,17.4v6.9h0Z"/><path class="cls-2" d="M79.8,31.2H75.7a1.22,1.22,0,0,0-.9.2,0.91,0.91,0,0,0-.3.7,0.67,0.67,0,0,0,.5.7,2.22,2.22,0,0,0,.9.1h1.2a3,3,0,0,1,2.5.8,0.38,0.38,0,0,0,.2.2m0,3.4a3.39,3.39,0,0,1-3,1.2H72.5v-2h4.3a2,2,0,0,0,.9-0.2,0.71,0.71,0,0,0,.3-0.6,0.6,0.6,0,0,0-.3-0.6,1.55,1.55,0,0,0-.8-0.2c-2.1-.1-4.7.1-4.7-2.9,0-1.4.9-2.8,3.2-2.8h4.5V27.3H75.8a4.45,4.45,0,0,0-2.8.8V27.3H66.9a4,4,0,0,0-2.7.8V27.3H53.1v0.8a6.14,6.14,0,0,0-3-.8H42.9v0.8c-0.7-.7-2.2-0.8-3.2-0.8H31.6l-1.8,2-1.7-2h-12V40.4H27.9l1.9-2,1.8,2h7.3V37.3h0.7a6.75,6.75,0,0,0,3.1-.5v3.5h6V36.9H49c0.4,0,.4,0,0.4.4v3H67.7a5.1,5.1,0,0,0,3-.8v0.8h5.8a8.45,8.45,0,0,0,3.3-.6V37.3h0Zm-8.9-3.7a2.82,2.82,0,0,1,.7,2c0,2-1.3,3-3.5,3H63.7v-2H68a2,2,0,0,0,.9-0.2,0.71,0.71,0,0,0,.3-0.6,0.6,0.6,0,0,0-.3-0.6,1.55,1.55,0,0,0-.8-0.2c-2.1-.2-4.7-0.1-4.7-3.1,0-1.4.9-2.8,3.2-2.8h4.5v2H67a1.22,1.22,0,0,0-.9.2,0.91,0.91,0,0,0-.3.7,0.67,0.67,0,0,0,.5.7,2.22,2.22,0,0,0,.9.1h1.2A4.12,4.12,0,0,1,70.9,33.6ZM50.7,33a2,2,0,0,1-1.1.2H46.9V31.1h2.8a2,2,0,0,1,1.1.2,0.89,0.89,0,0,1,.5.8A1.15,1.15,0,0,1,50.7,33Zm1.4,1.2a2.42,2.42,0,0,1,1.1.8,2.86,2.86,0,0,1,.4,1.7v1.9H51.4V37.4a2.23,2.23,0,0,0-.4-1.8,2.2,2.2,0,0,0-1.6-.4H47v3.4H44.8V29.2H50a5.51,5.51,0,0,1,2.7.4,2.15,2.15,0,0,1,1.1,2.1A3.12,3.12,0,0,1,52.1,34.2Zm2.8-5h7.5v1.9H57.2v1.7h5.1v1.9H57.2v1.9h5.2v1.9H54.9V29.2ZM39.8,33.5H36.9V31.1h2.9a1.15,1.15,0,0,1,1.4,1.1A1.19,1.19,0,0,1,39.8,33.5Zm-5.1,4.2-3.4-3.8,3.4-3.7v7.5Zm-8.9-1.1H20.3V34.7h4.9V32.8H20.3V31.1h5.6l2.4,2.7Zm17.8-4.4c0,2.6-1.9,3.1-3.9,3.1H36.9v3.1H32.6l-2.8-3.1-2.9,3.1H18V29h9l2.8,3.1L32.6,29h7.1C41.6,29.2,43.6,29.7,43.6,32.2Z"/></svg>