<?xml version="1.0" encoding="utf-8"?>
<!-- Generator: Adobe Illustrator 17.0.0, SVG Export Plug-In . SVG Version: 6.00 Build 0)  -->
<!DOCTYPE svg PUBLIC "-//W3C//DTD SVG 1.1//EN" "http://www.w3.org/Graphics/SVG/1.1/DTD/svg11.dtd" [
	<!ENTITY ns_extend "http://ns.adobe.com/Extensibility/1.0/">
	<!ENTITY ns_ai "http://ns.adobe.com/AdobeIllustrator/10.0/">
	<!ENTITY ns_graphs "http://ns.adobe.com/Graphs/1.0/">
	<!ENTITY ns_vars "http://ns.adobe.com/Variables/1.0/">
	<!ENTITY ns_imrep "http://ns.adobe.com/ImageReplacement/1.0/">
	<!ENTITY ns_sfw "http://ns.adobe.com/SaveForWeb/1.0/">
	<!ENTITY ns_custom "http://ns.adobe.com/GenericCustomNamespace/1.0/">
	<!ENTITY ns_adobe_xpath "http://ns.adobe.com/XPath/1.0/">
]>
<svg version="1.1" id="Слой_1" xmlns:x="&ns_extend;" xmlns:i="&ns_ai;" xmlns:graph="&ns_graphs;"
	 xmlns="http://www.w3.org/2000/svg" xmlns:xlink="http://www.w3.org/1999/xlink" x="0px" y="0px" width="42px" height="23px"
	 viewBox="0 0 42 23" enable-background="new 0 0 42 23" xml:space="preserve">
<metadata>
	<sfw  xmlns="&ns_sfw;">
		<slices></slices>
		<sliceSourceBounds  height="11.739" width="41.968" x="0.016" y="-17.37" bottomLeftOrigin="true"></sliceSourceBounds>
	</sfw>
</metadata>
<g>
	<path fill="#009CDE" d="M37.25,7.999c-0.479-0.266-1.227-0.401-2.251-0.401c-0.506,0-1.014,0.041-1.526,0.12
		c-0.375,0.057-0.413,0.067-0.645,0.117c-0.479,0.105-0.553,0.584-0.553,0.584l-0.153,0.632c-0.087,0.404,0.143,0.387,0.246,0.356
		c0.209-0.063,0.323-0.127,0.749-0.223c0.408-0.093,0.838-0.162,1.181-0.158c0.504,0,0.888,0.056,1.143,0.162
		c0.254,0.111,0.381,0.3,0.381,0.571c0.001,0.065,0.002,0.125-0.02,0.179c-0.022,0.049-0.061,0.098-0.182,0.114
		c-0.719,0.042-1.235,0.107-1.857,0.2c-0.613,0.086-1.149,0.234-1.599,0.439c-0.479,0.212-0.836,0.497-1.084,0.856
		c-0.239,0.362-0.361,0.8-0.362,1.316c0,0.487,0.175,0.885,0.514,1.194c0.343,0.305,0.79,0.455,1.329,0.455
		c0.337-0.002,0.602-0.027,0.79-0.075c0.187-0.047,0.391-0.114,0.608-0.208c0.161-0.069,0.335-0.164,0.518-0.287
		c0.185-0.123,0.311-0.21,0.475-0.316l0.006,0.01l-0.046,0.204c0,0.001-0.002,0.002-0.002,0.004v0.004
		c-0.053,0.245,0.094,0.447,0.335,0.473l0.004,0.004h0.02l0.001,0.001c0.161,0,0.712,0,0.968-0.001h0.179
		c0.011,0,0.014-0.004,0.018-0.006c0.246-0.03,0.484-0.232,0.539-0.474l0.92-3.969c0.02-0.094,0.038-0.201,0.047-0.327
		c0.011-0.125,0.025-0.228,0.022-0.303C37.968,8.683,37.726,8.267,37.25,7.999z M35.021,12.73c-0.157,0.098-0.322,0.182-0.495,0.256
		c-0.233,0.094-0.453,0.143-0.657,0.143c-0.314,0-0.555-0.044-0.716-0.139c-0.163-0.09-0.248-0.246-0.246-0.469
		c0-0.258,0.059-0.458,0.182-0.615c0.124-0.151,0.309-0.272,0.538-0.363c0.228-0.077,0.508-0.141,0.83-0.186
		c0.288-0.036,0.856-0.103,0.928-0.103s0.122-0.041,0.088,0.153c-0.014,0.083-0.179,0.757-0.254,1.064
		C35.198,12.561,35.076,12.695,35.021,12.73z"/>
	<path fill="#003087" d="M21.423,7.685c-0.269,0-0.623,0.219-0.79,0.482c0,0-1.805,3.094-1.983,3.403
		c-0.096,0.167-0.195,0.061-0.211,0c-0.012-0.076-0.557-3.383-0.557-3.383c-0.062-0.266-0.34-0.495-0.689-0.494l-1.124,0.001
		c-0.272,0-0.442,0.217-0.381,0.48c0,0,0.861,4.877,1.028,6.023c0.083,0.634-0.009,0.747-0.009,0.747l-1.115,1.944
		c-0.163,0.263-0.074,0.48,0.196,0.48l1.304-0.001c0.27,0,0.628-0.215,0.79-0.48l5.016-8.487c0,0,0.48-0.724,0.038-0.719
		C22.635,7.69,21.423,7.685,21.423,7.685"/>
	<path fill="#003087" d="M5.584,9.411c-0.381,0.277-0.906,0.416-1.59,0.416H3.686c-0.272,0-0.444-0.217-0.384-0.481l0.379-1.634
		C3.739,7.45,4.01,7.231,4.284,7.234l0.411-0.002c0.481,0,0.847,0.082,1.095,0.247C6.033,7.638,6.157,7.89,6.152,8.228
		C6.159,8.737,5.966,9.133,5.584,9.411 M8.304,6.893c-0.156-0.305-0.39-0.553-0.69-0.741C7.304,5.96,6.941,5.828,6.52,5.748
		C6.096,5.672,5.601,5.635,5.034,5.63l-2.63,0.002C2.131,5.635,1.864,5.85,1.801,6.112l-1.773,7.709
		c-0.061,0.263,0.109,0.481,0.382,0.481h1.261c0.271,0,0.542-0.212,0.603-0.481l0.434-1.871c0.058-0.262,0.327-0.478,0.6-0.478
		h0.359c1.541-0.001,2.736-0.316,3.594-0.947C8.119,9.895,8.549,9.06,8.547,8.028C8.546,7.574,8.468,7.196,8.304,6.893"/>
	<path fill="#009CDE" d="M28.454,9.443c-0.377,0.275-0.907,0.413-1.589,0.413h-0.313c-0.272,0.002-0.446-0.217-0.382-0.48
		l0.379-1.636c0.056-0.259,0.332-0.48,0.599-0.477l0.414-0.002c0.484,0.002,0.846,0.083,1.095,0.245
		c0.246,0.163,0.363,0.415,0.366,0.751C29.022,8.767,28.833,9.162,28.454,9.443 M31.173,6.921c-0.157-0.305-0.393-0.551-0.694-0.742
		c-0.308-0.191-0.672-0.324-1.095-0.403c-0.418-0.074-0.915-0.116-1.481-0.117h-2.636c-0.272,0.005-0.537,0.218-0.6,0.481
		l-1.771,7.709c-0.065,0.262,0.11,0.481,0.377,0.48l1.265-0.001c0.267,0.001,0.54-0.215,0.605-0.477l0.427-1.87
		c0.059-0.262,0.333-0.482,0.605-0.479h0.359c1.544,0,2.739-0.316,3.595-0.948c0.855-0.634,1.283-1.465,1.283-2.499
		C31.41,7.603,31.334,7.223,31.173,6.921"/>
	<path fill="#003087" d="M14.375,7.994c-0.479-0.267-1.225-0.403-2.249-0.403c-0.506,0-1.015,0.041-1.526,0.119
		c-0.375,0.058-0.413,0.069-0.645,0.119C9.476,7.935,9.402,8.414,9.402,8.414L9.248,9.045C9.161,9.451,9.392,9.434,9.495,9.402
		c0.209-0.063,0.323-0.124,0.748-0.222c0.406-0.094,0.838-0.162,1.182-0.159c0.504,0,0.888,0.054,1.142,0.161
		c0.254,0.111,0.381,0.301,0.381,0.572c0.001,0.065,0.004,0.125-0.02,0.177c-0.022,0.051-0.061,0.098-0.182,0.114
		c-0.719,0.043-1.235,0.109-1.859,0.2c-0.614,0.086-1.149,0.234-1.599,0.439c-0.479,0.212-0.836,0.497-1.083,0.857
		c-0.24,0.361-0.361,0.799-0.361,1.314c0,0.487,0.175,0.885,0.514,1.194c0.343,0.305,0.79,0.456,1.328,0.456
		c0.338-0.002,0.6-0.027,0.791-0.075c0.186-0.047,0.391-0.114,0.607-0.208c0.162-0.069,0.335-0.166,0.519-0.287
		c0.183-0.123,0.311-0.209,0.475-0.316l0.005,0.01l-0.046,0.203c0,0.002-0.002,0.004-0.002,0.005l0.001,0.004
		c-0.053,0.245,0.094,0.447,0.335,0.471l0.002,0.005h0.022v0.002c0.161,0,0.712-0.001,0.968-0.002h0.18
		c0.012,0,0.014-0.004,0.018-0.006c0.247-0.032,0.484-0.23,0.539-0.473l0.92-3.972c0.02-0.093,0.038-0.2,0.047-0.326
		c0.012-0.125,0.025-0.229,0.022-0.303C15.094,8.677,14.852,8.261,14.375,7.994z M12.148,12.725
		c-0.156,0.099-0.322,0.182-0.495,0.254c-0.232,0.094-0.453,0.143-0.657,0.143c-0.311,0-0.553-0.044-0.716-0.138
		c-0.162-0.09-0.248-0.246-0.246-0.469c0-0.258,0.059-0.458,0.183-0.615c0.124-0.152,0.306-0.272,0.536-0.363
		c0.228-0.077,0.509-0.141,0.832-0.186c0.287-0.036,0.855-0.101,0.928-0.103c0.072,0,0.12-0.041,0.088,0.152
		c-0.015,0.085-0.179,0.758-0.254,1.064C12.324,12.556,12.203,12.688,12.148,12.725z"/>
	<g>
		<g>
			<path fill="#009CDE" d="M41.591,5.723h-1.127h-0.001h-0.001c-0.254,0-0.508,0.194-0.586,0.439
				c-0.005,0.014-0.015,0.025-0.018,0.041c0,0-0.024,0.109-0.063,0.287l-1.553,7.044c-0.036,0.163-0.065,0.282-0.072,0.31
				l0.004,0.005c-0.052,0.243,0.094,0.439,0.333,0.464l0.007,0.01h1.17c0.254,0,0.51-0.196,0.586-0.442
				c0.004-0.012,0.014-0.025,0.018-0.038l1.689-7.64l-0.002-0.001C42.029,5.939,41.862,5.723,41.591,5.723z"/>
		</g>
	</g>
</g>
</svg>
