<?xml version="1.0" encoding="utf-8"?>
<!-- Generator: Adobe Illustrator 22.1.0, SVG Export Plug-In . SVG Version: 6.00 Build 0)  -->
<svg version="1.1" id="Слой_1" xmlns="http://www.w3.org/2000/svg" xmlns:xlink="http://www.w3.org/1999/xlink" x="0px" y="0px"
	 viewBox="0 0 34 34" style="enable-background:new 0 0 34 34;" xml:space="preserve">
<style type="text/css">
	.st0{fill:#5698D5;}
</style>
<g>
	<path class="st0" d="M31.8,19.8L34,6.5c0.1-0.3,0-0.7-0.2-0.9c-0.2-0.2-0.5-0.4-0.8-0.4H8.2L7.4,0.9C7.3,0.4,6.8,0,6.3,0H1.1
		C0.5,0,0,0.5,0,1.1s0.5,1.1,1.1,1.1h4.3l0.8,4.3l0,0l1.3,6.7l2.1,11.1c0.1,0.5,0.6,0.9,1.1,0.9h20c0.6,0,1.1-0.5,1.1-1.1
		S31.3,23,30.7,23H11.6l-0.4-2.2h19.5C31.3,20.7,31.7,20.3,31.8,19.8z M10.8,18.5L8.6,7.4h23l-1.9,11.1
		C29.8,18.5,10.8,18.5,10.8,18.5z"/>
	<path class="st0" d="M14.4,27.4c-1.8,0-3.3,1.5-3.3,3.3c0,1.8,1.5,3.3,3.3,3.3s3.3-1.5,3.3-3.3S16.3,27.4,14.4,27.4z M14.4,31.8
		c-0.6,0-1.1-0.5-1.1-1.1s0.5-1.1,1.1-1.1s1.1,0.5,1.1,1.1S15,31.8,14.4,31.8z"/>
	<path class="st0" d="M27,27.4c-1.8,0-3.3,1.5-3.3,3.3c0,1.8,1.5,3.3,3.3,3.3s3.3-1.5,3.3-3.3S28.8,27.4,27,27.4z M27,31.8
		c-0.6,0-1.1-0.5-1.1-1.1s0.5-1.1,1.1-1.1s1.1,0.5,1.1,1.1S27.6,31.8,27,31.8z"/>
	<path class="st0" d="M20.3,9.6c-0.6,0-1.1,0.5-1.1,1.1v4.4c0,0.6,0.5,1.1,1.1,1.1s1.1-0.5,1.1-1.1v-4.4C21.5,10.1,21,9.6,20.3,9.6z
		"/>
	<path class="st0" d="M27,9.6c-0.6,0-1.1,0.5-1.1,1.1v4.4c0,0.6,0.5,1.1,1.1,1.1s1.1-0.5,1.1-1.1v-4.4C28.1,10.1,27.6,9.6,27,9.6z"
		/>
	<path class="st0" d="M13.7,9.6c-0.6,0-1.1,0.5-1.1,1.1v4.4c0,0.6,0.5,1.1,1.1,1.1s1.1-0.5,1.1-1.1v-4.4
		C14.8,10.1,14.3,9.6,13.7,9.6z"/>
</g>
</svg>
