<?xml version="1.0" encoding="utf-8"?>
<!-- Generator: Adobe Illustrator 17.0.0, SVG Export Plug-In . SVG Version: 6.00 Build 0)  -->
<!DOCTYPE svg PUBLIC "-//W3C//DTD SVG 1.1//EN" "http://www.w3.org/Graphics/SVG/1.1/DTD/svg11.dtd" [
	<!ENTITY ns_extend "http://ns.adobe.com/Extensibility/1.0/">
	<!ENTITY ns_ai "http://ns.adobe.com/AdobeIllustrator/10.0/">
	<!ENTITY ns_graphs "http://ns.adobe.com/Graphs/1.0/">
	<!ENTITY ns_vars "http://ns.adobe.com/Variables/1.0/">
	<!ENTITY ns_imrep "http://ns.adobe.com/ImageReplacement/1.0/">
	<!ENTITY ns_sfw "http://ns.adobe.com/SaveForWeb/1.0/">
	<!ENTITY ns_custom "http://ns.adobe.com/GenericCustomNamespace/1.0/">
	<!ENTITY ns_adobe_xpath "http://ns.adobe.com/XPath/1.0/">
]>
<svg version="1.1" id="Слой_1" xmlns:x="&ns_extend;" xmlns:i="&ns_ai;" xmlns:graph="&ns_graphs;"
	 xmlns="http://www.w3.org/2000/svg" xmlns:xlink="http://www.w3.org/1999/xlink" x="0px" y="0px" width="85.001px" height="36px"
	 viewBox="0 0 85.001 36" enable-background="new 0 0 85.001 36" xml:space="preserve">
<metadata>
	<sfw  xmlns="&ns_sfw;">
		<slices></slices>
		<sliceSourceBounds  height="18.759" width="85.001" x="4.999" y="-27.379" bottomLeftOrigin="true"></sliceSourceBounds>
	</sfw>
</metadata>
<g>
	<polygon fill="#FFCB01" points="85,8.62 85,27.379 0,27.379 0,8.62 	"/>
	<path fill="#D83221" d="M14.948,11.99l-2.716,3.69c0,0,14.079,0,14.801,0c0.748,0,0.738,0.284,0.373,0.78
		c-0.371,0.503-0.993,1.377-1.371,1.888c-0.192,0.259-0.539,0.731,0.611,0.731c1.216,0,6.053,0,6.053,0s0.976-1.328,1.793-2.437
		c1.113-1.51,0.096-4.651-3.881-4.651C27.051,11.99,14.948,11.99,14.948,11.99L14.948,11.99z"/>
	<path fill="#D83221" d="M11.133,24.01l5.455-7.412c0,0,6.047,0,6.769,0c0.748,0,0.738,0.284,0.373,0.78
		c-0.371,0.503-1.003,1.368-1.381,1.879c-0.192,0.259-0.539,0.732,0.611,0.732c1.216,0,9.068,0,9.068,0
		c-0.754,1.033-3.2,4.021-7.593,4.021C20.874,24.01,11.133,24.01,11.133,24.01L11.133,24.01z"/>
	<polygon fill="#D83221" points="42.372,19.989 39.415,24.01 31.612,24.01 34.571,19.99 	"/>
	<polygon fill="#D83221" points="54.326,19.079 35.241,19.079 40.46,11.99 48.26,11.99 45.269,16.055 48.751,16.055 51.744,11.99 
		59.543,11.99 	"/>
	<polygon fill="#D83221" points="53.656,19.99 50.697,24.01 42.897,24.01 45.856,19.99 	"/>
	<polygon fill="#D83221" points="0,21.574 11.495,21.574 10.867,22.428 0,22.428 	"/>
	<polygon fill="#D83221" points="0,19.99 12.662,19.99 12.033,20.843 0,20.843 	"/>
	<polygon fill="#D83221" points="0,23.16 10.327,23.16 9.702,24.01 0,24.01 	"/>
	<polygon fill="#D83221" points="85.001,22.428 73.55,22.428 74.178,21.574 85.001,21.574 	"/>
	<polygon fill="#D83221" points="85.001,24.01 72.386,24.01 73.011,23.16 85.001,23.16 	"/>
	<polygon fill="#D83221" points="75.345,19.99 85.001,19.99 85.001,20.843 74.717,20.844 	"/>
	<polygon fill="#D83221" points="70.346,11.99 65.128,19.079 56.863,19.079 62.084,11.99 	"/>
	<path fill="#D83221" d="M56.193,19.99c0,0-0.57,0.779-0.847,1.154c-0.98,1.324-0.114,2.867,3.084,2.867c3.693,0,12.527,0,12.527,0
		l2.959-4.021H56.193L56.193,19.99z"/>
</g>
</svg>
