<svg id="Layer_1" data-name="Layer 1" xmlns="http://www.w3.org/2000/svg" viewBox="0 0 80 54"><defs><style>.cls-1{fill:#fecc00;}.cls-2{fill:#d50029;}</style></defs><title>dhl_Logo1</title><path class="cls-1" d="M77,54H3a3,3,0,0,1-3-3V3A3,3,0,0,1,3,0H77a3,3,0,0,1,3,3V51A3,3,0,0,1,77,54Z"/><path class="cls-2" d="M25.8,25.1A21.41,21.41,0,0,1,24.5,27c-0.2.3-.5,0.7,0.6,0.7h5.7s0.9-1.3,1.7-2.4c1-1.5.1-4.7-3.7-4.7H14.1l-2.6,3.7H25.4C26.1,24.3,26.1,24.6,25.8,25.1Zm-4.2,3.5c-1.1,0-.8-0.5-0.6-0.7A21.41,21.41,0,0,0,22.3,26c0.3-.5.4-0.8-0.4-0.8H15.5l-5.1,7.4H22.9a8.79,8.79,0,0,0,7.1-4H21.6Zm8.2,4.1h7.3l2.8-4H32.6C32.5,28.6,29.8,32.7,29.8,32.7ZM48.7,20.6l-2.8,4.1H42.6l2.8-4.1H38.1l-4.9,7.1h18l4.9-7.1H48.7ZM40.4,32.7h7.3l2.8-4H43.2C43.2,28.6,40.4,32.7,40.4,32.7ZM0,30.2v0.9H10.2l0.6-.9H0Zm11.9-1.6H0v0.9H11.3ZM0,32.7H9.1l0.6-.9H0v0.9Zm69.2-1.6H80V30.2H69.8Zm-1.1,1.6H80V31.8H68.7Zm2.8-4.1-0.6.9H80V28.6H70.9Zm-9.6-.9,4.9-7.1H58.4l-4.9,7.1h7.8Zm-8.4.9s-0.5.8-.8,1.2c-0.9,1.3-.1,2.9,2.9,2.9H66.8l2.8-4-16.7-.1h0Z"/></svg>