<svg id="Layer_1" data-name="Layer 1" xmlns="http://www.w3.org/2000/svg" xmlns:xlink="http://www.w3.org/1999/xlink" viewBox="0 0 81 55"><defs><style>.cls-1{stroke:#b5b5b5;stroke-miterlimit:10;fill:url(#Безымянный_градиент);}.cls-2{fill:url(#Безымянный_градиент_2);}.cls-3,.cls-4{isolation:isolate;}.cls-4{font-size:2.59px;font-family:Arial;}.cls-5{fill:#e0761e;}</style><linearGradient id="Безымянный_градиент" x1="40.47" y1="-179.68" x2="40.47" y2="-233.68" gradientTransform="matrix(1, 0, 0, -1, 0, -179.16)" gradientUnits="userSpaceOnUse"><stop offset="0" stop-color="#fff"/><stop offset="0.97" stop-color="#d9d9d9"/><stop offset="1" stop-color="#e2e9f1"/></linearGradient><radialGradient id="Безымянный_градиент_2" cx="-880.49" cy="1077.03" r="5.61" gradientTransform="translate(755.49 -843.92) scale(0.81 0.81)" gradientUnits="userSpaceOnUse"><stop offset="0" stop-color="#f0f0f0"/><stop offset="1" stop-color="#ff8330"/></radialGradient></defs><title>discover_Logo1</title><path class="cls-1" d="M77.47,54.52h-74a3,3,0,0,1-3-3v-48a3,3,0,0,1,3-3h74a3,3,0,0,1,3,3v48A3,3,0,0,1,77.47,54.52Z" transform="translate(0.03 -0.02)"/><g id="layer1"><path id="path3194" class="cls-2" d="M47.84,27.46a4.75,4.75,0,1,1-9.49,0,4.82,4.82,0,0,1,4.75-4.75A4.64,4.64,0,0,1,47.84,27.46Z" transform="translate(0.03 -0.02)"/></g><g class="cls-3"><path d="M13.57,27.22a4.55,4.55,0,0,1-.5,2,4.36,4.36,0,0,1-1.3,1.4,5,5,0,0,1-1.3.5,8.62,8.62,0,0,1-1.7.1H6.07v-8H9a7.93,7.93,0,0,1,1.7.2,3.34,3.34,0,0,1,1.2.5,3,3,0,0,1,1.3,1.4A3.81,3.81,0,0,1,13.57,27.22Zm-2.1,0a3.19,3.19,0,0,0-.3-1.4,2,2,0,0,0-.9-0.9,1.42,1.42,0,0,0-.6-0.2c-0.2,0-.6-0.1-1-0.1H8.07v5h0.5a3.11,3.11,0,0,0,1.1-.1,1.85,1.85,0,0,0,.7-0.2,1.42,1.42,0,0,0,.8-0.9A1.74,1.74,0,0,0,11.47,27.22Z" transform="translate(0.03 -0.02)"/><path d="M19.47,31.22h-4.7v-1.4h1.3v-5.2h-1.3v-1.4h4.7v1.4h-1.3v5.2h1.3v1.4Z" transform="translate(0.03 -0.02)"/><path d="M27.57,28.72a2.17,2.17,0,0,1-1,1.9,4.53,4.53,0,0,1-2.7.7,7.93,7.93,0,0,1-1.7-.2c-0.5-.1-1-0.3-1.4-0.4v-1.9H21a6.38,6.38,0,0,0,1.4.8,4,4,0,0,0,1.5.3h0.5a4.33,4.33,0,0,0,.5-0.1,1.47,1.47,0,0,0,.4-0.2,0.52,0.52,0,0,0,.2-0.4,1.06,1.06,0,0,0-.2-0.5,2.39,2.39,0,0,0-.7-0.3c-0.3-.1-0.6-0.1-1-0.2s-0.6-.1-0.9-0.2a2.75,2.75,0,0,1-1.5-.9,2.12,2.12,0,0,1-.4-1.4,2,2,0,0,1,1-1.8,4.21,4.21,0,0,1,2.6-.7,10,10,0,0,1,1.6.2,4,4,0,0,1,1.3.4v1.8h-0.2a2.28,2.28,0,0,0-1.2-.6,3.53,3.53,0,0,0-1.4-.3H24c-0.2,0-.3.1-0.5,0.1s-0.3.1-.4,0.2a0.52,0.52,0,0,0-.2.4,0.76,0.76,0,0,0,.2.5,4.65,4.65,0,0,0,.9.3c0.3,0.1.6,0.1,0.8,0.2s0.6,0.1.9,0.2a3.69,3.69,0,0,1,1.4.8A1.54,1.54,0,0,1,27.57,28.72Z" transform="translate(0.03 -0.02)"/><path d="M32.57,31.42a4.15,4.15,0,0,1-1.6-.3,3.53,3.53,0,0,1-1.3-.8,2.87,2.87,0,0,1-.8-1.3,4.84,4.84,0,0,1-.3-1.8,4.67,4.67,0,0,1,.3-1.7,4.11,4.11,0,0,1,.8-1.3,2.87,2.87,0,0,1,1.3-.8,4.67,4.67,0,0,1,1.7-.3,2.77,2.77,0,0,1,.9.1c0.3,0,.5.1,0.7,0.1s0.5,0.1.7,0.2a1.69,1.69,0,0,0,.5.2v1.9h-0.2a1.38,1.38,0,0,0-.4-0.3c-0.2-.1-0.3-0.2-0.5-0.3l-0.6-.3a1.7,1.7,0,0,0-.7-0.1,2,2,0,0,0-.8.1,1.53,1.53,0,0,0-.7.5,2.18,2.18,0,0,0-.5.8,3.73,3.73,0,0,0-.2,1.2,5.07,5.07,0,0,0,.2,1.3,2.18,2.18,0,0,0,.5.8,2.51,2.51,0,0,0,.7.4,2,2,0,0,0,.8.1,1.48,1.48,0,0,0,.7-0.1c0.2-.1.5-0.2,0.7-0.3s0.3-.2.5-0.3a1.38,1.38,0,0,0,.4-0.3h0.1v1.9l-0.6.3c-0.2.1-.4,0.1-0.6,0.2a6.37,6.37,0,0,0-.7.2A3.19,3.19,0,0,1,32.57,31.42Z" transform="translate(0.03 -0.02)"/></g><g class="cls-3"><path d="M56.37,23.22l-2.9,8h-2.3l-2.9-8h2.2l1.9,5.6,1.9-5.6h2.1Z" transform="translate(0.03 -0.02)"/><path d="M63.27,31.22h-5.8v-8h5.8v1.5h-3.7v1.4h3.5v1.5h-3.5v2h3.7v1.6Z" transform="translate(0.03 -0.02)"/><path d="M72.67,31.22h-2.5L68,28.32H67v2.9h-2.1v-8h3.6a4.12,4.12,0,0,1,1.2.1l1,0.3a2.34,2.34,0,0,1,.7.7,1.8,1.8,0,0,1,.3,1.1,2,2,0,0,1-.4,1.4,2.73,2.73,0,0,1-1.2.9Zm-3.2-5.5a0.75,0.75,0,0,0-.1-0.5,0.62,0.62,0,0,0-.4-0.3,0.75,0.75,0,0,0-.5-0.1h-1.4V27h1.4a1.42,1.42,0,0,0,.6-0.2,1.38,1.38,0,0,0,.3-0.4A2,2,0,0,0,69.47,25.72Z" transform="translate(0.03 -0.02)"/></g><text class="cls-4" transform="translate(73.59 23.21)">®</text><path class="cls-5" d="M77.07,54H23.17c24.2,0,56.9-19.3,56.9-27.5v24.4A3.1,3.1,0,0,1,77.07,54Z" transform="translate(0.03 -0.02)"/><path d="M27.67,41H27l-2.6-4v4h-0.6V36h0.7l2.6,4V36h0.6v5Z" transform="translate(0.03 -0.02)"/><path d="M32.57,41h-3.8V36h3.7v0.6h-3v1.5h2.8v0.6h-2.8v1.7h3.1V41Z" transform="translate(0.03 -0.02)"/><path d="M37.07,36.52h-1.6v4.4h-0.7v-4.4h-1.7v-0.6h4v0.6Z" transform="translate(0.03 -0.02)"/><path d="M43.87,35.92l-1.4,5h-0.6l-1.2-4.4-1.2,4.4h-0.6l-1.4-5h0.7l1,4.1,1.1-4.1h0.8l1.1,4.1,1-4.1h0.7Z" transform="translate(0.03 -0.02)"/><path d="M46.67,35.82a2.06,2.06,0,0,1,1.7.7,2.93,2.93,0,0,1,0,3.8,2.41,2.41,0,0,1-3.4,0,2.94,2.94,0,0,1-.7-1.9,2.49,2.49,0,0,1,.7-1.9A2.19,2.19,0,0,1,46.67,35.82Zm0,4.7a1.66,1.66,0,0,0,1.2-.5,2.5,2.5,0,0,0,0-3,1.43,1.43,0,0,0-1.2-.6,1.66,1.66,0,0,0-1.2.5,2.5,2.5,0,0,0,0,3A1.43,1.43,0,0,0,46.67,40.52Z" transform="translate(0.03 -0.02)"/><path d="M54.17,41h-0.7L53,39.72a2.09,2.09,0,0,0-.4-0.6,0.84,0.84,0,0,0-.7-0.2h-1.2v2.2H50v-5h2.2a3.08,3.08,0,0,1,1,.1,1,1,0,0,1,.6.5,1.08,1.08,0,0,1,.2.8,1.61,1.61,0,0,1-.3.9,1.37,1.37,0,0,1-.8.5h0a1.23,1.23,0,0,1,.8.9Zm-3.5-2.8h1.5a2,2,0,0,0,.9-0.2,0.78,0.78,0,0,0,.3-0.7,0.91,0.91,0,0,0-1.1-.9h-1.6v1.8Z" transform="translate(0.03 -0.02)"/><path d="M59.17,41h-0.9l-1.8-2.5-0.8.8V41H55V36h0.7v2.4l2.5-2.5h0.9L57,38Z" transform="translate(0.03 -0.02)"/></svg>