<svg id="Layer_1" data-name="Layer 1" xmlns="http://www.w3.org/2000/svg" xmlns:xlink="http://www.w3.org/1999/xlink" viewBox="0 0 81 55"><defs><style>.cls-1{stroke:#b5b5b5;stroke-miterlimit:10;fill:url(#Безымянный_градиент);}.cls-2{fill:#0460ef;}.cls-3{fill:#fb9125;}.cls-4{fill:#fb9124;}.cls-5{fill:#0460f0;}.cls-6{fill:#0460ee;}.cls-7{fill:#fb9123;}.cls-8{fill:#0560f0;}.cls-9{fill:#fb9225;}.cls-10{fill:#fafcfe;}.cls-11{fill:#2373f1;}.cls-12{fill:#fb962d;}</style><linearGradient id="Безымянный_градиент" x1="40.5" y1="-179.6" x2="40.5" y2="-233.6" gradientTransform="matrix(1, 0, 0, -1, 0, -179)" gradientUnits="userSpaceOnUse"><stop offset="0" stop-color="#fff"/><stop offset="0.97" stop-color="#d9d9d9"/><stop offset="1" stop-color="#e2e9f1"/></linearGradient></defs><title>ems_Logo1</title><path class="cls-1" d="M77.5,54.6H3.5a3,3,0,0,1-3-3V3.6a3,3,0,0,1,3-3h74a3,3,0,0,1,3,3v48A3,3,0,0,1,77.5,54.6Z" transform="translate(0 -0.1)"/><path class="cls-2" d="M42.5,28.6c-1.4,2.1-2.4,4.3-3.6,6.5-0.2.3-.2,0.7-0.6,0.7a1.23,1.23,0,0,1-1.2-.1,2.25,2.25,0,0,1-.1-1.4c0.1-.6.5-0.3,0.8-0.3h0.4a0.66,0.66,0,0,0,.6-0.7c0-.5-0.4-0.2-0.7-0.3-0.5-.1-1.2.4-1.3-0.7S37,30.9,38,31.1a7.52,7.52,0,0,0,1.5,0,0.71,0.71,0,0,0,.7-0.8c0-.4-0.4-0.3-0.7-0.3A7.52,7.52,0,0,0,38,30c-1.1.2-1.3-.4-1.2-1.3a0.59,0.59,0,0,1,.7-0.7h3.2a0.86,0.86,0,0,0,1-.9H36.9c-0.5,0-.5.4-0.6,0.7-0.7,2.4-1.3,4.8-2,7.2a0.85,0.85,0,0,1-1,.8H29.9V35.4c0.4-1.6.4-1.6,2.1-1.6h0.7c1,0,1,0,1.3-1.1H30.8a2,2,0,0,1,.1-0.8c0-1,.6-1.2,1.5-1.1a9.65,9.65,0,0,0,1.7,0,0.59,0.59,0,0,0,.7-0.7c0-.5-0.4-0.4-0.7-0.4H31.6a0.9,0.9,0,0,1,.1-0.5c0.1-1.2.7-1.6,1.9-1.4a7.52,7.52,0,0,0,1.5,0,0.58,0.58,0,0,0,.6-0.6c0-.4-0.4-0.2-0.6-0.2H33.2c-0.7.1-.8-0.3-0.6-0.8s0.3-.7.4-1.1c1.9-.1,3.8,0,5.6,0,0.7,0,.7.6,1,0.9a0.53,0.53,0,0,0,.9-0.2,1,1,0,0,1,.5-0.6h5.4c0.4,0,.5-0.3.5-0.7s-0.4-.3-0.6-0.3H41.4c0.5-1.9.6-1.9,2.4-1.9h3.1a0.8,0.8,0,0,0,.9-0.7c0-.6-0.5-0.4-0.8-0.4H43.1c0.5-1.7.5-1.7,2.2-1.7h3c0.7,0,.9.1,0.7,0.9-1.3,4.7-2.6,9.4-3.9,14-0.4,1.6-.4,1.5-2.1,1.5a2.13,2.13,0,0,1-.8,0c-0.4-.2-1.2.5-1.2-0.4,0-1.1.4-1.5,1.4-1.5h1.7a0.6,0.6,0,0,0,.6-0.7c0-.5-0.4-0.3-0.6-0.3a4.82,4.82,0,0,1-1.2,0c-0.4-.1-1.2.4-1.1-0.4,0.1-.6,0-1.6,1.2-1.5a10.82,10.82,0,0,0,1.8,0c0.4,0,.6-0.1.6-0.5s-0.2-.5-0.6-0.5h-1c-1.1.2-1.4-.3-1.2-1.3,0-.8.6-0.9,1.2-0.9a4.68,4.68,0,0,0,1.7-.2A2.23,2.23,0,0,0,42.5,28.6Z" transform="translate(0 -0.1)"/><path class="cls-2" d="M51.6,21.2c1.4-1.1,2.6-2,4.3-1.8a4.85,4.85,0,0,0,1.7,0,3.65,3.65,0,0,1,3.1,1.1,1.59,1.59,0,0,1,.6,2c-0.5,1.6-.5,1.6-2.3,1.6H57.1c-0.4,0-.7.1-0.6-0.5,0.1-.3-0.2-0.3-0.4-0.3-0.4.1-.9-0.2-1.2,0.2v0.1c-0.8,1.5-.6,2.2,1.1,2s2.5,1.1,3.5,2a0.75,0.75,0,0,1,0,.9c-0.5,1.7-1,3.3-1.5,5a1.77,1.77,0,0,1-.5.8c-2,2.1-4.6,1.7-7.1,1.6-0.8-.1-1.3-1.1-2-1.6,0.2-.4.5-0.2,0.8-0.2h6.5a2.48,2.48,0,0,0,.9-0.1c0.3-.1.8-0.2,0.7-0.7S56.8,33,56.5,33H48c0.4-1.9.4-1.9,2.1-1.9H52a0.47,0.47,0,0,1,.6.4c0.1,0.5,1.4.7,1.5,0.2a1,1,0,0,1,1.2-.6h2.1a0.56,0.56,0,0,0,.6-0.7,0.39,0.39,0,0,0-.5-0.4c-2,.3-3.8-0.8-5.7-0.5-0.9.1-1.1-.7-1.7-1.1,0.2-.4.6-0.2,0.9-0.2h6.7c0.3,0,.8.2,0.8-0.2a0.86,0.86,0,0,0-.8-0.8,2.13,2.13,0,0,0-.8,0H50.5c-0.3,0-1,.3-0.9-0.4s-0.1-1.5.9-1.5h2.3a0.56,0.56,0,0,0,.7-0.6c0-.6-0.5-0.4-0.7-0.4H51.3c-0.3-.1-1.1.4-0.9-0.4,0.1-.6-0.1-1.6,1-1.5h7.7c0.4,0,1,.2,1-0.5s-0.6-.6-1.1-0.6H52.2C52.3,21.2,52.1,21.2,51.6,21.2Z" transform="translate(0 -0.1)"/><path class="cls-3" d="M63.3,23.9a1.67,1.67,0,0,1,2-1.7c14.3,0.1-3.3,0,11,0,0.7,0,1.1.1,1,1s-0.5.7-1,.7h-13Z" transform="translate(0 -0.1)"/><path class="cls-4" d="M66,25.2H76.4c0.6,0,1.1,0,1,.9-0.1.5-.2,0.7-0.7,0.7h-4c-13.8,0,4.4.1-9.4,0.1-0.4,0-1.1.4-1.1-.3a1.22,1.22,0,0,1,1.3-1.4H66Z" transform="translate(0 -0.1)"/><path class="cls-5" d="M27.2,23.3c-0.5,2.2-.5,2.2,1.7,2.2,1.8,0,1.8,0,1.3,1.7-0.6,2.3-.6,2.3-3.1,2.3-1.7,0-1.8.1-2,1.7-0.1.5,0.1,0.7,0.6,0.7H28c0.7,0,.8.2,0.6,0.8-0.4,1-.3,2.4-1.1,3s-2,.1-3,0.1H19.3a7.89,7.89,0,0,0,.3-1.3,0.63,0.63,0,0,1,.8-0.6h6.3c0.4,0,.9.2,0.9-0.6s-0.6-.5-0.9-0.5H21.1c-0.3,0-1,.3-0.8-0.3s-0.1-1.6,1-1.6h2.6c0.4,0,.7,0,0.7-0.6s-0.3-.5-0.7-0.5a9.65,9.65,0,0,1-1.7,0c-0.3,0-.9.4-1-0.3a1.4,1.4,0,0,1,1.2-1.6h6a1.7,1.7,0,0,0,.7-0.1,0.64,0.64,0,0,0,.2-0.6c-0.1-.4-0.4-0.2-0.6-0.2H22.1c-0.1-1.7.1-1.9,1.7-2,0.6,0,1.2-.1,1.8-0.1s0.5-.3.6-0.6a0.44,0.44,0,0,0-.6-0.5,6.6,6.6,0,0,1-1.4.1H22.8a5.27,5.27,0,0,0,.3-1.2,0.64,0.64,0,0,1,.8-0.6h3.9C27.5,23.1,27.5,23.1,27.2,23.3Z" transform="translate(0 -0.1)"/><path class="cls-4" d="M64.7,20.8a1.4,1.4,0,0,1,1.7-1.4h9.9c0.4,0,1.1-.4,1.1.6a0.79,0.79,0,0,1-1,.9H71.3C62.5,20.8,73.6,20.8,64.7,20.8Z" transform="translate(0 -0.1)"/><path class="cls-4" d="M21.8,19.5a1.23,1.23,0,0,1-1.6,1.4c-4.6-.1-9.3-0.1-13.9,0a2.57,2.57,0,0,1-2.5-1.4h18Z" transform="translate(0 -0.1)"/><path class="cls-3" d="M6,22.3H20.9c-0.3,1.6-.3,1.6-1.8,1.6-3.4,0-6.8-.1-10.2,0A2.83,2.83,0,0,1,6,22.3Z" transform="translate(0 -0.1)"/><path class="cls-6" d="M27.2,23.3c0.1-.3.3-0.7,0.4-1a16.15,16.15,0,0,1,2.2,0c0.5,0,1-.1,1-0.7s-0.6-.4-0.9-0.4H23.4c0.3-1.7.3-1.7,2-1.7h6.2c0.6,0,.8.1,0.6,0.8-0.3,1-.3,2.2-0.9,2.9s-2,.1-3,0.2A4.1,4.1,0,0,0,27.2,23.3Z" transform="translate(0 -0.1)"/><path class="cls-7" d="M8.6,25.3H20.1c0.1,1.2-.5,1.5-1.6,1.5-2.4-.1-4.9,0-7.4,0C9.5,26.7,9.5,26.7,8.6,25.3Z" transform="translate(0 -0.1)"/><path class="cls-8" d="M39.8,26.3a1.73,1.73,0,0,0-1.5-.8c-1.7-.1-3.4.2-5-0.2,1.3-.4,2.7-0.1,4.1-0.2h1.5c0.4,0,.6-0.1.6-0.5s-0.3-.4-0.6-0.4H34.7c-0.3,0-1,.4-0.9-0.4,0.1-.6-0.1-1.5,1-1.5h4.7c0.4-.1.4,0.3,0.4,0.5C39.8,23.9,40,25.1,39.8,26.3Z" transform="translate(0 -0.1)"/><path class="cls-9" d="M10.9,28.2h7.6c0.3,0,.8-0.2.7,0.3s0,1.3-.8,1.3a56.1,56.1,0,0,1-5.8,0C11.8,29.8,11.6,28.9,10.9,28.2Z" transform="translate(0 -0.1)"/><path class="cls-2" d="M39.4,21.2H35.5c-0.3,0-1,.4-0.9-0.4,0.1-.5-0.1-1.4.9-1.3h4.1C39.8,20.1,40.2,20.7,39.4,21.2Z" transform="translate(0 -0.1)"/><path class="cls-7" d="M18.5,31.3c-0.4.5,0,1.2-.8,1.4-1.9.4-3.2,0-4.1-1.4h4.9Z" transform="translate(0 -0.1)"/><path class="cls-10" d="M42.5,28.6c0.3-.5.3-1.3,0.8-1.4a13.83,13.83,0,0,1,2.9-.1,0.27,0.27,0,0,1,.3.3,0.55,0.55,0,0,1-.5.6H43.9a1,1,0,0,0-1,.6H42.5Z" transform="translate(0 -0.1)"/><path class="cls-11" d="M39.4,21.2c0.5-.5.1-1.1,0.2-1.7,0.6,0,.4.5,0.4,0.8v5c0,0.3-.2.7,0.2,0.8s0.4-.3.6-0.5,0.2-.4.5-0.3c-0.4.4-.3,1.7-1.5,1.1-0.1-1.4.2-2.8-.4-4.1V21.2Z" transform="translate(0 -0.1)"/><path class="cls-12" d="M17.1,35.6c-0.4-.5-0.8-0.9-1.3-1.5,0.7-.1,1.4-0.3,1.7,0S17.4,35,17.1,35.6Z" transform="translate(0 -0.1)"/></svg>