<?xml version="1.0" encoding="utf-8"?>
<!-- Generator: Adobe Illustrator 17.0.0, SVG Export Plug-In . SVG Version: 6.00 Build 0)  -->
<!DOCTYPE svg PUBLIC "-//W3C//DTD SVG 1.1//EN" "http://www.w3.org/Graphics/SVG/1.1/DTD/svg11.dtd" [
	<!ENTITY ns_extend "http://ns.adobe.com/Extensibility/1.0/">
	<!ENTITY ns_ai "http://ns.adobe.com/AdobeIllustrator/10.0/">
	<!ENTITY ns_graphs "http://ns.adobe.com/Graphs/1.0/">
	<!ENTITY ns_vars "http://ns.adobe.com/Variables/1.0/">
	<!ENTITY ns_imrep "http://ns.adobe.com/ImageReplacement/1.0/">
	<!ENTITY ns_sfw "http://ns.adobe.com/SaveForWeb/1.0/">
	<!ENTITY ns_custom "http://ns.adobe.com/GenericCustomNamespace/1.0/">
	<!ENTITY ns_adobe_xpath "http://ns.adobe.com/XPath/1.0/">
]>
<svg version="1.1" id="Слой_1" xmlns:x="&ns_extend;" xmlns:i="&ns_ai;" xmlns:graph="&ns_graphs;"
	 xmlns="http://www.w3.org/2000/svg" xmlns:xlink="http://www.w3.org/1999/xlink" x="0px" y="0px" width="60.095px" height="36px"
	 viewBox="0 0 60.095 36" enable-background="new 0 0 60.095 36" xml:space="preserve">
<metadata>
	<sfw  xmlns="&ns_sfw;">
		<slices></slices>
		<sliceSourceBounds  height="36" width="60.095" x="0" y="-35.985" bottomLeftOrigin="true"></sliceSourceBounds>
	</sfw>
</metadata>
<g>
	<polygon fill="#FBB231" points="42.08,35.985 43.006,35.961 43.922,35.894 44.821,35.779 45.711,35.619 46.58,35.42 47.436,35.176 
		48.272,34.892 49.093,34.569 49.892,34.206 50.668,33.811 51.421,33.374 52.155,32.906 52.86,32.404 53.537,31.867 54.194,31.303 
		54.818,30.701 55.419,30.076 55.983,29.419 56.516,28.742 57.02,28.035 57.488,27.302 57.923,26.547 58.318,25.771 58.682,24.971 
		59.005,24.15 59.288,23.311 59.533,22.457 59.732,21.587 59.89,20.696 60.004,19.797 60.072,18.879 60.095,17.952 60.072,17.028 
		60.004,16.116 59.89,15.219 59.732,14.338 59.533,13.471 59.288,12.62 59.005,11.783 58.682,10.969 58.318,10.174 57.923,9.396 
		57.488,8.649 57.02,7.916 56.516,7.21 55.983,6.536 55.419,5.881 54.818,5.254 54.194,4.659 53.537,4.094 52.86,3.56 52.155,3.058 
		51.421,2.59 50.668,2.159 49.892,1.764 49.093,1.399 48.272,1.078 47.436,0.792 46.58,0.549 45.711,0.348 44.821,0.191 
		43.922,0.075 43.006,0.01 42.08,-0.015 41.156,0.01 40.24,0.075 39.343,0.191 38.457,0.348 37.588,0.549 36.734,0.792 
		35.902,1.078 35.082,1.399 34.288,1.764 33.519,2.159 32.767,2.59 32.037,3.058 31.334,3.56 30.655,4.094 30.007,4.659 
		29.38,5.254 28.786,5.881 28.222,6.536 27.688,7.21 27.192,7.916 26.725,8.649 26.294,9.396 25.893,10.174 25.534,10.969 
		25.212,11.783 24.934,12.62 24.69,13.471 24.491,14.338 24.333,15.219 24.219,16.116 24.15,17.028 24.126,17.952 24.15,18.879 
		24.219,19.797 24.333,20.696 24.491,21.587 24.69,22.457 24.934,23.311 25.212,24.15 25.534,24.971 25.893,25.771 26.294,26.547 
		26.725,27.302 27.192,28.035 27.688,28.742 28.222,29.419 28.786,30.076 29.38,30.701 30.007,31.303 30.655,31.867 31.334,32.404 
		32.037,32.906 32.767,33.374 33.519,33.811 34.288,34.206 35.082,34.569 35.902,34.892 36.734,35.176 37.588,35.42 38.457,35.619 
		39.343,35.779 40.24,35.894 41.156,35.961 	"/>
	<polygon fill="#EC1C2E" points="18.019,35.985 18.94,35.961 19.857,35.894 20.756,35.779 21.64,35.619 22.509,35.42 23.362,35.176 
		24.195,34.892 25.012,34.569 25.808,34.206 26.578,33.811 27.332,33.374 28.057,32.906 28.762,32.404 29.441,31.867 30.09,31.303 
		30.716,30.701 31.31,30.076 31.875,29.419 32.408,28.742 32.904,28.035 33.374,27.302 33.804,26.547 34.203,25.771 34.562,24.971 
		34.882,24.15 35.162,23.311 35.405,22.457 35.606,21.587 35.763,20.696 35.877,19.797 35.944,18.879 35.968,17.952 35.944,17.028 
		35.877,16.116 35.763,15.219 35.606,14.338 35.405,13.471 35.162,12.62 34.882,11.783 34.562,10.969 34.203,10.174 33.804,9.396 
		33.374,8.649 32.904,7.916 32.408,7.21 31.875,6.536 31.31,5.881 30.716,5.254 30.09,4.659 29.441,4.094 28.762,3.56 28.057,3.058 
		27.332,2.59 26.578,2.159 25.808,1.764 25.012,1.399 24.195,1.078 23.362,0.792 22.509,0.549 21.64,0.348 20.756,0.191 
		19.857,0.075 18.94,0.01 18.019,-0.015 17.089,0.01 16.174,0.075 15.275,0.191 14.383,0.348 13.516,0.549 12.661,0.792 
		11.824,1.078 11.007,1.399 10.205,1.764 9.427,2.159 8.675,2.59 7.942,3.058 7.236,3.56 6.557,4.094 5.903,4.659 5.278,5.254 
		4.678,5.881 4.114,6.536 3.58,7.21 3.076,7.916 2.609,8.649 2.172,9.396 1.779,10.174 1.414,10.969 1.092,11.783 0.808,12.62 
		0.564,13.471 0.365,14.338 0.207,15.219 0.091,16.116 0.024,17.028 0,17.952 0.024,18.879 0.091,19.797 0.207,20.696 0.365,21.587 
		0.564,22.457 0.808,23.311 1.092,24.15 1.414,24.971 1.779,25.771 2.172,26.547 2.609,27.302 3.076,28.035 3.58,28.742 
		4.114,29.419 4.678,30.076 5.278,30.701 5.903,31.303 6.557,31.867 7.236,32.404 7.942,32.906 8.675,33.374 9.427,33.811 
		10.205,34.206 11.007,34.569 11.824,34.892 12.661,35.176 13.516,35.42 14.383,35.619 15.275,35.779 16.174,35.894 17.089,35.961 	
		"/>
	<polygon fill="#FBB231" points="27.944,6.888 37.498,6.888 37.498,5.91 28.768,5.91 	"/>
	<polygon fill="#FBB231" points="26.511,9.061 37.498,9.061 37.498,8.083 27.088,8.083 	"/>
	<polygon fill="#FBB231" points="25.443,11.229 37.498,11.229 37.498,10.251 25.869,10.251 	"/>
	<polygon fill="#FBB231" points="24.71,13.403 37.498,13.403 37.498,12.427 25.012,12.427 	"/>
	<polygon fill="#FBB231" points="25.135,23.908 37.528,23.908 37.528,22.93 24.831,22.93 	"/>
	<polygon fill="#FBB231" points="26.05,26.082 37.528,26.082 37.528,25.104 25.595,25.104 	"/>
	<polygon fill="#FBB231" points="27.336,28.25 37.528,28.25 37.528,27.272 26.725,27.272 	"/>
	<polygon fill="#FBB231" points="29.109,30.424 37.528,30.424 37.528,29.44 28.252,29.44 	"/>
	<polygon fill="#FBB231" points="24.28,15.57 37.498,15.57 37.498,14.592 24.467,14.592 	"/>
	<polygon fill="#FBB231" points="32.334,21.74 37.377,21.74 37.377,20.762 32.517,20.762 	"/>
	<polygon fill="#FBB231" points="32.737,19.572 37.377,19.572 37.377,18.588 32.918,18.588 	"/>
	<polygon fill="#FBB231" points="23.945,18.588 25.257,18.588 25.257,19.572 24.007,19.572 	"/>
	<polygon fill="#FFFFFF" points="21.499,17.403 21.417,17.397 21.33,17.387 21.251,17.375 21.172,17.363 21.1,17.351 21.021,17.339 
		20.943,17.327 20.856,17.312 20.774,17.302 20.675,17.296 20.566,17.288 20.452,17.282 20.324,17.282 20.183,17.288 20.026,17.302 
		19.851,17.312 19.73,17.333 19.613,17.351 19.51,17.387 19.419,17.422 19.335,17.466 19.257,17.514 19.194,17.574 19.139,17.629 
		19.103,17.695 19.073,17.762 19.061,17.835 19.061,17.91 19.079,17.988 19.103,18.066 19.151,18.145 19.214,18.224 19.335,18.339 
		19.48,18.432 19.65,18.509 19.832,18.576 20.026,18.637 20.225,18.704 20.427,18.778 20.62,18.855 20.802,18.958 20.973,19.086 
		21.125,19.238 21.251,19.426 21.348,19.657 21.41,19.93 21.433,20.258 21.41,20.641 21.368,20.926 21.293,21.176 21.196,21.406 
		21.076,21.605 20.937,21.783 20.778,21.934 20.608,22.067 20.421,22.184 20.225,22.275 20.026,22.354 19.82,22.414 19.607,22.463 
		19.402,22.499 19.202,22.517 19.001,22.528 18.813,22.534 18.551,22.534 18.31,22.528 18.096,22.528 17.897,22.522 17.715,22.517 
		17.552,22.505 17.407,22.493 17.266,22.475 17.139,22.463 17.024,22.439 16.908,22.42 16.805,22.39 16.702,22.366 16.606,22.327 
		16.507,22.293 16.404,22.257 16.677,20.914 16.732,20.926 16.799,20.944 16.883,20.969 16.988,20.995 17.097,21.016 17.218,21.04 
		17.35,21.071 17.496,21.097 17.649,21.119 17.806,21.145 17.969,21.162 18.14,21.182 18.314,21.186 18.493,21.194 18.667,21.194 
		18.843,21.186 19.019,21.151 19.16,21.101 19.267,21.034 19.354,20.95 19.413,20.866 19.462,20.767 19.492,20.672 19.516,20.581 
		19.53,20.404 19.474,20.252 19.372,20.129 19.22,20.026 19.037,19.936 18.825,19.845 18.588,19.76 18.352,19.663 18.11,19.554 
		17.879,19.426 17.666,19.268 17.471,19.08 17.32,18.849 17.212,18.576 17.157,18.248 17.163,17.861 17.194,17.623 17.236,17.397 
		17.297,17.191 17.368,16.998 17.465,16.816 17.574,16.657 17.703,16.506 17.854,16.373 18.031,16.258 18.225,16.159 18.442,16.068 
		18.685,16.002 18.959,15.948 19.257,15.905 19.583,15.881 19.942,15.875 20.165,15.875 20.373,15.881 20.56,15.887 20.73,15.893 
		20.882,15.905 21.021,15.917 21.143,15.929 21.251,15.942 21.354,15.954 21.441,15.972 21.519,15.984 21.591,15.996 21.652,16.008 
		21.706,16.014 21.761,16.025 21.81,16.031 	"/>
	<polyline fill="none" stroke="#FFFFFF" stroke-width="0.216" stroke-miterlimit="2.6131" points="21.499,17.403 21.499,17.403 
		21.417,17.397 21.33,17.387 21.251,17.375 21.172,17.363 21.1,17.351 21.021,17.339 20.943,17.327 20.856,17.312 20.774,17.302 
		20.675,17.296 20.566,17.288 20.452,17.282 20.324,17.282 20.183,17.288 20.026,17.302 19.851,17.312 19.851,17.312 19.73,17.333 
		19.613,17.351 19.51,17.387 19.419,17.422 19.335,17.466 19.257,17.514 19.194,17.574 19.139,17.629 19.103,17.695 19.073,17.762 
		19.061,17.835 19.061,17.91 19.079,17.988 19.103,18.066 19.151,18.145 19.214,18.224 19.214,18.224 19.335,18.339 19.48,18.432 
		19.65,18.509 19.832,18.576 20.026,18.637 20.225,18.704 20.427,18.778 20.62,18.855 20.802,18.958 20.973,19.086 21.125,19.238 
		21.251,19.426 21.348,19.657 21.41,19.93 21.433,20.258 21.41,20.641 21.41,20.641 21.368,20.926 21.293,21.176 21.196,21.406 
		21.076,21.605 20.937,21.783 20.778,21.934 20.608,22.067 20.421,22.184 20.225,22.275 20.026,22.354 19.82,22.414 19.607,22.463 
		19.402,22.499 19.202,22.517 19.001,22.528 18.813,22.534 18.813,22.534 18.551,22.534 18.31,22.528 18.096,22.528 17.897,22.522 
		17.715,22.517 17.552,22.505 17.407,22.493 17.266,22.475 17.139,22.463 17.024,22.439 16.908,22.42 16.805,22.39 16.702,22.366 
		16.606,22.327 16.507,22.293 16.404,22.257 16.677,20.914 16.677,20.914 16.732,20.926 16.799,20.944 16.883,20.969 16.988,20.995 
		17.097,21.016 17.218,21.04 17.35,21.071 17.496,21.097 17.649,21.119 17.806,21.145 17.969,21.162 18.14,21.182 18.314,21.186 
		18.493,21.194 18.667,21.194 18.843,21.186 18.843,21.186 19.019,21.151 19.16,21.101 19.267,21.034 19.354,20.95 19.413,20.866 
		19.462,20.767 19.492,20.672 19.516,20.581 19.516,20.581 19.53,20.404 19.474,20.252 19.372,20.129 19.22,20.026 19.037,19.936 
		18.825,19.845 18.588,19.76 18.352,19.663 18.11,19.554 17.879,19.426 17.666,19.268 17.471,19.08 17.32,18.849 17.212,18.576 
		17.157,18.248 17.163,17.861 17.163,17.861 17.194,17.623 17.236,17.397 17.297,17.191 17.368,16.998 17.465,16.816 17.574,16.657 
		17.703,16.506 17.854,16.373 18.031,16.258 18.225,16.159 18.442,16.068 18.685,16.002 18.959,15.948 19.257,15.905 19.583,15.881 
		19.942,15.875 19.942,15.875 20.165,15.875 20.373,15.881 20.56,15.887 20.73,15.893 20.882,15.905 21.021,15.917 21.143,15.929 
		21.251,15.942 21.354,15.954 21.441,15.972 21.519,15.984 21.591,15.996 21.652,16.008 21.706,16.014 21.761,16.025 21.81,16.031 
		21.499,17.403 	"/>
	<polygon fill="#FFFFFF" points="22.937,14.533 24.62,14.533 24.37,16.002 25.383,16.002 25.166,17.375 24.096,17.345 
		23.516,20.732 23.508,20.853 23.538,20.956 23.601,21.034 23.679,21.101 23.788,21.145 23.909,21.182 24.041,21.204 24.189,21.218 
		24.321,21.212 24.442,21.2 24.551,21.182 24.65,21.157 24.728,21.133 24.783,21.115 24.819,21.101 24.831,21.097 24.62,22.226 
		24.576,22.257 24.533,22.281 24.491,22.305 24.448,22.327 24.406,22.348 24.357,22.366 24.303,22.384 24.249,22.402 24.189,22.42 
		24.126,22.432 24.053,22.445 23.983,22.457 23.903,22.469 23.812,22.481 23.715,22.493 23.61,22.505 23.149,22.505 22.907,22.487 
		22.696,22.463 22.503,22.426 22.337,22.384 22.198,22.327 22.083,22.269 21.98,22.196 21.899,22.115 21.84,22.03 21.797,21.928 
		21.767,21.823 21.749,21.71 21.743,21.581 21.743,21.448 21.761,21.309 21.779,21.157 	"/>
	<polyline fill="none" stroke="#FFFFFF" stroke-width="0.216" stroke-miterlimit="2.6131" points="22.937,14.533 24.62,14.533 
		24.37,16.002 25.383,16.002 25.166,17.375 24.096,17.345 23.516,20.732 23.516,20.732 23.508,20.853 23.538,20.956 23.601,21.034 
		23.679,21.101 23.788,21.145 23.909,21.182 24.041,21.204 24.189,21.218 24.189,21.218 24.321,21.212 24.442,21.2 24.551,21.182 
		24.65,21.157 24.728,21.133 24.783,21.115 24.819,21.101 24.831,21.097 24.62,22.226 24.62,22.226 24.576,22.257 24.533,22.281 
		24.491,22.305 24.448,22.327 24.406,22.348 24.357,22.366 24.303,22.384 24.249,22.402 24.189,22.42 24.126,22.432 24.053,22.445 
		23.983,22.457 23.903,22.469 23.812,22.481 23.715,22.493 23.61,22.505 23.149,22.505 23.149,22.505 22.907,22.487 22.696,22.463 
		22.503,22.426 22.337,22.384 22.198,22.327 22.083,22.269 21.98,22.196 21.899,22.115 21.84,22.03 21.797,21.928 21.767,21.823 
		21.749,21.71 21.743,21.581 21.743,21.448 21.761,21.309 21.779,21.157 22.937,14.533 	"/>
	<polyline fill="none" stroke="#FFFFFF" stroke-width="0.216" stroke-miterlimit="2.6131" points="26.725,19.663 26.725,19.663 
		26.705,19.766 26.701,19.875 26.711,19.991 26.736,20.107 26.777,20.222 26.828,20.333 26.894,20.446 26.967,20.548 27.052,20.653 
		27.142,20.744 27.239,20.835 27.348,20.908 27.458,20.975 27.579,21.028 27.7,21.071 27.821,21.097 27.821,21.097 27.978,21.119 
		28.132,21.139 28.288,21.157 28.446,21.17 28.605,21.176 28.768,21.176 28.925,21.17 29.091,21.157 29.253,21.133 29.417,21.101 
		29.588,21.065 29.751,21.011 29.922,20.944 30.096,20.872 30.266,20.775 30.442,20.672 30.201,22.166 30.201,22.166 30.102,22.212 
		30.007,22.263 29.908,22.299 29.818,22.335 29.727,22.366 29.628,22.396 29.532,22.42 29.429,22.439 29.32,22.457 29.199,22.469 
		29.072,22.481 28.931,22.493 28.774,22.499 28.611,22.499 28.422,22.505 28.222,22.505 28.222,22.505 27.926,22.499 27.622,22.469 
		27.317,22.426 27.015,22.354 26.717,22.263 26.432,22.146 26.159,21.995 25.905,21.819 25.668,21.611 25.462,21.364 25.287,21.083 
		25.139,20.762 25.036,20.404 24.971,19.997 24.952,19.548 24.983,19.05 24.983,19.05 25.006,18.855 25.042,18.631 25.093,18.395 
		25.158,18.139 25.25,17.879 25.359,17.617 25.498,17.351 25.668,17.094 25.861,16.853 26.098,16.62 26.367,16.415 26.669,16.233 
		27.021,16.08 27.416,15.972 27.851,15.899 28.343,15.875 28.343,15.875 28.58,15.881 28.829,15.905 29.078,15.948 29.326,16.008 
		29.569,16.1 29.806,16.209 30.025,16.355 30.225,16.523 30.406,16.732 30.559,16.974 30.678,17.254 30.765,17.574 30.813,17.938 
		30.819,18.351 30.777,18.813 30.686,19.323 30.655,19.694 26.233,19.694 26.511,18.496 29.169,18.496 29.169,18.496 29.181,18.347 
		29.175,18.199 29.161,18.066 29.139,17.946 29.097,17.831 29.054,17.726 28.992,17.635 28.931,17.55 28.86,17.478 28.78,17.418 
		28.689,17.363 28.599,17.312 28.502,17.278 28.404,17.254 28.3,17.234 28.191,17.222 28.191,17.222 28.077,17.228 27.968,17.246 
		27.865,17.272 27.761,17.306 27.658,17.355 27.567,17.411 27.474,17.478 27.398,17.55 27.317,17.635 27.245,17.726 27.178,17.825 
		27.124,17.928 27.07,18.036 27.028,18.157 26.991,18.278 26.967,18.408 26.725,19.663 	"/>
	<polygon fill="#FFFFFF" points="41.193,16.367 41.114,16.324 41.036,16.288 40.949,16.244 40.858,16.201 40.767,16.167 
		40.665,16.128 40.562,16.092 40.453,16.056 40.339,16.025 40.222,16.002 40.094,15.978 39.968,15.96 39.829,15.948 39.687,15.935 
		39.543,15.935 39.391,15.935 39.241,15.935 39.081,15.948 38.918,15.966 38.749,15.996 38.578,16.044 38.408,16.11 38.239,16.197 
		38.068,16.304 37.905,16.44 37.745,16.596 37.594,16.792 37.449,17.016 37.316,17.282 37.19,17.586 37.073,17.928 36.978,18.317 
		36.939,18.532 36.915,18.746 36.903,18.958 36.911,19.165 36.927,19.371 36.97,19.566 37.024,19.748 37.091,19.93 37.184,20.095 
		37.29,20.252 37.419,20.392 37.565,20.518 37.729,20.629 37.917,20.72 38.122,20.799 38.354,20.853 38.432,20.872 38.523,20.89 
		38.635,20.902 38.755,20.914 38.886,20.926 39.026,20.926 39.178,20.926 39.332,20.914 39.488,20.896 39.646,20.866 39.796,20.823 
		39.95,20.775 40.1,20.708 40.24,20.629 40.367,20.532 40.489,20.422 40.218,22.042 40.179,22.073 40.143,22.111 40.094,22.154 
		40.04,22.188 39.974,22.236 39.889,22.281 39.79,22.323 39.682,22.36 39.543,22.402 39.385,22.432 39.202,22.457 38.99,22.481 
		38.755,22.493 38.481,22.499 38.173,22.493 37.832,22.475 37.553,22.445 37.274,22.384 36.994,22.293 36.716,22.17 36.448,22.026 
		36.194,21.841 35.95,21.631 35.727,21.388 35.525,21.115 35.356,20.811 35.211,20.473 35.103,20.101 35.03,19.694 35.006,19.262 
		35.018,18.788 35.082,18.284 35.133,18.036 35.186,17.794 35.247,17.556 35.308,17.333 35.374,17.118 35.453,16.907 35.533,16.707 
		35.618,16.517 35.709,16.33 35.8,16.153 35.902,15.984 36.011,15.826 36.122,15.673 36.242,15.527 36.363,15.395 36.491,15.268 
		36.629,15.146 36.771,15.029 36.915,14.927 37.069,14.83 37.232,14.739 37.395,14.661 37.565,14.588 37.741,14.519 37.929,14.459 
		38.116,14.411 38.311,14.369 38.517,14.332 38.722,14.302 38.943,14.278 39.16,14.266 39.391,14.259 39.587,14.266 39.772,14.278 
		39.956,14.296 40.137,14.32 40.306,14.344 40.471,14.381 40.629,14.411 40.773,14.447 40.913,14.484 41.036,14.519 41.15,14.557 
		41.247,14.592 41.332,14.622 41.405,14.648 41.458,14.673 41.497,14.685 	"/>
	<polyline fill="none" stroke="#FFFFFF" stroke-width="0.216" stroke-miterlimit="2.6131" points="41.193,16.367 41.193,16.367 
		41.114,16.324 41.036,16.288 40.949,16.244 40.858,16.201 40.767,16.167 40.665,16.128 40.562,16.092 40.453,16.056 40.339,16.025 
		40.222,16.002 40.094,15.978 39.968,15.96 39.829,15.948 39.687,15.935 39.543,15.935 39.391,15.935 39.391,15.935 39.241,15.935 
		39.081,15.948 38.918,15.966 38.749,15.996 38.578,16.044 38.408,16.11 38.239,16.197 38.068,16.304 37.905,16.44 37.745,16.596 
		37.594,16.792 37.449,17.016 37.316,17.282 37.19,17.586 37.073,17.928 36.978,18.317 36.978,18.317 36.939,18.532 36.915,18.746 
		36.903,18.958 36.911,19.165 36.927,19.371 36.97,19.566 37.024,19.748 37.091,19.93 37.184,20.095 37.29,20.252 37.419,20.392 
		37.565,20.518 37.729,20.629 37.917,20.72 38.122,20.799 38.354,20.853 38.354,20.853 38.432,20.872 38.523,20.89 38.635,20.902 
		38.755,20.914 38.886,20.926 39.026,20.926 39.178,20.926 39.332,20.914 39.488,20.896 39.646,20.866 39.796,20.823 39.95,20.775 
		40.1,20.708 40.24,20.629 40.367,20.532 40.489,20.422 40.218,22.042 40.218,22.042 40.179,22.073 40.143,22.111 40.094,22.154 
		40.04,22.188 39.974,22.236 39.889,22.281 39.79,22.323 39.682,22.36 39.543,22.402 39.385,22.432 39.202,22.457 38.99,22.481 
		38.755,22.493 38.481,22.499 38.173,22.493 37.832,22.475 37.832,22.475 37.553,22.445 37.274,22.384 36.994,22.293 36.716,22.17 
		36.448,22.026 36.194,21.841 35.95,21.631 35.727,21.388 35.525,21.115 35.356,20.811 35.211,20.473 35.103,20.101 35.03,19.694 
		35.006,19.262 35.018,18.788 35.082,18.284 35.082,18.284 35.133,18.036 35.186,17.794 35.247,17.556 35.308,17.333 35.374,17.118 
		35.453,16.907 35.533,16.707 35.618,16.517 35.709,16.33 35.8,16.153 35.902,15.984 36.011,15.826 36.122,15.673 36.242,15.527 
		36.363,15.395 36.491,15.268 36.629,15.146 36.771,15.029 36.915,14.927 37.069,14.83 37.232,14.739 37.395,14.661 37.565,14.588 
		37.741,14.519 37.929,14.459 38.116,14.411 38.311,14.369 38.517,14.332 38.722,14.302 38.943,14.278 39.16,14.266 39.391,14.259 
		39.391,14.259 39.587,14.266 39.772,14.278 39.956,14.296 40.137,14.32 40.306,14.344 40.471,14.381 40.629,14.411 40.773,14.447 
		40.913,14.484 41.036,14.519 41.15,14.557 41.247,14.592 41.332,14.622 41.405,14.648 41.458,14.673 41.497,14.685 41.193,16.367 	
		"/>
	<polygon fill="#FFFFFF" points="56.127,22.505 54.447,22.505 54.57,21.831 54.57,21.771 54.471,21.892 54.369,22.001 
		54.266,22.097 54.157,22.184 54.048,22.263 53.938,22.327 53.829,22.384 53.714,22.439 53.6,22.481 53.484,22.511 53.367,22.541 
		53.247,22.559 53.126,22.577 53.011,22.589 52.89,22.595 52.769,22.595 52.453,22.571 52.161,22.505 51.895,22.402 51.651,22.263 
		51.434,22.085 51.238,21.88 51.069,21.654 50.923,21.4 50.803,21.125 50.706,20.841 50.64,20.544 50.589,20.234 50.571,19.924 
		50.577,19.609 50.607,19.299 50.662,18.99 50.753,18.631 50.864,18.29 50.99,17.982 51.142,17.689 51.298,17.418 51.482,17.173 
		51.669,16.956 51.871,16.756 52.082,16.578 52.305,16.427 52.538,16.294 52.769,16.191 53.011,16.104 53.253,16.05 53.495,16.014 
		53.744,16.002 53.92,16.008 54.091,16.025 54.248,16.056 54.393,16.1 54.534,16.149 54.655,16.201 54.776,16.27 54.885,16.337 
		54.982,16.407 55.072,16.488 55.152,16.566 55.225,16.645 55.286,16.725 55.34,16.804 55.389,16.877 55.424,16.95 55.424,16.95 
		55.849,14.564 57.5,14.564 	"/>
	<polyline fill="none" stroke="#FFFFFF" stroke-width="0.216" stroke-miterlimit="2.6131" points="56.127,22.505 54.447,22.505 
		54.57,21.831 54.57,21.771 54.57,21.771 54.471,21.892 54.369,22.001 54.266,22.097 54.157,22.184 54.048,22.263 53.938,22.327 
		53.829,22.384 53.714,22.439 53.6,22.481 53.484,22.511 53.367,22.541 53.247,22.559 53.126,22.577 53.011,22.589 52.89,22.595 
		52.769,22.595 52.769,22.595 52.453,22.571 52.161,22.505 51.895,22.402 51.651,22.263 51.434,22.085 51.238,21.88 51.069,21.654 
		50.923,21.4 50.803,21.125 50.706,20.841 50.64,20.544 50.589,20.234 50.571,19.924 50.577,19.609 50.607,19.299 50.662,18.99 
		50.662,18.99 50.753,18.631 50.864,18.29 50.99,17.982 51.142,17.689 51.298,17.418 51.482,17.173 51.669,16.956 51.871,16.756 
		52.082,16.578 52.305,16.427 52.538,16.294 52.769,16.191 53.011,16.104 53.253,16.05 53.495,16.014 53.744,16.002 53.744,16.002 
		53.92,16.008 54.091,16.025 54.248,16.056 54.393,16.1 54.534,16.149 54.655,16.201 54.776,16.27 54.885,16.337 54.982,16.407 
		55.072,16.488 55.152,16.566 55.225,16.645 55.286,16.725 55.34,16.804 55.389,16.877 55.424,16.95 55.424,16.95 55.849,14.564 
		57.5,14.564 56.127,22.505 	"/>
	<polygon fill="#FBB231" points="53.379,21.034 53.549,21.022 53.708,20.987 53.853,20.944 53.995,20.878 54.121,20.805 
		54.242,20.714 54.357,20.611 54.459,20.501 54.55,20.38 54.637,20.246 54.716,20.107 54.782,19.962 54.842,19.809 54.891,19.651 
		54.933,19.489 54.963,19.323 54.994,19.153 55.012,18.978 55.012,18.813 55.008,18.643 54.988,18.486 54.963,18.333 54.921,18.187 
		54.873,18.048 54.812,17.928 54.739,17.813 54.661,17.714 54.57,17.629 54.465,17.556 54.357,17.508 54.242,17.478 54.115,17.466 
		53.95,17.478 53.799,17.502 53.66,17.55 53.521,17.61 53.4,17.689 53.277,17.788 53.174,17.891 53.071,18.006 52.98,18.139 
		52.894,18.278 52.816,18.424 52.749,18.582 52.688,18.746 52.64,18.912 52.592,19.086 52.556,19.262 52.524,19.53 52.538,19.821 
		52.58,20.117 52.658,20.404 52.779,20.653 52.939,20.853 53.138,20.987 	"/>
	<polygon fill="#FFFFFF" points="16.126,21.157 15.882,22.505 14.353,22.505 14.397,22.257 14.427,22.03 14.45,21.862 
		14.476,21.771 14.391,21.868 14.292,21.965 14.177,22.055 14.051,22.139 13.905,22.226 13.755,22.299 13.595,22.372 13.432,22.432 
		13.255,22.487 13.08,22.528 12.904,22.565 12.723,22.589 12.545,22.601 12.371,22.607 12.201,22.589 12.036,22.565 11.824,22.511 
		11.629,22.451 11.459,22.372 11.309,22.281 11.175,22.184 11.054,22.073 10.956,21.959 10.871,21.837 10.799,21.71 10.738,21.575 
		10.689,21.442 10.654,21.309 10.63,21.17 10.612,21.028 10.6,20.896 10.6,20.762 10.616,20.524 10.654,20.301 10.714,20.089 
		10.793,19.882 10.89,19.688 10.999,19.513 11.127,19.343 11.272,19.19 11.425,19.05 11.595,18.922 11.769,18.807 11.951,18.71 
		12.144,18.625 12.346,18.558 12.551,18.505 12.765,18.468 12.777,18.468 12.807,18.46 12.849,18.456 12.916,18.45 12.989,18.438 
		13.074,18.432 13.164,18.42 13.269,18.408 13.372,18.395 13.474,18.383 13.585,18.375 13.68,18.363 13.779,18.359 13.867,18.351 
		13.954,18.347 14.02,18.347 14.161,18.347 14.306,18.351 14.44,18.359 14.572,18.359 14.681,18.363 14.768,18.369 14.827,18.375 
		14.845,18.375 14.857,18.333 14.892,18.224 14.923,18.096 14.935,17.982 14.91,17.849 14.857,17.726 14.784,17.617 14.687,17.526 
		14.572,17.448 14.446,17.393 14.298,17.355 14.142,17.345 13.972,17.339 13.789,17.333 13.601,17.333 13.408,17.339 13.208,17.351 
		13.013,17.369 12.819,17.387 12.632,17.411 12.448,17.436 12.272,17.466 12.114,17.494 11.969,17.526 11.836,17.562 11.725,17.598 
		11.643,17.641 11.574,17.677 12.006,16.215 12.14,16.159 12.272,16.11 12.418,16.068 12.564,16.038 12.711,16.008 12.868,15.984 
		13.025,15.96 13.188,15.948 13.358,15.935 13.534,15.929 13.716,15.923 13.905,15.923 14.099,15.923 14.298,15.923 14.511,15.929 
		14.723,15.935 14.892,15.948 15.076,15.978 15.263,16.019 15.457,16.074 15.646,16.149 15.828,16.233 16.009,16.337 16.182,16.452 
		16.331,16.586 16.466,16.732 16.587,16.895 16.677,17.076 16.738,17.272 16.774,17.478 16.774,17.707 16.738,17.952 	"/>
	<polyline fill="none" stroke="#FFFFFF" stroke-width="0.216" stroke-miterlimit="2.6131" points="16.126,21.157 15.882,22.505 
		14.353,22.505 14.353,22.505 14.397,22.257 14.427,22.03 14.45,21.862 14.476,21.771 14.476,21.771 14.391,21.868 14.292,21.965 
		14.177,22.055 14.051,22.139 13.905,22.226 13.755,22.299 13.595,22.372 13.432,22.432 13.255,22.487 13.08,22.528 12.904,22.565 
		12.723,22.589 12.545,22.601 12.371,22.607 12.201,22.589 12.036,22.565 12.036,22.565 11.824,22.511 11.629,22.451 11.459,22.372 
		11.309,22.281 11.175,22.184 11.054,22.073 10.956,21.959 10.871,21.837 10.799,21.71 10.738,21.575 10.689,21.442 10.654,21.309 
		10.63,21.17 10.612,21.028 10.6,20.896 10.6,20.762 10.6,20.762 10.616,20.524 10.654,20.301 10.714,20.089 10.793,19.882 
		10.89,19.688 10.999,19.513 11.127,19.343 11.272,19.19 11.425,19.05 11.595,18.922 11.769,18.807 11.951,18.71 12.144,18.625 
		12.346,18.558 12.551,18.505 12.765,18.468 12.765,18.468 12.777,18.468 12.807,18.46 12.849,18.456 12.916,18.45 12.989,18.438 
		13.074,18.432 13.164,18.42 13.269,18.408 13.372,18.395 13.474,18.383 13.585,18.375 13.68,18.363 13.779,18.359 13.867,18.351 
		13.954,18.347 14.02,18.347 14.02,18.347 14.161,18.347 14.306,18.351 14.44,18.359 14.572,18.359 14.681,18.363 14.768,18.369 
		14.827,18.375 14.845,18.375 14.845,18.375 14.857,18.333 14.892,18.224 14.923,18.096 14.935,17.982 14.935,17.982 14.91,17.849 
		14.857,17.726 14.784,17.617 14.687,17.526 14.572,17.448 14.446,17.393 14.298,17.355 14.142,17.345 14.142,17.345 13.972,17.339 
		13.789,17.333 13.601,17.333 13.408,17.339 13.208,17.351 13.013,17.369 12.819,17.387 12.632,17.411 12.448,17.436 12.272,17.466 
		12.114,17.494 11.969,17.526 11.836,17.562 11.725,17.598 11.643,17.641 11.574,17.677 12.006,16.215 12.006,16.215 12.14,16.159 
		12.272,16.11 12.418,16.068 12.564,16.038 12.711,16.008 12.868,15.984 13.025,15.96 13.188,15.948 13.358,15.935 13.534,15.929 
		13.716,15.923 13.905,15.923 14.099,15.923 14.298,15.923 14.511,15.929 14.723,15.935 14.723,15.935 14.892,15.948 15.076,15.978 
		15.263,16.019 15.457,16.074 15.646,16.149 15.828,16.233 16.009,16.337 16.182,16.452 16.331,16.586 16.466,16.732 16.587,16.895 
		16.677,17.076 16.738,17.272 16.774,17.478 16.774,17.707 16.738,17.952 16.126,21.157 	"/>
	<polygon fill="#EC1C2E" points="14.663,19.572 14.657,19.542 14.633,19.513 14.596,19.493 14.536,19.482 14.47,19.47 
		14.391,19.462 14.298,19.462 14.207,19.462 14.111,19.47 14.008,19.482 13.911,19.493 13.814,19.507 13.722,19.518 13.637,19.536 
		13.565,19.554 13.498,19.572 13.457,19.585 13.408,19.603 13.341,19.627 13.273,19.657 13.194,19.694 13.115,19.736 13.031,19.778 
		12.952,19.827 12.868,19.888 12.789,19.948 12.715,20.022 12.65,20.095 12.588,20.174 12.545,20.258 12.511,20.355 12.491,20.452 
		12.485,20.659 12.515,20.823 12.576,20.944 12.654,21.034 12.747,21.097 12.849,21.133 12.946,21.151 13.043,21.157 13.224,21.151 
		13.39,21.133 13.547,21.107 13.688,21.071 13.807,21.028 13.923,20.975 14.026,20.92 14.117,20.853 14.197,20.793 14.268,20.72 
		14.328,20.653 14.379,20.581 14.419,20.507 14.458,20.434 14.488,20.367 14.504,20.301 14.554,20.125 14.596,19.924 14.633,19.73 	
		"/>
	<polygon fill="#FFFFFF" points="3.36,22.505 1.71,22.505 3.088,14.533 5.957,14.533 6.231,19.262 8.216,14.533 11.212,14.533 
		9.803,22.505 8.154,22.505 9.197,16.548 9.131,16.548 6.661,22.505 4.799,22.505 4.786,22.257 4.744,21.593 4.691,20.653 
		4.63,19.572 4.567,18.486 4.513,17.532 4.47,16.841 4.458,16.548 4.442,16.548 4.404,16.548 4.368,16.548 4.368,16.548 	"/>
	<polyline fill="none" stroke="#FFFFFF" stroke-width="0.216" stroke-miterlimit="2.6131" points="3.36,22.505 1.71,22.505 
		3.088,14.533 5.957,14.533 6.231,19.262 8.216,14.533 11.212,14.533 9.803,22.505 8.154,22.505 9.197,16.548 9.131,16.548 
		6.661,22.505 4.799,22.505 4.799,22.505 4.786,22.257 4.744,21.593 4.691,20.653 4.63,19.572 4.567,18.486 4.513,17.532 
		4.47,16.841 4.458,16.548 4.458,16.548 4.442,16.548 4.404,16.548 4.368,16.548 4.368,16.548 3.36,22.505 	"/>
	<polygon fill="#FFFFFF" points="46.236,21.157 45.985,22.505 44.463,22.505 44.475,22.257 44.481,22.036 44.481,21.874 
		44.493,21.801 44.414,21.892 44.323,21.983 44.215,22.067 44.092,22.154 43.967,22.232 43.82,22.305 43.667,22.378 43.516,22.439 
		43.352,22.487 43.181,22.534 43.014,22.565 42.842,22.589 42.668,22.601 42.498,22.607 42.333,22.589 42.169,22.565 41.95,22.511 
		41.757,22.451 41.588,22.372 41.429,22.281 41.296,22.184 41.18,22.073 41.083,21.959 41,21.837 40.927,21.71 40.87,21.575 
		40.822,21.442 40.791,21.309 40.767,21.17 40.749,21.028 40.737,20.896 40.737,20.762 40.749,20.524 40.785,20.301 40.84,20.089 
		40.921,19.882 41.01,19.688 41.126,19.513 41.253,19.343 41.393,19.19 41.551,19.05 41.715,18.922 41.89,18.807 42.08,18.71 
		42.266,18.625 42.466,18.558 42.668,18.505 42.873,18.468 42.885,18.468 42.915,18.46 42.957,18.456 43.018,18.45 43.099,18.438 
		43.181,18.432 43.274,18.42 43.371,18.408 43.474,18.395 43.584,18.383 43.687,18.375 43.79,18.363 43.886,18.359 43.971,18.351 
		44.056,18.347 44.122,18.347 44.269,18.347 44.414,18.351 44.554,18.359 44.686,18.359 44.803,18.363 44.9,18.369 44.954,18.375 
		44.978,18.375 44.99,18.333 45.008,18.224 45.026,18.096 45.039,17.982 45.014,17.849 44.966,17.726 44.888,17.617 44.795,17.526 
		44.686,17.448 44.56,17.393 44.426,17.355 44.279,17.345 44.11,17.339 43.928,17.333 43.741,17.333 43.545,17.339 43.346,17.351 
		43.151,17.369 42.957,17.387 42.771,17.411 42.587,17.436 42.412,17.466 42.254,17.494 42.11,17.526 41.974,17.562 41.865,17.598 
		41.781,17.641 41.715,17.677 42.139,16.215 42.272,16.159 42.412,16.11 42.552,16.068 42.696,16.038 42.848,16.008 43.002,15.984 
		43.157,15.96 43.322,15.948 43.492,15.935 43.667,15.929 43.844,15.923 44.031,15.923 44.219,15.923 44.414,15.923 44.619,15.929 
		44.827,15.935 44.996,15.948 45.178,15.978 45.367,16.019 45.561,16.074 45.75,16.149 45.938,16.233 46.119,16.337 46.288,16.452 
		46.441,16.586 46.58,16.732 46.7,16.895 46.791,17.076 46.858,17.272 46.903,17.478 46.903,17.707 46.872,17.952 	"/>
	<polygon fill="#FFFFFF" points="45.985,22.547 46.022,22.511 46.27,21.162 46.197,21.151 45.95,22.499 45.985,22.463 
		45.985,22.547 46.016,22.541 46.022,22.511 	"/>
	<polygon fill="#FFFFFF" points="44.426,22.505 44.463,22.547 45.985,22.547 45.985,22.463 44.463,22.463 44.499,22.505 
		44.426,22.505 44.42,22.547 44.463,22.547 	"/>
	<polygon fill="#FFFFFF" points="44.523,21.823 44.469,21.777 44.445,21.874 44.438,22.036 44.438,22.257 44.426,22.505 
		44.499,22.505 44.511,22.257 44.523,22.036 44.517,21.874 44.517,21.823 44.463,21.777 	"/>
	<polygon fill="#FFFFFF" points="42.163,22.601 42.163,22.601 42.333,22.625 42.498,22.644 42.668,22.64 42.842,22.625 
		43.018,22.601 43.187,22.571 43.359,22.522 43.528,22.475 43.681,22.414 43.838,22.342 43.983,22.269 44.11,22.184 44.238,22.097 
		44.346,22.015 44.445,21.916 44.523,21.823 44.463,21.777 44.384,21.868 44.299,21.953 44.189,22.036 44.074,22.123 43.947,22.196 
		43.802,22.269 43.657,22.342 43.504,22.402 43.346,22.451 43.178,22.499 43.006,22.528 42.842,22.553 42.668,22.565 42.498,22.571 
		42.333,22.553 42.176,22.528 42.176,22.528 	"/>
	<polygon fill="#FFFFFF" points="40.695,20.762 40.695,20.762 40.702,20.896 40.714,21.028 40.732,21.176 40.755,21.315 
		40.785,21.448 40.836,21.587 40.888,21.728 40.969,21.856 41.054,21.983 41.15,22.097 41.271,22.212 41.411,22.311 41.569,22.408 
		41.745,22.487 41.944,22.547 42.163,22.601 42.176,22.528 41.956,22.475 41.769,22.414 41.606,22.335 41.446,22.251 41.32,22.154 
		41.211,22.049 41.114,21.934 41.028,21.819 40.963,21.692 40.909,21.563 40.858,21.438 40.828,21.303 40.806,21.162 40.785,21.028 
		40.773,20.896 40.779,20.762 40.779,20.762 	"/>
	<polygon fill="#FFFFFF" points="42.873,18.432 42.873,18.432 42.661,18.468 42.456,18.522 42.254,18.588 42.061,18.673 
		41.871,18.77 41.691,18.891 41.525,19.02 41.368,19.165 41.223,19.317 41.096,19.489 40.973,19.669 40.882,19.871 40.806,20.077 
		40.749,20.295 40.714,20.524 40.695,20.762 40.779,20.762 40.785,20.524 40.822,20.307 40.876,20.101 40.957,19.894 41.046,19.706 
		41.156,19.536 41.283,19.365 41.417,19.214 41.573,19.08 41.739,18.952 41.908,18.843 42.098,18.746 42.279,18.661 42.479,18.594 
		42.674,18.54 42.873,18.505 42.873,18.505 	"/>
	<polygon fill="#FFFFFF" points="44.122,18.303 44.122,18.303 44.056,18.303 43.971,18.317 43.886,18.323 43.79,18.327 
		43.687,18.339 43.584,18.347 43.474,18.359 43.371,18.369 43.274,18.383 43.181,18.395 43.099,18.399 43.018,18.414 42.957,18.42 
		42.909,18.424 42.885,18.432 42.873,18.432 42.873,18.505 42.885,18.505 42.921,18.496 42.957,18.492 43.018,18.486 43.099,18.474 
		43.181,18.468 43.274,18.456 43.371,18.442 43.474,18.432 43.584,18.42 43.687,18.414 43.79,18.399 43.886,18.395 43.971,18.387 
		44.056,18.387 44.122,18.387 44.122,18.387 	"/>
	<polygon fill="#FFFFFF" points="44.942,18.369 44.978,18.339 44.954,18.339 44.9,18.333 44.803,18.327 44.686,18.317 
		44.554,18.317 44.414,18.317 44.269,18.303 44.122,18.303 44.122,18.387 44.269,18.387 44.414,18.387 44.554,18.399 44.686,18.399 
		44.803,18.399 44.9,18.408 44.954,18.414 44.978,18.414 45.014,18.383 44.978,18.414 45.008,18.42 45.014,18.383 	"/>
	<polygon fill="#FFFFFF" points="45.002,17.982 44.996,17.982 44.99,18.096 44.972,18.218 44.954,18.327 44.942,18.369 
		45.014,18.383 45.026,18.339 45.045,18.23 45.063,18.096 45.081,17.982 45.075,17.982 	"/>
	<polygon fill="#FFFFFF" points="44.279,17.381 44.279,17.387 44.42,17.393 44.548,17.43 44.668,17.484 44.773,17.556 
		44.856,17.641 44.93,17.744 44.978,17.853 45.002,17.982 45.075,17.982 45.051,17.843 45.002,17.707 44.918,17.592 44.821,17.494 
		44.706,17.411 44.572,17.355 44.432,17.321 44.279,17.302 44.279,17.306 	"/>
	<polygon fill="#FFFFFF" points="41.678,17.671 41.739,17.707 41.799,17.677 41.877,17.635 41.983,17.598 42.114,17.562 
		42.26,17.532 42.418,17.502 42.593,17.472 42.771,17.448 42.957,17.422 43.151,17.403 43.346,17.387 43.545,17.375 43.741,17.375 
		43.928,17.375 44.11,17.375 44.279,17.381 44.279,17.306 44.11,17.302 43.928,17.288 43.741,17.288 43.545,17.302 43.346,17.312 
		43.151,17.333 42.957,17.351 42.771,17.375 42.581,17.397 42.406,17.43 42.248,17.46 42.102,17.49 41.968,17.526 41.853,17.562 
		41.763,17.604 41.691,17.647 41.751,17.683 	"/>
	<polygon fill="#FFFFFF" points="42.128,16.177 42.102,16.209 41.678,17.671 41.751,17.683 42.176,16.219 42.151,16.252 
		42.128,16.177 42.11,16.183 42.102,16.209 	"/>
	<polygon fill="#FFFFFF" points="44.827,15.899 44.827,15.899 44.619,15.887 44.414,15.881 44.219,15.881 44.031,15.881 
		43.844,15.881 43.667,15.893 43.492,15.899 43.322,15.911 43.157,15.923 42.994,15.948 42.842,15.972 42.692,16.002 42.544,16.031 
		42.4,16.074 42.26,16.122 42.128,16.177 42.151,16.252 42.285,16.197 42.424,16.149 42.556,16.104 42.704,16.074 42.854,16.044 
		43.006,16.019 43.157,15.996 43.322,15.984 43.492,15.972 43.667,15.966 43.844,15.966 44.031,15.966 44.219,15.966 44.414,15.966 
		44.619,15.972 44.827,15.972 44.827,15.972 	"/>
	<polygon fill="#FFFFFF" points="46.909,17.958 46.909,17.958 46.939,17.707 46.939,17.478 46.896,17.264 46.828,17.064 
		46.731,16.877 46.609,16.707 46.463,16.554 46.313,16.421 46.137,16.304 45.956,16.197 45.76,16.11 45.573,16.038 45.373,15.984 
		45.184,15.942 44.996,15.911 44.827,15.899 44.827,15.972 44.996,15.984 45.172,16.014 45.361,16.056 45.549,16.11 45.738,16.183 
		45.92,16.27 46.1,16.367 46.264,16.482 46.417,16.614 46.55,16.756 46.671,16.911 46.755,17.09 46.822,17.278 46.864,17.478 
		46.864,17.707 46.834,17.946 46.834,17.946 	"/>
	<polygon fill="#FFFFFF" points="46.27,21.162 46.27,21.162 46.909,17.958 46.834,17.946 46.197,21.151 46.197,21.151 	"/>
	<polygon fill="#FBB231" points="44.765,19.572 44.755,19.536 44.73,19.507 44.686,19.489 44.625,19.47 44.56,19.462 44.481,19.456 
		44.39,19.456 44.299,19.462 44.203,19.474 44.104,19.489 44.007,19.501 43.916,19.513 43.826,19.53 43.747,19.542 43.667,19.56 
		43.606,19.572 43.566,19.578 43.516,19.597 43.456,19.615 43.389,19.639 43.31,19.673 43.237,19.712 43.151,19.754 43.075,19.809 
		42.994,19.863 42.915,19.93 42.848,19.997 42.783,20.077 42.728,20.161 42.684,20.252 42.649,20.349 42.631,20.452 42.625,20.659 
		42.653,20.823 42.704,20.944 42.777,21.034 42.867,21.097 42.97,21.133 43.075,21.151 43.178,21.157 43.359,21.151 43.528,21.133 
		43.687,21.101 43.826,21.061 43.959,21.011 44.074,20.956 44.183,20.896 44.279,20.823 44.366,20.756 44.438,20.678 44.505,20.603 
		44.56,20.524 44.601,20.452 44.633,20.38 44.658,20.307 44.674,20.24 44.7,20.068 44.73,19.894 44.755,19.724 	"/>
	<polygon fill="#FFFFFF" points="57.262,21.674 57.276,21.532 57.322,21.37 57.409,21.224 57.512,21.097 57.639,20.995 
		57.786,20.92 57.943,20.872 58.112,20.853 58.283,20.872 58.441,20.92 58.585,20.995 58.715,21.097 58.818,21.224 58.903,21.37 
		58.95,21.532 58.962,21.674 58.779,21.674 58.775,21.563 58.737,21.43 58.676,21.309 58.597,21.204 58.501,21.119 58.386,21.061 
		58.253,21.016 58.112,21.005 57.973,21.016 57.841,21.061 57.726,21.119 57.627,21.204 57.548,21.309 57.488,21.43 57.452,21.563 
		57.44,21.674 	"/>
	<polygon fill="#FFFFFF" points="57.808,21.674 57.808,21.309 58.143,21.309 58.217,21.315 58.283,21.327 58.33,21.345 
		58.374,21.37 58.404,21.406 58.429,21.442 58.441,21.485 58.447,21.526 58.441,21.581 58.429,21.623 58.411,21.662 58.398,21.674 
		58.143,21.674 58.167,21.668 58.209,21.662 58.245,21.649 58.277,21.637 58.301,21.619 58.314,21.599 58.324,21.571 58.324,21.526 
		58.318,21.497 58.305,21.473 58.289,21.461 58.269,21.448 58.239,21.442 58.209,21.438 58.179,21.438 58.143,21.438 57.961,21.438 
		57.961,21.674 	"/>
	<polygon fill="#FFFFFF" points="57.262,21.674 57.258,21.71 57.276,21.886 57.322,22.049 57.409,22.196 57.512,22.317 
		57.639,22.42 57.786,22.499 57.943,22.547 58.112,22.565 58.283,22.547 58.441,22.499 58.585,22.42 58.715,22.317 58.818,22.196 
		58.903,22.049 58.95,21.886 58.966,21.71 58.962,21.674 58.779,21.674 58.785,21.71 58.775,21.856 58.737,21.989 58.676,22.105 
		58.597,22.206 58.501,22.293 58.386,22.36 58.253,22.402 58.112,22.414 57.973,22.402 57.841,22.36 57.726,22.293 57.627,22.206 
		57.548,22.105 57.488,21.989 57.452,21.856 57.44,21.71 57.44,21.674 	"/>
	<polygon fill="#FFFFFF" points="57.808,21.674 57.808,22.042 57.961,22.042 57.961,21.74 58.112,21.74 58.293,22.042 
		58.417,22.042 58.233,21.74 58.277,21.74 58.318,21.728 58.354,21.716 58.386,21.692 58.398,21.674 58.143,21.674 58.112,21.68 
		57.961,21.68 57.961,21.674 	"/>
	<path fill="none" stroke="#FFFFFF" stroke-width="0.216" stroke-miterlimit="2.6131" d="M57.258,21.71L57.258,21.71l0.018-0.176
		l0.046-0.164l0.085-0.145l0.103-0.127l0.129-0.103l0.147-0.073l0.158-0.048l0.17-0.018l0,0l0.172,0.018l0.158,0.048l0.145,0.073
		l0.129,0.103l0.103,0.127l0.085,0.145l0.048,0.164l0.018,0.176l0,0l-0.018,0.176l-0.048,0.164l-0.085,0.145l-0.103,0.121
		l-0.129,0.103l-0.145,0.081l-0.158,0.048l-0.172,0.018l0,0l-0.17-0.018l-0.157-0.048l-0.147-0.081l-0.129-0.103l-0.103-0.121
		l-0.085-0.145l-0.046-0.164L57.258,21.71 M57.961,22.042h-0.154v-0.734h0.332l0,0l0.075,0.006l0.067,0.012l0.048,0.018l0.042,0.024
		l0.03,0.036l0.024,0.036l0.012,0.042l0.006,0.042l0,0l-0.006,0.055l-0.012,0.042l-0.018,0.036l-0.024,0.03l-0.03,0.024
		l-0.036,0.012l-0.042,0.012h-0.042l0.181,0.304h-0.123l-0.181-0.304h-0.152v0.304 M58.112,21.68L58.112,21.68l0.055-0.012
		l0.044-0.006l0.036-0.012l0.03-0.012L58.3,21.62l0.012-0.018l0.012-0.03V21.53l0,0l-0.006-0.03l-0.012-0.024l-0.016-0.012
		l-0.018-0.012l-0.03-0.006l-0.03-0.006h-0.034h-0.036h-0.181v0.242L58.112,21.68 M58.112,22.414L58.112,22.414l0.141-0.012
		l0.133-0.042l0.115-0.067l0.097-0.087l0.079-0.103l0.061-0.115l0.038-0.133l0.012-0.145l0,0l-0.012-0.145l-0.038-0.133
		l-0.061-0.121l-0.079-0.105L58.5,21.123l-0.115-0.061l-0.133-0.042l-0.141-0.012l0,0l-0.139,0.012l-0.133,0.042l-0.115,0.061
		l-0.099,0.085l-0.079,0.105l-0.061,0.121l-0.036,0.133l-0.012,0.145l0,0l0.012,0.145l0.036,0.133l0.061,0.115l0.079,0.103
		l0.099,0.087l0.115,0.067l0.133,0.042L58.112,22.414"/>
	<polygon fill="#FFFFFF" points="46.69,22.505 48.402,22.505 48.402,22.505 49.014,19.05 49.036,18.918 49.075,18.782 
		49.111,18.649 49.158,18.517 49.219,18.383 49.292,18.254 49.371,18.133 49.468,18.018 49.578,17.916 49.699,17.817 49.837,17.726 
		49.995,17.653 50.171,17.592 50.366,17.544 50.577,17.508 50.813,17.494 50.899,17.494 50.948,17.494 50.966,17.494 50.966,17.494 
		51.238,15.935 51.069,15.948 50.905,15.966 50.753,15.996 50.607,16.038 50.475,16.086 50.348,16.149 50.224,16.215 50.11,16.288 
		50.001,16.373 49.898,16.458 49.802,16.554 49.705,16.651 49.612,16.756 49.521,16.871 49.431,16.98 49.346,17.1 49.529,16.002 
		47.823,16.002 	"/>
	<polyline fill="none" stroke="#FFFFFF" stroke-width="0.216" stroke-miterlimit="2.6131" points="46.69,22.505 48.402,22.505 
		48.402,22.505 49.014,19.05 49.014,19.05 49.036,18.918 49.075,18.782 49.111,18.649 49.158,18.517 49.219,18.383 49.292,18.254 
		49.371,18.133 49.468,18.018 49.578,17.916 49.699,17.817 49.837,17.726 49.995,17.653 50.171,17.592 50.366,17.544 50.577,17.508 
		50.813,17.494 50.813,17.494 50.899,17.494 50.948,17.494 50.966,17.494 50.966,17.494 51.238,15.935 51.238,15.935 51.069,15.948 
		50.905,15.966 50.753,15.996 50.607,16.038 50.475,16.086 50.348,16.149 50.224,16.215 50.11,16.288 50.001,16.373 49.898,16.458 
		49.802,16.554 49.705,16.651 49.612,16.756 49.521,16.871 49.431,16.98 49.346,17.1 49.529,16.002 47.823,16.002 46.69,22.505 
		46.69,22.505 	"/>
	<polygon fill="#FFFFFF" points="30.625,22.505 32.334,22.505 32.366,22.505 32.949,19.05 32.973,18.918 33.003,18.788 
		33.034,18.661 33.075,18.54 33.123,18.42 33.184,18.303 33.257,18.193 33.342,18.09 33.44,17.998 33.549,17.91 33.684,17.835 
		33.827,17.768 33.998,17.714 34.185,17.665 34.393,17.635 34.629,17.617 34.647,17.617 34.671,17.623 34.702,17.629 34.732,17.629 
		34.762,17.635 34.786,17.641 34.804,17.647 34.81,17.647 34.816,17.623 34.834,17.55 34.858,17.442 34.89,17.306 34.931,17.149 
		34.975,16.98 35.03,16.81 35.082,16.639 35.133,16.523 35.193,16.407 35.253,16.294 35.314,16.191 35.368,16.1 35.411,16.025 
		35.441,15.984 35.453,15.966 35.449,15.966 35.423,15.96 35.395,15.954 35.35,15.948 35.308,15.948 35.259,15.942 35.217,15.935 
		35.174,15.935 34.985,15.948 34.816,15.966 34.659,15.996 34.514,16.031 34.375,16.08 34.246,16.143 34.131,16.201 34.023,16.274 
		33.92,16.355 33.821,16.446 33.731,16.536 33.64,16.639 33.549,16.744 33.464,16.859 33.374,16.98 33.281,17.1 33.5,16.002 
		31.76,16.002 	"/>
	<polyline fill="none" stroke="#FFFFFF" stroke-width="0.216" stroke-miterlimit="2.6131" points="30.625,22.505 32.334,22.505 
		32.366,22.505 32.949,19.05 32.949,19.05 32.973,18.918 33.003,18.788 33.034,18.661 33.075,18.54 33.123,18.42 33.184,18.303 
		33.257,18.193 33.342,18.09 33.44,17.998 33.549,17.91 33.684,17.835 33.827,17.768 33.998,17.714 34.185,17.665 34.393,17.635 
		34.629,17.617 34.629,17.617 34.647,17.617 34.671,17.623 34.702,17.629 34.732,17.629 34.762,17.635 34.786,17.641 34.804,17.647 
		34.81,17.647 34.81,17.647 34.816,17.623 34.834,17.55 34.858,17.442 34.89,17.306 34.931,17.149 34.975,16.98 35.03,16.81 
		35.082,16.639 35.082,16.639 35.133,16.523 35.193,16.407 35.253,16.294 35.314,16.191 35.368,16.1 35.411,16.025 35.441,15.984 
		35.453,15.966 35.453,15.966 35.449,15.966 35.423,15.96 35.395,15.954 35.35,15.948 35.308,15.948 35.259,15.942 35.217,15.935 
		35.174,15.935 35.174,15.935 34.985,15.948 34.816,15.966 34.659,15.996 34.514,16.031 34.375,16.08 34.246,16.143 34.131,16.201 
		34.023,16.274 33.92,16.355 33.821,16.446 33.731,16.536 33.64,16.639 33.549,16.744 33.464,16.859 33.374,16.98 33.281,17.1 
		33.5,16.002 31.76,16.002 30.625,22.505 30.625,22.505 	"/>
	<polygon fill="#FBB231" points="57.276,28.893 57.276,28.869 57.322,28.711 57.409,28.57 57.512,28.45 57.639,28.353 57.786,28.28 
		57.943,28.237 58.112,28.219 58.283,28.237 58.441,28.28 58.585,28.353 58.715,28.45 58.818,28.57 58.903,28.711 58.95,28.869 
		58.95,28.893 58.775,28.893 58.737,28.766 58.676,28.651 58.597,28.546 58.501,28.462 58.386,28.395 58.253,28.353 58.112,28.34 
		57.973,28.353 57.841,28.395 57.726,28.462 57.627,28.546 57.548,28.651 57.488,28.766 57.452,28.893 	"/>
	<polygon fill="#FBB231" points="57.808,28.893 57.808,28.681 58.143,28.681 58.217,28.681 58.283,28.693 58.33,28.703 
		58.374,28.727 58.404,28.76 58.429,28.796 58.441,28.838 58.447,28.893 58.324,28.893 58.324,28.863 58.318,28.832 58.305,28.808 
		58.289,28.796 58.269,28.784 58.239,28.778 58.209,28.772 58.179,28.772 58.143,28.772 57.961,28.772 57.961,28.893 	"/>
	<polygon fill="#FBB231" points="57.258,29.025 57.276,28.893 57.452,28.893 57.452,28.899 57.44,29.025 	"/>
	<polygon fill="#FBB231" points="57.808,29.025 57.808,28.893 57.961,28.893 57.961,29.014 58.112,29.014 58.167,29.002 
		58.209,28.996 58.245,28.984 58.277,28.972 58.301,28.954 58.314,28.935 58.324,28.905 58.324,28.893 58.447,28.893 58.447,28.893 
		58.441,28.935 58.429,28.972 58.411,29.002 58.386,29.025 	"/>
	<polygon fill="#FBB231" points="58.785,29.025 58.775,28.899 58.775,28.893 58.95,28.893 58.966,29.025 	"/>
	<polygon fill="#FBB231" points="57.258,29.025 57.258,29.044 57.276,29.219 57.322,29.385 57.409,29.53 57.512,29.657 
		57.639,29.762 57.786,29.833 57.943,29.883 58.112,29.901 58.283,29.883 58.441,29.833 58.585,29.762 58.715,29.657 58.818,29.53 
		58.903,29.385 58.95,29.219 58.966,29.044 58.966,29.025 58.785,29.025 58.785,29.044 58.775,29.189 58.737,29.324 58.676,29.44 
		58.597,29.54 58.501,29.627 58.386,29.693 58.253,29.736 58.112,29.748 57.973,29.736 57.841,29.693 57.726,29.627 57.627,29.54 
		57.548,29.44 57.488,29.324 57.452,29.189 57.44,29.044 57.44,29.025 	"/>
	<polygon fill="#FBB231" points="57.808,29.025 57.808,29.379 57.961,29.379 57.961,29.074 58.112,29.074 58.293,29.379 
		58.417,29.379 58.233,29.074 58.277,29.074 58.318,29.062 58.354,29.05 58.386,29.025 58.386,29.025 	"/>
	<path fill="#FFFFFF" d="M30.813,17.938l-0.048-0.363l-0.085-0.322l-0.121-0.278l-0.154-0.244l-0.181-0.208l-0.199-0.17
		l-0.217-0.145l-0.237-0.107l-0.241-0.093l-0.25-0.061l-0.25-0.042l-0.25-0.024l-0.235-0.006l-0.492,0.026l-0.435,0.073
		l-0.395,0.109l-0.351,0.154l-0.304,0.182l-0.268,0.206l-0.235,0.23l-0.193,0.244l-0.17,0.254l-0.139,0.266l-0.109,0.262
		l-0.091,0.26l-0.067,0.256l-0.048,0.236l-0.036,0.226l-0.024,0.194l-0.03,0.498l0.018,0.45l0.067,0.407l0.103,0.359l0.147,0.322
		l0.175,0.28l0.205,0.249l0.235,0.206l0.254,0.178l0.274,0.152l0.284,0.117l0.296,0.091l0.304,0.073l0.304,0.042l0.302,0.03
		l0.296,0.004h0.199l0.189-0.004h0.164l0.158-0.006l0.139-0.012l0.127-0.012l0.121-0.012l0.109-0.018l0.103-0.018l0.097-0.022
		l0.099-0.03l0.091-0.03l0.091-0.038l0.097-0.036l0.097-0.048l0.099-0.048l0.241-1.494l-0.175,0.103l-0.17,0.097l-0.175,0.075
		l-0.172,0.067l-0.164,0.055l-0.17,0.03l-0.166,0.03l-0.164,0.024l-0.164,0.012l-0.158,0.006H28.6l-0.158-0.006l-0.158-0.012
		l-0.158-0.018l-0.154-0.018l-0.158-0.024l-0.121-0.024l-0.121-0.042l-0.121-0.055l-0.111-0.067l-0.109-0.073l-0.099-0.091
		l-0.091-0.093l-0.085-0.105l-0.073-0.103l-0.067-0.115l-0.051-0.111l-0.037-0.122l-0.024-0.115l-0.012-0.115l0.004-0.103
		l0.014-0.079h3.935l0.03-0.371l0.091-0.51l0.042-0.462V17.938z M29.169,18.496h-2.216l0.002-0.006h-0.004l0.016-0.085l0.024-0.127
		l0.036-0.121l0.042-0.121l0.055-0.109l0.055-0.105l0.067-0.099l0.073-0.091l0.081-0.085l0.079-0.073l0.093-0.067l0.091-0.055
		l0.105-0.048l0.103-0.036l0.103-0.024l0.109-0.018l0.115-0.006l0.109,0.012l0.103,0.018l0.097,0.024l0.097,0.036l0.091,0.048
		l0.091,0.055l0.081,0.061l0.073,0.073l0.061,0.085l0.061,0.091l0.042,0.105l0.042,0.115l0.022,0.121l0.012,0.133l0.006,0.145
		L29.169,18.496z"/>
</g>
</svg>
