<svg id="Layer_1" data-name="Layer 1" xmlns="http://www.w3.org/2000/svg" xmlns:xlink="http://www.w3.org/1999/xlink" viewBox="0 0 81 55"><defs><style>.cls-1{stroke:#00264f;stroke-miterlimit:10;fill:url(#Безымянный_градиент);}.cls-2{fill:#f90;}.cls-3{fill:#c00;}.cls-4{fill:#fcb340;}.cls-5{fill:#006;}.cls-6{fill:#fff;}</style><linearGradient id="Безымянный_градиент" x1="40.5" y1="58.3" x2="40.5" y2="4.3" gradientTransform="matrix(1, 0, 0, -1, 0, 58.8)" gradientUnits="userSpaceOnUse"><stop offset="0" stop-color="#0259aa"/><stop offset="1" stop-color="#013c86"/></linearGradient></defs><title>MasterCard_Logo1</title><path class="cls-1" d="M77.5,54.5H3.5a3,3,0,0,1-3-3V3.5a3,3,0,0,1,3-3h74a3,3,0,0,1,3,3v48A3,3,0,0,1,77.5,54.5Z"/><g id="layer1"><g id="g10305"><path id="path2268" class="cls-2" d="M70.7,27.5a17.7,17.7,0,1,1-35.4,0h0a17.7,17.7,0,0,1,35.4,0h0Z"/><path id="path1350" class="cls-3" d="M29,9.7A17.7,17.7,0,1,0,41,40.5h0c0.6-.6,1.2-1.2,1.8-1.9H39.2a20.28,20.28,0,0,1-1.3-1.8h6.3a11.4,11.4,0,0,0,1-1.9H36.9a10.66,10.66,0,0,1-.7-1.9H46a17.74,17.74,0,0,0,.9-5.6,15.81,15.81,0,0,0-.4-3.8H35.6a13.32,13.32,0,0,1,.5-1.9h9.8a10.84,10.84,0,0,0-.8-1.9H36.8a17.38,17.38,0,0,1,1-1.9h6.3A13.3,13.3,0,0,0,42.7,16H39.2A15.27,15.27,0,0,1,41,14.2,17.5,17.5,0,0,0,29.1,9.6C29.1,9.7,29.1,9.7,29,9.7Z"/><path id="use9412" class="cls-4" d="M68.9,36.7a0.37,0.37,0,0,1,.3.1,0.22,0.22,0,0,1,.2.2,0.5,0.5,0,0,1,0,.6,0.38,0.38,0,0,1-.2.2c-0.1,0-.2.1-0.3,0.1a0.37,0.37,0,0,1-.3-0.1,0.38,0.38,0,0,1-.2-0.2,0.5,0.5,0,0,1,0-.6,0.38,0.38,0,0,1,.2-0.2c0.1,0,.2-0.1.3-0.1m0,0.1c-0.1,0-.2,0-0.2.1a0.38,0.38,0,0,0-.2.2,0.35,0.35,0,0,1-.1.2c0,0.1,0,.2.1,0.2a0.38,0.38,0,0,0,.2.2,0.35,0.35,0,0,1,.2.1c0.1,0,.2,0,0.2-0.1a0.38,0.38,0,0,0,.2-0.2,0.35,0.35,0,0,1,.1-0.2c0-.1,0-0.2-0.1-0.2a0.38,0.38,0,0,0-.2-0.2,0.35,0.35,0,0,0-.2-0.1m-0.2.8V37h0.4a0.1,0.1,0,0,1,.1.1v0.2l-0.1.1h0.1l0.1,0.1,0.1,0.1H69.3l-0.1-.1a0.1,0.1,0,0,0-.1-0.1H68.9v0.3l-0.2-.1m0.1-.3H69V37.2H68.8v0.1"/></g><g id="g16480"><g id="g13802"><path id="path13804" class="cls-5" d="M35.06,32.59l0.2-1.6a4.33,4.33,0,0,1-.5.1c-0.7,0-.7-0.4-0.7-0.6l0.6-3.2h1l0.2-1.8H35l0.2-1.1h-2s-1.1,6.2-1.1,7a1.4,1.4,0,0,0,1.5,1.6C34.36,32.79,34.86,32.59,35.06,32.59Z"/><path id="path13806" class="cls-5" d="M35.66,29.49a3,3,0,0,0,3.3,3.3,5.82,5.82,0,0,0,2.1-.3l0.3-1.8a6.81,6.81,0,0,1-2.1.5c-2,0-1.7-1.5-1.7-1.5h3.9a15.94,15.94,0,0,0,.2-1.7,2.66,2.66,0,0,0-2.8-2.8C37.06,25.19,35.66,27.19,35.66,29.49Zm3.3-2.7a1,1,0,0,1,.9,1.3h-2.1A1.38,1.38,0,0,1,39,26.79Z"/><path id="path13808" class="cls-5" d="M51,32.59l0.3-2.1a4.13,4.13,0,0,1-1.6.5,1.89,1.89,0,0,1-1.9-2.1c0-2.2,1.2-3.5,2.4-3.5a3.17,3.17,0,0,1,1.7.5l0.3-2a3.56,3.56,0,0,0-1.9-.7c-3,0-4.6,2-4.6,5.6,0,2.4,1.3,4,3.5,4A13,13,0,0,0,51,32.59Z"/><path id="path13810" class="cls-5" d="M24.66,25.19a6.83,6.83,0,0,0-2.3.4l-0.3,1.6a6.52,6.52,0,0,1,2.1-.3c0.7,0,1.2.1,1.2,0.7a1.21,1.21,0,0,1-.1.5h-0.8c-1.8,0-3.3.7-3.3,2.8a1.72,1.72,0,0,0,1.8,2,2.41,2.41,0,0,0,1.9-.8v0.7h1.7l0.7-5.2A2.27,2.27,0,0,0,24.66,25.19Zm0.3,4.2c0,0.3-.1,1.8-1.2,1.8a0.62,0.62,0,0,1-.7-0.7c0-.5.3-1.1,1.7-1.1H25Z"/><path id="path13812" class="cls-5" d="M29.06,32.79c0.4,0,2.9.1,2.9-2.4,0-2.3-2.3-1.9-2.3-2.8,0-.5.4-0.6,1-0.6,0.3,0,1.3.1,1.3,0.1l0.2-1.7a13.3,13.3,0,0,0-1.7-.1c-1.4,0-2.8.6-2.8,2.5,0,2.2,2.4,1.9,2.4,2.9,0,0.6-.7.7-1.2,0.7a5.45,5.45,0,0,1-1.7-.3l-0.3,1.7C27,32.49,27.46,32.79,29.06,32.79Z"/><path id="path13814" class="cls-5" d="M66.46,23.69l-0.3,2.5a2.45,2.45,0,0,0-1.8-1c-2.1,0-3.2,2.1-3.2,4.5,0,1.5.8,3.1,2.3,3.1a2.58,2.58,0,0,0,1.8-.8l-0.1.7H67l1.4-9h-1.9Zm-0.8,4.9c0,1-.5,2.3-1.5,2.3-0.7,0-1-.6-1-1.5,0-1.5.7-2.4,1.5-2.4S65.66,27.49,65.66,28.59Z"/><path id="path13816" class="cls-5" d="M14.46,32.69l1.1-6.8,0.2,6.8h1.3l2.4-6.8-1.1,6.8h1.9l1.5-9h-3.1l-1.8,5.5-0.1-5.5H14l-1.5,9h2Z"/><path id="path13818" class="cls-5" d="M43.56,32.69c0.5-3.1.7-5.6,2.3-5.1a12.22,12.22,0,0,1,1-2.8,1,1,0,0,0-.6-0.1c-0.8,0-2,1.7-2,1.7l0.2-1.1h-1.7l-1.2,7.3,2,0.1h0Z"/><g id="use14699"><path id="path13810-2" data-name="path13810" class="cls-5" d="M54.86,25.19a6.83,6.83,0,0,0-2.3.4l-0.3,1.6a6.52,6.52,0,0,1,2.1-.3c0.7,0,1.2.1,1.2,0.7a1.21,1.21,0,0,1-.1.5h-0.8c-1.8,0-3.3.7-3.3,2.8a1.72,1.72,0,0,0,1.8,2,2.41,2.41,0,0,0,1.9-.8v0.7h1.7l0.7-5.2A2.27,2.27,0,0,0,54.86,25.19Zm0.3,4.2c0,0.3-.1,1.8-1.2,1.8a0.62,0.62,0,0,1-.7-0.7c0-.5.3-1.1,1.7-1.1h0.2Z"/></g><path id="use14701" class="cls-5" d="M59.36,32.69c0.3-2.3.9-5.5,2.3-5.1,0.2-1.2,0-1.2-.5-1.2h-1l0.2-1.1h-1.8l-1.2,7.3,2,0.1h0Z"/></g><g id="g10289"><path id="path4157" class="cls-6" d="M35.5,32l0.2-1.6H35.3c-0.7,0-.7-0.3-0.7-0.6l0.5-3.3h1l0.2-1.8H35.4l0.2-1.1H33.7s-1.1,6.2-1.1,7a1.4,1.4,0,0,0,1.5,1.6A7.1,7.1,0,0,0,35.5,32Z"/><path id="path4155" class="cls-6" d="M36.1,28.9a3,3,0,0,0,3.3,3.3,4.9,4.9,0,0,0,2-.3l0.3-1.8a5.89,5.89,0,0,1-2,.5c-2,0-1.7-1.5-1.7-1.5h3.8a15.94,15.94,0,0,0,.2-1.7,2.57,2.57,0,0,0-2.7-2.8C37.5,24.6,36.1,26.6,36.1,28.9Zm3.3-2.6a1,1,0,0,1,.9,1.3H38.2A1.32,1.32,0,0,1,39.4,26.3Z"/><path id="path4151" class="cls-6" d="M51.4,32l0.3-2.1a4.13,4.13,0,0,1-1.6.5,1.89,1.89,0,0,1-1.9-2.1c0-2.2,1.2-3.5,2.4-3.5a3.17,3.17,0,0,1,1.7.5l0.3-2a6,6,0,0,0-2.1-.5c-2.2,0-4.3,1.9-4.3,5.4,0,2.4,1.1,3.9,3.4,3.9A6.73,6.73,0,0,0,51.4,32Z"/><path id="path4149" class="cls-6" d="M25.2,24.6a6.83,6.83,0,0,0-2.3.4l-0.3,1.6a6.52,6.52,0,0,1,2.1-.3c0.7,0,1.2.1,1.2,0.7a1.21,1.21,0,0,1-.1.5H25c-1.6,0-3.3.7-3.3,2.8a1.72,1.72,0,0,0,1.8,2,2.33,2.33,0,0,0,1.9-.9l-0.1.7H27l0.7-5.2A2.21,2.21,0,0,0,25.2,24.6Zm0.4,4.2c0,0.3-.2,1.8-1.3,1.8a0.62,0.62,0,0,1-.7-0.7c0-.5.3-1.1,1.7-1.1h0.3Z"/><path id="path4145" class="cls-6" d="M29.5,32.2c0.4,0,2.9.1,2.9-2.4,0-2.3-2.3-1.9-2.3-2.8,0-.5.4-0.6,1-0.6,0.3,0,1.3.1,1.3,0.1l0.2-1.7a13.3,13.3,0,0,0-1.7-.1c-1.4,0-2.8.6-2.8,2.5,0,2.2,2.4,1.9,2.4,2.9,0,0.6-.7.7-1.2,0.7a5.45,5.45,0,0,1-1.7-.3l-0.3,1.7C27.4,32,27.9,32.2,29.5,32.2Z"/><path id="path4139" class="cls-6" d="M67,23.1l-0.4,2.5a2.45,2.45,0,0,0-1.8-1c-1.7,0-3.2,2.1-3.2,4.5,0,1.5.8,3.1,2.3,3.1a2.58,2.58,0,0,0,1.8-.8l-0.1.7h1.9l1.4-9H67ZM66.2,28c0,1-.5,2.3-1.5,2.3-0.7,0-1-.6-1-1.5,0-1.5.7-2.4,1.5-2.4C65.8,26.5,66.2,26.9,66.2,28Z"/><path id="path4133" class="cls-6" d="M14.9,32.1L16,25.3l0.2,6.8h1.3l2.4-6.8-1.1,6.8h1.9l1.5-9h-3l-1.7,5.5-0.1-5.5H14.6l-1.5,9h1.8Z"/><path id="path4131" class="cls-6" d="M44,32.1c0.5-3.1.7-5.7,2-5.2a8,8,0,0,1,.7-2.2H46.3a2.42,2.42,0,0,0-1.5,1.2L45,24.8H43.2L42,32.1h2Z"/><g id="use8523"><path id="path4149-2" data-name="path4149" class="cls-6" d="M55.81,24.6a6.83,6.83,0,0,0-2.3.4l-0.3,1.6a6.52,6.52,0,0,1,2.1-.3c0.7,0,1.2.1,1.2,0.7a1.21,1.21,0,0,1-.1.5h-0.8c-1.6,0-3.3.7-3.3,2.8a1.72,1.72,0,0,0,1.8,2,2.33,2.33,0,0,0,1.9-.9l-0.1.7h1.7l0.7-5.2A2.18,2.18,0,0,0,55.81,24.6Zm0.4,4.2c0,0.3-.2,1.8-1.3,1.8a0.62,0.62,0,0,1-.7-0.7c0-.5.3-1.1,1.7-1.1h0.3Z"/></g><g id="use8525"><path id="path4131-2" data-name="path4131" class="cls-6" d="M59.89,32.1c0.5-3.1.7-5.7,2-5.2a8,8,0,0,1,.7-2.2h-0.4a2.42,2.42,0,0,0-1.5,1.2l0.2-1.1h-1.8l-1.2,7.3h2Z"/></g><path id="text9407" class="cls-6" d="M68.9,31a0.37,0.37,0,0,1,.3.1,0.22,0.22,0,0,1,.2.2c0,0.1.1,0.1,0.1,0.2a0.37,0.37,0,0,1-.1.3,0.38,0.38,0,0,1-.2.2,0.5,0.5,0,0,1-.6,0,0.38,0.38,0,0,1-.2-0.2,0.5,0.5,0,0,1,0-.6,0.38,0.38,0,0,1,.2-0.2h0.3m0,0.1c-0.1,0-.2,0-0.2.1a0.38,0.38,0,0,0-.2.2,0.35,0.35,0,0,1-.1.2c0,0.1,0,.2.1,0.2a0.38,0.38,0,0,0,.2.2,0.35,0.35,0,0,1,.2.1c0.1,0,.2,0,0.2-0.1a0.38,0.38,0,0,0,.2-0.2,0.35,0.35,0,0,1,.1-0.2c0-.1,0-0.2-0.1-0.2a0.38,0.38,0,0,0-.2-0.2c0-.1-0.1-0.1-0.2-0.1m-0.3.8V31.3H69a0.1,0.1,0,0,1,.1.1v0.2l-0.1.1h0.1l0.1,0.1,0.1,0.1H69.2l-0.1-.1a0.1,0.1,0,0,0-.1-0.1H68.8V32l-0.2-.1m0.1-.4h0.2V31.4H68.7v0.1"/></g></g></g></svg>