<?xml version="1.0" encoding="utf-8"?>
<!-- Generator: Adobe Illustrator 17.0.0, SVG Export Plug-In . SVG Version: 6.00 Build 0)  -->
<!DOCTYPE svg PUBLIC "-//W3C//DTD SVG 1.1//EN" "http://www.w3.org/Graphics/SVG/1.1/DTD/svg11.dtd" [
	<!ENTITY ns_extend "http://ns.adobe.com/Extensibility/1.0/">
	<!ENTITY ns_ai "http://ns.adobe.com/AdobeIllustrator/10.0/">
	<!ENTITY ns_graphs "http://ns.adobe.com/Graphs/1.0/">
	<!ENTITY ns_vars "http://ns.adobe.com/Variables/1.0/">
	<!ENTITY ns_imrep "http://ns.adobe.com/ImageReplacement/1.0/">
	<!ENTITY ns_sfw "http://ns.adobe.com/SaveForWeb/1.0/">
	<!ENTITY ns_custom "http://ns.adobe.com/GenericCustomNamespace/1.0/">
	<!ENTITY ns_adobe_xpath "http://ns.adobe.com/XPath/1.0/">
]>
<svg version="1.1" id="Слой_1" xmlns:x="&ns_extend;" xmlns:i="&ns_ai;" xmlns:graph="&ns_graphs;"
	 xmlns="http://www.w3.org/2000/svg" xmlns:xlink="http://www.w3.org/1999/xlink" x="0px" y="0px" width="67.948px" height="36px"
	 viewBox="0 0 67.948 36" enable-background="new 0 0 67.948 36" xml:space="preserve">
<metadata>
	<sfw  xmlns="&ns_sfw;">
		<slices></slices>
		<sliceSourceBounds  height="19.006" width="89.615" x="22.052" y="-27.503" bottomLeftOrigin="true"></sliceSourceBounds>
	</sfw>
</metadata>
<g>
	<path fill="#009CDE" d="M60.283,12.332c-0.775-0.43-1.986-0.65-3.645-0.65c-0.82,0-1.642,0.066-2.47,0.195
		c-0.607,0.092-0.668,0.109-1.045,0.189c-0.775,0.17-0.896,0.945-0.896,0.945l-0.247,1.024c-0.141,0.654,0.232,0.627,0.398,0.576
		c0.338-0.102,0.523-0.205,1.213-0.361c0.66-0.15,1.357-0.262,1.912-0.256c0.816,0,1.437,0.09,1.851,0.262
		c0.412,0.18,0.617,0.486,0.617,0.924c0.002,0.105,0.004,0.203-0.033,0.289c-0.035,0.08-0.098,0.158-0.295,0.184
		c-1.164,0.068-1.999,0.174-3.007,0.324c-0.992,0.139-1.861,0.379-2.589,0.711c-0.775,0.344-1.353,0.804-1.755,1.386
		c-0.387,0.586-0.584,1.295-0.586,2.13c0,0.789,0.283,1.433,0.832,1.933c0.555,0.494,1.279,0.736,2.152,0.736
		c0.545-0.004,0.974-0.043,1.279-0.121c0.303-0.076,0.633-0.184,0.984-0.336c0.26-0.111,0.543-0.266,0.838-0.465
		c0.299-0.199,0.504-0.34,0.769-0.512l0.01,0.016l-0.074,0.33c0,0.002-0.004,0.004-0.004,0.006v0.006
		c-0.086,0.396,0.152,0.724,0.543,0.765l0.006,0.006h0.033l0.002,0.002c0.26,0,1.152,0,1.568-0.002h0.289
		c0.018,0,0.023-0.006,0.029-0.01c0.398-0.049,0.783-0.375,0.873-0.767l1.49-6.426c0.033-0.152,0.061-0.326,0.076-0.529
		c0.018-0.203,0.041-0.369,0.035-0.49C61.446,13.439,61.054,12.765,60.283,12.332z M56.674,19.992
		c-0.254,0.158-0.521,0.295-0.801,0.414c-0.377,0.152-0.734,0.232-1.064,0.232c-0.508,0-0.898-0.072-1.16-0.225
		c-0.264-0.146-0.402-0.398-0.398-0.76c0-0.418,0.096-0.742,0.295-0.996c0.201-0.244,0.5-0.441,0.871-0.588
		c0.369-0.125,0.822-0.228,1.343-0.301c0.467-0.059,1.386-0.166,1.502-0.166s0.197-0.066,0.143,0.248
		c-0.023,0.135-0.289,1.226-0.412,1.722C56.961,19.717,56.764,19.935,56.674,19.992z"/>
	<path fill="#003087" d="M34.659,11.824c-0.435,0-1.008,0.355-1.279,0.781c0,0-2.923,5.01-3.21,5.51
		c-0.156,0.271-0.316,0.098-0.342,0c-0.02-0.123-0.902-5.477-0.902-5.477c-0.1-0.43-0.551-0.801-1.115-0.799l-1.82,0.002
		c-0.441,0-0.715,0.351-0.617,0.777c0,0,1.394,7.896,1.664,9.751c0.135,1.027-0.014,1.209-0.014,1.209l-1.806,3.148
		c-0.264,0.426-0.119,0.777,0.318,0.777l2.111-0.002c0.437,0,1.017-0.348,1.279-0.777l8.121-13.74c0,0,0.777-1.172,0.061-1.164
		C36.621,11.832,34.659,11.824,34.659,11.824"/>
	<path fill="#003087" d="M9.016,14.618c-0.617,0.449-1.467,0.674-2.574,0.674h-0.5c-0.441,0-0.719-0.351-0.621-0.779l0.613-2.646
		c0.094-0.424,0.533-0.779,0.976-0.773l0.666-0.004c0.779,0,1.371,0.133,1.773,0.4c0.394,0.258,0.594,0.666,0.586,1.213
		C9.947,13.527,9.633,14.167,9.016,14.618 M13.419,10.541c-0.252-0.494-0.631-0.896-1.117-1.199
		c-0.502-0.312-1.09-0.525-1.771-0.654C9.845,8.565,9.043,8.505,8.125,8.497L3.867,8.501C3.425,8.505,2.992,8.852,2.89,9.276
		L0.02,21.757c-0.098,0.426,0.176,0.779,0.619,0.779h2.042c0.439,0,0.877-0.344,0.976-0.779l0.703-3.03
		c0.094-0.424,0.53-0.774,0.971-0.774h0.582c2.495-0.002,4.43-0.512,5.819-1.533c1.388-1.019,2.083-2.37,2.081-4.042
		C13.811,11.643,13.684,11.031,13.419,10.541"/>
	<path fill="#009CDE" d="M46.042,14.669c-0.611,0.445-1.468,0.668-2.572,0.668h-0.506c-0.441,0.004-0.722-0.351-0.619-0.777
		l0.613-2.648c0.09-0.42,0.537-0.777,0.97-0.773l0.67-0.004c0.783,0.004,1.369,0.135,1.773,0.396
		c0.398,0.264,0.588,0.672,0.592,1.216C46.962,13.576,46.656,14.214,46.042,14.669 M50.444,10.586
		c-0.254-0.494-0.637-0.892-1.123-1.201c-0.498-0.31-1.088-0.525-1.773-0.652c-0.676-0.119-1.482-0.187-2.398-0.189h-4.268
		c-0.441,0.008-0.869,0.353-0.972,0.779l-2.868,12.481c-0.105,0.424,0.178,0.779,0.611,0.777l2.048-0.002
		c0.433,0.002,0.875-0.348,0.98-0.773l0.691-3.028c0.096-0.424,0.539-0.781,0.98-0.775h0.582c2.499,0,4.434-0.512,5.821-1.535
		c1.384-1.027,2.078-2.372,2.078-4.046C50.828,11.691,50.705,11.076,50.444,10.586"/>
	<path fill="#003087" d="M23.248,12.324c-0.775-0.433-1.984-0.652-3.642-0.652c-0.82,0-1.644,0.066-2.47,0.193
		c-0.607,0.094-0.668,0.111-1.045,0.193c-0.775,0.17-0.894,0.945-0.894,0.945l-0.25,1.023c-0.141,0.656,0.234,0.629,0.4,0.578
		c0.338-0.102,0.523-0.201,1.211-0.359c0.658-0.152,1.357-0.262,1.914-0.258c0.816,0,1.437,0.088,1.849,0.26
		c0.412,0.18,0.617,0.488,0.617,0.926c0.002,0.105,0.006,0.203-0.033,0.287c-0.035,0.082-0.098,0.158-0.295,0.184
		c-1.164,0.07-1.999,0.176-3.009,0.324c-0.994,0.139-1.861,0.379-2.589,0.711c-0.775,0.344-1.353,0.804-1.753,1.388
		c-0.389,0.584-0.584,1.293-0.584,2.128c0,0.789,0.283,1.433,0.832,1.933c0.555,0.494,1.279,0.738,2.15,0.738
		c0.547-0.004,0.972-0.043,1.281-0.121c0.301-0.076,0.633-0.184,0.982-0.336c0.262-0.111,0.543-0.269,0.84-0.465
		c0.297-0.199,0.504-0.338,0.769-0.512l0.008,0.016l-0.074,0.328c0,0.004-0.004,0.006-0.004,0.008l0.002,0.006
		c-0.086,0.396,0.152,0.724,0.543,0.763l0.004,0.008h0.035v0.004c0.26,0,1.152-0.002,1.568-0.004h0.291
		c0.02,0,0.023-0.006,0.029-0.01c0.4-0.051,0.783-0.373,0.873-0.765l1.49-6.43c0.033-0.15,0.061-0.324,0.076-0.527
		c0.02-0.203,0.041-0.371,0.035-0.49C24.412,13.429,24.021,12.756,23.248,12.324z M19.642,19.984
		c-0.252,0.16-0.521,0.295-0.801,0.412c-0.375,0.152-0.734,0.232-1.064,0.232c-0.504,0-0.896-0.072-1.16-0.223
		c-0.262-0.146-0.402-0.398-0.398-0.76c0-0.418,0.096-0.742,0.297-0.996c0.201-0.246,0.496-0.441,0.867-0.588
		c0.369-0.125,0.824-0.228,1.347-0.301c0.465-0.059,1.384-0.164,1.502-0.166c0.117,0,0.195-0.066,0.143,0.246
		c-0.025,0.137-0.289,1.228-0.412,1.722C19.927,19.709,19.731,19.924,19.642,19.984z"/>
	<g>
		<g>
			<path fill="#009CDE" d="M67.312,8.647h-1.824h-0.002h-0.002c-0.412,0-0.822,0.314-0.949,0.711
				c-0.008,0.023-0.025,0.041-0.029,0.066c0,0-0.039,0.176-0.102,0.465l-2.515,11.405c-0.059,0.264-0.105,0.457-0.117,0.502
				l0.006,0.008c-0.084,0.394,0.152,0.711,0.539,0.752l0.012,0.016h1.894c0.412,0,0.826-0.318,0.949-0.715
				c0.006-0.02,0.023-0.041,0.029-0.061l2.734-12.37l-0.004-0.002C68.021,8.997,67.751,8.647,67.312,8.647z"/>
		</g>
	</g>
</g>
<path fill="#00FFFF" d="M89.615,11.333"/>
</svg>
