<svg id="Layer_1" data-name="Layer 1" xmlns="http://www.w3.org/2000/svg" xmlns:xlink="http://www.w3.org/1999/xlink" viewBox="0 0 81 55"><defs><style>.cls-1{stroke:#b5b5b5;stroke-miterlimit:10;fill:url(#Безымянный_градиент);}.cls-2{fill:#253b80;}.cls-3{fill:#179bd7;}</style><linearGradient id="Безымянный_градиент" x1="40.5" y1="938.5" x2="40.5" y2="992.5" gradientTransform="translate(0 -938)" gradientUnits="userSpaceOnUse"><stop offset="0" stop-color="#fff"/><stop offset="0.97" stop-color="#d9d9d9"/><stop offset="1" stop-color="#e2e9f1"/></linearGradient></defs><title>paypal_Logo1</title><path class="cls-1" d="M77.5,54.5H3.5a3,3,0,0,1-3-3V3.5a3,3,0,0,1,3-3h74a3,3,0,0,1,3,3v48A3,3,0,0,1,77.5,54.5Z"/><path class="cls-2" d="M15.6,20.2H10.3a0.67,0.67,0,0,0-.7.6L7.5,34.3a0.46,0.46,0,0,0,.4.5h2.6a0.67,0.67,0,0,0,.7-0.6l0.6-3.6a0.73,0.73,0,0,1,.7-0.6h1.7c3.5,0,5.5-1.7,6-5a4.08,4.08,0,0,0-.7-3.4A5,5,0,0,0,15.6,20.2Zm0.6,5c-0.3,1.9-1.7,1.9-3.1,1.9H12.3l0.6-3.5a0.43,0.43,0,0,1,.4-0.4h0.4a3.3,3.3,0,0,1,2.3.5A1.74,1.74,0,0,1,16.2,25.2Z"/><path class="cls-2" d="M31.3,25.1H28.8a0.43,0.43,0,0,0-.4.4l-0.1.7-0.2-.3c-0.5-.8-1.8-1.1-3-1.1a5.7,5.7,0,0,0-5.6,5.1,5.11,5.11,0,0,0,.9,3.9,4.08,4.08,0,0,0,3.2,1.3,5.05,5.05,0,0,0,3.5-1.4l-0.1.7a0.46,0.46,0,0,0,.4.5h2.3a0.67,0.67,0,0,0,.7-0.6l1.4-8.6A0.51,0.51,0,0,0,31.3,25.1ZM27.8,30A2.8,2.8,0,0,1,25,32.4a2.06,2.06,0,0,1-1.7-.7,2.14,2.14,0,0,1-.4-1.8,2.8,2.8,0,0,1,2.8-2.4,2.06,2.06,0,0,1,1.7.7A2.23,2.23,0,0,1,27.8,30Z"/><path class="cls-2" d="M44.8,25.1H42.3a0.71,0.71,0,0,0-.6.3l-3.5,5.1-1.5-4.9a0.75,0.75,0,0,0-.7-0.5H33.5a0.44,0.44,0,0,0-.4.6l2.8,8.2-2.6,3.7a0.45,0.45,0,0,0,.4.7h2.5a0.71,0.71,0,0,0,.6-0.3l8.4-12.1A0.59,0.59,0,0,0,44.8,25.1Z"/><path class="cls-3" d="M53.1,20.2H47.8a0.67,0.67,0,0,0-.7.6L45,34.3a0.46,0.46,0,0,0,.4.5h2.7a0.46,0.46,0,0,0,.5-0.4l0.6-3.8a0.73,0.73,0,0,1,.7-0.6h1.7c3.5,0,5.5-1.7,6-5a4.08,4.08,0,0,0-.7-3.4A4.62,4.62,0,0,0,53.1,20.2Zm0.6,5c-0.3,1.9-1.7,1.9-3.1,1.9H49.8l0.6-3.5a0.43,0.43,0,0,1,.4-0.4h0.4a3.3,3.3,0,0,1,2.3.5A1.74,1.74,0,0,1,53.7,25.2Z"/><path class="cls-3" d="M68.8,25.1H66.3a0.43,0.43,0,0,0-.4.4l-0.1.7-0.2-.3c-0.5-.8-1.8-1.1-3-1.1A5.7,5.7,0,0,0,57,29.9a5.11,5.11,0,0,0,.9,3.9,4.08,4.08,0,0,0,3.2,1.3,5.05,5.05,0,0,0,3.5-1.4l-0.1.6a0.46,0.46,0,0,0,.4.5h2.3a0.67,0.67,0,0,0,.7-0.6l1.4-8.6A0.47,0.47,0,0,0,68.8,25.1ZM65.3,30a2.73,2.73,0,0,1-2.8,2.4,2.06,2.06,0,0,1-1.7-.7,2.14,2.14,0,0,1-.4-1.8,2.8,2.8,0,0,1,2.8-2.4,2.06,2.06,0,0,1,1.7.7A2.23,2.23,0,0,1,65.3,30Z"/><path class="cls-3" d="M71.8,20.6L69.6,34.3a0.46,0.46,0,0,0,.4.5h2.2a0.67,0.67,0,0,0,.7-0.6L75,20.7a0.46,0.46,0,0,0-.4-0.5H72.2A0.43,0.43,0,0,0,71.8,20.6Z"/></svg>