<?xml version="1.0" encoding="utf-8"?>
<!-- Generator: Adobe Illustrator 22.1.0, SVG Export Plug-In . SVG Version: 6.00 Build 0)  -->
<svg version="1.1" id="Слой_1" xmlns="http://www.w3.org/2000/svg" xmlns:xlink="http://www.w3.org/1999/xlink" x="0px" y="0px"
	 viewBox="0 0 25 25" style="enable-background:new 0 0 25 25;" xml:space="preserve">
<style type="text/css">
	.st0{fill:#254162;}
</style>
<g>
	<path class="st0" d="M24.7,23.6l-7.5-7.5c1.4-1.7,2.3-3.9,2.3-6.3c0-5.4-4.4-9.8-9.8-9.8S0,4.5,0,9.8s4.4,9.8,9.8,9.8
		c2.3,0,4.5-0.8,6.1-2.2l7.4,7.4C23.5,25,23.7,25,24,25c0.4,0,0.5,0,0.7-0.2C25.1,24.5,25.1,23.9,24.7,23.6L24.7,23.6z M9.8,17.9
		c-4.4,0-8-3.6-8-8s3.6-8,8-8s8,3.6,8,8S14.2,17.9,9.8,17.9z"/>
</g>
</svg>
