<?xml version="1.0" encoding="utf-8"?>
<!-- Generator: Adobe Illustrator 17.0.0, SVG Export Plug-In . SVG Version: 6.00 Build 0)  -->
<!DOCTYPE svg PUBLIC "-//W3C//DTD SVG 1.1//EN" "http://www.w3.org/Graphics/SVG/1.1/DTD/svg11.dtd" [
	<!ENTITY ns_extend "http://ns.adobe.com/Extensibility/1.0/">
	<!ENTITY ns_ai "http://ns.adobe.com/AdobeIllustrator/10.0/">
	<!ENTITY ns_graphs "http://ns.adobe.com/Graphs/1.0/">
	<!ENTITY ns_vars "http://ns.adobe.com/Variables/1.0/">
	<!ENTITY ns_imrep "http://ns.adobe.com/ImageReplacement/1.0/">
	<!ENTITY ns_sfw "http://ns.adobe.com/SaveForWeb/1.0/">
	<!ENTITY ns_custom "http://ns.adobe.com/GenericCustomNamespace/1.0/">
	<!ENTITY ns_adobe_xpath "http://ns.adobe.com/XPath/1.0/">
]>
<svg version="1.1" id="Слой_1" xmlns:x="&ns_extend;" xmlns:i="&ns_ai;" xmlns:graph="&ns_graphs;"
	 xmlns="http://www.w3.org/2000/svg" xmlns:xlink="http://www.w3.org/1999/xlink" x="0px" y="0px" width="79px" height="36px"
	 viewBox="0 0 79 36" enable-background="new 0 0 79 36" xml:space="preserve">
<metadata>
	<sfw  xmlns="&ns_sfw;">
		<slices></slices>
		<sliceSourceBounds  height="32.99" width="79.042" x="0.916" y="-34.991" bottomLeftOrigin="true"></sliceSourceBounds>
	</sfw>
</metadata>
<g>
	<g>
		<g>
			<g>
				<defs>
					<path id="SVGID_1_" d="M27.417,5.316c-2.841-1.569-6.063-2.309-8.651-2.658c-2.826-0.379-4.895-0.293-4.884-0.307
						c0.006,0.008-0.546-0.012-1.471,0.02c-0.944,0.033-2.276,0.118-3.803,0.342C7.404,2.889,6.079,3.151,4.729,3.54
						c-1.472,0.424-2.972,0.998-4.38,1.775v16.04c0.001,3.248,1.119,6.101,3.567,8.136c0.555,0.469,1.406,1.005,2.384,1.548
						c0.829,0.46,1.75,0.927,2.653,1.366c1.067,0.516,2.112,0.99,2.963,1.367c1.168,0.516,1.972,0.846,1.965,0.84
						c-0.01,0.009,1.778-0.727,3.892-1.714c2.25-1.051,4.868-2.385,6.076-3.406c2.449-2.034,3.568-4.888,3.568-8.136v-9.125v-2.49
						v-1.15C27.417,7.499,27.417,6.407,27.417,5.316"/>
				</defs>
				<clipPath id="SVGID_2_">
					<use xlink:href="#SVGID_1_"  overflow="visible"/>
				</clipPath>
				
					<linearGradient id="SVGID_3_" gradientUnits="userSpaceOnUse" x1="998.3751" y1="1119.2612" x2="1001.5432" y2="1119.2612" gradientTransform="matrix(8.8521 0 0 -8.8521 -8837.8008 9926.1357)">
					<stop  offset="0" style="stop-color:#FFD66B"/>
					<stop  offset="0.282" style="stop-color:#FDE2D2"/>
					<stop  offset="0.491" style="stop-color:#E9AA70"/>
					<stop  offset="1" style="stop-color:#DC931D"/>
				</linearGradient>
				<path clip-path="url(#SVGID_2_)" fill="url(#SVGID_3_)" d="M-0.084,2.068H27.96v32.51H-0.084V2.068z"/>
			</g>
		</g>
	</g>
	<g>
		<g>
			<g>
				<defs>
					<path id="SVGID_4_" d="M26.356,5.525c-3.959-0.417-8.323-0.526-12.666,0.34c-1.261,0.254-2.519,0.588-3.762,1.023
						C8.601,7.354,7.293,7.933,6.024,8.647c-1.686,0.949-3.243,2.108-4.635,3.451c-0.001,0.299-0.001,0.599-0.002,0.899
						c-0.002,1.438-0.003,2.877-0.004,4.316c-0.001,1.351,0,2.702,0.001,4.053c0.002,3.013,1.085,5.548,3.203,7.308
						c1.302,0.674,2.605,1.349,3.908,2.024c0.995,0.516,1.99,1.031,2.986,1.547c0.801,0.414,1.601,0.828,2.401,1.243
						c1.595-0.665,7.408-3.218,9.297-4.813c2.119-1.759,3.2-4.295,3.202-7.308c0.003-2.904,0.002-5.81-0.003-8.711
						c-0.004-1.968-0.01-3.935-0.017-5.903C26.359,6.343,26.357,5.934,26.356,5.525"/>
				</defs>
				<clipPath id="SVGID_5_">
					<use xlink:href="#SVGID_4_"  overflow="visible"/>
				</clipPath>
				
					<linearGradient id="SVGID_6_" gradientUnits="userSpaceOnUse" x1="998.471" y1="1119.4916" x2="999.8298" y2="1119.182" gradientTransform="matrix(8.8521 0 0 -8.8521 -8837.8008 9926.1357)">
					<stop  offset="0" style="stop-color:#DBC9B8"/>
					<stop  offset="0.311" style="stop-color:#775024"/>
					<stop  offset="1" style="stop-color:#4E2700"/>
				</linearGradient>
				<path clip-path="url(#SVGID_5_)" fill="url(#SVGID_6_)" d="M1.226,4.867H26.83v28.878H1.226V4.867L1.226,4.867z"/>
			</g>
		</g>
	</g>
	<path fill="#3F1800" d="M13.882,33.487l-9.295-4.813C6.474,30.269,12.288,32.822,13.882,33.487 M27.591,21.354
		c0,1.679-0.296,3.223-0.879,4.593c-0.612,1.43-1.536,2.668-2.752,3.676c-1.223,1.036-3.879,2.381-5.891,3.327
		c-0.954,0.448-1.915,0.882-2.883,1.3c-0.434,0.186-0.869,0.37-1.306,0.549v0.096c0.188-0.078,0.932-0.39,1.341-0.567
		c0.968-0.418,1.929-0.852,2.884-1.299c2.934-1.381,4.924-2.503,5.911-3.339c1.223-1.018,2.157-2.267,2.772-3.71
		c0.589-1.381,0.888-2.935,0.888-4.627V5.163l-0.087,0.05v16.141 M0.265,5.163c4.949-2.736,11.07-3,13.47-2.987h0.298
		c2.399-0.013,8.52,0.251,13.469,2.987l0.091,0.049l0.087-0.05l-0.136-0.074C22.575,2.341,16.439,2.076,14.03,2.089h-0.296
		C11.328,2.076,5.189,2.341,0.223,5.086L0.087,5.16l0.088,0.052L0.265,5.163"/>
	<path fill="#3F1800" d="M0.976,25.981c0.616,1.443,1.55,2.692,2.774,3.711c0.986,0.835,2.974,1.957,5.909,3.337
		c0.955,0.448,1.916,0.881,2.884,1.299c0.407,0.176,1.154,0.488,1.339,0.567v-0.096c-0.185-0.077-0.897-0.374-1.305-0.55
		c-0.968-0.418-1.929-0.852-2.883-1.3c-2.012-0.946-4.666-2.291-5.888-3.325c-1.215-1.01-2.14-2.248-2.75-3.678
		c-0.583-1.37-0.879-2.915-0.879-4.593L0.175,5.211L0.087,5.16L0.09,21.353C0.091,23.046,0.388,24.601,0.976,25.981 M25.201,13.254
		l0.064,0.052l0.088-0.042l-0.098-0.078c-0.423-0.335-1.342-0.893-2.76-0.866l0.003,0.086
		C23.888,12.379,24.788,12.925,25.201,13.254 M24.97,15.598c-0.425-0.451-1.17-0.939-1.986-0.953l-0.001,0.087
		c0.788,0.014,1.51,0.487,1.923,0.926l0.453,0.48l-0.086-0.22L24.97,15.598"/>
	<path fill="#3F1800" d="M21.764,15.623l0.086,0.002c0.02-0.823,0.799-0.897,1.134-0.892l0.001-0.088
		C22.704,14.641,21.787,14.696,21.764,15.623 M25.272,15.92l0.086,0.219l-0.006-2.875l-0.088,0.042L25.272,15.92 M17.64,13.974
		c0.784,1.022,1.197,2.512,1.198,4.312h0.087c0-1.819-0.42-3.328-1.216-4.364c-0.827-1.078-2.054-1.647-3.549-1.649v0.088
		C15.627,12.361,16.83,12.919,17.64,13.974 M19.119,15.687c0-1.206,0.583-1.969,1.073-2.4c0.621-0.544,1.462-0.866,2.306-0.882
		l-0.003-0.086c-0.862,0.017-1.724,0.345-2.359,0.903c-0.504,0.443-1.103,1.228-1.103,2.466v0.022h0.088L19.119,15.687"/>
	<path fill="#3F1800" d="M21.507,19.37l0.044-0.074c-2.027-1.201-2.425-2.226-2.432-3.586h-0.088
		C19.037,17.103,19.444,18.148,21.507,19.37 M23.058,17.117l0.189,0.114l0.044-0.074l-0.189-0.114
		c-0.832-0.496-1.266-0.783-1.252-1.418l-0.086-0.002C21.748,16.338,22.268,16.646,23.058,17.117 M22.029,24.454l0.001,0.087
		c1.149-0.012,2.106-0.407,2.77-1.145c0.559-0.624,0.886-1.462,0.916-2.358l-0.088-0.003C25.572,22.717,24.438,24.427,22.029,24.454
		 M21.551,19.296l-0.044,0.074c1.049,0.625,1.341,0.961,1.353,1.573l0.087-0.002C22.934,20.299,22.621,19.931,21.551,19.296
		 M22.656,21.77c0.19-0.195,0.293-0.47,0.293-0.794c0-0.012-0.001-0.024-0.001-0.037l-0.087,0.002
		c0.001,0.012,0.001,0.022,0.001,0.034c0,0.3-0.093,0.553-0.267,0.733c-0.205,0.211-0.516,0.32-0.899,0.32v0.087
		C22.102,22.117,22.435,21.997,22.656,21.77"/>
	<path fill="#3F1800" d="M25.213,19.041c0.313,0.556,0.437,1.153,0.414,1.994l0.088,0.002c0.04-1.471-0.352-2.632-2.424-3.881
		l-0.044,0.074C24.224,17.819,24.85,18.396,25.213,19.041 M17.694,22.712c-0.783,1.135-1.918,1.735-3.281,1.737v0.086
		c1.393,0,2.553-0.613,3.352-1.773c0.759-1.1,1.16-2.649,1.16-4.476h-0.087C18.838,20.096,18.442,21.627,17.694,22.712
		 M19.514,21.184c0.622,0.559,1.498,0.933,2.181,0.933V22.03c-0.663,0-1.515-0.365-2.121-0.909l-0.435-0.391l0.087,0.196
		L19.514,21.184 M19.305,23.7l-0.086-0.051l-0.088,0.049l0.13,0.076c0.846,0.503,1.83,0.776,2.769,0.766l-0.001-0.087
		C21.106,24.462,20.137,24.195,19.305,23.7"/>
	<path fill="#3F1800" d="M19.226,20.925l-0.087-0.196l-0.008,2.968l0.088-0.049L19.226,20.925 M13.577,14.841l-0.088-0.063v7.251
		l0.088-0.066V14.841"/>
	<path fill="#3F1800" d="M13.577,21.963l-0.088,0.067c0.151,0.045,0.37,0.096,0.616,0.096v-0.087
		C13.9,22.039,13.716,22.002,13.577,21.963"/>
	<path fill="#3F1800" d="M15.514,21.244c0.326-0.622,0.491-1.594,0.491-2.892h-0.086c-0.001,1.284-0.161,2.243-0.481,2.852
		c-0.301,0.569-0.723,0.836-1.333,0.836v0.086C14.742,22.126,15.203,21.837,15.514,21.244 M13.491,24.362l0.087,0.107
		c0.251,0.044,0.529,0.069,0.835,0.067V24.45C14.072,24.449,13.762,24.419,13.491,24.362"/>
	<path fill="#3F1800" d="M13.494,29.188l0.001,0.176l0.087,0.086l-0.001-0.262c0,0-0.003-4.146-0.003-4.72l-0.087-0.107
		L13.494,29.188 M10.733,29.184c-0.027-5.159-0.034-10.47-0.022-15.782l0.001-0.095l-0.086-0.047l-0.001,0.141
		c-0.012,5.313-0.005,10.624,0.021,15.782l0.002,0.259l0.085-0.086L10.733,29.184"/>
	<path fill="#3F1800" d="M10.648,29.357h2.935v0.093h-2.935C10.648,29.45,10.648,29.357,10.648,29.357z M9.899,12.789
		c-0.013,3.473-0.012,7.021-0.002,10.546l0.001,0.092l0.088,0.046l-0.001-0.138c-0.01-3.525-0.01-7.072,0.002-10.546l0.001-0.263
		L9.9,12.615L9.899,12.789"/>
	<path fill="#3F1800" d="M9.82,23.48c-0.963,0.654-2.25,0.99-3.724,0.976l-0.001,0.087c1.49,0.014,2.796-0.328,3.774-0.991
		l0.116-0.079l-0.088-0.046L9.82,23.48 M7.135,21.849l-0.088-0.051c-0.222,0.114-0.526,0.176-0.871,0.174l-0.001,0.087
		C6.558,22.062,6.893,21.985,7.135,21.849"/>
	<path fill="#3F1800" d="M7.04,18.489c0,1.105,0.002,2.209,0.006,3.308l0.088,0.051c-0.004-1.12-0.006-2.24-0.006-3.36
		c0-1.901,0.005-3.803,0.013-5.686l0.001-0.172l-0.086-0.086l-0.002,0.258C7.047,14.685,7.04,16.588,7.04,18.489 M3.318,23.408
		C2.705,22.732,2.401,21.722,2.4,20.41H2.312c0.004,1.334,0.314,2.363,0.942,3.058c0.638,0.701,1.594,1.064,2.842,1.076l0.001-0.087
		C4.874,24.443,3.939,24.091,3.318,23.408 M5.292,21.552c0.176,0.337,0.466,0.502,0.883,0.506l0.001-0.086
		c-0.245-0.002-0.991-0.009-0.995-1.445l-0.088,0.001C5.094,20.956,5.161,21.301,5.292,21.552"/>
	<path fill="#3F1800" d="M2.311,12.597h0.088v7.812H2.311V12.597z M5.105,12.828c-0.012,2.566-0.016,5.133-0.012,7.699l0.088-0.001
		c-0.005-2.541-0.001-5.132,0.012-7.698l0.002-0.265l-0.089,0.088L5.105,12.828 M9.725,12.615H9.9l0.087-0.089l-0.263,0.002
		l-2.666,0.018l0.086,0.086L9.725,12.615"/>
	<path fill="#3F1800" d="M2.311,12.563h2.883v0.122H2.311V12.563z M14.177,14.749c0.625,0,1.026,0.234,1.301,0.765
		c0.297,0.573,0.441,1.5,0.442,2.837h0.086c0-1.351-0.146-2.293-0.451-2.877c-0.287-0.555-0.726-0.812-1.378-0.813V14.749"/>
	<path fill="#3F1800" d="M14.177,14.749v-0.088c-0.263,0-0.516,0.055-0.687,0.117l0.088,0.063
		C13.735,14.79,13.954,14.749,14.177,14.749 M10.626,13.261l0.086,0.047l0.079-0.052c0.925-0.603,2.027-0.896,3.369-0.896v-0.088
		c-1.359,0-2.478,0.298-3.416,0.911L10.626,13.261 M13.725,6.037c-4.828,0.967-8.92,3.032-12.162,6.137l0.088,0.038
		c3.226-3.079,7.293-5.129,12.091-6.09c3.608-0.72,7.651-0.837,12.353-0.359l0.088-0.079C21.439,5.196,17.361,5.312,13.725,6.037
		 M26.121,18.486c0,0.963-0.001,1.924-0.002,2.88c-0.002,2.962-1.077,5.419-3.109,7.107c-1.75,1.478-7.084,3.874-9.128,4.731v0.094
		c2.021-0.845,7.417-3.264,9.184-4.758c2.052-1.704,3.137-4.186,3.141-7.174c0.001-0.957,0.002-1.917,0.002-2.88
		c0-4.236-0.01-8.529-0.027-12.802l-0.088,0.079C26.113,10.009,26.121,14.276,26.121,18.486 M4.754,28.472
		c-2.031-1.687-3.106-4.145-3.108-7.106c-0.002-0.943-0.002-1.898-0.002-2.867c0-2.05,0.002-4.154,0.006-6.287l-0.088-0.038
		c-0.005,3.064-0.006,6.128-0.004,9.192c0.002,2.988,1.088,5.468,3.139,7.174c1.759,1.485,7.161,3.909,9.185,4.758v-0.094
		C11.837,32.343,6.495,29.941,4.754,28.472 M14.03,2.001l-0.149,0.001l-0.146-0.001c-2.414-0.013-8.567,0.253-13.552,3.01L0,5.109
		L0.087,5.16l0.136-0.074c4.966-2.745,11.105-3.01,13.512-2.997h0.296c2.409-0.013,8.545,0.252,13.512,2.998l0.136,0.074
		l0.088-0.052l-0.182-0.098C22.599,2.254,16.444,1.988,14.03,2.001"/>
	<path fill="#3F1800" d="M27.678,21.354c0,1.692-0.299,3.246-0.888,4.627c-0.614,1.443-1.549,2.692-2.772,3.71
		c-0.988,0.836-2.977,1.958-5.911,3.339c-0.954,0.448-1.916,0.881-2.884,1.299c-0.409,0.176-1.154,0.488-1.341,0.567v0.093
		c0.188-0.078,0.967-0.403,1.377-0.58c0.68-0.296,1.734-0.759,2.887-1.301c2.938-1.383,4.933-2.511,5.928-3.351
		c1.236-1.026,2.179-2.286,2.799-3.743c0.592-1.39,0.893-2.957,0.894-4.661V5.11l-0.088,0.052L27.678,21.354"/>
	<path fill="#3F1800" d="M12.543,34.33c-0.968-0.418-1.929-0.852-2.884-1.299c-2.935-1.381-4.923-2.503-5.909-3.337
		c-1.225-1.019-2.158-2.268-2.774-3.711c-0.588-1.382-0.886-2.937-0.887-4.629L0.087,5.161L0,5.11l0.002,16.245
		c0.001,1.703,0.301,3.271,0.893,4.661c0.62,1.457,1.562,2.717,2.797,3.743C4.686,30.6,6.68,31.727,9.62,33.11
		c1.152,0.542,2.206,1.005,2.886,1.301c0.408,0.176,1.189,0.501,1.374,0.58v-0.093C13.697,34.817,12.95,34.507,12.543,34.33"/>
	<g>
		<g>
			<g>
				<defs>
					<path id="SVGID_7_" d="M22.594,21.71c0.174-0.179,0.267-0.432,0.267-0.733c0-0.012,0-0.023-0.001-0.034l-0.088,0.002
						c0.001,0.012,0.001,0.023,0.001,0.033c0,0.282-0.082,0.506-0.242,0.672c-0.189,0.192-0.478,0.292-0.836,0.292v0.088
						C22.078,22.03,22.389,21.92,22.594,21.71"/>
				</defs>
				<clipPath id="SVGID_8_">
					<use xlink:href="#SVGID_7_"  overflow="visible"/>
				</clipPath>
				<path clip-path="url(#SVGID_8_)" fill="#492300" d="M22.594,21.71c0.174-0.179,0.267-0.432,0.267-0.733
					c0-0.012,0-0.023-0.001-0.034l-0.088,0.002c0.001,0.012,0.001,0.023,0.001,0.033c0,0.282-0.082,0.506-0.242,0.672
					c-0.189,0.192-0.478,0.292-0.836,0.292v0.088C22.078,22.03,22.389,21.92,22.594,21.71"/>
			</g>
		</g>
	</g>
	<g>
		<g>
			<g>
				<defs>
					<path id="SVGID_9_" d="M22.594,21.71c0.174-0.179,0.267-0.432,0.267-0.733c0-0.012,0-0.023-0.001-0.034l-0.088,0.002
						c0.001,0.012,0.001,0.023,0.001,0.033c0,0.282-0.082,0.506-0.242,0.672c-0.189,0.192-0.478,0.292-0.836,0.292v0.088
						C22.078,22.03,22.389,21.92,22.594,21.71"/>
				</defs>
				<clipPath id="SVGID_10_">
					<use xlink:href="#SVGID_9_"  overflow="visible"/>
				</clipPath>
				
					<linearGradient id="SVGID_11_" gradientUnits="userSpaceOnUse" x1="168.242" y1="1150.1185" x2="168.3043" y2="1150.1185" gradientTransform="matrix(18.7345 0 0 42.25 -3130.2344 -48571.0234)">
					<stop  offset="0" style="stop-color:#492300"/>
					<stop  offset="1" style="stop-color:#492300"/>
				</linearGradient>
				<path clip-path="url(#SVGID_10_)" fill="url(#SVGID_11_)" d="M21.696,20.943h1.166v1.087h-1.166V20.943z"/>
			</g>
		</g>
	</g>
	<path fill="#3F1800" d="M19.139,20.73l-0.086-0.194l-0.009,3.212l0.087-0.048L19.139,20.73"/>
	<g>
		<g>
			<g>
				<defs>
					<path id="SVGID_12_" d="M25.716,21.037l0.086,0.003c0.042-1.503-0.356-2.688-2.465-3.96l-0.045,0.075
						C25.364,18.405,25.755,19.566,25.716,21.037"/>
				</defs>
				<clipPath id="SVGID_13_">
					<use xlink:href="#SVGID_12_"  overflow="visible"/>
				</clipPath>
				<path clip-path="url(#SVGID_13_)" fill="#70491C" d="M25.716,21.037l0.086,0.003c0.042-1.503-0.356-2.688-2.465-3.96
					l-0.045,0.075C25.364,18.405,25.755,19.566,25.716,21.037"/>
			</g>
		</g>
	</g>
	<g>
		<g>
			<g>
				<defs>
					<path id="SVGID_14_" d="M25.716,21.037l0.086,0.003c0.042-1.503-0.356-2.688-2.465-3.96l-0.045,0.075
						C25.364,18.405,25.755,19.566,25.716,21.037"/>
				</defs>
				<clipPath id="SVGID_15_">
					<use xlink:href="#SVGID_14_"  overflow="visible"/>
				</clipPath>
				
					<linearGradient id="SVGID_16_" gradientUnits="userSpaceOnUse" x1="63.4813" y1="1094.2385" x2="63.5436" y2="1094.2385" gradientTransform="matrix(40.3371 0 0 88.4144 -2537.3623 -96727.375)">
					<stop  offset="0" style="stop-color:#70491C"/>
					<stop  offset="1" style="stop-color:#9C7955"/>
				</linearGradient>
				<path clip-path="url(#SVGID_15_)" fill="url(#SVGID_16_)" d="M23.291,17.081h2.553v3.96h-2.553V17.081z"/>
			</g>
		</g>
	</g>
	<g>
		<g>
			<g>
				<defs>
					<path id="SVGID_17_" d="M19.261,23.774l-0.131-0.076l-0.087,0.049l0.172,0.104c0.86,0.51,1.859,0.787,2.814,0.776V24.54
						C21.09,24.549,20.107,24.277,19.261,23.774 M25.716,21.037l0.086,0.003c-0.03,0.917-0.363,1.774-0.937,2.412
						c-0.681,0.756-1.66,1.161-2.835,1.174v-0.087c1.149-0.012,2.106-0.407,2.77-1.145C25.359,22.772,25.686,21.933,25.716,21.037
						L25.716,21.037z"/>
				</defs>
				<clipPath id="SVGID_18_">
					<use xlink:href="#SVGID_17_"  overflow="visible"/>
				</clipPath>
				<path clip-path="url(#SVGID_18_)" fill="#492300" d="M19.261,23.774l-0.131-0.076l-0.087,0.049l0.172,0.104
					c0.86,0.51,1.859,0.787,2.814,0.776V24.54C21.09,24.549,20.107,24.277,19.261,23.774 M25.716,21.037l0.086,0.003
					c-0.03,0.917-0.363,1.774-0.937,2.412c-0.681,0.756-1.66,1.161-2.835,1.174v-0.087c1.149-0.012,2.106-0.407,2.77-1.145
					C25.359,22.772,25.686,21.933,25.716,21.037L25.716,21.037z"/>
			</g>
		</g>
	</g>
	<g>
		<g>
			<g>
				<defs>
					<path id="SVGID_19_" d="M19.261,23.774l-0.131-0.076l-0.087,0.049l0.172,0.104c0.86,0.51,1.859,0.787,2.814,0.776V24.54
						C21.09,24.549,20.107,24.277,19.261,23.774 M25.716,21.037l0.086,0.003c-0.03,0.917-0.363,1.774-0.937,2.412
						c-0.681,0.756-1.66,1.161-2.835,1.174v-0.087c1.149-0.012,2.106-0.407,2.77-1.145C25.359,22.772,25.686,21.933,25.716,21.037
						L25.716,21.037z"/>
				</defs>
				<clipPath id="SVGID_20_">
					<use xlink:href="#SVGID_19_"  overflow="visible"/>
				</clipPath>
				
					<linearGradient id="SVGID_21_" gradientUnits="userSpaceOnUse" x1="7.6745" y1="1097.182" x2="7.7368" y2="1097.182" gradientTransform="matrix(108.5767 0 0 82.6358 -814.2318 -90643.6797)">
					<stop  offset="0" style="stop-color:#492300"/>
					<stop  offset="1" style="stop-color:#9C7955"/>
				</linearGradient>
				<path clip-path="url(#SVGID_20_)" fill="url(#SVGID_21_)" d="M19.044,21.037h6.757v3.6h-6.757V21.037z"/>
			</g>
		</g>
	</g>
	<g>
		<g>
			<g>
				<defs>
					<path id="SVGID_22_" d="M19.574,21.121c0.606,0.544,1.458,0.909,2.121,0.909v-0.088c-0.633,0-1.482-0.363-2.064-0.886
						l-0.58-0.52l0.086,0.194L19.574,21.121"/>
				</defs>
				<clipPath id="SVGID_23_">
					<use xlink:href="#SVGID_22_"  overflow="visible"/>
				</clipPath>
				<path clip-path="url(#SVGID_23_)" fill="#663F0F" d="M19.574,21.121c0.606,0.544,1.458,0.909,2.121,0.909v-0.088
					c-0.633,0-1.482-0.363-2.064-0.886l-0.58-0.52l0.086,0.194L19.574,21.121"/>
			</g>
		</g>
	</g>
	<g>
		<g>
			<g>
				<defs>
					<path id="SVGID_24_" d="M19.574,21.121c0.606,0.544,1.458,0.909,2.121,0.909v-0.088c-0.633,0-1.482-0.363-2.064-0.886
						l-0.58-0.52l0.086,0.194L19.574,21.121"/>
				</defs>
				<clipPath id="SVGID_25_">
					<use xlink:href="#SVGID_24_"  overflow="visible"/>
				</clipPath>
				
					<linearGradient id="SVGID_26_" gradientUnits="userSpaceOnUse" x1="60.5129" y1="1135.7131" x2="60.5752" y2="1135.7131" gradientTransform="matrix(42.4554 0 0 48.797 -2550.0488 -55398.1133)">
					<stop  offset="0" style="stop-color:#663F0F"/>
					<stop  offset="1" style="stop-color:#492300"/>
				</linearGradient>
				<path clip-path="url(#SVGID_25_)" fill="url(#SVGID_26_)" d="M19.052,20.535h2.642v1.494h-2.642V20.535z"/>
			</g>
		</g>
	</g>
	<g>
		<g>
			<g>
				<defs>
					<path id="SVGID_27_" d="M23.103,17.042l0.189,0.114l0.045-0.075l-0.189-0.114c-0.826-0.491-1.221-0.754-1.209-1.341
						l-0.088-0.002C21.837,16.26,22.27,16.547,23.103,17.042"/>
				</defs>
				<clipPath id="SVGID_28_">
					<use xlink:href="#SVGID_27_"  overflow="visible"/>
				</clipPath>
				<path clip-path="url(#SVGID_28_)" fill="#70491C" d="M23.103,17.042l0.189,0.114l0.045-0.075l-0.189-0.114
					c-0.826-0.491-1.221-0.754-1.209-1.341l-0.088-0.002C21.837,16.26,22.27,16.547,23.103,17.042"/>
			</g>
		</g>
	</g>
	<g>
		<g>
			<g>
				<defs>
					<path id="SVGID_29_" d="M23.103,17.042l0.189,0.114l0.045-0.075l-0.189-0.114c-0.826-0.491-1.221-0.754-1.209-1.341
						l-0.088-0.002C21.837,16.26,22.27,16.547,23.103,17.042"/>
				</defs>
				<clipPath id="SVGID_30_">
					<use xlink:href="#SVGID_29_"  overflow="visible"/>
				</clipPath>
				
					<linearGradient id="SVGID_31_" gradientUnits="userSpaceOnUse" x1="-177.8908" y1="948.5518" x2="-177.8286" y2="948.5518" gradientTransform="matrix(-23.866 0 0 -49.3963 -4222.2104 46871.3438)">
					<stop  offset="0" style="stop-color:#70491C"/>
					<stop  offset="1" style="stop-color:#9C7955"/>
				</linearGradient>
				<path clip-path="url(#SVGID_30_)" fill="url(#SVGID_31_)" d="M21.837,15.625h1.5v1.532h-1.5V15.625z"/>
			</g>
		</g>
	</g>
	<g>
		<g>
			<g>
				<defs>
					<path id="SVGID_32_" d="M5.192,12.828C5.18,15.394,5.176,17.96,5.18,20.526h0.087c-0.004-2.541-0.001-5.132,0.011-7.698
						l0.002-0.354l-0.086,0.088L5.192,12.828"/>
				</defs>
				<clipPath id="SVGID_33_">
					<use xlink:href="#SVGID_32_"  overflow="visible"/>
				</clipPath>
				<path clip-path="url(#SVGID_33_)" fill="#9C7955" d="M5.192,12.828C5.18,15.394,5.176,17.96,5.18,20.526h0.087
					c-0.004-2.541-0.001-5.132,0.011-7.698l0.002-0.354l-0.086,0.088L5.192,12.828"/>
			</g>
		</g>
	</g>
	<g>
		<g>
			<g>
				<defs>
					<path id="SVGID_34_" d="M5.192,12.828C5.18,15.394,5.176,17.96,5.18,20.526h0.087c-0.004-2.541-0.001-5.132,0.011-7.698
						l0.002-0.354l-0.086,0.088L5.192,12.828"/>
				</defs>
				<clipPath id="SVGID_35_">
					<use xlink:href="#SVGID_34_"  overflow="visible"/>
				</clipPath>
				
					<linearGradient id="SVGID_36_" gradientUnits="userSpaceOnUse" x1="-61.5666" y1="1189.3149" x2="-61.5044" y2="1189.3149" gradientTransform="matrix(0 -129.3755 26.4739 0 -31480.5762 -7944.6899)">
					<stop  offset="0" style="stop-color:#9C7955"/>
					<stop  offset="1" style="stop-color:#AF906F"/>
				</linearGradient>
				<path clip-path="url(#SVGID_35_)" fill="url(#SVGID_36_)" d="M5.176,12.474h0.105v8.052H5.176V12.474z"/>
			</g>
		</g>
	</g>
	<path fill="#8A643E" d="M13.664,14.906l-0.086-0.064v7.122l0.086-0.068V14.906"/>
	<path fill="#785228" d="M2.224,12.474H5.28v0.123H2.224V12.474z"/>
	<path fill="#70491C" d="M7.04,18.489c0-1.901,0.006-3.803,0.014-5.686l0.002-0.258l-0.088-0.086l-0.001,0.345
		c-0.01,1.895-0.015,3.791-0.014,5.686c0,1.087,0.002,2.173,0.004,3.254l0.088,0.055C7.043,20.698,7.04,19.593,7.04,18.489"/>
	<g>
		<g>
			<g>
				<defs>
					<path id="SVGID_37_" d="M6.175,21.971l0.001-0.088c-0.247-0.001-0.905-0.006-0.908-1.357H5.18
						C5.184,21.962,5.93,21.969,6.175,21.971 M6.175,21.971l0.001-0.088c0.309,0.002,0.579-0.048,0.784-0.14l0.088,0.055
						C6.824,21.911,6.52,21.973,6.175,21.971L6.175,21.971z"/>
				</defs>
				<clipPath id="SVGID_38_">
					<use xlink:href="#SVGID_37_"  overflow="visible"/>
				</clipPath>
				<path clip-path="url(#SVGID_38_)" fill="#532D00" d="M6.175,21.971l0.001-0.088c-0.247-0.001-0.905-0.006-0.908-1.357H5.18
					C5.184,21.962,5.93,21.969,6.175,21.971 M6.175,21.971l0.001-0.088c0.309,0.002,0.579-0.048,0.784-0.14l0.088,0.055
					C6.824,21.911,6.52,21.973,6.175,21.971L6.175,21.971z"/>
			</g>
		</g>
	</g>
	<g>
		<g>
			<g>
				<defs>
					<path id="SVGID_39_" d="M6.175,21.971l0.001-0.088c-0.247-0.001-0.905-0.006-0.908-1.357H5.18
						C5.184,21.962,5.93,21.969,6.175,21.971 M6.175,21.971l0.001-0.088c0.309,0.002,0.579-0.048,0.784-0.14l0.088,0.055
						C6.824,21.911,6.52,21.973,6.175,21.971L6.175,21.971z"/>
				</defs>
				<clipPath id="SVGID_40_">
					<use xlink:href="#SVGID_39_"  overflow="visible"/>
				</clipPath>
				
					<linearGradient id="SVGID_41_" gradientUnits="userSpaceOnUse" x1="-155.1083" y1="947.4348" x2="-155.0461" y2="947.4348" gradientTransform="matrix(-29.9899 0 0 -48.041 -4644.6353 45536.9609)">
					<stop  offset="0" style="stop-color:#532D00"/>
					<stop  offset="1" style="stop-color:#9C7955"/>
				</linearGradient>
				<path clip-path="url(#SVGID_40_)" fill="url(#SVGID_41_)" d="M5.181,20.526h1.866v1.447H5.181V20.526z"/>
			</g>
		</g>
	</g>
	<path fill="#663F0F" d="M6.97,12.459l0.088,0.086l2.666-0.018l0.263-0.002l0.087-0.087l-0.35,0.002L6.97,12.459"/>
	<g>
		<g>
			<g>
				<defs>
					<path id="SVGID_42_" d="M9.869,23.553c-0.978,0.663-2.283,1.005-3.774,0.991l-0.001,0.087c1.509,0.013,2.832-0.334,3.824-1.007
						l0.153-0.104l-0.086-0.046L9.869,23.553 M3.253,23.467c-0.628-0.694-0.938-1.724-0.942-3.058H2.224
						c0.003,1.358,0.323,2.405,0.965,3.115c0.654,0.719,1.632,1.093,2.905,1.106l0.001-0.087
						C4.848,24.531,3.891,24.169,3.253,23.467L3.253,23.467z M2.224,12.513l0.086,0.085l0.001,7.812H2.224V12.513L2.224,12.513z"/>
				</defs>
				<clipPath id="SVGID_43_">
					<use xlink:href="#SVGID_42_"  overflow="visible"/>
				</clipPath>
				<path clip-path="url(#SVGID_43_)" fill="#815B33" d="M9.869,23.553c-0.978,0.663-2.283,1.005-3.774,0.991l-0.001,0.087
					c1.509,0.013,2.832-0.334,3.824-1.007l0.153-0.104l-0.086-0.046L9.869,23.553 M3.253,23.467
					c-0.628-0.694-0.938-1.724-0.942-3.058H2.224c0.003,1.358,0.323,2.405,0.965,3.115c0.654,0.719,1.632,1.093,2.905,1.106
					l0.001-0.087C4.848,24.531,3.891,24.169,3.253,23.467L3.253,23.467z M2.224,12.513l0.086,0.085l0.001,7.812H2.224V12.513
					L2.224,12.513z"/>
			</g>
		</g>
	</g>
	<g>
		<g>
			<g>
				<defs>
					<path id="SVGID_44_" d="M9.869,23.553c-0.978,0.663-2.283,1.005-3.774,0.991l-0.001,0.087c1.509,0.013,2.832-0.334,3.824-1.007
						l0.153-0.104l-0.086-0.046L9.869,23.553 M3.253,23.467c-0.628-0.694-0.938-1.724-0.942-3.058H2.224
						c0.003,1.358,0.323,2.405,0.965,3.115c0.654,0.719,1.632,1.093,2.905,1.106l0.001-0.087
						C4.848,24.531,3.891,24.169,3.253,23.467L3.253,23.467z M2.224,12.513l0.086,0.085l0.001,7.812H2.224V12.513L2.224,12.513z"/>
				</defs>
				<clipPath id="SVGID_45_">
					<use xlink:href="#SVGID_44_"  overflow="visible"/>
				</clipPath>
				
					<linearGradient id="SVGID_46_" gradientUnits="userSpaceOnUse" x1="4.9738" y1="1063.2412" x2="5.0361" y2="1063.2412" gradientTransform="matrix(126.0959 0 0 219.7144 -624.9555 -233590.8281)">
					<stop  offset="0" style="stop-color:#815B33"/>
					<stop  offset="1" style="stop-color:#9C7955"/>
				</linearGradient>
				<path clip-path="url(#SVGID_45_)" fill="url(#SVGID_46_)" d="M2.224,12.513h7.847v12.132H2.224V12.513z"/>
			</g>
		</g>
	</g>
	<path fill="#8A643E" d="M9.987,12.789c-0.012,3.473-0.013,7.021-0.002,10.546l0.001,0.138l0.086,0.046l-0.001-0.184
		c-0.01-3.525-0.01-7.072,0.002-10.544l0.001-0.352l-0.087,0.087L9.987,12.789"/>
	<g>
		<g>
			<g>
				<defs>
					<path id="SVGID_47_" d="M21.507,19.37l-0.045,0.075c1.018,0.604,1.3,0.925,1.311,1.5l0.088-0.002
						C22.848,20.331,22.556,19.995,21.507,19.37 M21.507,19.37l-0.045,0.075c-0.998-0.593-1.644-1.161-2.033-1.789
						c-0.335-0.548-0.48-1.13-0.484-1.946l0.087-0.001C19.037,17.103,19.444,18.148,21.507,19.37L21.507,19.37z"/>
				</defs>
				<clipPath id="SVGID_48_">
					<use xlink:href="#SVGID_47_"  overflow="visible"/>
				</clipPath>
				<path clip-path="url(#SVGID_48_)" fill="#492300" d="M21.507,19.37l-0.045,0.075c1.018,0.604,1.3,0.925,1.311,1.5l0.088-0.002
					C22.848,20.331,22.556,19.995,21.507,19.37 M21.507,19.37l-0.045,0.075c-0.998-0.593-1.644-1.161-2.033-1.789
					c-0.335-0.548-0.48-1.13-0.484-1.946l0.087-0.001C19.037,17.103,19.444,18.148,21.507,19.37L21.507,19.37z"/>
			</g>
		</g>
	</g>
	<g>
		<g>
			<g>
				<g>
					<defs>
						<path id="SVGID_49_" d="M21.507,19.37l-0.045,0.075c1.018,0.604,1.3,0.925,1.311,1.5l0.088-0.002
							C22.848,20.331,22.556,19.995,21.507,19.37 M21.507,19.37l-0.045,0.075c-0.998-0.593-1.644-1.161-2.033-1.789
							c-0.335-0.548-0.48-1.13-0.484-1.946l0.087-0.001C19.037,17.103,19.444,18.148,21.507,19.37L21.507,19.37z"/>
					</defs>
					<clipPath id="SVGID_50_">
						<use xlink:href="#SVGID_49_"  overflow="visible"/>
					</clipPath>
					
						<linearGradient id="SVGID_51_" gradientUnits="userSpaceOnUse" x1="32.3316" y1="1084.5698" x2="32.3938" y2="1084.5698" gradientTransform="matrix(62.909 0 0 108.9034 -2015.0037 -118095.0156)">
						<stop  offset="0" style="stop-color:#492300"/>
						<stop  offset="0.5" style="stop-color:#9C7955"/>
						<stop  offset="1" style="stop-color:#492300"/>
					</linearGradient>
					<path clip-path="url(#SVGID_50_)" fill="url(#SVGID_51_)" d="M18.945,15.71h3.916v5.236h-3.916V15.71z"/>
				</g>
			</g>
		</g>
	</g>
	<path fill="#532D00" d="M10.646,29.184c-0.026-5.159-0.034-10.47-0.021-15.782l0.001-0.141l-0.088-0.048l-0.001,0.189
		c-0.012,5.312-0.006,10.624,0.021,15.784l0.002,0.345l0.086-0.087V29.184"/>
	<g>
		<g>
			<g>
				<g>
					<defs>
						<path id="SVGID_52_" d="M15.36,21.162c-0.283,0.538-0.681,0.789-1.256,0.789l0.001,0.088c0.609,0,1.032-0.267,1.333-0.836
							c0.32-0.609,0.48-1.568,0.481-2.852h-0.087C15.832,19.621,15.673,20.567,15.36,21.162 M14.104,21.951l0.001,0.088
							c-0.205,0-0.389-0.037-0.528-0.076l0.087-0.068C13.787,21.926,13.94,21.951,14.104,21.951z"/>
					</defs>
					<clipPath id="SVGID_53_">
						<use xlink:href="#SVGID_52_"  overflow="visible"/>
					</clipPath>
					<path clip-path="url(#SVGID_53_)" fill="#492300" d="M15.36,21.162c-0.283,0.538-0.681,0.789-1.256,0.789l0.001,0.088
						c0.609,0,1.032-0.267,1.333-0.836c0.32-0.609,0.48-1.568,0.481-2.852h-0.087C15.832,19.621,15.673,20.567,15.36,21.162
						 M14.104,21.951l0.001,0.088c-0.205,0-0.389-0.037-0.528-0.076l0.087-0.068C13.787,21.926,13.94,21.951,14.104,21.951z"/>
				</g>
			</g>
		</g>
		<g>
			<g>
				<g>
					<g>
						<defs>
							<path id="SVGID_54_" d="M15.36,21.162c-0.283,0.538-0.681,0.789-1.256,0.789l0.001,0.088c0.609,0,1.032-0.267,1.333-0.836
								c0.32-0.609,0.48-1.568,0.481-2.852h-0.087C15.832,19.621,15.673,20.567,15.36,21.162 M14.104,21.951l0.001,0.088
								c-0.205,0-0.389-0.037-0.528-0.076l0.087-0.068C13.787,21.926,13.94,21.951,14.104,21.951z"/>
						</defs>
						<clipPath id="SVGID_55_">
							<use xlink:href="#SVGID_54_"  overflow="visible"/>
						</clipPath>
						
							<linearGradient id="SVGID_56_" gradientUnits="userSpaceOnUse" x1="-125.3828" y1="987.8893" x2="-125.3205" y2="987.8893" gradientTransform="matrix(-37.6328 0 0 -84.0486 -4702.583 83050.9141)">
							<stop  offset="0" style="stop-color:#492300"/>
							<stop  offset="1" style="stop-color:#70491C"/>
						</linearGradient>
						<path clip-path="url(#SVGID_55_)" fill="url(#SVGID_56_)" d="M13.577,18.351h2.342v3.688h-2.342V18.351z"/>
					</g>
				</g>
			</g>
		</g>
	</g>
	<g>
		<g>
			<g>
				<g>
					<defs>
						<path id="SVGID_57_" d="M14.177,14.749v0.087c0.587,0,0.966,0.222,1.222,0.719c0.291,0.559,0.432,1.475,0.433,2.796h0.087
							c-0.001-1.337-0.145-2.264-0.442-2.837C15.203,14.984,14.801,14.749,14.177,14.749 M13.664,14.906l-0.086-0.064
							c0.158-0.05,0.376-0.092,0.599-0.092v0.087C14.004,14.837,13.831,14.86,13.664,14.906L13.664,14.906z"/>
					</defs>
					<clipPath id="SVGID_58_">
						<use xlink:href="#SVGID_57_"  overflow="visible"/>
					</clipPath>
					<path clip-path="url(#SVGID_58_)" fill="#492300" d="M14.177,14.749v0.087c0.587,0,0.966,0.222,1.222,0.719
						c0.291,0.559,0.432,1.475,0.433,2.796h0.087c-0.001-1.337-0.145-2.264-0.442-2.837C15.203,14.984,14.801,14.749,14.177,14.749
						 M13.664,14.906l-0.086-0.064c0.158-0.05,0.376-0.092,0.599-0.092v0.087C14.004,14.837,13.831,14.86,13.664,14.906
						L13.664,14.906z"/>
				</g>
			</g>
		</g>
		<g>
			<g>
				<g>
					<g>
						<defs>
							<path id="SVGID_59_" d="M14.177,14.749v0.087c0.587,0,0.966,0.222,1.222,0.719c0.291,0.559,0.432,1.475,0.433,2.796h0.087
								c-0.001-1.337-0.145-2.264-0.442-2.837C15.203,14.984,14.801,14.749,14.177,14.749 M13.664,14.906l-0.086-0.064
								c0.158-0.05,0.376-0.092,0.599-0.092v0.087C14.004,14.837,13.831,14.86,13.664,14.906L13.664,14.906z"/>
						</defs>
						<clipPath id="SVGID_60_">
							<use xlink:href="#SVGID_59_"  overflow="visible"/>
						</clipPath>
						
							<linearGradient id="SVGID_61_" gradientUnits="userSpaceOnUse" x1="-125.3828" y1="986.3093" x2="-125.3205" y2="986.3093" gradientTransform="matrix(-37.6328 0 0 -82.657 -4702.583 81541.9141)">
							<stop  offset="0" style="stop-color:#492300"/>
							<stop  offset="1" style="stop-color:#9C7955"/>
						</linearGradient>
						<path clip-path="url(#SVGID_60_)" fill="url(#SVGID_61_)" d="M13.577,14.749h2.342v3.602h-2.342V14.749z"/>
					</g>
				</g>
			</g>
		</g>
	</g>
	<path fill="#8A643E" d="M10.561,29.444h3.109v0.095h-3.109V29.444z"/>
	<g>
		<g>
			<g>
				<g>
					<defs>
						<path id="SVGID_62_" d="M10.744,13.183c0.938-0.613,2.057-0.911,3.416-0.911v-0.086c-1.377,0-2.51,0.301-3.464,0.924
							l-0.157,0.103l0.088,0.048L10.744,13.183 M14.16,12.186v0.086c1.495,0.002,2.722,0.571,3.549,1.649
							c0.796,1.036,1.216,2.545,1.216,4.364h0.088c-0.002-1.838-0.428-3.366-1.234-4.418C16.935,12.769,15.684,12.187,14.16,12.186z
							 M13.578,24.469l0.086,0.103c0.23,0.034,0.478,0.051,0.748,0.051v-0.088C14.108,24.537,13.828,24.512,13.578,24.469
							L13.578,24.469z M18.925,18.286h0.088c0,1.845-0.406,3.41-1.176,4.527c-0.817,1.183-2.001,1.81-3.424,1.811v-0.088
							c1.393,0,2.553-0.613,3.352-1.773C18.523,21.661,18.925,20.112,18.925,18.286L18.925,18.286z"/>
					</defs>
					<clipPath id="SVGID_63_">
						<use xlink:href="#SVGID_62_"  overflow="visible"/>
					</clipPath>
					<path clip-path="url(#SVGID_63_)" fill="#3E1700" d="M10.744,13.183c0.938-0.613,2.057-0.911,3.416-0.911v-0.086
						c-1.377,0-2.51,0.301-3.464,0.924l-0.157,0.103l0.088,0.048L10.744,13.183 M14.16,12.186v0.086
						c1.495,0.002,2.722,0.571,3.549,1.649c0.796,1.036,1.216,2.545,1.216,4.364h0.088c-0.002-1.838-0.428-3.366-1.234-4.418
						C16.935,12.769,15.684,12.187,14.16,12.186z M13.578,24.469l0.086,0.103c0.23,0.034,0.478,0.051,0.748,0.051v-0.088
						C14.108,24.537,13.828,24.512,13.578,24.469L13.578,24.469z M18.925,18.286h0.088c0,1.845-0.406,3.41-1.176,4.527
						c-0.817,1.183-2.001,1.81-3.424,1.811v-0.088c1.393,0,2.553-0.613,3.352-1.773C18.523,21.661,18.925,20.112,18.925,18.286
						L18.925,18.286z"/>
				</g>
			</g>
		</g>
		<g>
			<g>
				<g>
					<g>
						<defs>
							<path id="SVGID_64_" d="M10.744,13.183c0.938-0.613,2.057-0.911,3.416-0.911v-0.086c-1.377,0-2.51,0.301-3.464,0.924
								l-0.157,0.103l0.088,0.048L10.744,13.183 M14.16,12.186v0.086c1.495,0.002,2.722,0.571,3.549,1.649
								c0.796,1.036,1.216,2.545,1.216,4.364h0.088c-0.002-1.838-0.428-3.366-1.234-4.418C16.935,12.769,15.684,12.187,14.16,12.186
								z M13.578,24.469l0.086,0.103c0.23,0.034,0.478,0.051,0.748,0.051v-0.088C14.108,24.537,13.828,24.512,13.578,24.469
								L13.578,24.469z M18.925,18.286h0.088c0,1.845-0.406,3.41-1.176,4.527c-0.817,1.183-2.001,1.81-3.424,1.811v-0.088
								c1.393,0,2.553-0.613,3.352-1.773C18.523,21.661,18.925,20.112,18.925,18.286L18.925,18.286z"/>
						</defs>
						<clipPath id="SVGID_65_">
							<use xlink:href="#SVGID_64_"  overflow="visible"/>
						</clipPath>
						
							<linearGradient id="SVGID_66_" gradientUnits="userSpaceOnUse" x1="1.7447" y1="1062.7952" x2="1.807" y2="1062.7952" gradientTransform="matrix(136.1677 0 0 224.6184 -227.0396 -238704.9375)">
							<stop  offset="0" style="stop-color:#3E1700"/>
							<stop  offset="1" style="stop-color:#9C7955"/>
						</linearGradient>
						<path clip-path="url(#SVGID_65_)" fill="url(#SVGID_66_)" d="M10.538,12.186h8.475v12.437h-8.475V12.186z"/>
					</g>
				</g>
			</g>
		</g>
	</g>
	<path fill="#8A643E" d="M25.358,16.139l0.089,0.219l-0.007-3.137l-0.087,0.042L25.358,16.139"/>
	<g>
		<g>
			<g>
				<g>
					<defs>
						<path id="SVGID_67_" d="M24.907,15.659c-0.412-0.439-1.134-0.912-1.923-0.926l-0.002,0.088
							c0.762,0.013,1.461,0.473,1.862,0.899l0.604,0.639l-0.089-0.219L24.907,15.659 M22.984,14.733l-0.002,0.088
							c-0.296-0.007-0.56,0.059-0.741,0.185c-0.197,0.134-0.295,0.338-0.302,0.621l-0.088-0.002
							C21.871,14.801,22.65,14.727,22.984,14.733L22.984,14.733z"/>
					</defs>
					<clipPath id="SVGID_68_">
						<use xlink:href="#SVGID_67_"  overflow="visible"/>
					</clipPath>
					<path clip-path="url(#SVGID_68_)" fill="#3E1700" d="M24.907,15.659c-0.412-0.439-1.134-0.912-1.923-0.926l-0.002,0.088
						c0.762,0.013,1.461,0.473,1.862,0.899l0.604,0.639l-0.089-0.219L24.907,15.659 M22.984,14.733l-0.002,0.088
						c-0.296-0.007-0.56,0.059-0.741,0.185c-0.197,0.134-0.295,0.338-0.302,0.621l-0.088-0.002
						C21.871,14.801,22.65,14.727,22.984,14.733L22.984,14.733z"/>
				</g>
			</g>
		</g>
		<g>
			<g>
				<g>
					<g>
						<defs>
							<path id="SVGID_69_" d="M24.907,15.659c-0.412-0.439-1.134-0.912-1.923-0.926l-0.002,0.088
								c0.762,0.013,1.461,0.473,1.862,0.899l0.604,0.639l-0.089-0.219L24.907,15.659 M22.984,14.733l-0.002,0.088
								c-0.296-0.007-0.56,0.059-0.741,0.185c-0.197,0.134-0.295,0.338-0.302,0.621l-0.088-0.002
								C21.871,14.801,22.65,14.727,22.984,14.733L22.984,14.733z"/>
						</defs>
						<clipPath id="SVGID_70_">
							<use xlink:href="#SVGID_69_"  overflow="visible"/>
						</clipPath>
						
							<linearGradient id="SVGID_71_" gradientUnits="userSpaceOnUse" x1="-88.3183" y1="951.2445" x2="-88.256" y2="951.2445" gradientTransform="matrix(-57.7951 0 0 -50.9994 -5078.917 48528.4414)">
							<stop  offset="0" style="stop-color:#3E1700"/>
							<stop  offset="1" style="stop-color:#9C7955"/>
						</linearGradient>
						<path clip-path="url(#SVGID_70_)" fill="url(#SVGID_71_)" d="M21.85,14.727h3.597v1.631H21.85V14.727z"/>
					</g>
				</g>
			</g>
		</g>
	</g>
	<g>
		<g>
			<g>
				<g>
					<defs>
						<path id="SVGID_72_" d="M18.945,15.689v0.021l0.087-0.001v-0.022c0-1.237,0.6-2.023,1.103-2.466
							c0.636-0.558,1.497-0.886,2.359-0.903l-0.001-0.088c-0.884,0.018-1.765,0.354-2.418,0.926
							C19.347,13.797,18.945,14.696,18.945,15.689 M22.495,12.319l-0.001-0.088c1.445-0.027,2.384,0.542,2.815,0.886l0.131,0.104
							l-0.087,0.042l-0.098-0.078C24.832,12.849,23.913,12.292,22.495,12.319L22.495,12.319z"/>
					</defs>
					<clipPath id="SVGID_73_">
						<use xlink:href="#SVGID_72_"  overflow="visible"/>
					</clipPath>
					<path clip-path="url(#SVGID_73_)" fill="#492300" d="M18.945,15.689v0.021l0.087-0.001v-0.022c0-1.237,0.6-2.023,1.103-2.466
						c0.636-0.558,1.497-0.886,2.359-0.903l-0.001-0.088c-0.884,0.018-1.765,0.354-2.418,0.926
						C19.347,13.797,18.945,14.696,18.945,15.689 M22.495,12.319l-0.001-0.088c1.445-0.027,2.384,0.542,2.815,0.886l0.131,0.104
						l-0.087,0.042l-0.098-0.078C24.832,12.849,23.913,12.292,22.495,12.319L22.495,12.319z"/>
				</g>
			</g>
		</g>
		<g>
			<g>
				<g>
					<g>
						<defs>
							<path id="SVGID_74_" d="M18.945,15.689v0.021l0.087-0.001v-0.022c0-1.237,0.6-2.023,1.103-2.466
								c0.636-0.558,1.497-0.886,2.359-0.903l-0.001-0.088c-0.884,0.018-1.765,0.354-2.418,0.926
								C19.347,13.797,18.945,14.696,18.945,15.689 M22.495,12.319l-0.001-0.088c1.445-0.027,2.384,0.542,2.815,0.886l0.131,0.104
								l-0.087,0.042l-0.098-0.078C24.832,12.849,23.913,12.292,22.495,12.319L22.495,12.319z"/>
						</defs>
						<clipPath id="SVGID_75_">
							<use xlink:href="#SVGID_74_"  overflow="visible"/>
						</clipPath>
						
							<linearGradient id="SVGID_76_" gradientUnits="userSpaceOnUse" x1="9.0628" y1="1099.8568" x2="9.1251" y2="1099.8568" gradientTransform="matrix(104.3534 0 0 81.123 -926.7911 -89209.7266)">
							<stop  offset="0" style="stop-color:#492300"/>
							<stop  offset="1" style="stop-color:#70491C"/>
						</linearGradient>
						<path clip-path="url(#SVGID_75_)" fill="url(#SVGID_76_)" d="M18.945,12.204h6.495v3.506h-6.495V12.204z"/>
					</g>
				</g>
			</g>
		</g>
	</g>
	<path fill="#785228" d="M13.582,29.188l0.001,0.262l0.088,0.088l-0.002-0.35l-0.004-4.617l-0.086-0.103
		C13.578,25.042,13.582,29.188,13.582,29.188"/>
	<g>
		<g>
			<g>
				<g>
					<defs>
						<path id="SVGID_77_" d="M13.759,6.208c3.578-0.714,7.59-0.833,12.249-0.367l0.087-0.078
							c-4.701-0.477-8.745-0.361-12.353,0.359c-4.798,0.961-8.865,3.01-12.091,6.09l0.088,0.038
							C4.948,9.197,8.991,7.163,13.759,6.208"/>
					</defs>
					<clipPath id="SVGID_78_">
						<use xlink:href="#SVGID_77_"  overflow="visible"/>
					</clipPath>
					<path clip-path="url(#SVGID_78_)" fill="#8C6741" d="M13.759,6.208c3.578-0.714,7.59-0.833,12.249-0.367l0.087-0.078
						c-4.701-0.477-8.745-0.361-12.353,0.359c-4.798,0.961-8.865,3.01-12.091,6.09l0.088,0.038
						C4.948,9.197,8.991,7.163,13.759,6.208"/>
				</g>
			</g>
		</g>
		<g>
			<g>
				<g>
					<g>
						<defs>
							<path id="SVGID_79_" d="M13.759,6.208c3.578-0.714,7.59-0.833,12.249-0.367l0.087-0.078
								c-4.701-0.477-8.745-0.361-12.353,0.359c-4.798,0.961-8.865,3.01-12.091,6.09l0.088,0.038
								C4.948,9.197,8.991,7.163,13.759,6.208"/>
						</defs>
						<clipPath id="SVGID_80_">
							<use xlink:href="#SVGID_79_"  overflow="visible"/>
						</clipPath>
						
							<linearGradient id="SVGID_81_" gradientUnits="userSpaceOnUse" x1="-16.2037" y1="1077.0338" x2="-16.1414" y2="1077.0338" gradientTransform="matrix(392.7669 0 0 136.6944 6365.9331 -147215.7344)">
							<stop  offset="0" style="stop-color:#8C6741"/>
							<stop  offset="1" style="stop-color:#9C7955"/>
						</linearGradient>
						<path clip-path="url(#SVGID_80_)" fill="url(#SVGID_81_)" d="M1.65,5.286h24.444v6.965H1.65V5.286z"/>
					</g>
				</g>
			</g>
		</g>
	</g>
	<path fill="#3F1800" d="M26.034,18.486c0,0.963-0.001,1.924-0.002,2.88c-0.003,2.935-1.066,5.369-3.079,7.04
		c-1.731,1.462-7.006,3.835-9.071,4.701v0.096c2.043-0.856,7.378-3.253,9.128-4.731c2.032-1.688,3.107-4.144,3.109-7.107
		c0.001-0.957,0.002-1.918,0.002-2.88c0-4.209-0.009-8.476-0.027-12.722l-0.086,0.078C26.025,10.063,26.034,14.302,26.034,18.486"/>
	<g>
		<g>
			<g>
				<g>
					<defs>
						<path id="SVGID_82_" d="M1.646,21.366c0.002,2.961,1.077,5.419,3.108,7.106c1.74,1.47,7.083,3.871,9.128,4.731v-0.096
							c-2.067-0.869-7.349-3.248-9.073-4.703c-2.01-1.67-3.074-4.105-3.077-7.038c0-0.943-0.001-1.898-0.001-2.867
							c0-2.037,0.002-4.129,0.007-6.249L1.65,12.212c-0.004,2.133-0.006,4.237-0.006,6.287C1.645,19.468,1.645,20.423,1.646,21.366"
							/>
					</defs>
					<clipPath id="SVGID_83_">
						<use xlink:href="#SVGID_82_"  overflow="visible"/>
					</clipPath>
					<path clip-path="url(#SVGID_83_)" fill="#492300" d="M1.646,21.366c0.002,2.961,1.077,5.419,3.108,7.106
						c1.74,1.47,7.083,3.871,9.128,4.731v-0.096c-2.067-0.869-7.349-3.248-9.073-4.703c-2.01-1.67-3.074-4.105-3.077-7.038
						c0-0.943-0.001-1.898-0.001-2.867c0-2.037,0.002-4.129,0.007-6.249L1.65,12.212c-0.004,2.133-0.006,4.237-0.006,6.287
						C1.645,19.468,1.645,20.423,1.646,21.366"/>
				</g>
			</g>
		</g>
		<g>
			<g>
				<g>
					<g>
						<defs>
							<path id="SVGID_84_" d="M1.646,21.366c0.002,2.961,1.077,5.419,3.108,7.106c1.74,1.47,7.083,3.871,9.128,4.731v-0.096
								c-2.067-0.869-7.349-3.248-9.073-4.703c-2.01-1.67-3.074-4.105-3.077-7.038c0-0.943-0.001-1.898-0.001-2.867
								c0-2.037,0.002-4.129,0.007-6.249L1.65,12.212c-0.004,2.133-0.006,4.237-0.006,6.287C1.645,19.468,1.645,20.423,1.646,21.366
								"/>
						</defs>
						<clipPath id="SVGID_85_">
							<use xlink:href="#SVGID_84_"  overflow="visible"/>
						</clipPath>
						
							<linearGradient id="SVGID_86_" gradientUnits="userSpaceOnUse" x1="-45.3777" y1="1029.7832" x2="-45.3155" y2="1029.7832" gradientTransform="matrix(-196.6406 0 0 -362.0715 -8909.2139 372877.875)">
							<stop  offset="0" style="stop-color:#492300"/>
							<stop  offset="1" style="stop-color:#70491C"/>
						</linearGradient>
						<path clip-path="url(#SVGID_85_)" fill="url(#SVGID_86_)" d="M1.645,12.212h12.238v20.991H1.645V12.212z"/>
					</g>
				</g>
			</g>
		</g>
	</g>
	<path fill="#905800" d="M18.07,32.951c2.012-0.946,4.668-2.291,5.891-3.327c1.215-1.008,2.139-2.246,2.752-3.676
		c0.582-1.37,0.879-2.915,0.879-4.593V5.212l-0.173,0.104v16.039c0,3.248-1.119,6.102-3.567,8.136
		c-2.341,1.981-9.987,5.139-9.968,5.12v0.19c0.187-0.077,0.899-0.374,1.306-0.55C16.155,33.832,17.116,33.399,18.07,32.951"/>
	<g>
		<g>
			<g>
				<g>
					<defs>
						<path id="SVGID_87_" d="M3.916,29.491c-2.446-2.034-3.565-4.889-3.565-8.136c0-5.346-0.002-10.691-0.002-16.039L0.175,5.212
							l0.002,16.142c0,1.679,0.296,3.224,0.879,4.593c0.61,1.43,1.535,2.668,2.75,3.678c1.222,1.034,3.876,2.38,5.888,3.325
							c0.954,0.448,1.915,0.882,2.883,1.299c0.407,0.176,1.12,0.473,1.305,0.55v-0.19C13.903,34.63,6.257,31.472,3.916,29.491"/>
					</defs>
					<clipPath id="SVGID_88_">
						<use xlink:href="#SVGID_87_"  overflow="visible"/>
					</clipPath>
					<path clip-path="url(#SVGID_88_)" fill="#FFD568" d="M3.916,29.491c-2.446-2.034-3.565-4.889-3.565-8.136
						c0-5.346-0.002-10.691-0.002-16.039L0.175,5.212l0.002,16.142c0,1.679,0.296,3.224,0.879,4.593
						c0.61,1.43,1.535,2.668,2.75,3.678c1.222,1.034,3.876,2.38,5.888,3.325c0.954,0.448,1.915,0.882,2.883,1.299
						c0.407,0.176,1.12,0.473,1.305,0.55v-0.19C13.903,34.63,6.257,31.472,3.916,29.491"/>
				</g>
			</g>
		</g>
		<g>
			<g>
				<g>
					<g>
						<defs>
							<path id="SVGID_89_" d="M3.916,29.491c-2.446-2.034-3.565-4.889-3.565-8.136c0-5.346-0.002-10.691-0.002-16.039L0.175,5.212
								l0.002,16.142c0,1.679,0.296,3.224,0.879,4.593c0.61,1.43,1.535,2.668,2.75,3.678c1.222,1.034,3.876,2.38,5.888,3.325
								c0.954,0.448,1.915,0.882,2.883,1.299c0.407,0.176,1.12,0.473,1.305,0.55v-0.19C13.903,34.63,6.257,31.472,3.916,29.491"/>
						</defs>
						<clipPath id="SVGID_90_">
							<use xlink:href="#SVGID_89_"  overflow="visible"/>
						</clipPath>
						
							<linearGradient id="SVGID_91_" gradientUnits="userSpaceOnUse" x1="-8.2351" y1="1051.4612" x2="-8.1729" y2="1051.4612" gradientTransform="matrix(220.249 0 0 500.2088 1813.9514 -525930.125)">
							<stop  offset="0" style="stop-color:#FFD568"/>
							<stop  offset="0.835" style="stop-color:#A36D12"/>
							<stop  offset="1" style="stop-color:#905800"/>
						</linearGradient>
						<path clip-path="url(#SVGID_90_)" fill="url(#SVGID_91_)" d="M0.175,5.212h13.729v29.589H0.175V5.212z"/>
					</g>
				</g>
			</g>
		</g>
	</g>
	<path fill="#FFD568" d="M13.882,2.35c-0.019,0.028,7.595-0.316,13.535,2.967l0.173-0.104L27.5,5.164
		c-4.95-2.736-11.069-3-13.469-2.987h-0.298c-2.4-0.013-8.52,0.251-13.47,2.987l-0.09,0.049l0.175,0.103
		C6.29,2.032,13.903,2.377,13.882,2.35"/>
	<g>
		<g>
			<g>
				<g>
					<defs>
						<path id="SVGID_92_" d="M21.59,15.619l0.174,0.004c0.023-0.926,0.94-0.982,1.22-0.977l0.004-0.173
							C22.315,14.459,21.61,14.757,21.59,15.619"/>
					</defs>
					<clipPath id="SVGID_93_">
						<use xlink:href="#SVGID_92_"  overflow="visible"/>
					</clipPath>
					<path clip-path="url(#SVGID_93_)" fill="#905800" d="M21.59,15.619l0.174,0.004c0.023-0.926,0.94-0.982,1.22-0.977l0.004-0.173
						C22.315,14.459,21.61,14.757,21.59,15.619"/>
				</g>
			</g>
		</g>
		<g>
			<g>
				<g>
					<g>
						<defs>
							<path id="SVGID_94_" d="M21.59,15.619l0.174,0.004c0.023-0.926,0.94-0.982,1.22-0.977l0.004-0.173
								C22.315,14.459,21.61,14.757,21.59,15.619"/>
						</defs>
						<clipPath id="SVGID_95_">
							<use xlink:href="#SVGID_94_"  overflow="visible"/>
						</clipPath>
						
							<linearGradient id="SVGID_96_" gradientUnits="userSpaceOnUse" x1="135.9148" y1="1149.2589" x2="135.977" y2="1149.2589" gradientTransform="matrix(22.4807 0 0 43.4964 -3033.8718 -49973.5859)">
							<stop  offset="0" style="stop-color:#905800"/>
							<stop  offset="1" style="stop-color:#905800"/>
						</linearGradient>
						<path clip-path="url(#SVGID_95_)" fill="url(#SVGID_96_)" d="M21.59,14.459h1.399v1.164H21.59V14.459z"/>
					</g>
				</g>
			</g>
		</g>
	</g>
	<g>
		<g>
			<g>
				<g>
					<defs>
						<path id="SVGID_97_" d="M22.5,12.58l-0.002-0.175c-0.843,0.016-1.685,0.338-2.306,0.882c-0.49,0.431-1.073,1.194-1.073,2.4
							v0.022l0.176-0.002C19.282,13.745,20.939,12.61,22.5,12.58"/>
					</defs>
					<clipPath id="SVGID_98_">
						<use xlink:href="#SVGID_97_"  overflow="visible"/>
					</clipPath>
					<path clip-path="url(#SVGID_98_)" fill="#EFCB95" d="M22.5,12.58l-0.002-0.175c-0.843,0.016-1.685,0.338-2.306,0.882
						c-0.49,0.431-1.073,1.194-1.073,2.4v0.022l0.176-0.002C19.282,13.745,20.939,12.61,22.5,12.58"/>
				</g>
			</g>
		</g>
		<g>
			<g>
				<g>
					<g>
						<defs>
							<path id="SVGID_99_" d="M22.5,12.58l-0.002-0.175c-0.843,0.016-1.685,0.338-2.306,0.882c-0.49,0.431-1.073,1.194-1.073,2.4
								v0.022l0.176-0.002C19.282,13.745,20.939,12.61,22.5,12.58"/>
						</defs>
						<clipPath id="SVGID_100_">
							<use xlink:href="#SVGID_99_"  overflow="visible"/>
						</clipPath>
						
							<linearGradient id="SVGID_101_" gradientUnits="userSpaceOnUse" x1="41.5465" y1="1102.233" x2="41.6088" y2="1102.233" gradientTransform="matrix(54.3154 0 0 77.876 -2237.4954 -85823.4453)">
							<stop  offset="0" style="stop-color:#EFCB95"/>
							<stop  offset="1" style="stop-color:#E2AB53"/>
						</linearGradient>
						<path clip-path="url(#SVGID_100_)" fill="url(#SVGID_101_)" d="M19.119,12.405h3.38v3.304h-3.38V12.405z"/>
					</g>
				</g>
			</g>
		</g>
	</g>
	<g>
		<g>
			<g>
				<g>
					<defs>
						<path id="SVGID_102_" d="M22.989,14.472l-0.004,0.173c0.816,0.014,1.561,0.502,1.986,0.953l0.302,0.321l-0.176-0.44
							C24.609,14.962,23.818,14.486,22.989,14.472"/>
					</defs>
					<clipPath id="SVGID_103_">
						<use xlink:href="#SVGID_102_"  overflow="visible"/>
					</clipPath>
					<path clip-path="url(#SVGID_103_)" fill="#905800" d="M22.989,14.472l-0.004,0.173c0.816,0.014,1.561,0.502,1.986,0.953
						l0.302,0.321l-0.176-0.44C24.609,14.962,23.818,14.486,22.989,14.472"/>
				</g>
			</g>
		</g>
		<g>
			<g>
				<g>
					<g>
						<defs>
							<path id="SVGID_104_" d="M22.989,14.472l-0.004,0.173c0.816,0.014,1.561,0.502,1.986,0.953l0.302,0.321l-0.176-0.44
								C24.609,14.962,23.818,14.486,22.989,14.472"/>
						</defs>
						<clipPath id="SVGID_105_">
							<use xlink:href="#SVGID_104_"  overflow="visible"/>
						</clipPath>
						
							<linearGradient id="SVGID_106_" gradientUnits="userSpaceOnUse" x1="72.3385" y1="1139.0975" x2="72.4007" y2="1139.0975" gradientTransform="matrix(36.7608 0 0 48.0375 -2636.24 -54704.2031)">
							<stop  offset="0" style="stop-color:#905800"/>
							<stop  offset="0.578" style="stop-color:#BF8934"/>
							<stop  offset="1" style="stop-color:#E4AF5D"/>
						</linearGradient>
						<path clip-path="url(#SVGID_105_)" fill="url(#SVGID_106_)" d="M22.985,14.472h2.287v1.447h-2.287V14.472z"/>
					</g>
				</g>
			</g>
		</g>
	</g>
	<g>
		<g>
			<g>
				<g>
					<defs>
						<path id="SVGID_107_" d="M25.092,13.39l0.173-0.085L25.2,13.254c-0.412-0.329-1.313-0.875-2.702-0.849L22.5,12.58
							C23.808,12.555,24.68,13.063,25.092,13.39"/>
					</defs>
					<clipPath id="SVGID_108_">
						<use xlink:href="#SVGID_107_"  overflow="visible"/>
					</clipPath>
					<path clip-path="url(#SVGID_108_)" fill="#E2AB53" d="M25.092,13.39l0.173-0.085L25.2,13.254
						c-0.412-0.329-1.313-0.875-2.702-0.849L22.5,12.58C23.808,12.555,24.68,13.063,25.092,13.39"/>
				</g>
			</g>
		</g>
		<g>
			<g>
				<g>
					<g>
						<defs>
							<path id="SVGID_109_" d="M25.092,13.39l0.173-0.085L25.2,13.254c-0.412-0.329-1.313-0.875-2.702-0.849L22.5,12.58
								C23.808,12.555,24.68,13.063,25.092,13.39"/>
						</defs>
						<clipPath id="SVGID_110_">
							<use xlink:href="#SVGID_109_"  overflow="visible"/>
						</clipPath>
						
							<linearGradient id="SVGID_111_" gradientUnits="userSpaceOnUse" x1="55.4396" y1="1156.4336" x2="55.5019" y2="1156.4336" gradientTransform="matrix(44.4586 0 0 41.0452 -2442.2695 -47453.1641)">
							<stop  offset="0" style="stop-color:#E2AB53"/>
							<stop  offset="1" style="stop-color:#C27913"/>
						</linearGradient>
						<path clip-path="url(#SVGID_110_)" fill="url(#SVGID_111_)" d="M22.498,12.379h2.767v1.012h-2.767V12.379z"/>
					</g>
				</g>
			</g>
		</g>
	</g>
	<path fill="#905800" d="M25.097,15.48l0.175,0.44l-0.007-2.613l-0.173,0.085C25.093,14.085,25.094,14.783,25.097,15.48"/>
	<g>
		<g>
			<g>
				<g>
					<defs>
						<path id="SVGID_112_" d="M23.157,17.381l0.09-0.15l-0.189-0.114c-0.79-0.47-1.309-0.778-1.293-1.493l-0.174-0.004
							C21.57,16.5,22.276,16.85,23.157,17.381"/>
					</defs>
					<clipPath id="SVGID_113_">
						<use xlink:href="#SVGID_112_"  overflow="visible"/>
					</clipPath>
					<path clip-path="url(#SVGID_113_)" fill="#DDAC72" d="M23.157,17.381l0.09-0.15l-0.189-0.114
						c-0.79-0.47-1.309-0.778-1.293-1.493l-0.174-0.004C21.57,16.5,22.276,16.85,23.157,17.381"/>
				</g>
			</g>
		</g>
		<g>
			<g>
				<g>
					<g>
						<defs>
							<path id="SVGID_114_" d="M23.157,17.381l0.09-0.15l-0.189-0.114c-0.79-0.47-1.309-0.778-1.293-1.493l-0.174-0.004
								C21.57,16.5,22.276,16.85,23.157,17.381"/>
						</defs>
						<clipPath id="SVGID_115_">
							<use xlink:href="#SVGID_114_"  overflow="visible"/>
						</clipPath>
						
							<linearGradient id="SVGID_116_" gradientUnits="userSpaceOnUse" x1="-189.3564" y1="1112.53" x2="-189.2941" y2="1112.53" gradientTransform="matrix(0 -28.3045 51.7376 0 -57537.2227 -5342.2578)">
							<stop  offset="0" style="stop-color:#DDAC72"/>
							<stop  offset="1" style="stop-color:#905800"/>
						</linearGradient>
						<path clip-path="url(#SVGID_115_)" fill="url(#SVGID_116_)" d="M21.57,15.619h1.678v1.762H21.57V15.619z"/>
					</g>
				</g>
			</g>
		</g>
	</g>
	<g>
		<g>
			<g>
				<g>
					<defs>
						<path id="SVGID_117_" d="M22.948,20.941l0.175-0.003c-0.017-0.759-0.434-1.17-1.483-1.791l-0.088,0.15
							C22.621,19.931,22.934,20.299,22.948,20.941"/>
					</defs>
					<clipPath id="SVGID_118_">
						<use xlink:href="#SVGID_117_"  overflow="visible"/>
					</clipPath>
					<path clip-path="url(#SVGID_118_)" fill="#EABD79" d="M22.948,20.941l0.175-0.003c-0.017-0.759-0.434-1.17-1.483-1.791
						l-0.088,0.15C22.621,19.931,22.934,20.299,22.948,20.941"/>
				</g>
			</g>
		</g>
		<g>
			<g>
				<g>
					<g>
						<defs>
							<path id="SVGID_119_" d="M22.948,20.941l0.175-0.003c-0.017-0.759-0.434-1.17-1.483-1.791l-0.088,0.15
								C22.621,19.931,22.934,20.299,22.948,20.941"/>
						</defs>
						<clipPath id="SVGID_120_">
							<use xlink:href="#SVGID_119_"  overflow="visible"/>
						</clipPath>
						
							<linearGradient id="SVGID_121_" gradientUnits="userSpaceOnUse" x1="-169.7402" y1="956.9717" x2="-169.678" y2="956.9717" gradientTransform="matrix(-25.2452 0 0 -53.6258 -4262.0054 51338.418)">
							<stop  offset="0" style="stop-color:#EABD79"/>
							<stop  offset="1" style="stop-color:#C27913"/>
						</linearGradient>
						<path clip-path="url(#SVGID_120_)" fill="url(#SVGID_121_)" d="M21.551,19.146h1.571v1.794h-1.571V19.146z"/>
					</g>
				</g>
			</g>
		</g>
	</g>
	<g>
		<g>
			<g>
				<g>
					<defs>
						<path id="SVGID_122_" d="M19.393,23.55l-0.174,0.099l0.086,0.05c0.832,0.495,1.802,0.762,2.724,0.754l-0.002-0.175
							C21.082,24.289,20.147,23.997,19.393,23.55"/>
					</defs>
					<clipPath id="SVGID_123_">
						<use xlink:href="#SVGID_122_"  overflow="visible"/>
					</clipPath>
					<path clip-path="url(#SVGID_123_)" fill="#C27913" d="M19.393,23.55l-0.174,0.099l0.086,0.05
						c0.832,0.495,1.802,0.762,2.724,0.754l-0.002-0.175C21.082,24.289,20.147,23.997,19.393,23.55"/>
				</g>
			</g>
		</g>
		<g>
			<g>
				<g>
					<g>
						<defs>
							<path id="SVGID_124_" d="M19.393,23.55l-0.174,0.099l0.086,0.05c0.832,0.495,1.802,0.762,2.724,0.754l-0.002-0.175
								C21.082,24.289,20.147,23.997,19.393,23.55"/>
						</defs>
						<clipPath id="SVGID_125_">
							<use xlink:href="#SVGID_124_"  overflow="visible"/>
						</clipPath>
						
							<linearGradient id="SVGID_126_" gradientUnits="userSpaceOnUse" x1="55.2827" y1="1156.8619" x2="55.345" y2="1156.8619" gradientTransform="matrix(45.1482 0 0 39.4297 -2476.696 -45590.7148)">
							<stop  offset="0" style="stop-color:#C27913"/>
							<stop  offset="0.854" style="stop-color:#985D03"/>
							<stop  offset="1" style="stop-color:#905800"/>
						</linearGradient>
						<path clip-path="url(#SVGID_125_)" fill="url(#SVGID_126_)" d="M19.219,23.55h2.81v0.911h-2.81V23.55z"/>
					</g>
				</g>
			</g>
		</g>
	</g>
	<path fill="#EDC68C" d="M19.399,21.314l-0.173-0.39l-0.007,2.724l0.174-0.099C19.397,22.807,19.398,22.062,19.399,21.314"/>
	<g>
		<g>
			<g>
				<g>
					<defs>
						<path id="SVGID_127_" d="M19.295,15.708l-0.176,0.002c0.006,1.36,0.405,2.385,2.432,3.586l0.088-0.15
							C19.663,17.974,19.299,17.004,19.295,15.708"/>
					</defs>
					<clipPath id="SVGID_128_">
						<use xlink:href="#SVGID_127_"  overflow="visible"/>
					</clipPath>
					<path clip-path="url(#SVGID_128_)" fill="#EFCB95" d="M19.295,15.708l-0.176,0.002c0.006,1.36,0.405,2.385,2.432,3.586
						l0.088-0.15C19.663,17.974,19.299,17.004,19.295,15.708"/>
				</g>
			</g>
		</g>
		<g>
			<g>
				<g>
					<g>
						<defs>
							<path id="SVGID_129_" d="M19.295,15.708l-0.176,0.002c0.006,1.36,0.405,2.385,2.432,3.586l0.088-0.15
								C19.663,17.974,19.299,17.004,19.295,15.708"/>
						</defs>
						<clipPath id="SVGID_130_">
							<use xlink:href="#SVGID_129_"  overflow="visible"/>
						</clipPath>
						
							<linearGradient id="SVGID_131_" gradientUnits="userSpaceOnUse" x1="64.675" y1="1098.2966" x2="64.7373" y2="1098.2966" gradientTransform="matrix(40.5008 0 0 82.4304 -2600.2693 -90515.5313)">
							<stop  offset="0" style="stop-color:#EFCB95"/>
							<stop  offset="1" style="stop-color:#C27913"/>
						</linearGradient>
						<path clip-path="url(#SVGID_130_)" fill="url(#SVGID_131_)" d="M19.119,15.708h2.52v3.588h-2.52V15.708z"/>
					</g>
				</g>
			</g>
		</g>
	</g>
	<g>
		<g>
			<g>
				<g>
					<defs>
						<path id="SVGID_132_" d="M21.696,22.291v-0.174c-0.683,0-1.559-0.374-2.181-0.933l-0.288-0.259l0.173,0.39
							C20.016,21.87,20.933,22.291,21.696,22.291"/>
					</defs>
					<clipPath id="SVGID_133_">
						<use xlink:href="#SVGID_132_"  overflow="visible"/>
					</clipPath>
					<path clip-path="url(#SVGID_133_)" fill="#EABD79" d="M21.696,22.291v-0.174c-0.683,0-1.559-0.374-2.181-0.933l-0.288-0.259
						l0.173,0.39C20.016,21.87,20.933,22.291,21.696,22.291"/>
				</g>
			</g>
		</g>
		<g>
			<g>
				<g>
					<g>
						<defs>
							<path id="SVGID_134_" d="M21.696,22.291v-0.174c-0.683,0-1.559-0.374-2.181-0.933l-0.288-0.259l0.173,0.39
								C20.016,21.87,20.933,22.291,21.696,22.291"/>
						</defs>
						<clipPath id="SVGID_135_">
							<use xlink:href="#SVGID_134_"  overflow="visible"/>
						</clipPath>
						
							<linearGradient id="SVGID_136_" gradientUnits="userSpaceOnUse" x1="-118.1027" y1="944.9052" x2="-118.0404" y2="944.9052" gradientTransform="matrix(-39.6714 0 0 -46.7398 -4663.6025 44186.2852)">
							<stop  offset="0" style="stop-color:#EABD79"/>
							<stop  offset="1" style="stop-color:#C27913"/>
						</linearGradient>
						<path clip-path="url(#SVGID_135_)" fill="url(#SVGID_136_)" d="M19.226,20.925h2.47v1.367h-2.47V20.925z"/>
					</g>
				</g>
			</g>
		</g>
	</g>
	<g>
		<g>
			<g>
				<g>
					<defs>
						<path id="SVGID_137_" d="M22.027,24.278l0.002,0.175c2.409-0.027,3.543-1.737,3.599-3.419l-0.173-0.008
							C25.403,22.563,24.382,24.254,22.027,24.278"/>
					</defs>
					<clipPath id="SVGID_138_">
						<use xlink:href="#SVGID_137_"  overflow="visible"/>
					</clipPath>
					<path clip-path="url(#SVGID_138_)" fill="#905800" d="M22.027,24.278l0.002,0.175c2.409-0.027,3.543-1.737,3.599-3.419
						l-0.173-0.008C25.403,22.563,24.382,24.254,22.027,24.278"/>
				</g>
			</g>
		</g>
		<g>
			<g>
				<g>
					<g>
						<defs>
							<path id="SVGID_139_" d="M22.027,24.278l0.002,0.175c2.409-0.027,3.543-1.737,3.599-3.419l-0.173-0.008
								C25.403,22.563,24.382,24.254,22.027,24.278"/>
						</defs>
						<clipPath id="SVGID_140_">
							<use xlink:href="#SVGID_139_"  overflow="visible"/>
						</clipPath>
						
							<linearGradient id="SVGID_141_" gradientUnits="userSpaceOnUse" x1="36.6532" y1="1099.1288" x2="36.7154" y2="1099.1288" gradientTransform="matrix(57.85 0 0 79.8279 -2098.3608 -87718.4063)">
							<stop  offset="0" style="stop-color:#905800"/>
							<stop  offset="1" style="stop-color:#9A6419"/>
						</linearGradient>
						<path clip-path="url(#SVGID_140_)" fill="url(#SVGID_141_)" d="M22.027,21.027h3.6v3.426h-3.6V21.027z"/>
					</g>
				</g>
			</g>
		</g>
	</g>
	<g>
		<g>
			<g>
				<g>
					<defs>
						<path id="SVGID_142_" d="M23.122,20.938l-0.175,0.003c0,0.012,0.001,0.024,0.001,0.037c0,0.323-0.102,0.599-0.293,0.793
							c-0.221,0.226-0.554,0.346-0.961,0.346v0.175C22.568,22.291,23.141,21.776,23.122,20.938"/>
					</defs>
					<clipPath id="SVGID_143_">
						<use xlink:href="#SVGID_142_"  overflow="visible"/>
					</clipPath>
					<path clip-path="url(#SVGID_143_)" fill="#EABD79" d="M23.122,20.938l-0.175,0.003c0,0.012,0.001,0.024,0.001,0.037
						c0,0.323-0.102,0.599-0.293,0.793c-0.221,0.226-0.554,0.346-0.961,0.346v0.175C22.568,22.291,23.141,21.776,23.122,20.938"/>
				</g>
			</g>
		</g>
		<g>
			<g>
				<g>
					<g>
						<defs>
							<path id="SVGID_144_" d="M23.122,20.938l-0.175,0.003c0,0.012,0.001,0.024,0.001,0.037c0,0.323-0.102,0.599-0.293,0.793
								c-0.221,0.226-0.554,0.346-0.961,0.346v0.175C22.568,22.291,23.141,21.776,23.122,20.938"/>
						</defs>
						<clipPath id="SVGID_145_">
							<use xlink:href="#SVGID_144_"  overflow="visible"/>
						</clipPath>
						
							<linearGradient id="SVGID_146_" gradientUnits="userSpaceOnUse" x1="132.622" y1="1140.1348" x2="132.6842" y2="1140.1348" gradientTransform="matrix(22.9339 0 0 46.5397 -3019.8438 -53039.918)">
							<stop  offset="0" style="stop-color:#EABD79"/>
							<stop  offset="1" style="stop-color:#EABD79"/>
						</linearGradient>
						<path clip-path="url(#SVGID_145_)" fill="url(#SVGID_146_)" d="M21.696,20.938h1.445v1.353h-1.445V20.938z"/>
					</g>
				</g>
			</g>
		</g>
	</g>
	<g>
		<g>
			<g>
				<g>
					<defs>
						<path id="SVGID_147_" d="M25.454,21.027l0.173,0.008c0.023-0.841-0.1-1.438-0.414-1.994c-0.364-0.645-0.989-1.222-1.967-1.811
							l-0.09,0.15C25.135,18.573,25.492,19.627,25.454,21.027"/>
					</defs>
					<clipPath id="SVGID_148_">
						<use xlink:href="#SVGID_147_"  overflow="visible"/>
					</clipPath>
					<path clip-path="url(#SVGID_148_)" fill="#DDAC72" d="M25.454,21.027l0.173,0.008c0.023-0.841-0.1-1.438-0.414-1.994
						c-0.364-0.645-0.989-1.222-1.967-1.811l-0.09,0.15C25.135,18.573,25.492,19.627,25.454,21.027"/>
				</g>
			</g>
		</g>
		<g>
			<g>
				<g>
					<g>
						<defs>
							<path id="SVGID_149_" d="M25.454,21.027l0.173,0.008c0.023-0.841-0.1-1.438-0.414-1.994
								c-0.364-0.645-0.989-1.222-1.967-1.811l-0.09,0.15C25.135,18.573,25.492,19.627,25.454,21.027"/>
						</defs>
						<clipPath id="SVGID_150_">
							<use xlink:href="#SVGID_149_"  overflow="visible"/>
						</clipPath>
						
							<linearGradient id="SVGID_151_" gradientUnits="userSpaceOnUse" x1="49.3094" y1="986.7473" x2="49.3717" y2="986.7473" gradientTransform="matrix(0 61.1261 -64.8449 0 64009.9375 -2996.8635)">
							<stop  offset="0" style="stop-color:#DDAC72"/>
							<stop  offset="1" style="stop-color:#9A6419"/>
						</linearGradient>
						<path clip-path="url(#SVGID_150_)" fill="url(#SVGID_151_)" d="M23.157,17.23h2.493v3.804h-2.493V17.23z"/>
					</g>
				</g>
			</g>
		</g>
	</g>
	<g>
		<g>
			<g>
				<g>
					<defs>
						<path id="SVGID_152_" d="M14.177,14.661c0.652,0.002,1.091,0.258,1.378,0.813c0.305,0.584,0.451,1.526,0.451,2.877
							l0.176-0.001c0-2.734-0.591-3.862-2.004-3.862L14.177,14.661"/>
					</defs>
					<clipPath id="SVGID_153_">
						<use xlink:href="#SVGID_152_"  overflow="visible"/>
					</clipPath>
					<path clip-path="url(#SVGID_153_)" fill="#EABD79" d="M14.177,14.661c0.652,0.002,1.091,0.258,1.378,0.813
						c0.305,0.584,0.451,1.526,0.451,2.877l0.176-0.001c0-2.734-0.591-3.862-2.004-3.862L14.177,14.661"/>
				</g>
			</g>
		</g>
		<g>
			<g>
				<g>
					<g>
						<defs>
							<path id="SVGID_154_" d="M14.177,14.661c0.652,0.002,1.091,0.258,1.378,0.813c0.305,0.584,0.451,1.526,0.451,2.877
								l0.176-0.001c0-2.734-0.591-3.862-2.004-3.862L14.177,14.661"/>
						</defs>
						<clipPath id="SVGID_155_">
							<use xlink:href="#SVGID_154_"  overflow="visible"/>
						</clipPath>
						
							<linearGradient id="SVGID_156_" gradientUnits="userSpaceOnUse" x1="-100.3869" y1="1107.976" x2="-100.3246" y2="1107.976" gradientTransform="matrix(0 -62.0733 56.9843 0 -63122.0547 -6212.9976)">
							<stop  offset="0" style="stop-color:#EABD79"/>
							<stop  offset="1" style="stop-color:#905800"/>
						</linearGradient>
						<path clip-path="url(#SVGID_155_)" fill="url(#SVGID_156_)" d="M14.177,14.487h2.004v3.863h-2.004V14.487z"/>
					</g>
				</g>
			</g>
		</g>
	</g>
	<g>
		<g>
			<g>
				<g>
					<defs>
						<path id="SVGID_157_" d="M14.177,14.661v-0.173c-0.328,0-0.665,0.078-0.863,0.175l0.175,0.116
							C13.661,14.716,13.914,14.661,14.177,14.661"/>
					</defs>
					<clipPath id="SVGID_158_">
						<use xlink:href="#SVGID_157_"  overflow="visible"/>
					</clipPath>
					<path clip-path="url(#SVGID_158_)" fill="#905800" d="M14.177,14.661v-0.173c-0.328,0-0.665,0.078-0.863,0.175l0.175,0.116
						C13.661,14.716,13.914,14.661,14.177,14.661"/>
				</g>
			</g>
		</g>
		<g>
			<g>
				<g>
					<g>
						<defs>
							<path id="SVGID_159_" d="M14.177,14.661v-0.173c-0.328,0-0.665,0.078-0.863,0.175l0.175,0.116
								C13.661,14.716,13.914,14.661,14.177,14.661"/>
						</defs>
						<clipPath id="SVGID_160_">
							<use xlink:href="#SVGID_159_"  overflow="visible"/>
						</clipPath>
						
							<linearGradient id="SVGID_161_" gradientUnits="userSpaceOnUse" x1="245.8718" y1="1200.4232" x2="245.9341" y2="1200.4232" gradientTransform="matrix(13.8544 0 0 29.4605 -3393.0862 -35350.4375)">
							<stop  offset="0" style="stop-color:#905800"/>
							<stop  offset="1" style="stop-color:#905800"/>
						</linearGradient>
						<path clip-path="url(#SVGID_160_)" fill="url(#SVGID_161_)" d="M13.314,14.487h0.863v0.291h-0.863V14.487z"/>
					</g>
				</g>
			</g>
		</g>
	</g>
	<g>
		<g>
			<g>
				<g>
					<defs>
						<path id="SVGID_162_" d="M14.413,24.274v0.176c1.363-0.002,2.497-0.602,3.281-1.737c0.748-1.085,1.143-2.616,1.143-4.426
							h-0.173C18.664,21.844,17.11,24.271,14.413,24.274"/>
					</defs>
					<clipPath id="SVGID_163_">
						<use xlink:href="#SVGID_162_"  overflow="visible"/>
					</clipPath>
					<path clip-path="url(#SVGID_163_)" fill="#905800" d="M14.413,24.274v0.176c1.363-0.002,2.497-0.602,3.281-1.737
						c0.748-1.085,1.143-2.616,1.143-4.426h-0.173C18.664,21.844,17.11,24.271,14.413,24.274"/>
				</g>
			</g>
		</g>
		<g>
			<g>
				<g>
					<g>
						<defs>
							<path id="SVGID_164_" d="M14.413,24.274v0.176c1.363-0.002,2.497-0.602,3.281-1.737c0.748-1.085,1.143-2.616,1.143-4.426
								h-0.173C18.664,21.844,17.11,24.271,14.413,24.274"/>
						</defs>
						<clipPath id="SVGID_165_">
							<use xlink:href="#SVGID_164_"  overflow="visible"/>
						</clipPath>
						
							<linearGradient id="SVGID_166_" gradientUnits="userSpaceOnUse" x1="26.545" y1="1079.1101" x2="26.6073" y2="1079.1101" gradientTransform="matrix(71.0962 0 0 123.8262 -1872.8376 -133600.7344)">
							<stop  offset="0" style="stop-color:#905800"/>
							<stop  offset="1" style="stop-color:#905800"/>
						</linearGradient>
						<path clip-path="url(#SVGID_165_)" fill="url(#SVGID_166_)" d="M14.413,18.286h4.424v6.164h-4.424V18.286z"/>
					</g>
				</g>
			</g>
		</g>
	</g>
	<g>
		<g>
			<g>
				<g>
					<defs>
						<path id="SVGID_167_" d="M10.733,29.184v0.173l0.174-0.175c-0.026-5.26-0.034-10.521-0.022-15.781l-0.173-0.095l-0.001,0.095
							C10.699,18.714,10.706,24.025,10.733,29.184"/>
					</defs>
					<clipPath id="SVGID_168_">
						<use xlink:href="#SVGID_167_"  overflow="visible"/>
					</clipPath>
					<path clip-path="url(#SVGID_168_)" fill="#E0B27C" d="M10.733,29.184v0.173l0.174-0.175c-0.026-5.26-0.034-10.521-0.022-15.781
						l-0.173-0.095l-0.001,0.095C10.699,18.714,10.706,24.025,10.733,29.184"/>
				</g>
			</g>
		</g>
		<g>
			<g>
				<g>
					<g>
						<defs>
							<path id="SVGID_169_" d="M10.733,29.184v0.173l0.174-0.175c-0.026-5.26-0.034-10.521-0.022-15.781l-0.173-0.095l-0.001,0.095
								C10.699,18.714,10.706,24.025,10.733,29.184"/>
						</defs>
						<clipPath id="SVGID_170_">
							<use xlink:href="#SVGID_169_"  overflow="visible"/>
						</clipPath>
						
							<linearGradient id="SVGID_171_" gradientUnits="userSpaceOnUse" x1="-8.1109" y1="906.9367" x2="-8.0487" y2="906.9367" gradientTransform="matrix(0 257.8845 -28.1265 0 25519.7578 2104.9883)">
							<stop  offset="0" style="stop-color:#E0B27C"/>
							<stop  offset="1" style="stop-color:#C27913"/>
						</linearGradient>
						<path clip-path="url(#SVGID_170_)" fill="url(#SVGID_171_)" d="M10.699,13.308h0.208v16.05h-0.208V13.308z"/>
					</g>
				</g>
			</g>
		</g>
	</g>
	<g>
		<g>
			<g>
				<g>
					<defs>
						<path id="SVGID_172_" d="M13.489,14.779l-0.175-0.116c0,2.49,0,4.998,0.001,7.491l0.174-0.124V14.779"/>
					</defs>
					<clipPath id="SVGID_173_">
						<use xlink:href="#SVGID_172_"  overflow="visible"/>
					</clipPath>
					<path clip-path="url(#SVGID_173_)" fill="#905800" d="M13.489,14.779l-0.175-0.116c0,2.49,0,4.998,0.001,7.491l0.174-0.124
						V14.779"/>
				</g>
			</g>
		</g>
		<g>
			<g>
				<g>
					<g>
						<defs>
							<path id="SVGID_174_" d="M13.489,14.779l-0.175-0.116c0,2.49,0,4.998,0.001,7.491l0.174-0.124V14.779"/>
						</defs>
						<clipPath id="SVGID_175_">
							<use xlink:href="#SVGID_174_"  overflow="visible"/>
						</clipPath>
						
							<linearGradient id="SVGID_176_" gradientUnits="userSpaceOnUse" x1="1316.4425" y1="1074.0095" x2="1316.5048" y2="1074.0095" gradientTransform="matrix(2.8079 0 0 145.1508 -3683.1045 -155874.9219)">
							<stop  offset="0" style="stop-color:#905800"/>
							<stop  offset="1" style="stop-color:#905800"/>
						</linearGradient>
						<path clip-path="url(#SVGID_175_)" fill="url(#SVGID_176_)" d="M13.314,14.663h0.175v7.491h-0.175V14.663z"/>
					</g>
				</g>
			</g>
		</g>
	</g>
	<g>
		<g>
			<g>
				<g>
					<defs>
						<path id="SVGID_177_" d="M18.664,18.286h0.173c-0.001-1.8-0.414-3.29-1.198-4.312c-0.81-1.055-2.013-1.613-3.48-1.614
							l-0.001,0.175C17.064,12.537,18.661,14.738,18.664,18.286"/>
					</defs>
					<clipPath id="SVGID_178_">
						<use xlink:href="#SVGID_177_"  overflow="visible"/>
					</clipPath>
					<path clip-path="url(#SVGID_178_)" fill="#EDC68C" d="M18.664,18.286h0.173c-0.001-1.8-0.414-3.29-1.198-4.312
						c-0.81-1.055-2.013-1.613-3.48-1.614l-0.001,0.175C17.064,12.537,18.661,14.738,18.664,18.286"/>
				</g>
			</g>
		</g>
		<g>
			<g>
				<g>
					<g>
						<defs>
							<path id="SVGID_179_" d="M18.664,18.286h0.173c-0.001-1.8-0.414-3.29-1.198-4.312c-0.81-1.055-2.013-1.613-3.48-1.614
								l-0.001,0.175C17.064,12.537,18.661,14.738,18.664,18.286"/>
						</defs>
						<clipPath id="SVGID_180_">
							<use xlink:href="#SVGID_179_"  overflow="visible"/>
						</clipPath>
						
							<linearGradient id="SVGID_181_" gradientUnits="userSpaceOnUse" x1="23.7299" y1="1081.0432" x2="23.7921" y2="1081.0432" gradientTransform="matrix(75.1744 0 0 119.9994 -1769.7205 -129709.2109)">
							<stop  offset="0" style="stop-color:#EDC68C"/>
							<stop  offset="1" style="stop-color:#905800"/>
						</linearGradient>
						<path clip-path="url(#SVGID_180_)" fill="url(#SVGID_181_)" d="M14.159,12.36h4.679v5.925h-4.679
							C14.159,18.285,14.159,12.36,14.159,12.36z"/>
					</g>
				</g>
			</g>
		</g>
	</g>
	<g>
		<g>
			<g>
				<g>
					<defs>
						<path id="SVGID_182_" d="M14.159,12.535l0.001-0.175c-1.342,0-2.443,0.293-3.369,0.896l-0.079,0.052l0.173,0.095
							C11.764,12.83,12.835,12.535,14.159,12.535"/>
					</defs>
					<clipPath id="SVGID_183_">
						<use xlink:href="#SVGID_182_"  overflow="visible"/>
					</clipPath>
					<path clip-path="url(#SVGID_183_)" fill="#FFECC0" d="M14.159,12.535l0.001-0.175c-1.342,0-2.443,0.293-3.369,0.896
						l-0.079,0.052l0.173,0.095C11.764,12.83,12.835,12.535,14.159,12.535"/>
				</g>
			</g>
		</g>
		<g>
			<g>
				<g>
					<g>
						<defs>
							<path id="SVGID_184_" d="M14.159,12.535l0.001-0.175c-1.342,0-2.443,0.293-3.369,0.896l-0.079,0.052l0.173,0.095
								C11.764,12.83,12.835,12.535,14.159,12.535"/>
						</defs>
						<clipPath id="SVGID_185_">
							<use xlink:href="#SVGID_184_"  overflow="visible"/>
						</clipPath>
						
							<linearGradient id="SVGID_186_" gradientUnits="userSpaceOnUse" x1="42.5033" y1="1155.079" x2="42.5656" y2="1155.079" gradientTransform="matrix(55.4051 0 0 41.5383 -2344.1912 -47967.1367)">
							<stop  offset="0" style="stop-color:#FFECC0"/>
							<stop  offset="0.126" style="stop-color:#FDE7B9"/>
							<stop  offset="1" style="stop-color:#EDC68C"/>
						</linearGradient>
						<path clip-path="url(#SVGID_185_)" fill="url(#SVGID_186_)" d="M10.711,12.36h3.448v1.042h-3.448V12.36z"/>
					</g>
				</g>
			</g>
		</g>
	</g>
	<g>
		<g>
			<g>
				<g>
					<defs>
						<path id="SVGID_187_" d="M13.316,24.139l0.175,0.223c0.271,0.057,0.581,0.088,0.922,0.088v-0.176
							C13.914,24.275,13.559,24.21,13.316,24.139"/>
					</defs>
					<clipPath id="SVGID_188_">
						<use xlink:href="#SVGID_187_"  overflow="visible"/>
					</clipPath>
					<path clip-path="url(#SVGID_188_)" fill="#905800" d="M13.316,24.139l0.175,0.223c0.271,0.057,0.581,0.088,0.922,0.088v-0.176
						C13.914,24.275,13.559,24.21,13.316,24.139"/>
				</g>
			</g>
		</g>
		<g>
			<g>
				<g>
					<g>
						<defs>
							<path id="SVGID_189_" d="M13.316,24.139l0.175,0.223c0.271,0.057,0.581,0.088,0.922,0.088v-0.176
								C13.914,24.275,13.559,24.21,13.316,24.139"/>
						</defs>
						<clipPath id="SVGID_190_">
							<use xlink:href="#SVGID_189_"  overflow="visible"/>
						</clipPath>
						
							<linearGradient id="SVGID_191_" gradientUnits="userSpaceOnUse" x1="-239.1129" y1="890.8201" x2="-239.0507" y2="890.8201" gradientTransform="matrix(-17.6333 0 0 -29.7845 -4201.9385 26556.9277)">
							<stop  offset="0" style="stop-color:#905800"/>
							<stop  offset="1" style="stop-color:#C27913"/>
						</linearGradient>
						<path clip-path="url(#SVGID_190_)" fill="url(#SVGID_191_)" d="M13.316,24.139h1.097v0.311h-1.097V24.139z"/>
					</g>
				</g>
			</g>
		</g>
	</g>
	<g>
		<g>
			<g>
				<g>
					<defs>
						<path id="SVGID_192_" d="M13.32,29.188l0.176,0.176l-0.001-0.176c0,0-0.003-4.419-0.003-4.827l-0.175-0.223
							C13.318,25.837,13.319,27.526,13.32,29.188"/>
					</defs>
					<clipPath id="SVGID_193_">
						<use xlink:href="#SVGID_192_"  overflow="visible"/>
					</clipPath>
					<path clip-path="url(#SVGID_193_)" fill="#905800" d="M13.32,29.188l0.176,0.176l-0.001-0.176c0,0-0.003-4.419-0.003-4.827
						l-0.175-0.223C13.318,25.837,13.319,27.526,13.32,29.188"/>
				</g>
			</g>
		</g>
		<g>
			<g>
				<g>
					<g>
						<defs>
							<path id="SVGID_194_" d="M13.32,29.188l0.176,0.176l-0.001-0.176c0,0-0.003-4.419-0.003-4.827l-0.175-0.223
								C13.318,25.837,13.319,27.526,13.32,29.188"/>
						</defs>
						<clipPath id="SVGID_195_">
							<use xlink:href="#SVGID_194_"  overflow="visible"/>
						</clipPath>
						
							<linearGradient id="SVGID_196_" gradientUnits="userSpaceOnUse" x1="1284.1229" y1="1083.4594" x2="1284.1852" y2="1083.4594" gradientTransform="matrix(2.8769 0 0 108.7653 -3680.9912 -117816.0313)">
							<stop  offset="0" style="stop-color:#905800"/>
							<stop  offset="1" style="stop-color:#905800"/>
						</linearGradient>
						<path clip-path="url(#SVGID_195_)" fill="url(#SVGID_196_)" d="M13.316,24.139h0.179v5.227h-0.179V24.139z"/>
					</g>
				</g>
			</g>
		</g>
	</g>
	<path fill="#905800" d="M10.907,29.183l-0.174,0.175l2.763,0.008L13.32,29.19C12.515,29.188,11.711,29.187,10.907,29.183"/>
	<g>
		<g>
			<g>
				<g>
					<defs>
						<path id="SVGID_197_" d="M16.005,18.351l0.176-0.001c0,2.667-0.672,3.95-2.076,3.951v-0.175c0.637,0,1.098-0.289,1.41-0.882
							C15.841,20.622,16.005,19.65,16.005,18.351"/>
					</defs>
					<clipPath id="SVGID_198_">
						<use xlink:href="#SVGID_197_"  overflow="visible"/>
					</clipPath>
					<path clip-path="url(#SVGID_198_)" fill="#FFE4A2" d="M16.005,18.351l0.176-0.001c0,2.667-0.672,3.95-2.076,3.951v-0.175
						c0.637,0,1.098-0.289,1.41-0.882C15.841,20.622,16.005,19.65,16.005,18.351"/>
				</g>
			</g>
		</g>
		<g>
			<g>
				<g>
					<g>
						<defs>
							<path id="SVGID_199_" d="M16.005,18.351l0.176-0.001c0,2.667-0.672,3.95-2.076,3.951v-0.175c0.637,0,1.098-0.289,1.41-0.882
								C15.841,20.622,16.005,19.65,16.005,18.351"/>
						</defs>
						<clipPath id="SVGID_200_">
							<use xlink:href="#SVGID_199_"  overflow="visible"/>
						</clipPath>
						
							<linearGradient id="SVGID_201_" gradientUnits="userSpaceOnUse" x1="94.0318" y1="1094.1136" x2="94.0941" y2="1094.1136" gradientTransform="matrix(31.238 0 0 88.2604 -2923.2217 -96546.5859)">
							<stop  offset="0" style="stop-color:#FFE4A2"/>
							<stop  offset="0.1" style="stop-color:#FFE4A2"/>
							<stop  offset="0.6" style="stop-color:#F7E4CA"/>
							<stop  offset="1" style="stop-color:#EABD79"/>
						</linearGradient>
						<path clip-path="url(#SVGID_200_)" fill="url(#SVGID_201_)" d="M14.105,18.35h2.076v3.951h-2.076V18.35z"/>
					</g>
				</g>
			</g>
		</g>
	</g>
	<path fill="#FFE4A2" d="M14.105,22.126c-0.246,0-0.465-0.052-0.616-0.096l-0.174,0.124c0.174,0.065,0.464,0.147,0.79,0.147V22.126"
		/>
	<g>
		<g>
			<g>
				<g>
					<defs>
						<path id="SVGID_202_" d="M7.318,12.806l-0.175-0.174l-0.001,0.172c-0.008,1.882-0.013,3.785-0.013,5.686
							c0,1.122,0.002,2.243,0.006,3.36l0.173,0.099C7.3,18.902,7.303,15.837,7.318,12.806"/>
					</defs>
					<clipPath id="SVGID_203_">
						<use xlink:href="#SVGID_202_"  overflow="visible"/>
					</clipPath>
					<path clip-path="url(#SVGID_203_)" fill="#DB9A28" d="M7.318,12.806l-0.175-0.174l-0.001,0.172
						c-0.008,1.882-0.013,3.785-0.013,5.686c0,1.122,0.002,2.243,0.006,3.36l0.173,0.099C7.3,18.902,7.303,15.837,7.318,12.806"/>
				</g>
			</g>
		</g>
		<g>
			<g>
				<g>
					<g>
						<defs>
							<path id="SVGID_204_" d="M7.318,12.806l-0.175-0.174l-0.001,0.172c-0.008,1.882-0.013,3.785-0.013,5.686
								c0,1.122,0.002,2.243,0.006,3.36l0.173,0.099C7.3,18.902,7.303,15.837,7.318,12.806"/>
						</defs>
						<clipPath id="SVGID_205_">
							<use xlink:href="#SVGID_204_"  overflow="visible"/>
						</clipPath>
						
							<linearGradient id="SVGID_206_" gradientUnits="userSpaceOnUse" x1="5.0707" y1="903.4865" x2="5.133" y2="903.4865" gradientTransform="matrix(0 149.6866 -27.8176 0 25140.0488 -746.3884)">
							<stop  offset="0" style="stop-color:#DB9A28"/>
							<stop  offset="1" style="stop-color:#C27913"/>
						</linearGradient>
						<path clip-path="url(#SVGID_205_)" fill="url(#SVGID_206_)" d="M7.129,12.632h0.189v9.316H7.129V12.632z"/>
					</g>
				</g>
			</g>
		</g>
	</g>
	<g>
		<g>
			<g>
				<g>
					<defs>
						<path id="SVGID_207_" d="M9.723,23.334l0.175,0.092l-0.001-0.092c-0.01-3.525-0.011-7.072,0.002-10.546L9.9,12.614
							l-0.175,0.175C9.712,16.304,9.711,19.819,9.723,23.334"/>
					</defs>
					<clipPath id="SVGID_208_">
						<use xlink:href="#SVGID_207_"  overflow="visible"/>
					</clipPath>
					<path clip-path="url(#SVGID_208_)" fill="#C27913" d="M9.723,23.334l0.175,0.092l-0.001-0.092
						c-0.01-3.525-0.011-7.072,0.002-10.546L9.9,12.614l-0.175,0.175C9.712,16.304,9.711,19.819,9.723,23.334"/>
				</g>
			</g>
		</g>
		<g>
			<g>
				<g>
					<g>
						<defs>
							<path id="SVGID_209_" d="M9.723,23.334l0.175,0.092l-0.001-0.092c-0.01-3.525-0.011-7.072,0.002-10.546L9.9,12.614
								l-0.175,0.175C9.712,16.304,9.711,19.819,9.723,23.334"/>
						</defs>
						<clipPath id="SVGID_210_">
							<use xlink:href="#SVGID_209_"  overflow="visible"/>
						</clipPath>
						
							<linearGradient id="SVGID_211_" gradientUnits="userSpaceOnUse" x1="0.7354" y1="1694.1503" x2="0.7976" y2="1694.1503" gradientTransform="matrix(1.702795e-015 173.7394 27.8088 -1.063847e-014 -47102.4805 -115.1514)">
							<stop  offset="0" style="stop-color:#C27913"/>
							<stop  offset="0.854" style="stop-color:#985D03"/>
							<stop  offset="1" style="stop-color:#905800"/>
						</linearGradient>
						<path clip-path="url(#SVGID_210_)" fill="url(#SVGID_211_)" d="M9.712,12.615H9.9v10.812H9.712V12.615z"/>
					</g>
				</g>
			</g>
		</g>
	</g>
	<path fill="#F7E4CA" d="M9.725,12.789L9.9,12.615l-0.175,0.001l-2.583,0.016l0.175,0.174C8.117,12.799,8.92,12.794,9.725,12.789"/>
	<g>
		<g>
			<g>
				<g>
					<defs>
						<path id="SVGID_212_" d="M6.099,24.281l-0.002,0.175c1.474,0.014,2.761-0.323,3.724-0.976l0.077-0.053l-0.175-0.092
							C8.799,23.962,7.561,24.295,6.099,24.281"/>
					</defs>
					<clipPath id="SVGID_213_">
						<use xlink:href="#SVGID_212_"  overflow="visible"/>
					</clipPath>
					<path clip-path="url(#SVGID_213_)" fill="#905800" d="M6.099,24.281l-0.002,0.175c1.474,0.014,2.761-0.323,3.724-0.976
						l0.077-0.053l-0.175-0.092C8.799,23.962,7.561,24.295,6.099,24.281"/>
				</g>
			</g>
		</g>
		<g>
			<g>
				<g>
					<g>
						<defs>
							<path id="SVGID_214_" d="M6.099,24.281l-0.002,0.175c1.474,0.014,2.761-0.323,3.724-0.976l0.077-0.053l-0.175-0.092
								C8.799,23.962,7.561,24.295,6.099,24.281"/>
						</defs>
						<clipPath id="SVGID_215_">
							<use xlink:href="#SVGID_214_"  overflow="visible"/>
						</clipPath>
						
							<linearGradient id="SVGID_216_" gradientUnits="userSpaceOnUse" x1="37.2523" y1="1147.3097" x2="37.3146" y2="1147.3097" gradientTransform="matrix(61.081 0 0 43.0299 -2269.3113 -49344.7188)">
							<stop  offset="0" style="stop-color:#905800"/>
							<stop  offset="1" style="stop-color:#905800"/>
						</linearGradient>
						<path clip-path="url(#SVGID_215_)" fill="url(#SVGID_216_)" d="M6.097,23.334h3.802v1.136H6.097V23.334z"/>
					</g>
				</g>
			</g>
		</g>
	</g>
	<g>
		<g>
			<g>
				<g>
					<defs>
						<path id="SVGID_217_" d="M6.174,22.231c0.487,0.005,0.875-0.104,1.134-0.284l-0.173-0.099
							c-0.241,0.136-0.577,0.212-0.96,0.209L6.174,22.231 M6.174,22.231l0.001-0.173c-0.417-0.003-0.707-0.169-0.883-0.506
							c-0.131-0.251-0.197-0.596-0.199-1.024H4.918C4.92,21.209,5.082,22.224,6.174,22.231z M4.93,12.828l0.175-0.176l-0.001,0.176
							c-0.012,2.566-0.016,5.133-0.012,7.699H4.919C4.914,17.958,4.919,15.386,4.93,12.828L4.93,12.828z"/>
					</defs>
					<clipPath id="SVGID_218_">
						<use xlink:href="#SVGID_217_"  overflow="visible"/>
					</clipPath>
					
						<linearGradient id="SVGID_219_" gradientUnits="userSpaceOnUse" x1="998.9425" y1="1119.3608" x2="999.2126" y2="1119.3608" gradientTransform="matrix(8.8521 0 0 -8.8521 -8837.8008 9926.1357)">
						<stop  offset="0" style="stop-color:#CE8E3E"/>
						<stop  offset="1" style="stop-color:#FFE7B0"/>
					</linearGradient>
					<path clip-path="url(#SVGID_218_)" fill="url(#SVGID_219_)" d="M6.174,22.231c0.487,0.005,0.875-0.104,1.134-0.284
						l-0.173-0.099c-0.241,0.136-0.577,0.212-0.96,0.209L6.174,22.231 M6.174,22.231l0.001-0.173
						c-0.417-0.003-0.707-0.169-0.883-0.506c-0.131-0.251-0.197-0.596-0.199-1.024H4.918C4.92,21.209,5.082,22.224,6.174,22.231z
						 M4.93,12.828l0.175-0.176l-0.001,0.176c-0.012,2.566-0.016,5.133-0.012,7.699H4.919C4.914,17.958,4.919,15.386,4.93,12.828
						L4.93,12.828z"/>
				</g>
			</g>
		</g>
	</g>
	<g>
		<g>
			<g>
				<g>
					<defs>
						<path id="SVGID_220_" d="M2.574,20.409H2.399c0.002,1.312,0.306,2.323,0.92,2.998c0.621,0.684,1.556,1.035,2.779,1.049
							L6.1,24.281C3.737,24.257,2.578,22.951,2.574,20.409"/>
					</defs>
					<clipPath id="SVGID_221_">
						<use xlink:href="#SVGID_220_"  overflow="visible"/>
					</clipPath>
					<path clip-path="url(#SVGID_221_)" fill="#DB9A28" d="M2.574,20.409H2.399c0.002,1.312,0.306,2.323,0.92,2.998
						c0.621,0.684,1.556,1.035,2.779,1.049L6.1,24.281C3.737,24.257,2.578,22.951,2.574,20.409"/>
				</g>
			</g>
		</g>
		<g>
			<g>
				<g>
					<g>
						<defs>
							<path id="SVGID_222_" d="M2.574,20.409H2.399c0.002,1.312,0.306,2.323,0.92,2.998c0.621,0.684,1.556,1.035,2.779,1.049
								L6.1,24.281C3.737,24.257,2.578,22.951,2.574,20.409"/>
						</defs>
						<clipPath id="SVGID_223_">
							<use xlink:href="#SVGID_222_"  overflow="visible"/>
						</clipPath>
						
							<linearGradient id="SVGID_224_" gradientUnits="userSpaceOnUse" x1="39.9336" y1="1092.8682" x2="39.9958" y2="1092.8682" gradientTransform="matrix(59.4469 0 0 89.8059 -2371.5271 -98123.5781)">
							<stop  offset="0" style="stop-color:#DB9A28"/>
							<stop  offset="0.938" style="stop-color:#955C03"/>
							<stop  offset="1" style="stop-color:#905800"/>
						</linearGradient>
						<path clip-path="url(#SVGID_223_)" fill="url(#SVGID_224_)" d="M2.399,20.409h3.7v4.047h-3.7V20.409z"/>
					</g>
				</g>
			</g>
		</g>
	</g>
	<path fill="#FAEFE1" d="M4.93,12.828l0.175-0.176l-2.707,0.033l0.175,0.172C3.36,12.845,4.145,12.835,4.93,12.828"/>
	<g>
		<g>
			<g>
				<g>
					<defs>
						<polyline id="SVGID_225_" points="2.399,20.409 2.574,20.409 2.574,12.856 2.399,12.684 2.399,20.409 						"/>
					</defs>
					<clipPath id="SVGID_226_">
						<use xlink:href="#SVGID_225_"  overflow="visible"/>
					</clipPath>
					<path clip-path="url(#SVGID_226_)" fill="#DB9A28" d="M2.399,12.684h0.175v7.725H2.399V12.684z"/>
				</g>
			</g>
		</g>
		<g>
			<g>
				<g>
					<g>
						<defs>
							<polyline id="SVGID_227_" points="2.399,20.409 2.574,20.409 2.574,12.856 2.399,12.684 2.399,20.409 							"/>
						</defs>
						<clipPath id="SVGID_228_">
							<use xlink:href="#SVGID_227_"  overflow="visible"/>
						</clipPath>
						
							<linearGradient id="SVGID_229_" gradientUnits="userSpaceOnUse" x1="-63.0725" y1="1184.8259" x2="-63.0103" y2="1184.8259" gradientTransform="matrix(0 -124.1263 27.5998 0 -32698.4707 -7808.5454)">
							<stop  offset="0" style="stop-color:#DB9A28"/>
							<stop  offset="0.938" style="stop-color:#955C03"/>
							<stop  offset="1" style="stop-color:#905800"/>
						</linearGradient>
						<path clip-path="url(#SVGID_228_)" fill="url(#SVGID_229_)" d="M2.399,12.684h0.175v7.725H2.399V12.684z"/>
					</g>
				</g>
			</g>
		</g>
	</g>
	<path fill="#C27913" d="M13.725,6.037c3.636-0.725,7.713-0.841,12.457-0.353l0.175-0.159c-3.961-0.417-8.324-0.526-12.666,0.34
		C9.356,6.733,5.042,8.577,1.388,12.098l0.175,0.077C4.806,9.069,8.897,7.004,13.725,6.037"/>
	<path fill="#FFD568" d="M26.182,5.684c0.017,4.273,0.027,8.566,0.027,12.802c0,0.963-0.001,1.924-0.002,2.88
		c-0.003,2.988-1.089,5.469-3.141,7.174c-1.768,1.493-7.163,3.912-9.185,4.758v0.19c1.595-0.664,7.408-3.219,9.297-4.814
		c2.118-1.759,3.2-4.295,3.203-7.308c0.004-5.288-0.003-10.586-0.026-15.841L26.182,5.684"/>
	<g>
		<g>
			<g>
				<g>
					<defs>
						<path id="SVGID_230_" d="M4.698,28.54c-2.051-1.706-3.137-4.186-3.139-7.174c-0.002-3.064-0.001-6.128,0.004-9.192
							l-0.175-0.077c-0.005,3.086-0.008,6.179-0.005,9.269c0.002,3.013,1.084,5.548,3.203,7.308c1.889,1.595,7.704,4.15,9.295,4.814
							v-0.19C11.859,32.449,6.456,30.024,4.698,28.54"/>
					</defs>
					<clipPath id="SVGID_231_">
						<use xlink:href="#SVGID_230_"  overflow="visible"/>
					</clipPath>
					<path clip-path="url(#SVGID_231_)" fill="#C27913" d="M4.698,28.54c-2.051-1.706-3.137-4.186-3.139-7.174
						c-0.002-3.064-0.001-6.128,0.004-9.192l-0.175-0.077c-0.005,3.086-0.008,6.179-0.005,9.269
						c0.002,3.013,1.084,5.548,3.203,7.308c1.889,1.595,7.704,4.15,9.295,4.814v-0.19C11.859,32.449,6.456,30.024,4.698,28.54"/>
				</g>
			</g>
		</g>
		<g>
			<g>
				<g>
					<g>
						<defs>
							<path id="SVGID_232_" d="M4.698,28.54c-2.051-1.706-3.137-4.186-3.139-7.174c-0.002-3.064-0.001-6.128,0.004-9.192
								l-0.175-0.077c-0.005,3.086-0.008,6.179-0.005,9.269c0.002,3.013,1.084,5.548,3.203,7.308
								c1.889,1.595,7.704,4.15,9.295,4.814v-0.19C11.859,32.449,6.456,30.024,4.698,28.54"/>
						</defs>
						<clipPath id="SVGID_233_">
							<use xlink:href="#SVGID_232_"  overflow="visible"/>
						</clipPath>
						
							<linearGradient id="SVGID_234_" gradientUnits="userSpaceOnUse" x1="-38.9761" y1="1059.3972" x2="-38.9139" y2="1059.3972" gradientTransform="matrix(0 -343.691 225.6745 0 -239071.3125 -13362.2568)">
							<stop  offset="0" style="stop-color:#C27913"/>
							<stop  offset="0.3" style="stop-color:#DB9A28"/>
							<stop  offset="1" style="stop-color:#C27913"/>
						</linearGradient>
						<path clip-path="url(#SVGID_233_)" fill="url(#SVGID_234_)" d="M1.38,12.097h12.502v21.39H1.38V12.097z"/>
					</g>
				</g>
			</g>
		</g>
	</g>
	<g>
		<g>
			<g>
				<g>
					<defs>
						<path id="SVGID_235_" d="M23.122,20.938c-0.016-0.759-0.433-1.17-1.482-1.793c-1.976-1.172-2.34-2.142-2.345-3.437
							c-0.012-1.964,1.645-3.098,3.207-3.128c1.306-0.025,2.18,0.483,2.591,0.81c0.002,0.696,0.003,1.392,0.004,2.088
							c-0.487-0.517-1.277-0.991-2.108-1.007c-0.674-0.013-1.377,0.284-1.399,1.146c-0.019,0.88,0.687,1.232,1.568,1.762
							c1.976,1.193,2.335,2.246,2.297,3.647c-0.051,1.536-1.071,3.225-3.427,3.25c-0.944,0.01-1.881-0.282-2.634-0.727
							c0.003-0.744,0.006-1.489,0.006-2.237c0.617,0.554,1.534,0.977,2.295,0.977C22.568,22.29,23.141,21.777,23.122,20.938
							 M13.314,14.662c0.197-0.096,0.534-0.174,0.863-0.174c1.414,0,2.002,1.129,2.004,3.862c-0.001,2.665-0.673,3.95-2.076,3.95
							c-0.328,0-0.615-0.082-0.791-0.147C13.314,19.661,13.314,17.153,13.314,14.662L13.314,14.662z M13.319,29.189
							c-0.001-1.665-0.003-3.351-0.003-5.05c0.241,0.071,0.598,0.136,1.096,0.135c2.696-0.002,4.251-2.431,4.251-5.989
							c-0.002-3.548-1.599-5.749-4.504-5.75c-1.324,0-2.395,0.294-3.274,0.867c-0.012,5.264-0.005,10.628,0.021,15.779
							C11.71,29.187,12.514,29.188,13.319,29.189L13.319,29.189z M6.174,22.231c0.487,0.003,0.875-0.107,1.135-0.286
							c-0.009-3.046-0.006-6.093,0.009-9.139c0.803-0.007,1.605-0.012,2.408-0.016c-0.012,3.514-0.013,7.029-0.002,10.544
							c-0.924,0.628-2.161,0.961-3.623,0.947c-2.362-0.024-3.521-1.331-3.525-3.873v-7.552c0.778-0.011,1.565-0.02,2.357-0.028
							c-0.012,2.557-0.016,5.131-0.012,7.699C4.921,21.208,5.082,22.224,6.174,22.231L6.174,22.231z"/>
					</defs>
					<clipPath id="SVGID_236_">
						<use xlink:href="#SVGID_235_"  overflow="visible"/>
					</clipPath>
					<path clip-path="url(#SVGID_236_)" fill="#DA9017" d="M23.122,20.938c-0.016-0.759-0.433-1.17-1.482-1.793
						c-1.976-1.172-2.34-2.142-2.345-3.437c-0.012-1.964,1.645-3.098,3.207-3.128c1.306-0.025,2.18,0.483,2.591,0.81
						c0.002,0.696,0.003,1.392,0.004,2.088c-0.487-0.517-1.277-0.991-2.108-1.007c-0.674-0.013-1.377,0.284-1.399,1.146
						c-0.019,0.88,0.687,1.232,1.568,1.762c1.976,1.193,2.335,2.246,2.297,3.647c-0.051,1.536-1.071,3.225-3.427,3.25
						c-0.944,0.01-1.881-0.282-2.634-0.727c0.003-0.744,0.006-1.489,0.006-2.237c0.617,0.554,1.534,0.977,2.295,0.977
						C22.568,22.29,23.141,21.777,23.122,20.938 M13.314,14.662c0.197-0.096,0.534-0.174,0.863-0.174
						c1.414,0,2.002,1.129,2.004,3.862c-0.001,2.665-0.673,3.95-2.076,3.95c-0.328,0-0.615-0.082-0.791-0.147
						C13.314,19.661,13.314,17.153,13.314,14.662L13.314,14.662z M13.319,29.189c-0.001-1.665-0.003-3.351-0.003-5.05
						c0.241,0.071,0.598,0.136,1.096,0.135c2.696-0.002,4.251-2.431,4.251-5.989c-0.002-3.548-1.599-5.749-4.504-5.75
						c-1.324,0-2.395,0.294-3.274,0.867c-0.012,5.264-0.005,10.628,0.021,15.779C11.71,29.187,12.514,29.188,13.319,29.189
						L13.319,29.189z M6.174,22.231c0.487,0.003,0.875-0.107,1.135-0.286c-0.009-3.046-0.006-6.093,0.009-9.139
						c0.803-0.007,1.605-0.012,2.408-0.016c-0.012,3.514-0.013,7.029-0.002,10.544c-0.924,0.628-2.161,0.961-3.623,0.947
						c-2.362-0.024-3.521-1.331-3.525-3.873v-7.552c0.778-0.011,1.565-0.02,2.357-0.028c-0.012,2.557-0.016,5.131-0.012,7.699
						C4.921,21.208,5.082,22.224,6.174,22.231L6.174,22.231z"/>
				</g>
			</g>
		</g>
		<g>
			<g>
				<g>
					<g>
						<defs>
							<path id="SVGID_237_" d="M23.122,20.938c-0.016-0.759-0.433-1.17-1.482-1.793c-1.976-1.172-2.34-2.142-2.345-3.437
								c-0.012-1.964,1.645-3.098,3.207-3.128c1.306-0.025,2.18,0.483,2.591,0.81c0.002,0.696,0.003,1.392,0.004,2.088
								c-0.487-0.517-1.277-0.991-2.108-1.007c-0.674-0.013-1.377,0.284-1.399,1.146c-0.019,0.88,0.687,1.232,1.568,1.762
								c1.976,1.193,2.335,2.246,2.297,3.647c-0.051,1.536-1.071,3.225-3.427,3.25c-0.944,0.01-1.881-0.282-2.634-0.727
								c0.003-0.744,0.006-1.489,0.006-2.237c0.617,0.554,1.534,0.977,2.295,0.977C22.568,22.29,23.141,21.777,23.122,20.938
								 M13.314,14.662c0.197-0.096,0.534-0.174,0.863-0.174c1.414,0,2.002,1.129,2.004,3.862c-0.001,2.665-0.673,3.95-2.076,3.95
								c-0.328,0-0.615-0.082-0.791-0.147C13.314,19.661,13.314,17.153,13.314,14.662L13.314,14.662z M13.319,29.189
								c-0.001-1.665-0.003-3.351-0.003-5.05c0.241,0.071,0.598,0.136,1.096,0.135c2.696-0.002,4.251-2.431,4.251-5.989
								c-0.002-3.548-1.599-5.749-4.504-5.75c-1.324,0-2.395,0.294-3.274,0.867c-0.012,5.264-0.005,10.628,0.021,15.779
								C11.71,29.187,12.514,29.188,13.319,29.189L13.319,29.189z M6.174,22.231c0.487,0.003,0.875-0.107,1.135-0.286
								c-0.009-3.046-0.006-6.093,0.009-9.139c0.803-0.007,1.605-0.012,2.408-0.016c-0.012,3.514-0.013,7.029-0.002,10.544
								c-0.924,0.628-2.161,0.961-3.623,0.947c-2.362-0.024-3.521-1.331-3.525-3.873v-7.552c0.778-0.011,1.565-0.02,2.357-0.028
								c-0.012,2.557-0.016,5.131-0.012,7.699C4.921,21.208,5.082,22.224,6.174,22.231L6.174,22.231z"/>
						</defs>
						<clipPath id="SVGID_238_">
							<use xlink:href="#SVGID_237_"  overflow="visible"/>
						</clipPath>
						
							<radialGradient id="SVGID_239_" cx="999.1334" cy="1119.5956" r="1.7802" gradientTransform="matrix(8.8521 0 0 -8.8521 -8837.8008 9926.1357)" gradientUnits="userSpaceOnUse">
							<stop  offset="0" style="stop-color:#FFE7B0"/>
							<stop  offset="0.527" style="stop-color:#FEBF52"/>
							<stop  offset="0.557" style="stop-color:#F9B94C"/>
							<stop  offset="1" style="stop-color:#DA9017"/>
						</radialGradient>
						<path clip-path="url(#SVGID_238_)" fill="url(#SVGID_239_)" d="M2.517,12.528H25.54v16.751H2.517V12.528z"/>
					</g>
				</g>
			</g>
		</g>
	</g>
	<g>
		<g enable-background="new    ">
			<path fill="#300100" d="M32.715,16.09L31.01,9.126h1.353l0.661,3.161c0.176,0.847,0.341,1.735,0.454,2.428H33.5
				c0.113-0.733,0.31-1.56,0.506-2.438l0.754-3.151h1.333l0.692,3.203c0.165,0.826,0.32,1.601,0.424,2.355h0.02
				c0.124-0.764,0.29-1.56,0.476-2.417l0.723-3.141h1.291l-1.88,6.963h-1.353l-0.723-3.275c-0.176-0.795-0.3-1.457-0.392-2.211
				H35.35c-0.113,0.744-0.248,1.416-0.454,2.211l-0.806,3.275L32.715,16.09L32.715,16.09z"/>
			<path fill="#300100" d="M44.902,13.528c0,1.849-1.302,2.675-2.583,2.675c-1.415,0-2.521-0.971-2.521-2.593
				c0-1.653,1.085-2.665,2.604-2.665C43.899,10.945,44.902,11.999,44.902,13.528z M41.11,13.579c0,0.971,0.486,1.705,1.25,1.705
				c0.722,0,1.229-0.703,1.229-1.726c0-0.785-0.351-1.694-1.219-1.694C41.471,11.864,41.11,12.742,41.11,13.579z"/>
			<path fill="#300100" d="M45.943,12.681c0-0.682-0.011-1.178-0.041-1.622h1.095l0.051,0.951h0.031
				c0.249-0.703,0.837-1.064,1.385-1.064c0.124,0,0.196,0.01,0.3,0.031v1.188c-0.113-0.021-0.227-0.031-0.382-0.031
				c-0.6,0-1.023,0.382-1.137,0.961c-0.021,0.113-0.031,0.248-0.031,0.382v2.614h-1.271C45.943,16.091,45.943,12.681,45.943,12.681z
				"/>
			<path fill="#300100" d="M49.619,8.754h1.271v7.335h-1.271V8.754z"/>
			<path fill="#300100" d="M56.911,8.754v5.92c0,0.516,0.021,1.074,0.041,1.415h-1.126l-0.062-0.795h-0.021
				c-0.299,0.558-0.909,0.909-1.632,0.909c-1.208,0-2.159-1.022-2.159-2.572c-0.01-1.684,1.044-2.686,2.253-2.686
				c0.692,0,1.187,0.279,1.415,0.651h0.021V8.754H56.911z M55.641,13.156c0-0.104-0.011-0.238-0.032-0.341
				c-0.113-0.486-0.516-0.889-1.094-0.889c-0.816,0-1.271,0.723-1.271,1.653s0.455,1.602,1.26,1.602
				c0.517,0,0.971-0.351,1.095-0.899c0.031-0.113,0.041-0.238,0.041-0.372v-0.754H55.641z"/>
			<path fill="#300100" d="M59.037,11.058l0.516,2.284c0.124,0.537,0.238,1.085,0.331,1.632h0.021
				c0.104-0.548,0.268-1.106,0.403-1.622l0.661-2.294h1.033l0.631,2.232c0.155,0.589,0.289,1.136,0.403,1.684h0.021
				c0.072-0.548,0.196-1.095,0.331-1.684l0.558-2.232h1.25l-1.581,5.031h-1.177l-0.599-2.046c-0.155-0.526-0.269-1.002-0.383-1.612
				h-0.021c-0.113,0.62-0.237,1.116-0.382,1.612l-0.64,2.046h-1.188l-1.487-5.031C57.738,11.058,59.037,11.058,59.037,11.058z"/>
			<path fill="#300100" d="M67.36,9.653c0,0.372-0.278,0.682-0.722,0.682c-0.424,0-0.703-0.31-0.703-0.682
				c0-0.393,0.289-0.692,0.713-0.692C67.082,8.961,67.351,9.261,67.36,9.653z M66.008,16.09v-5.032h1.271v5.031L66.008,16.09
				L66.008,16.09z"/>
			<path fill="#300100" d="M73.29,8.754v5.92c0,0.516,0.021,1.074,0.041,1.415h-1.126l-0.062-0.795h-0.021
				c-0.299,0.558-0.909,0.909-1.632,0.909c-1.208,0-2.159-1.022-2.159-2.572c-0.01-1.684,1.044-2.686,2.253-2.686
				c0.692,0,1.188,0.279,1.415,0.651h0.021V8.754H73.29z M72.019,13.156c0-0.104-0.011-0.238-0.032-0.341
				c-0.113-0.486-0.516-0.889-1.094-0.889c-0.816,0-1.271,0.723-1.271,1.653s0.455,1.602,1.26,1.602
				c0.517,0,0.971-0.351,1.095-0.899c0.031-0.113,0.041-0.238,0.041-0.372L72.019,13.156L72.019,13.156z"/>
			<path fill="#300100" d="M75.55,13.93c0.031,0.909,0.733,1.302,1.549,1.302c0.589,0,1.002-0.093,1.394-0.227l0.187,0.867
				c-0.434,0.186-1.033,0.32-1.757,0.32c-1.632,0-2.593-1.002-2.593-2.541c0-1.395,0.848-2.707,2.459-2.707
				c1.632,0,2.169,1.343,2.169,2.448c0,0.238-0.021,0.424-0.04,0.537H75.55V13.93z M77.761,13.042
				c0.011-0.465-0.196-1.229-1.043-1.229c-0.786,0-1.116,0.713-1.167,1.229H77.761z"/>
		</g>
		<g enable-background="new    ">
			<path fill="#300100" d="M31.568,27.098c0.403,0.238,1.033,0.444,1.684,0.444c0.806,0,1.26-0.382,1.26-0.95
				c0-0.527-0.351-0.837-1.23-1.157c-1.157-0.413-1.89-1.023-1.89-2.025c0-1.147,0.95-2.004,2.469-2.004
				c0.754,0,1.302,0.165,1.663,0.351l-0.3,1.022c-0.259-0.134-0.744-0.331-1.395-0.331c-0.806,0-1.147,0.423-1.147,0.837
				c0,0.538,0.403,0.786,1.333,1.147c1.209,0.455,1.787,1.065,1.787,2.066c0,1.126-0.847,2.097-2.634,2.097
				c-0.744,0-1.508-0.206-1.891-0.444L31.568,27.098z"/>
			<path fill="#300100" d="M37.857,26.323c0.031,0.909,0.734,1.302,1.55,1.302c0.589,0,1.003-0.093,1.394-0.227l0.187,0.867
				c-0.434,0.187-1.033,0.321-1.757,0.321c-1.632,0-2.593-1.003-2.593-2.542c0-1.394,0.847-2.706,2.459-2.706
				c1.632,0,2.169,1.343,2.169,2.448c0,0.237-0.021,0.423-0.04,0.537C41.226,26.323,37.857,26.323,37.857,26.323z M40.068,25.435
				c0.01-0.465-0.196-1.23-1.044-1.23c-0.785,0-1.116,0.713-1.167,1.23H40.068z"/>
			<path fill="#300100" d="M42.287,25.073c0-0.682-0.011-1.177-0.041-1.621h1.095l0.051,0.95h0.032
				c0.248-0.703,0.836-1.064,1.384-1.064c0.124,0,0.196,0.01,0.3,0.031v1.188c-0.113-0.021-0.227-0.032-0.382-0.032
				c-0.6,0-1.023,0.383-1.137,0.961c-0.021,0.113-0.031,0.248-0.031,0.382v2.614h-1.271V25.073z"/>
			<path fill="#300100" d="M46.996,23.452l0.817,2.552c0.144,0.444,0.248,0.847,0.34,1.26h0.031c0.094-0.413,0.207-0.806,0.341-1.26
				l0.805-2.552h1.333l-1.921,5.031h-1.25l-1.87-5.031H46.996z"/>
			<path fill="#300100" d="M52.79,22.046c0,0.372-0.278,0.682-0.722,0.682c-0.424,0-0.703-0.31-0.703-0.682
				c0-0.393,0.289-0.692,0.713-0.692C52.511,21.355,52.78,21.654,52.79,22.046z M51.437,28.483v-5.031h1.271v5.031H51.437z"/>
			<path fill="#300100" d="M57.778,28.328c-0.268,0.124-0.795,0.259-1.426,0.259c-1.57,0-2.593-1.013-2.593-2.573
				c0-1.508,1.033-2.675,2.8-2.675c0.466,0,0.94,0.103,1.23,0.227l-0.227,0.96c-0.206-0.103-0.506-0.195-0.961-0.195
				c-0.971,0-1.549,0.713-1.539,1.632c0,1.032,0.672,1.621,1.539,1.621c0.434,0,0.755-0.093,1.003-0.196L57.778,28.328z"/>
			<path fill="#300100" d="M59.523,26.323c0.031,0.909,0.733,1.302,1.549,1.302c0.589,0,1.003-0.093,1.394-0.227l0.187,0.867
				c-0.434,0.187-1.033,0.321-1.757,0.321c-1.632,0-2.593-1.003-2.593-2.542c0-1.394,0.848-2.706,2.459-2.706
				c1.632,0,2.169,1.343,2.169,2.448c0,0.237-0.021,0.423-0.04,0.537C62.891,26.323,59.523,26.323,59.523,26.323z M61.733,25.435
				c0.01-0.465-0.196-1.23-1.043-1.23c-0.786,0-1.116,0.713-1.167,1.23H61.733z"/>
		</g>
	</g>
</g>
</svg>
