<svg id="Layer_1" data-name="Layer 1" xmlns="http://www.w3.org/2000/svg" xmlns:xlink="http://www.w3.org/1999/xlink" viewBox="0 0 81 55"><defs><style>.cls-1{stroke:#b5b5b5;stroke-miterlimit:10;fill:url(#Безымянный_градиент);}.cls-2{fill:#eeb944;}.cls-3{fill:#4f3529;}</style><linearGradient id="Безымянный_градиент" x1="40.5" y1="-179.72" x2="40.5" y2="-233.72" gradientTransform="matrix(1, 0, 0, -1, 0, -179.25)" gradientUnits="userSpaceOnUse"><stop offset="0" stop-color="#fff"/><stop offset="0.97" stop-color="#d9d9d9"/><stop offset="1" stop-color="#e2e9f1"/></linearGradient></defs><title>ups_Logo1</title><path class="cls-1" d="M77.5,54.47H3.5a3,3,0,0,1-3-3v-48a3,3,0,0,1,3-3h74a3,3,0,0,1,3,3v48A3,3,0,0,1,77.5,54.47Z" transform="translate(0 0.03)"/><path class="cls-2" d="M28.6,23.27v6.8a9.15,9.15,0,0,1-5.2,8.7c-2.3,1.2-4.7,2.3-7.1,3.5a0.3,0.3,0,0,1-.4,0,59.71,59.71,0,0,1-8-4,8.86,8.86,0,0,1-4.3-7A5.7,5.7,0,0,1,3.5,30V15.78a0.75,0.75,0,0,1,.4-0.7A24,24,0,0,1,10.8,13a27.56,27.56,0,0,1,6.4-.4,25.59,25.59,0,0,1,10.9,2.5,0.67,0.67,0,0,1,.4.7C28.6,18.27,28.6,20.77,28.6,23.27Zm-1,0v-7.4c0-.4-0.1-0.5-0.5-0.5s-1-.1-1.5-0.1a38.71,38.71,0,0,0-9.6.5,23.4,23.4,0,0,0-11.4,5.5,0.91,0.91,0,0,0-.3.7v5.4c0,1.3,0,2.5.1,3.8A7.78,7.78,0,0,0,8,37.38a55.61,55.61,0,0,0,7.7,3.9,0.55,0.55,0,0,0,.4,0c2.3-1.1,4.7-2.3,7-3.5a8.34,8.34,0,0,0,2.1-1.6,7.92,7.92,0,0,0,2.3-5.8C27.7,28.08,27.6,25.67,27.6,23.27Z" transform="translate(0 0.03)"/><path class="cls-3" d="M27.6,23.27v7.1a7.92,7.92,0,0,1-2.3,5.8,8.34,8.34,0,0,1-2.1,1.6c-2.3,1.2-4.6,2.3-7,3.5a0.3,0.3,0,0,1-.4,0,55.61,55.61,0,0,1-7.7-3.9,7.94,7.94,0,0,1-3.6-6.2c-0.1-1.3,0-2.5-.1-3.8V22a0.91,0.91,0,0,1,.3-0.7,23.4,23.4,0,0,1,11.4-5.5,38.71,38.71,0,0,1,9.6-.5c0.5,0,1,.1,1.5.1s0.5,0.1.5,0.5C27.6,18.38,27.6,20.88,27.6,23.27Zm-12,9.4c2.6,0.4,3.9-.9,4.4-2.7a8.52,8.52,0,0,0,0-5,3.73,3.73,0,0,0-2.6-2.7,5,5,0,0,0-3.6.4,0.6,0.6,0,0,0-.4.7V37a0.33,0.33,0,0,0,.4.4H15c0.5,0,.5,0,0.5-0.5v-3.6A1.27,1.27,0,0,0,15.6,32.67Zm-3.4-5.5v-4.4a0.33,0.33,0,0,0-.4-0.4H10.4a0.33,0.33,0,0,0-.4.4v7.5a0.59,0.59,0,0,1-.2.5c-0.9.4-1.9,0.3-2-1.1v-6.8c0-.4-0.1-0.5-0.5-0.5H6.1c-0.4,0-.5.1-0.5,0.5v7.2a2.78,2.78,0,0,0,2.2,2.6,5.89,5.89,0,0,0,4.1-.6,0.55,0.55,0,0,0,.3-0.5v-4.4Zm8.9,3v1.6a0.46,0.46,0,0,0,.3.5,4.29,4.29,0,0,0,2.7.4,2.82,2.82,0,0,0,2.4-1.9,2.9,2.9,0,0,0-.6-3.2c-0.5-.5-1.1-0.8-1.7-1.3a2.28,2.28,0,0,1-.9-0.8,1.05,1.05,0,0,1,.6-1.7,2.19,2.19,0,0,1,1.6.2,4.05,4.05,0,0,1,.9.5V23a0.46,0.46,0,0,0-.3-0.5,4.19,4.19,0,0,0-2.2-.5,2.71,2.71,0,0,0-2.6,1.8A2.83,2.83,0,0,0,22,27a7.1,7.1,0,0,0,1.4,1,5.5,5.5,0,0,1,.9.7,1.21,1.21,0,0,1,.2,1.4,1.13,1.13,0,0,1-1.2.7,2.66,2.66,0,0,1-1.2-.3A1.31,1.31,0,0,1,21.1,30.17Z" transform="translate(0 0.03)"/><path class="cls-2" d="M15.6,32.67v4.1c0,0.5,0,.5-0.5.5H13.9a0.33,0.33,0,0,1-.4-0.4V23.27a0.6,0.6,0,0,1,.4-0.7,5.65,5.65,0,0,1,3.6-.4,3.43,3.43,0,0,1,2.6,2.7,8.52,8.52,0,0,1,0,5A3.67,3.67,0,0,1,15.6,32.67Zm2.7-5.3c-0.1-.7-0.2-1.5-0.3-2.2a1.55,1.55,0,0,0-1.9-1.3,0.51,0.51,0,0,0-.5.6v6a0.56,0.56,0,0,0,.5.6,1.73,1.73,0,0,0,1.9-1.4C18.1,28.88,18.2,28.08,18.3,27.38Z" transform="translate(0 0.03)"/><path class="cls-2" d="M12.2,27.17v4.4a0.46,0.46,0,0,1-.3.5,5.89,5.89,0,0,1-4.1.6A2.63,2.63,0,0,1,5.7,30c-0.1-1.3,0-2.6,0-3.9v-3.3c0-.4.1-0.5,0.5-0.5H7.4c0.4,0,.5.1,0.5,0.5v6.8c0.1,1.4,1.1,1.5,2,1.1a0.76,0.76,0,0,0,.2-0.5v-7.5a0.33,0.33,0,0,1,.4-0.4h1.4a0.33,0.33,0,0,1,.4.4C12.2,24.27,12.2,25.67,12.2,27.17Z" transform="translate(0 0.03)"/><path class="cls-2" d="M21.1,30.17a9,9,0,0,0,.9.5L23.2,31a1.26,1.26,0,0,0,1-2.1,5.5,5.5,0,0,0-.9-0.7,7.1,7.1,0,0,1-1.4-1,3,3,0,0,1-.7-3.2,2.8,2.8,0,0,1,2.6-1.8,3.42,3.42,0,0,1,2.2.5,0.55,0.55,0,0,1,.3.5v1.5a4.05,4.05,0,0,0-.9-0.5,2.19,2.19,0,0,0-1.6-.2,1.05,1.05,0,0,0-.6,1.7,7.27,7.27,0,0,0,.9.8,10.92,10.92,0,0,1,1.7,1.3,3.13,3.13,0,0,1,.6,3.2,2.82,2.82,0,0,1-2.4,1.9,4.83,4.83,0,0,1-2.7-.4A0.46,0.46,0,0,1,21,32,11.48,11.48,0,0,0,21.1,30.17Z" transform="translate(0 0.03)"/><path class="cls-3" d="M18.3,27.38c-0.1.7-.2,1.5-0.3,2.2A1.67,1.67,0,0,1,16.1,31c-0.4,0-.5-0.2-0.5-0.6v-6a0.56,0.56,0,0,1,.5-0.6,1.6,1.6,0,0,1,1.9,1.3C18.1,25.88,18.2,26.58,18.3,27.38Z" transform="translate(0 0.03)"/><path d="M42.3,18.17l-1.8,6.5H39.7l-1.5-5.6-1.6,5.6H35.8L34,18.27h0.9l1.3,5.2,1.5-5.2h1l1.5,5.2,1.3-5.2h0.8v-0.1Z" transform="translate(0 0.03)"/><path d="M44.9,19.88a2.11,2.11,0,0,1,1.6.6,2.44,2.44,0,0,1,.6,1.8,2.44,2.44,0,0,1-.6,1.8,2.43,2.43,0,0,1-3.2,0,2.44,2.44,0,0,1-.6-1.8,2.44,2.44,0,0,1,.6-1.8A2.11,2.11,0,0,1,44.9,19.88Zm0,4.2a1.11,1.11,0,0,0,1-.5,2.23,2.23,0,0,0,.4-1.3,1.7,1.7,0,0,0-.4-1.3,1.23,1.23,0,0,0-1-.5,1.39,1.39,0,0,0-1,.5,2.23,2.23,0,0,0-.4,1.3,1.7,1.7,0,0,0,.4,1.3A1.11,1.11,0,0,0,44.9,24.08Z" transform="translate(0 0.03)"/><path d="M50.4,20.67a4.33,4.33,0,0,0-.5-0.1,1.27,1.27,0,0,0-1.1.7v3.3H48v-4.7h0.8v0.7a1.55,1.55,0,0,1,1.2-.8h0.4v0.9Z" transform="translate(0 0.03)"/><path d="M51.8,24.67H51v-6.4h0.8v6.4Z" transform="translate(0 0.03)"/><path d="M56,24.08a1.89,1.89,0,0,1-1.3.7,1.51,1.51,0,0,1-1.4-.7,3.2,3.2,0,0,1-.5-1.8,2.44,2.44,0,0,1,.6-1.8,1.91,1.91,0,0,1,1.4-.7,2.11,2.11,0,0,1,1.3.5v-2.1h0.8v6.4H56.1v-0.5H56Zm0-.8v-2.2a1.73,1.73,0,0,0-1.2-.6,1.19,1.19,0,0,0-.9.5,2.65,2.65,0,0,0-.3,1.4,2.27,2.27,0,0,0,.3,1.3,0.91,0.91,0,0,0,.8.4A1.7,1.7,0,0,0,56,23.27Z" transform="translate(0 0.03)"/><path d="M63.9,20l-1.4,4.7H61.7l-1-3.4-1,3.4H58.9L57.5,20h0.9l0.9,3.6,1-3.6h0.8l1.1,3.6L63.1,20h0.8Z" transform="translate(0 0.03)"/><path d="M65.4,19.08H64.5v-0.9h0.8v0.9h0.1Zm0,5.6H64.5V20h0.8v4.7h0.1Z" transform="translate(0 0.03)"/><path d="M69.5,24.08a1.89,1.89,0,0,1-1.3.7,1.51,1.51,0,0,1-1.4-.7,3.2,3.2,0,0,1-.5-1.8,2.44,2.44,0,0,1,.6-1.8,1.91,1.91,0,0,1,1.4-.7,2.11,2.11,0,0,1,1.3.5v-2.1h0.8v6.4H69.5v-0.5Zm0-.8v-2.2a1.73,1.73,0,0,0-1.2-.6,1.19,1.19,0,0,0-.9.5,2.65,2.65,0,0,0-.3,1.4,2.27,2.27,0,0,0,.3,1.3,0.91,0.91,0,0,0,.8.4A1.56,1.56,0,0,0,69.5,23.27Z" transform="translate(0 0.03)"/><path d="M73.6,24.77a2.52,2.52,0,0,1-1.7-.6,2.44,2.44,0,0,1-.6-1.8,2.44,2.44,0,0,1,.6-1.8,2.43,2.43,0,0,1,3.2,0,2.44,2.44,0,0,1,.6,1.8v0.2H72.2a2.14,2.14,0,0,0,.4,1.2,1.28,1.28,0,0,0,1,.4,1.88,1.88,0,0,0,.8-0.2,0.82,0.82,0,0,0,.4-0.6h0.9a1.44,1.44,0,0,1-.7,1.1A5.77,5.77,0,0,1,73.6,24.77Zm1.2-2.9a1.6,1.6,0,0,0-.5-1,1.4,1.4,0,0,0-.9-0.3,1.61,1.61,0,0,0-.9.3,2.34,2.34,0,0,0-.5,1h2.8Z" transform="translate(0 0.03)"/><path d="M37,35.58a2.81,2.81,0,0,1-2-.6,1.86,1.86,0,0,1-.7-1.6h0.8a1.25,1.25,0,0,0,.6,1.1,2.77,2.77,0,0,0,1.3.3,2.13,2.13,0,0,0,1.2-.3,0.91,0.91,0,0,0,.4-0.8,0.89,0.89,0,0,0-.5-0.8,6,6,0,0,0-1.6-.5,4,4,0,0,1-1.6-.7,1.43,1.43,0,0,1-.5-1.1,1.76,1.76,0,0,1,.6-1.3,2.86,2.86,0,0,1,1.7-.5,3.45,3.45,0,0,1,1.8.5,1.51,1.51,0,0,1,.7,1.4H38.4a1.35,1.35,0,0,0-1.6-1.2,1.8,1.8,0,0,0-1.1.3,0.75,0.75,0,0,0-.4.7,0.6,0.6,0,0,0,.3.6,4,4,0,0,0,1.2.4,12.75,12.75,0,0,1,1.4.4,1.8,1.8,0,0,1,.9.6,1.78,1.78,0,0,1,.4,1,1.62,1.62,0,0,1-.7,1.4A2.41,2.41,0,0,1,37,35.58Z" transform="translate(0 0.03)"/><path d="M42.5,35.58a2.52,2.52,0,0,1-1.7-.6,2.44,2.44,0,0,1-.6-1.8,2.44,2.44,0,0,1,.6-1.8,2.43,2.43,0,0,1,3.2,0,2.44,2.44,0,0,1,.6,1.8v0.2H41.1a2.14,2.14,0,0,0,.4,1.2,1.28,1.28,0,0,0,1,.4,1.88,1.88,0,0,0,.8-0.2,0.82,0.82,0,0,0,.4-0.6h0.8a1.44,1.44,0,0,1-.7,1.1A4.15,4.15,0,0,1,42.5,35.58Zm1.2-2.9a1.6,1.6,0,0,0-.5-1,1.4,1.4,0,0,0-.9-0.3,1.61,1.61,0,0,0-.9.3,2.34,2.34,0,0,0-.5,1h2.8Z" transform="translate(0 0.03)"/><path d="M47.9,31.47a4.33,4.33,0,0,0-.5-0.1,1.27,1.27,0,0,0-1.1.7v3.3H45.5v-4.7h0.8v0.7a1.55,1.55,0,0,1,1.2-.8h0.4v0.9Z" transform="translate(0 0.03)"/><path d="M52.3,30.78l-1.8,4.6H49.8L48,30.67h0.9l1.2,3.6,1.2-3.6h1v0.1Z" transform="translate(0 0.03)"/><path d="M53.8,29.88H53V29h0.8v0.9Zm0,5.5H53v-4.7h0.8v4.7Z" transform="translate(0 0.03)"/><path d="M56.9,35.58a2.11,2.11,0,0,1-1.6-.6,2.44,2.44,0,0,1-.6-1.8,2.44,2.44,0,0,1,.6-1.8,2.11,2.11,0,0,1,1.6-.6,2,2,0,0,1,1.3.4,2,2,0,0,1,.6,1.1H57.9a0.6,0.6,0,0,0-.3-0.6,1.45,1.45,0,0,0-.7-0.2,1.39,1.39,0,0,0-1,.5,2.23,2.23,0,0,0-.4,1.3,1.7,1.7,0,0,0,.4,1.3,1.23,1.23,0,0,0,1,.5,1.45,1.45,0,0,0,.7-0.2,0.71,0.71,0,0,0,.3-0.6h0.9a1.68,1.68,0,0,1-.6,1.1C57.9,35.38,57.4,35.58,56.9,35.58Z" transform="translate(0 0.03)"/><path d="M61.5,35.58a2.52,2.52,0,0,1-1.7-.6,2.44,2.44,0,0,1-.6-1.8,2.44,2.44,0,0,1,.6-1.8,2.43,2.43,0,0,1,3.2,0,2.44,2.44,0,0,1,.6,1.8v0.2H60.1a2.14,2.14,0,0,0,.4,1.2,1.28,1.28,0,0,0,1,.4,1.88,1.88,0,0,0,.8-0.2,0.82,0.82,0,0,0,.4-0.6h0.8a1.44,1.44,0,0,1-.7,1.1A3.55,3.55,0,0,1,61.5,35.58Zm1.2-2.9a1.6,1.6,0,0,0-.5-1,1.4,1.4,0,0,0-.9-0.3,1.61,1.61,0,0,0-.9.3,2.34,2.34,0,0,0-.5,1h2.8Z" transform="translate(0 0.03)"/><path d="M66.2,35.58c-1.3,0-1.9-.5-2-1.5H65q0,0.9,1.2.9a1.88,1.88,0,0,0,.8-0.2,0.55,0.55,0,0,0,.3-0.5,0.35,0.35,0,0,0-.3-0.4,6.14,6.14,0,0,0-1.1-.5,2.7,2.7,0,0,1-1.2-.5,1,1,0,0,1-.4-0.9,1.39,1.39,0,0,1,.5-1,1.7,1.7,0,0,1,1.3-.4c1.2,0,1.8.4,1.9,1.3H67.2a0.85,0.85,0,0,0-1-.7,1.45,1.45,0,0,0-.7.2,0.55,0.55,0,0,0-.3.5,0.52,0.52,0,0,0,.2.4,3,3,0,0,0,1.1.3,3.2,3.2,0,0,1,1.3.5,1,1,0,0,1,.4.9,1.61,1.61,0,0,1-.5,1.1A2.69,2.69,0,0,1,66.2,35.58Z" transform="translate(0 0.03)"/></svg>