<svg id="Layer_1" data-name="Layer 1" xmlns="http://www.w3.org/2000/svg" xmlns:xlink="http://www.w3.org/1999/xlink" viewBox="0 0 81 55"><defs><style>.cls-1{stroke:#b5b5b5;stroke-miterlimit:10;fill:url(#Безымянный_градиент);}.cls-2{fill:#3364d1;}.cls-3{fill:#ffab00;}</style><linearGradient id="Безымянный_градиент" x1="40.5" y1="58.3" x2="40.5" y2="4.3" gradientTransform="matrix(1, 0, 0, -1, 0, 58.8)" gradientUnits="userSpaceOnUse"><stop offset="0" stop-color="#fff"/><stop offset="0.97" stop-color="#d9d9d9"/><stop offset="1" stop-color="#e2e9f1"/></linearGradient></defs><title>visa_Logo1</title><path class="cls-1" d="M77.5,54.5H3.5a3,3,0,0,1-3-3V3.5a3,3,0,0,1,3-3h74a3,3,0,0,1,3,3v48A3,3,0,0,1,77.5,54.5Z"/><path class="cls-2" d="M51.1,16.4c-5.5,0-9.3,2.9-9.4,7.1,0,3.1,2.8,4.8,4.9,5.8S49.5,31,49.5,32c0,1.4-1.7,2.1-3.3,2.1A11,11,0,0,1,41,33l-0.7-.3-0.9,4.7a16.4,16.4,0,0,0,6.2,1.1c5.8,0,9.6-2.9,9.7-7.3,0-2.5-1.5-4.3-4.7-5.8-1.9-1-3.1-1.7-3.1-2.7s1-1.8,3.2-1.8a10.59,10.59,0,0,1,4.1.8l0.5,0.2,0.8-4.7a19.28,19.28,0,0,0-5-.8h0Zm-17.3.4L30.3,38.3h5.5l3.5-21.5H33.8Zm-8.1,0L20.3,31.4l-0.6-3c-1.4-3.6-4.3-7.5-7.7-9l5,18.8h5.9l8.7-21.4H25.7Zm40.3,0a2.78,2.78,0,0,0-2.9,1.8L54.9,38.3h5.8s1-2.6,1.2-3.2H69c0.2,0.7.7,3.2,0.7,3.2h5.1L70.3,16.8H66Zm0.4,5.8,0.4,1.9s1.1,5.1,1.3,6.2H63.5c0.5-1.2,2.2-6,2.2-6a11.78,11.78,0,0,1,.7-2.1h0Z"/><path class="cls-3" d="M15.3,16.8h-9l-0.1.4c7,1.8,11.5,6.1,13.5,11.3l-1.9-9.9a2.27,2.27,0,0,0-2.5-1.8"/></svg>