<svg id="Layer_1" data-name="Layer 1" xmlns="http://www.w3.org/2000/svg" viewBox="0 0 80 54"><defs><style>.cls-1{fill:#ffe810;}</style></defs><title>western1</title><path d="M77,54H3a3,3,0,0,1-3-3V3A3,3,0,0,1,3,0H77a3,3,0,0,1,3,3V51A3,3,0,0,1,77,54Z"/><rect id="rect3589" x="6" y="18.8" width="72.4" height="16.5"/><path id="path2818" class="cls-1" d="M27.5,35.1a3.09,3.09,0,0,1-1.4-.7c-0.1-.1-0.3-0.4-0.5-0.6l-0.2-.4V27.8h3v2.4c0,2.2,0,2.4.1,2.6a0.42,0.42,0,0,0,.5.3c0.3-.1.4-0.2,0.4-2.9V27.7h3v2.5a18,18,0,0,1-.1,2.9A2.35,2.35,0,0,1,30.2,35a5,5,0,0,1-2.7.1h0Zm23.9,0a4.35,4.35,0,0,1-1.5-.8,3.56,3.56,0,0,1-1-2.8,3.8,3.8,0,0,1,1-2.9,3.53,3.53,0,0,1,2.8-.9,3.56,3.56,0,0,1,2.8,1,3.66,3.66,0,0,1,1,2.9,3.47,3.47,0,0,1-3.8,3.8,11.15,11.15,0,0,0-1.3-.3h0Zm2.4-.1h0ZM53,33.1c0.4-.3.5-2.4,0.2-3.1a0.49,0.49,0,0,0-.9,0c-0.4.7-.2,3,0.2,3.2a0.9,0.9,0,0,0,.5-0.1h0Zm14.7-6v-8h1.2v16H67.7v-8ZM71,27.2V19.3h1V35.1H71V27.2ZM34.4,31.4V27.8H38l0.2,0.5c0.1,0.3.4,1.1,0.6,1.8l0.5,1.3V27.8h2.4V35H38.1l-0.5-1.8-0.7-1.9v3.8H34.5l-0.1-3.7h0Zm9.6,0V27.8h3V35H44V31.4Zm14.4,0V27.8H62l0.6,1.8,0.6,1.8V27.8h2.4V35H62.2l-0.6-1.8L61,31.3v3.8H58.6V31.4H58.4ZM27.6,26.7a2.79,2.79,0,0,1-1.7-.9,2.14,2.14,0,0,1-.4-1.2V24.2H27c1.4,0,1.5,0,1.5.1a1.14,1.14,0,0,0,.3.6,0.62,0.62,0,0,0,.7-0.1c0.4-.4.2-0.5-1.4-1s-1.9-.7-2.2-1.3a3,3,0,0,1,.1-2.1,2.66,2.66,0,0,1,1.8-1.2,11.3,11.3,0,0,1,2.6,0,2,2,0,0,1,1.9,1.9v0.4H29.5V21.4A0.46,0.46,0,0,0,29,21a0.62,0.62,0,0,0-.5.3c0,0.2.3,0.3,1,.5a5,5,0,0,1,2.4,1,1.84,1.84,0,0,1,.5,1.5,1.72,1.72,0,0,1-.1.8,2.41,2.41,0,0,1-1.6,1.5,4.66,4.66,0,0,1-1.6.2,9.89,9.89,0,0,0-1.5-.1h0ZM7.5,26.5S7.2,24.9,6.8,23,6,19.5,6,19.5V19.4H8.6l0.2,1.9a18.28,18.28,0,0,0,.3,1.9s0.1-.8.3-1.7,0.3-1.8.3-1.9V19.4h3l0.1,0.4c0,0.2.2,1,.3,1.8s0.2,1.4.2,1.5a8.55,8.55,0,0,0,.3-1.8l0.2-1.9h1.3c1.2,0,1.3,0,1.3.1s-0.3,1.7-.8,3.6l-0.8,3.5H11.6l-0.1-.4c0-.2-0.2-1.1-0.3-1.9S11,22.9,11,22.8a13.84,13.84,0,0,0-.3,1.9l-0.3,1.9H8.8a10.87,10.87,0,0,1-1.3-.1h0Zm1.7-3.1h0v0Zm9-.5V19.3h5.6v2H21.2v0.6h2.4v2H21.2v0.6H24v2H18.2V22.9h0ZM35.6,24V21.4H33.8v-2h6.4v2H38.4v5.2H35.5A22.6,22.6,0,0,0,35.6,24ZM42,22.9V19.3h5.6v2H45v0.6h2.4v2H45v0.6h2.8v2H42V22.9Zm7.6,0V19.3h2.5c2.6,0,2.9,0,3.4.3a1.4,1.4,0,0,1,.8,1.5,1.72,1.72,0,0,1-.1.8,1.39,1.39,0,0,1-.7.8l-0.2.1,0.3,0.1c0.4,0.2.6,0.5,0.7,1.8a6.88,6.88,0,0,1,.2,1.3,1.21,1.21,0,0,0,.1.5h-3l-0.1-.2c0-.1-0.1-0.6-0.2-1.1-0.1-1-.2-1.1-0.7-1.2H52.3v2.6h-3C49.6,26.6,49.6,22.9,49.6,22.9Zm3.7-.9a0.49,0.49,0,0,0,.1-0.7,0.59,0.59,0,0,0-.5-0.2H52.5v1.1h0.3a0.59,0.59,0,0,0,.5-0.2h0Zm5.1,0.9V19.3H62l0.6,1.8,0.6,1.8V19.3h2.4v7.2H62.2l-0.6-1.9L61,22.7v3.8H58.6C58.4,26.6,58.4,22.9,58.4,22.9Z"/></svg>