<svg id="Слой_1" data-name="Слой 1" xmlns="http://www.w3.org/2000/svg" viewBox="0 0 317.5 126"><defs><style>.cls-1{fill:#fff;}.cls-2{fill:#91c30c;}.cls-3{fill:#48515d;}</style></defs><title>goDaddy</title><rect class="cls-1" width="317.5" height="126" rx="3.03" ry="3.03"/><rect class="cls-2" x="39.91" y="23.45" width="76.36" height="76.36"/><path class="cls-2" d="M178.45,75.5v-2h5v4.6a6.29,6.29,0,0,1-2.12,1.24,7.7,7.7,0,0,1-2.81.54,6.3,6.3,0,0,1-3.15-.76,4.82,4.82,0,0,1-2-2.17,7,7,0,0,1-.67-3.06,6.62,6.62,0,0,1,.75-3.19,5.07,5.07,0,0,1,2.21-2.14,6,6,0,0,1,2.75-.57,5.5,5.5,0,0,1,3.35.9,4.06,4.06,0,0,1,1.55,2.48L181,71.8a2.44,2.44,0,0,0-.92-1.3A2.77,2.77,0,0,0,178.4,70,3.15,3.15,0,0,0,176,71a4.07,4.07,0,0,0-.9,2.86,4.5,4.5,0,0,0,.91,3.07,3,3,0,0,0,2.39,1,4,4,0,0,0,1.46-.29A5,5,0,0,0,181.1,77V75.5h-2.65Z" transform="translate(-46.59 -33.55)"/><path class="cls-2" d="M185.13,74a7.32,7.32,0,0,1,.53-3,5.42,5.42,0,0,1,1.06-1.5,4.48,4.48,0,0,1,1.49-1,6.31,6.31,0,0,1,2.48-.46,5.4,5.4,0,0,1,4.07,1.58A6,6,0,0,1,196.29,74a5.6,5.6,0,0,1-9.64,4.36A5.94,5.94,0,0,1,185.13,74Zm2.39-.08a4.31,4.31,0,0,0,.9,3,3.1,3.1,0,0,0,4.38.19l0.19-.19a4.4,4.4,0,0,0,.89-3,4.33,4.33,0,0,0-.87-3,3.21,3.21,0,0,0-4.54-.08l-0.08.08a4.35,4.35,0,0,0-.89,3h0Z" transform="translate(-46.59 -33.55)"/><path class="cls-2" d="M198.09,68.18h4.25a8.29,8.29,0,0,1,2.19.22,3.85,3.85,0,0,1,1.73,1.1,5,5,0,0,1,1.1,1.86,8.5,8.5,0,0,1,.38,2.72,7.56,7.56,0,0,1-.35,2.45,5.07,5.07,0,0,1-1.23,2,4.09,4.09,0,0,1-1.63.92,7,7,0,0,1-2.06.24H198.1V68.18h0Zm2.32,2v7.62h1.73a6.34,6.34,0,0,0,1.41-.11,2.15,2.15,0,0,0,.94-0.48A2.44,2.44,0,0,0,205.1,76a7.51,7.51,0,0,0,.24-2.11,6.88,6.88,0,0,0-.24-2,2.64,2.64,0,0,0-.66-1.11,2.21,2.21,0,0,0-1.08-.54,10.54,10.54,0,0,0-1.91-.11h-1Z" transform="translate(-46.59 -33.55)"/><path class="cls-2" d="M220.08,79.69h-2.53l-1-2.61h-4.6l-1,2.61H208.5L213,68.18h2.52Zm-4.28-4.55-1.59-4.27-1.55,4.27h3.14Z" transform="translate(-46.59 -33.55)"/><path class="cls-2" d="M221.31,68.18h4.25a8.29,8.29,0,0,1,2.19.22,3.85,3.85,0,0,1,1.75,1.1,5,5,0,0,1,1.1,1.86,8.47,8.47,0,0,1,.38,2.72,7.56,7.56,0,0,1-.38,2.42,5.08,5.08,0,0,1-1.23,2,4.09,4.09,0,0,1-1.63.92,7,7,0,0,1-2.06.24h-4.37V68.18h0Zm2.32,2v7.62h1.73a6.33,6.33,0,0,0,1.41-.11,2.14,2.14,0,0,0,.94-0.48,2.43,2.43,0,0,0,.61-1.11,7.49,7.49,0,0,0,.24-2.11,6.86,6.86,0,0,0-.24-2,2.64,2.64,0,0,0-.66-1.11,2.21,2.21,0,0,0-1.08-.54,10.53,10.53,0,0,0-1.91-.11h-1Z" transform="translate(-46.59 -33.55)"/><path class="cls-2" d="M232.91,68.18h4.25a8.29,8.29,0,0,1,2.19.22,3.85,3.85,0,0,1,1.73,1.1,5,5,0,0,1,1.1,1.86,8.47,8.47,0,0,1,.38,2.72,7.56,7.56,0,0,1-.35,2.45,5.08,5.08,0,0,1-1.23,2,4.09,4.09,0,0,1-1.63.92,7,7,0,0,1-2.06.24h-4.37V68.18h0Zm2.32,2v7.62H237a6.33,6.33,0,0,0,1.41-.11,2.14,2.14,0,0,0,.94-0.48,2.43,2.43,0,0,0,.61-1.11,7.49,7.49,0,0,0,.24-2.11,6.86,6.86,0,0,0-.24-2,2.64,2.64,0,0,0-.66-1.11,2.21,2.21,0,0,0-1.08-.54,10.53,10.53,0,0,0-1.91-.11h-1Z" transform="translate(-46.59 -33.55)"/><path class="cls-2" d="M247.5,79.69V74.84l-4.21-6.66H246l2.71,4.55,2.65-4.55H254l-4.23,6.68v4.83H247.5Z" transform="translate(-46.59 -33.55)"/><path class="cls-2" d="M253.5,79.69V77.5h2.21v2.21H253.5v0Z" transform="translate(-46.59 -33.55)"/><path class="cls-2" d="M265.29,75.5l2.21,0.67a5.06,5.06,0,0,1-1.72,2.8,5.42,5.42,0,0,1-6.82-.65A6,6,0,0,1,257.5,74,6.29,6.29,0,0,1,259,69.58a5.09,5.09,0,0,1,3.9-1.59,4.78,4.78,0,0,1,3.43,1.25,4.54,4.54,0,0,1,1.19,2.11l-2.3.55A2.38,2.38,0,0,0,262.78,70a2.62,2.62,0,0,0-2.08.92,4.51,4.51,0,0,0-.8,3,4.82,4.82,0,0,0,.78,3.11,2.55,2.55,0,0,0,2,.93,2.32,2.32,0,0,0,1.59-.59A3.43,3.43,0,0,0,265.29,75.5Z" transform="translate(-46.59 -33.55)"/><path class="cls-2" d="M269.07,74a7.32,7.32,0,0,1,.53-3,5.41,5.41,0,0,1,1.07-1.5,4.47,4.47,0,0,1,1.49-1,6.31,6.31,0,0,1,2.48-.46,5.4,5.4,0,0,1,4.07,1.58A6,6,0,0,1,280.24,74a6,6,0,0,1-1.51,4.36,6,6,0,0,1-8.08,0A5.94,5.94,0,0,1,269.07,74Zm2.39-.08a4.31,4.31,0,0,0,.9,3,3.1,3.1,0,0,0,4.38.19l0.19-.19a4.4,4.4,0,0,0,.89-3,4.33,4.33,0,0,0-.87-3,3.21,3.21,0,0,0-4.54-.08l-0.08.08a4.35,4.35,0,0,0-.83,3h0Z" transform="translate(-46.59 -33.55)"/><path class="cls-2" d="M282,79.69V68.18h3.49L287.59,76l2.06-7.85h3.48V79.69H291V70.63l-2.28,9.06h-2.24l-2.28-9.06v9.06H282Z" transform="translate(-46.59 -33.55)"/><path class="cls-3" d="M170.89,104.38l4.61-.45a5.65,5.65,0,0,0,1.7,3.43,5.13,5.13,0,0,0,3.47,1.14,5.3,5.3,0,0,0,3.47-1,2.9,2.9,0,0,0,1.17-2.28,2.15,2.15,0,0,0-.49-1.42,3.93,3.93,0,0,0-1.71-1q-0.84-.29-3.81-1a12.93,12.93,0,0,1-5.37-2.33,6.14,6.14,0,0,1-2.17-4.75,6.06,6.06,0,0,1,1-3.37A6.4,6.4,0,0,1,175.7,89a11.81,11.81,0,0,1,4.64-.82q4.44,0,6.69,2a6.87,6.87,0,0,1,2.36,5.2l-4.76.21a4,4,0,0,0-1.31-2.62,4.8,4.8,0,0,0-3-.8,5.44,5.44,0,0,0-3.25.85,1.72,1.72,0,0,0-.76,1.46,1.81,1.81,0,0,0,.71,1.43,12.54,12.54,0,0,0,4.38,1.58,23.07,23.07,0,0,1,5.14,1.7,6.62,6.62,0,0,1,2.61,2.4,7.43,7.43,0,0,1-.19,7.55,6.75,6.75,0,0,1-3.19,2.63,13.38,13.38,0,0,1-5.13.86q-4.47,0-6.87-2.07A9,9,0,0,1,170.89,104.38Z" transform="translate(-46.59 -33.55)"/><path class="cls-3" d="M194.08,112.05V88.5h17.49v4H198.84v5.23h11.84v4H198.84v6.42H212v4H194.08v-0.1Z" transform="translate(-46.59 -33.55)"/><path class="cls-3" d="M231.16,103.38l4.62,1.46a10.36,10.36,0,0,1-3.53,5.74,11.11,11.11,0,0,1-14-1.34q-3-3.21-3-8.78,0-5.89,3-9.15a10.43,10.43,0,0,1,8-3.26,9.81,9.81,0,0,1,7,2.56A9.31,9.31,0,0,1,235.66,95l-4.71,1.13a4.87,4.87,0,0,0-5-4A5.37,5.37,0,0,0,221.69,94q-1.63,1.88-1.63,6.1,0,4.48,1.61,6.37a5.22,5.22,0,0,0,4.18,1.9,4.77,4.77,0,0,0,3.27-1.21A7,7,0,0,0,231.16,103.38Z" transform="translate(-46.59 -33.55)"/><path class="cls-3" d="M239.83,88.5h4.76v12.74a26.44,26.44,0,0,0,.18,3.94,3.82,3.82,0,0,0,1.46,2.32,5.07,5.07,0,0,0,3.15.88,4.8,4.8,0,0,0,3.06-.83,3.27,3.27,0,0,0,1.24-2,26.47,26.47,0,0,0,.21-4v-13h4.76v12.35a31.79,31.79,0,0,1-.39,6,6.65,6.65,0,0,1-1.42,3,7.21,7.21,0,0,1-2.78,1.92,12.1,12.1,0,0,1-4.56.73,13.08,13.08,0,0,1-5.13-.78,7.33,7.33,0,0,1-2.76-2,6.5,6.5,0,0,1-1.34-2.61,28.7,28.7,0,0,1-.47-6V88.5h0Z" transform="translate(-46.59 -33.55)"/><path class="cls-3" d="M263.68,112.05V88.5h10a17.16,17.16,0,0,1,5.5.64,5.43,5.43,0,0,1,2.74,2.26,6.8,6.8,0,0,1,1,3.72,6.3,6.3,0,0,1-1.5,4.38,7.5,7.5,0,0,1-4.67,2.18,11.11,11.11,0,0,1,2.55,2A27,27,0,0,1,282,107.5l2.88,4.6h-5.7L275.75,107a33.21,33.21,0,0,0-2.51-3.47,3.65,3.65,0,0,0-1.43-1,7.83,7.83,0,0,0-2.4-.27h-1v9.85h-4.76Zm4.76-13.61H272a18.17,18.17,0,0,0,4.28-.29,2.57,2.57,0,0,0,1.34-1,3.07,3.07,0,0,0,.48-1.77,2.83,2.83,0,0,0-.64-1.92,2.92,2.92,0,0,0-1.79-.92q-0.57,0-3.47,0h-3.72v5.94Z" transform="translate(-46.59 -33.55)"/><path class="cls-3" d="M287.5,112.05V88.5H305v4H292.23v5.23h11.84v4H292.23v6.42h13.18v4H287.5v-0.1Z" transform="translate(-46.59 -33.55)"/><path class="cls-3" d="M309.43,88.5h8.71a17,17,0,0,1,4.49.45,7.89,7.89,0,0,1,3.56,2.17,10.32,10.32,0,0,1,2.25,3.82,17.42,17.42,0,0,1,.77,5.58,15.49,15.49,0,0,1-.72,5,10.39,10.39,0,0,1-2.53,4.17,8.37,8.37,0,0,1-3.35,1.88,14.39,14.39,0,0,1-4.22.5h-9V88.5h0Zm4.76,4v15.58h3.56a13,13,0,0,0,2.88-.23,4.41,4.41,0,0,0,1.92-1,5,5,0,0,0,1.25-2.28,15.41,15.41,0,0,0,.48-4.32,14.12,14.12,0,0,0-.48-4.2,5.41,5.41,0,0,0-1.3-2.26,4.54,4.54,0,0,0-2.21-1.11,21.57,21.57,0,0,0-3.91-.23H314.2v0Z" transform="translate(-46.59 -33.55)"/><path class="cls-1" d="M132.79,72.5c-4.29,0-9.78-3.6-9.79-3.61h0s-5.5,3.61-9.79,3.61H99s2.49,4.62,2.49,8.56v23.62s0.48,7.28,8.59,12.65,11.41,5.33,12.91,6.88h0c1.55-1.55,4.78-1.51,12.89-6.87s8.61-12.66,8.61-12.66V81.06c0-3.94,2.49-8.56,2.49-8.56h-14.2Z" transform="translate(-46.59 -33.55)"/><path class="cls-2" d="M134.5,91H133v-2.3a10,10,0,0,0-10-10h0a10,10,0,0,0-10,10V91H111.5a1.44,1.44,0,0,0-1.43,1.43v16.93a1.44,1.44,0,0,0,1.43,1.44h23a1.44,1.44,0,0,0,1.43-1.43V92.45A1.44,1.44,0,0,0,134.5,91Zm-9.74,9.78,0.91,5.91a0.48,0.48,0,0,1-.4.54h-3.68a0.48,0.48,0,0,1-.47-0.55l0.91-5.9a0.48,0.48,0,0,0-.19-0.46,2.67,2.67,0,1,1,3.11,0,0.48,0.48,0,0,0-.23.45h0ZM130,91H116.08v-2.3a6.92,6.92,0,0,1,13.84,0V91h0Z" transform="translate(-46.59 -33.55)"/></svg>