<svg id="Слой_1" data-name="Слой 1" xmlns="http://www.w3.org/2000/svg" viewBox="0 0 317.5 126"><defs><style>.cls-1{fill:#fff;}.cls-2{fill:#bbbaba;}.cls-3{fill:#969594;}.cls-4{fill:#efba44;}.cls-5{fill:#201600;}.cls-6{fill:#999;}</style></defs><title>norton</title><rect class="cls-1" width="317.5" height="126" rx="3.03" ry="3.03"/><path class="cls-2" d="M268.78,121.06H143.5a32.72,32.72,0,0,1,0-65.45H268.78a32.72,32.72,0,1,1,0,65.45M143.5,58.39a30.23,30.23,0,0,0,0,60.47H268.78a30.23,30.23,0,0,0,0-60.47H143.5Z" transform="translate(-46.59 -33.55)"/><polygon class="cls-3" points="247.47 22.19 247.47 23.06 246.31 23.06 246.31 27.17 245.11 27.17 245.11 23.06 243.95 23.06 243.95 22.19 247.47 22.19"/><polygon class="cls-3" points="248.06 27.17 248.06 22.19 249.22 22.19 250.1 25.42 251 22.19 252.16 22.19 252.16 27.17 251.58 27.17 251.58 23.36 251.58 23.36 250.39 27.17 249.8 27.17 248.93 23.36 248.93 23.36 248.93 27.17 248.06 27.17"/><path class="cls-4" d="M143.5,123.71a35.23,35.23,0,1,1,35.23-35.23v0.13h0a35.31,35.31,0,0,1-35.23,35.1m0-59.27a24.23,24.23,0,0,0-17,7.1,24.73,24.73,0,0,0-7.05,17,24.23,24.23,0,0,0,7.05,17,24.73,24.73,0,0,0,17,7.05,24.23,24.23,0,0,0,17-7.05,24.73,24.73,0,0,0,7-17.15,24,24,0,0,0-24-24h0" transform="translate(-46.59 -33.55)"/><rect class="cls-4" x="135.08" y="14.26" width="2.65" height="2.65"/><rect class="cls-4" x="127.44" y="16.91" width="2.65" height="2.65"/><rect class="cls-5" x="122.46" y="22.19" width="2.65" height="2.65"/><rect class="cls-5" x="130.07" y="19.83" width="2.94" height="2.65"/><rect class="cls-5" x="119.81" y="19.83" width="2.65" height="2.36"/><rect class="cls-5" x="127.44" y="22.19" width="2.65" height="2.65"/><rect class="cls-5" x="127.44" y="14.26" width="4.98" height="2.65"/><rect class="cls-5" x="124.79" y="16.91" width="2.65" height="5.28"/><path class="cls-5" d="M171.38,58.39V61h-2.65V58.39h-4.4v1.7h-2v2.47h2.65V65.2h-2.65V62.55h-2.65v4H157v2.65h-1.75v2.65h-1.78a184.29,184.29,0,0,0-9.09,17c-5.86-8-10.26-11.16-13.78-12.38-1.78-.58-4.11,1.46-1.22,4.69a54.69,54.69,0,0,1,11.74,20c1.22,2.65,6.47,3.23,7.34.29a97.39,97.39,0,0,1,9.44-18.16V80.39h2V77.74h2.39V74.83h2.65V71.88h-2.65V69.23h2.65v2.65h2.65V69.23h2.07V66H172V64h2.07V58.39h-2.73Z" transform="translate(-46.59 -33.55)"/><path class="cls-3" d="M133.4,132.88h2.07v1.43a3.23,3.23,0,0,1,2.94-1.46,3.87,3.87,0,0,1,3.82,4.4h0a4,4,0,0,1-3.53,4.43h-0.19a3.23,3.23,0,0,1-2.94-1.46v3.53H133.4V132.88Zm6.87,4.08h0a2.44,2.44,0,0,0-2.21-2.65h0a2.65,2.65,0,0,0-2.36,2.65h0a2.36,2.36,0,1,0,4.69,0" transform="translate(-46.59 -33.55)"/><path class="cls-3" d="M143.82,137h0a4.51,4.51,0,0,1,4.4-4.4,4.32,4.32,0,0,1,4.4,4.24q0,0.08,0,.16h0a4.4,4.4,0,0,1-8.8,0m7.05,0h0a2.65,2.65,0,1,0-5.3,0h0a2.65,2.65,0,0,0,2.65,2.65h0a2.44,2.44,0,0,0,2.65-2.65" transform="translate(-46.59 -33.55)"/><polygon class="cls-3" points="107.19 99.38 109.23 99.38 110.72 104.95 112.78 99.38 114.24 99.38 116.28 104.95 118.06 99.38 119.81 99.38 117.16 107.86 115.41 107.86 113.34 102.01 111.59 107.86 109.84 107.86 107.19 99.38"/><path class="cls-3" d="M167.57,137h0a4.27,4.27,0,0,1,4.11-4.4,4.08,4.08,0,0,1,4.14,4s0,0.05,0,.08h0v1h-6.15a2.23,2.23,0,0,0,2.33,2.07,3.9,3.9,0,0,0,2.36-.87l1.22,0.8a4.4,4.4,0,0,1-3.53,1.46,3.79,3.79,0,0,1-4.48-4.11m6.12-.58a2.25,2.25,0,0,0-2-2.33,2.09,2.09,0,0,0-2.07,2.36h4.08v0Z" transform="translate(-46.59 -33.55)"/><path class="cls-3" d="M177.53,132.88h2.07v1.78a3.21,3.21,0,0,1,2.94-2.07v2.07h0a2.86,2.86,0,0,0-2.94,3.23v3.23h-2.07v-8.24Z" transform="translate(-46.59 -33.55)"/><path class="cls-3" d="M183.76,137h0a4.27,4.27,0,0,1,4.11-4.4,4.08,4.08,0,0,1,4.11,4h0v1H185.8a2.23,2.23,0,0,0,2.36,2.07,3.9,3.9,0,0,0,2.36-.87l1.19,0.87a4.4,4.4,0,0,1-3.53,1.46,3.79,3.79,0,0,1-4.43-4.11m6.12-.58a2.25,2.25,0,0,0-2.12-2.33,2.09,2.09,0,0,0-2.07,2.36h4.19v0Z" transform="translate(-46.59 -33.55)"/><path class="cls-3" d="M193.39,137h0a3.87,3.87,0,0,1,3.82-4.4,3.23,3.23,0,0,1,2.94,1.46V129.7h2.17v11.77h-2.15V140a3.23,3.23,0,0,1-2.94,1.46,3.87,3.87,0,0,1-3.82-4.48m6.76,0h0a2.44,2.44,0,0,0-2.21-2.65h0a2.25,2.25,0,0,0-2.36,2.65h0a2.36,2.36,0,1,0,4.69,0" transform="translate(-46.59 -33.55)"/><path class="cls-3" d="M211,140v1.25h-1.78v-11.8h2.07v4.72a3.23,3.23,0,0,1,2.94-1.46,3.87,3.87,0,0,1,3.81,3.93q0,0.18,0,.37h0a4,4,0,0,1-3.62,4.4h-0.2A3.42,3.42,0,0,1,211,139.9m5-2.94h0a2.44,2.44,0,0,0-2.21-2.65h0a2.65,2.65,0,0,0-2.36,2.65h0a2.36,2.36,0,1,0,4.69,0" transform="translate(-46.59 -33.55)"/><path class="cls-3" d="M219.23,143.51l0.58-1.46a1.43,1.43,0,0,0,1.22.29,1.22,1.22,0,0,0,1.22-.87l-3.68-8.56h2.07L223,139l2.09-6.12h2.07l-3.29,8.56a2.65,2.65,0,0,1-2.65,2.36,4.35,4.35,0,0,1-2.07-.29" transform="translate(-46.59 -33.55)"/><path d="M185.65,79.52l3.68-.34a4.45,4.45,0,0,0,1.33,2.65,4,4,0,0,0,2.65.85A4.19,4.19,0,0,0,196,81.9a2.28,2.28,0,0,0,1.06-1.7,1.7,1.7,0,0,0-.4-1.14,3.1,3.1,0,0,0-1.35-.8q-0.66-.24-3-0.8A10.18,10.18,0,0,1,188,75.65a4.9,4.9,0,0,1-1.72-3.74,4.8,4.8,0,0,1,.9-2.65,5,5,0,0,1,2.33-1.88,9.3,9.3,0,0,1,3.68-.64,8,8,0,0,1,5.3,1.54,5.3,5.3,0,0,1,1.86,4.11l-3.82.16a3.21,3.21,0,0,0-1.09-2,3.79,3.79,0,0,0-2.39-.64,4.29,4.29,0,0,0-2.65.66,1.35,1.35,0,0,0-.61,1.14,1.43,1.43,0,0,0,.56,1.14A9.89,9.89,0,0,0,193.81,74a18.29,18.29,0,0,1,4,1.35,5.3,5.3,0,0,1,2.07,1.88,5.86,5.86,0,0,1-.16,6,5.3,5.3,0,0,1-2.52,2.09,10.6,10.6,0,0,1-4.06.66,8,8,0,0,1-5.3-1.62A7.1,7.1,0,0,1,185.65,79.52Z" transform="translate(-46.59 -33.55)"/><path d="M211.07,81.29l3.55,0.61a5.83,5.83,0,0,1-2.2,3,6.36,6.36,0,0,1-3.68,1,6,6,0,0,1-5.3-2.31A7.71,7.71,0,0,1,202.08,79a7.45,7.45,0,0,1,1.75-5.3,5.78,5.78,0,0,1,4.43-1.91,6,6,0,0,1,4.74,2,8.77,8.77,0,0,1,1.67,6.12h-8.83a3.68,3.68,0,0,0,.85,2.44,2.65,2.65,0,0,0,2.07.87,2.17,2.17,0,0,0,1.51-.37A2.84,2.84,0,0,0,211.07,81.29Zm0.21-3.61a3.42,3.42,0,0,0-.85-2.36,2.65,2.65,0,0,0-3.63-.19h0l-0.16.16a3.29,3.29,0,0,0-.74,2.31h5.3Z" transform="translate(-46.59 -33.55)"/><path d="M228.83,76.12l-3.53.64a2.65,2.65,0,0,0-.8-1.59,2.44,2.44,0,0,0-1.62-.53,2.65,2.65,0,0,0-2.12.93,4.72,4.72,0,0,0-.8,3.07,5.46,5.46,0,0,0,.8,3.39,2.65,2.65,0,0,0,2.17,1,2.44,2.44,0,0,0,1.67-.58,3.47,3.47,0,0,0,.93-2L229,81a6.2,6.2,0,0,1-2.09,3.68,6.47,6.47,0,0,1-4.16,1.22,6.12,6.12,0,0,1-4.72-1.86,7.24,7.24,0,0,1-1.78-5.3,7.26,7.26,0,0,1,1.78-5.3,6.28,6.28,0,0,1,4.77-1.86,6.52,6.52,0,0,1,3.92,1.06A5.86,5.86,0,0,1,228.83,76.12Z" transform="translate(-46.59 -33.55)"/><path d="M239.75,85.59v-2a5.3,5.3,0,0,1-1.94,1.7,5.43,5.43,0,0,1-2.65.64,4.9,4.9,0,0,1-2.44-.61,3.53,3.53,0,0,1-1.56-1.67,7.45,7.45,0,0,1-.48-3V72h3.55v6.2a17.15,17.15,0,0,0,.19,3.47,1.91,1.91,0,0,0,.72,1,2.2,2.2,0,0,0,1.33.37,2.81,2.81,0,0,0,1.64-.45,2.65,2.65,0,0,0,1-1.22,14.42,14.42,0,0,0,.27-3.68V72.1h3.55V85.56h-3.15v0Z" transform="translate(-46.59 -33.55)"/><path d="M249.53,85.59H246V72.1h3.31V74a5.75,5.75,0,0,1,1.59-1.78,2.81,2.81,0,0,1,1.54-.42,4.53,4.53,0,0,1,2.36.66l-1.11,3.1A3.13,3.13,0,0,0,252,75a2,2,0,0,0-1.22.42,2.81,2.81,0,0,0-.82,1.48,21.21,21.21,0,0,0-.29,4.4v4.16h0Z" transform="translate(-46.59 -33.55)"/><path d="M263.29,81.29l3.55,0.61a5.83,5.83,0,0,1-2.17,3,6.36,6.36,0,0,1-3.68,1,6,6,0,0,1-5.3-2.31A7.71,7.71,0,0,1,254.33,79a7.45,7.45,0,0,1,1.75-5.3,5.78,5.78,0,0,1,4.56-1.91,6,6,0,0,1,4.74,2,8.8,8.8,0,0,1,1.67,6.12H258.2a3.68,3.68,0,0,0,.87,2.44,2.65,2.65,0,0,0,2.07.87,2.17,2.17,0,0,0,1.4-.45A2.84,2.84,0,0,0,263.29,81.29Zm0.21-3.61a3.45,3.45,0,0,0-.8-2.36,2.65,2.65,0,0,0-3.63-.19h0l-0.16.16a3.29,3.29,0,0,0-.74,2.31h5.3Z" transform="translate(-46.59 -33.55)"/><path d="M281.84,85.59h-3.39v-2a5.3,5.3,0,0,1-1.94,1.72,5,5,0,0,1-2.25.56,5.14,5.14,0,0,1-4-1.88,7.61,7.61,0,0,1-1.64-5.3,7.53,7.53,0,0,1,1.62-5.3,5.3,5.3,0,0,1,4.08-1.78,5,5,0,0,1,3.9,1.91V67h3.61V85.51h0v0.08Zm-9.6-6.95a6.12,6.12,0,0,0,.61,3.13,2.67,2.67,0,0,0,4.51.32,4.9,4.9,0,0,0,.85-3.13,5.3,5.3,0,0,0-.82-3.34,2.76,2.76,0,0,0-4.27,0,4.56,4.56,0,0,0-.93,3h0.05Z" transform="translate(-46.59 -33.55)"/><path class="cls-6" d="M189.07,105.34V92.56h4.77a11.64,11.64,0,0,1,1.94,0,3.87,3.87,0,0,1,1.56.58,3.15,3.15,0,0,1,1,1.22,4.16,4.16,0,0,1-.64,4.51,5,5,0,0,1-3.74,1.22h-3.29v5.3h-1.64v-0.05Zm1.7-6.68H194a3.55,3.55,0,0,0,2.36-.61,2.17,2.17,0,0,0,.64-1.72,2.36,2.36,0,0,0-.4-1.38,1.88,1.88,0,0,0-1.06-.77,7.26,7.26,0,0,0-1.56,0h-3.29v4.56h0Z" transform="translate(-46.59 -33.55)"/><path class="cls-6" d="M198.18,105.34l4.9-12.78H205l5.3,12.78h-2.15l-1.48-3.87h-5.3l-1.4,3.87h-1.75Zm3.68-5.3h4.32L205,96.54q-0.61-1.62-.9-2.65a16.3,16.3,0,0,1-.69,2.44Z" transform="translate(-46.59 -33.55)"/><path class="cls-6" d="M213.74,105.34V99.85l-4.9-7.34h2.07l2.52,3.84q0.69,1.09,1.3,2.15,0.58-1,1.4-2.25l2.44-3.74h2l-5.09,7.34v5.3h-1.7v0.19Z" transform="translate(-46.59 -33.55)"/><path class="cls-6" d="M222,105.34V92.56h2.65l3,9q0.42,1.22.61,1.88,0.21-.69.69-2L232,92.56h2.09v12.78h-1.64V94.73l-3.68,10.6h-1.51l-3.76-10.79v10.87H222v-0.08Z" transform="translate(-46.59 -33.55)"/><path class="cls-6" d="M236.91,105.34V92.56h9.22v1.51h-7.53V98h7.08v1.48h-7.08v4.35h8v1.48h-9.65v0Z" transform="translate(-46.59 -33.55)"/><path class="cls-6" d="M248.74,105.34V92.56h1.75l6.71,9.94V92.56h1.62v12.75h-1.75l-6.65-10v10h-1.67v0Z" transform="translate(-46.59 -33.55)"/><path class="cls-6" d="M264.88,105.34V94.07h-4.24V92.56h10.1v1.51h-4.16v11.24h-1.7v0Z" transform="translate(-46.59 -33.55)"/><path class="cls-6" d="M271.88,101.23l1.59-.16a3.55,3.55,0,0,0,.5,1.56,2.86,2.86,0,0,0,1.3,1,4.9,4.9,0,0,0,2,.37,4.72,4.72,0,0,0,1.7-.29,2.36,2.36,0,0,0,1.11-.8,1.83,1.83,0,0,0,.34-1.09,1.64,1.64,0,0,0-.34-1.06,2.65,2.65,0,0,0-1.22-.77,23,23,0,0,0-2.28-.58,11.61,11.61,0,0,1-2.44-.8,3.45,3.45,0,0,1-1.35-1.22,2.92,2.92,0,0,1-.45-1.59,3.23,3.23,0,0,1,.53-1.8,3.39,3.39,0,0,1,1.62-1.22,6.12,6.12,0,0,1,2.36-.45,6.36,6.36,0,0,1,2.44.48,3.61,3.61,0,0,1,1.67,1.35,3.87,3.87,0,0,1,.64,2h-1.62a2.65,2.65,0,0,0-.74-1.62,3.42,3.42,0,0,0-2.23-.61,3.55,3.55,0,0,0-2.23.56,1.7,1.7,0,0,0-.69,1.35,1.46,1.46,0,0,0,.48,1.22,6.68,6.68,0,0,0,2.65.9,17,17,0,0,1,2.81.8,3.87,3.87,0,0,1,1.64,1.3,3.18,3.18,0,0,1,.53,1.8,3.55,3.55,0,0,1-.58,1.91,3.84,3.84,0,0,1-1.59,1.38,5.83,5.83,0,0,1-2.44.48,7.34,7.34,0,0,1-2.92-.5,4.06,4.06,0,0,1-1.83-1.51A4.32,4.32,0,0,1,271.88,101.23Z" transform="translate(-46.59 -33.55)"/><path class="cls-3" d="M233.86,141.76v-12h3.87a14,14,0,0,1,2.86.21,3.15,3.15,0,0,1,1.72,1.22,3.68,3.68,0,0,1,.69,2.33,3.9,3.9,0,0,1-.4,1.86,3.34,3.34,0,0,1-1,1.22,3.55,3.55,0,0,1-1.22.56,13.78,13.78,0,0,1-2.44.16h-1.67v4.51h-2.47Zm2.44-9.94v3.39h1.33a6.23,6.23,0,0,0,1.8-.19,1.56,1.56,0,0,0,.87-0.72,1.59,1.59,0,0,0,.27-0.93,1.54,1.54,0,0,0-.37-1.09,1.67,1.67,0,0,0-1-.53,11.61,11.61,0,0,0-1.75,0h-1.14Z" transform="translate(-46.59 -33.55)"/><path class="cls-3" d="M246.3,135.74l-2.09-.37a3.23,3.23,0,0,1,1.22-1.86,4.4,4.4,0,0,1,2.65-.61,5.49,5.49,0,0,1,2.28.37,2.28,2.28,0,0,1,1.06.93,4.75,4.75,0,0,1,.32,2v2.65a9.23,9.23,0,0,0,0,1.67,4.9,4.9,0,0,0,.4,1.17h-2.25a4.53,4.53,0,0,0-.21-0.66V140.8a4.14,4.14,0,0,1-1.22.85,3.68,3.68,0,0,1-1.43.29,2.94,2.94,0,0,1-2.28-.72,2.65,2.65,0,0,1-.42-3.15,2.33,2.33,0,0,1,1-.87,7.79,7.79,0,0,1,1.83-.53,12.54,12.54,0,0,0,2.23-.56v-0.24a1.22,1.22,0,0,0-.32-1,2,2,0,0,0-1.22-.29,1.62,1.62,0,0,0-1,.24A1.67,1.67,0,0,0,246.3,135.74Zm3.07,1.86-1.4.34a4.19,4.19,0,0,0-1.22.4,1,1,0,0,0-.45.8,1.14,1.14,0,0,0,.34.82,1.22,1.22,0,0,0,.93.34,2,2,0,0,0,1.22-.4,1.43,1.43,0,0,0,.53-0.77,4.48,4.48,0,0,0,0-1.11V137.6h0.05Z" transform="translate(-46.59 -33.55)"/><path class="cls-3" d="M252.37,133.12h2.44l2.07,6.12,2-6.12h2.39l-3.07,8.35L257.64,143a6.12,6.12,0,0,1-.58,1.17,2.65,2.65,0,0,1-.56.61,2.86,2.86,0,0,1-.87.4,4.53,4.53,0,0,1-1.22.13,6.12,6.12,0,0,1-1.3-.13l-0.29-1.75a5.06,5.06,0,0,0,1,0,1.43,1.43,0,0,0,1.22-.48,3.23,3.23,0,0,0,.58-1.22Z" transform="translate(-46.59 -33.55)"/><path class="cls-3" d="M264.35,141.76v-12h3.87a14,14,0,0,1,2.86.19,3.15,3.15,0,0,1,1.72,1.22,3.68,3.68,0,0,1,.69,2.33,3.9,3.9,0,0,1-.4,1.86,3.34,3.34,0,0,1-1,1.22,3.55,3.55,0,0,1-1.22.56,13.78,13.78,0,0,1-2.44.16h-1.64v4.51h-2.44v-0.08Zm2.44-9.94v3.39h1.33A6.23,6.23,0,0,0,270,135a1.59,1.59,0,0,0,.74-0.72,1.62,1.62,0,0,0,.27-0.93,1.54,1.54,0,0,0-.37-1.09,1.67,1.67,0,0,0-1-.53,11.61,11.61,0,0,0-1.75,0h-1.14v0.05Z" transform="translate(-46.59 -33.55)"/><path class="cls-3" d="M276.75,135.74l-2.07-.37a3.23,3.23,0,0,1,1.22-1.86,4.4,4.4,0,0,1,2.65-.61,5.49,5.49,0,0,1,2.28.37,2.25,2.25,0,0,1,1,1,4.69,4.69,0,0,1,.32,2V139a9.54,9.54,0,0,0,0,1.67,5,5,0,0,0,.42,1.17h-2.33l-0.21-.66v-0.27a4.13,4.13,0,0,1-1.22.85,3.61,3.61,0,0,1-1.43.29,3,3,0,0,1-2.09-.72,2.65,2.65,0,0,1-.42-3.15,2.31,2.31,0,0,1,1-.87,7.77,7.77,0,0,1,1.83-.53,12.49,12.49,0,0,0,2.2-.5V136a1.22,1.22,0,0,0-.32-1,2,2,0,0,0-1.22-.29,1.64,1.64,0,0,0-1,.24A1.67,1.67,0,0,0,276.75,135.74Zm3.07,1.86-1.4.34a4.21,4.21,0,0,0-1.22.4,1,1,0,0,0-.45.8,1.14,1.14,0,0,0,.34.82,1.22,1.22,0,0,0,.93.34,2,2,0,0,0,1.17-.34,1.43,1.43,0,0,0,.56-0.77,4.53,4.53,0,0,0,0-1.11V137.6h0.08Z" transform="translate(-46.59 -33.55)"/><path class="cls-3" d="M283.94,141.76v-12h2.28v12h-2.28Z" transform="translate(-46.59 -33.55)"/></svg>