<svg id="Слой_1" data-name="Слой 1" xmlns="http://www.w3.org/2000/svg" xmlns:xlink="http://www.w3.org/1999/xlink" viewBox="0 0 195.14 82.42"><defs><style>.cls-1{fill:url(#Безымянный_градиент_7);}.cls-2{fill:url(#Безымянный_градиент_2);}.cls-3{fill:#fff;}.cls-4{fill:url(#Безымянный_градиент_3);}.cls-5{fill:url(#Безымянный_градиент_6);}.cls-6{fill:url(#Безымянный_градиент_5);}.cls-7{fill:#6a3736;}.cls-8{fill:url(#Безымянный_градиент_6-2);}.cls-10,.cls-9{fill:#333;stroke:#333;stroke-miterlimit:10;}.cls-9{stroke-width:0.5px;}</style><linearGradient id="Безымянный_градиент_7" x1="166.98" y1="48.46" x2="209.5" y2="-30.68" gradientTransform="translate(-60.57 75.62)" gradientUnits="userSpaceOnUse"><stop offset="0" stop-color="#636465"/><stop offset="0.03" stop-color="#676869"/><stop offset="0.27" stop-color="#828384"/><stop offset="0.51" stop-color="#969798"/><stop offset="0.75" stop-color="#a1a2a3"/><stop offset="1" stop-color="#a5a6a7"/></linearGradient><linearGradient id="Безымянный_градиент_2" x1="207.07" y1="25.77" x2="152.19" y2="-10.56" gradientTransform="translate(-60.57 75.62)" gradientUnits="userSpaceOnUse"><stop offset="0" stop-color="#c4c5c6"/><stop offset="0.1" stop-color="#dcdddd"/><stop offset="0.21" stop-color="#f0f0f0"/><stop offset="0.32" stop-color="#fbfbfb"/><stop offset="0.7" stop-color="#dfdfe0"/><stop offset="0.91" stop-color="#b9babb"/><stop offset="1" stop-color="#a5a6a7"/></linearGradient><linearGradient id="Безымянный_градиент_3" x1="220.95" y1="36.08" x2="163.05" y2="-3.11" gradientTransform="translate(-60.57 75.62)" gradientUnits="userSpaceOnUse"><stop offset="0" stop-color="#4c4c4e"/><stop offset="0.22" stop-color="#636365"/><stop offset="0.47" stop-color="#767778"/><stop offset="0.73" stop-color="#818283"/><stop offset="1" stop-color="#858687"/></linearGradient><linearGradient id="Безымянный_градиент_6" x1="164.76" y1="33.41" x2="214.29" y2="-1.92" gradientTransform="translate(-60.57 75.62)" gradientUnits="userSpaceOnUse"><stop offset="0" stop-color="#6a3736"/><stop offset="0.61" stop-color="#b24e51"/><stop offset="0.71" stop-color="#ac0335"/><stop offset="1" stop-color="#6b3f4e"/></linearGradient><radialGradient id="Безымянный_градиент_5" cx="182.37" cy="7.81" r="52.63" gradientTransform="translate(-60.57 75.62)" gradientUnits="userSpaceOnUse"><stop offset="0" stop-color="#b24e51"/><stop offset="0.46" stop-color="#ac0335"/><stop offset="1" stop-color="#6b3f4e"/></radialGradient><linearGradient id="Безымянный_градиент_6-2" x1="150.44" y1="-0.58" x2="194.24" y2="49.92" xlink:href="#Безымянный_градиент_6"/></defs><title>ssl up</title><path class="cls-1" d="M129.78,141.13s-44.36-15-39.37-76.91a165.65,165.65,0,0,1,39.37-5.51,165.65,165.65,0,0,1,39.37,5.51C174.4,125.9,129.78,141.13,129.78,141.13Z" transform="translate(-90.02 -58.71)"/><path class="cls-2" d="M129.78,141.13s-44.36-15-39.37-76.91a165.65,165.65,0,0,1,39.37-5.51,165.65,165.65,0,0,1,39.37,5.51l-3.94,3.67-35.44,69.3v3.94h0Z" transform="translate(-90.02 -58.71)"/><path class="cls-3" d="M129.78,137.19s-40.16-13.65-35.7-69.56a148.24,148.24,0,0,1,35.7-5,148.24,148.24,0,0,1,35.7,5C170.2,123.54,129.78,137.19,129.78,137.19Z" transform="translate(-90.02 -58.71)"/><path class="cls-4" d="M94.08,67.11h0l-0.26.52c-2.36,29.14,7.61,46.46,16.27,56.43A50,50,0,0,0,129.78,138h0.52a55.91,55.91,0,0,0,19.95-13.91c8.66-9.45,18.64-27,16.27-56.17V67.37h-0.26a142.47,142.47,0,0,0-36.49-5.25A148.24,148.24,0,0,0,94.08,67.11Zm36.22-4.2a155.6,155.6,0,0,1,34.91,5c0.26,2.89.26,6,.26,8.66,0,23.62-8.66,38.32-16.54,46.72a52.35,52.35,0,0,1-19.16,13.65,55.59,55.59,0,0,1-19.42-13.65c-7.61-8.4-16.27-23.1-16.27-46.72,0-2.62.26-6,.52-8.66A180,180,0,0,1,130.31,62.91Z" transform="translate(-90.02 -58.71)"/><path class="cls-5" d="M129.78,130.37S96.18,118,99.86,71.31c0,0,15,1.31,29.92,1.31a285.29,285.29,0,0,0,29.92-1.31C163.64,118,129.78,130.37,129.78,130.37Z" transform="translate(-90.02 -58.71)"/><path class="cls-6" d="M130,126.17S100.91,115.41,104.32,75c0,0,12.86,1,25.72,1s25.46-1,26-1C159.18,115.67,130,126.17,130,126.17Z" transform="translate(-90.02 -58.71)"/><path class="cls-7" d="M160,71a290.3,290.3,0,0,1-30.19,1.31c-15,0-29.92-1.31-29.92-1.31l4.2,3.94s12.86,1,25.72,1,25.46-1,26-1Z" transform="translate(-90.02 -58.71)"/><path class="cls-8" d="M129.78,130.37S96.18,118,99.86,71.31l4.2,3.94c-3.41,40.42,25.72,51.18,25.72,51.18v3.94h0Z" transform="translate(-90.02 -58.71)"/><polygon class="cls-3" points="64.17 22.05 43.44 58.8 33.99 58.8 22.7 34.39 32.41 34.39 38.98 50.4 55.25 22.05 64.17 22.05"/><path class="cls-9" d="M186.48,117a10.88,10.88,0,0,0-4.2-.79,3.34,3.34,0,0,0-3.94,2.62v0.26c0,4.46,10,3.41,10,11,0,5-3.67,6.82-8.4,6.82a14.86,14.86,0,0,1-4.72-.79l0.26-2.89a10.65,10.65,0,0,0,5,1,4.28,4.28,0,0,0,4.46-3.67c0-5.25-10-3.67-10-11,0-4.2,3.41-6.3,7.35-6.3a11.37,11.37,0,0,1,5,1Z" transform="translate(-90.02 -58.71)"/><path class="cls-9" d="M192.78,113.57h12.86v2.62h-9.45V123h8.66v2.89h-8.66v7.61h9.45v2.89H192.51V113.57h0.26Z" transform="translate(-90.02 -58.71)"/><path class="cls-9" d="M225.85,117.24a9.82,9.82,0,0,0-4.72-1.31,9.08,9.08,0,0,0-8.66,9.45,9.28,9.28,0,0,0,8.4,8.66,15.35,15.35,0,0,0,5-1l0.26,3.15a9,9,0,0,1-5.25,1,11.07,11.07,0,0,1-12.07-10.5v-1.57a11.67,11.67,0,0,1,11-12.07h1a10.65,10.65,0,0,1,5,1v3.15Z" transform="translate(-90.02 -58.71)"/><path class="cls-9" d="M246.59,127c0,6.56-3.41,10-8.92,10S229,133.52,229,127V113.31h3.41v13.12c0,4.46,1.31,7.61,5.51,7.61s5.51-2.89,5.51-7.61V113.31h3.41V127h-0.26Z" transform="translate(-90.02 -58.71)"/><path class="cls-9" d="M252.1,113.57h5.51c4.72,0,8.92.79,8.92,6.3a5.37,5.37,0,0,1-4.72,5.25h0a3.2,3.2,0,0,1,2.1,2.36l4.46,9.19H264.7l-3.41-7.87a3.22,3.22,0,0,0-3.67-2.1h-2.36v10.24H252.1V113.57Zm3.15,9.71h2.89c3.15,0,5-1.31,5-3.67s-1.57-3.41-4.72-3.41h-3.15v7.09h0Z" transform="translate(-90.02 -58.71)"/><path class="cls-9" d="M272,113.57h12.86v2.62h-9.45V123h8.66v2.89h-8.66v7.61h9.45v2.89H272V113.57h0Z" transform="translate(-90.02 -58.71)"/><path class="cls-10" d="M237.66,72.62A15.31,15.31,0,0,0,230.84,71c-2.89,0-6.3,1-6.3,4.72,0,7.09,16,5.51,16,17.59,0,8.14-6,11-13.39,11a33.24,33.24,0,0,1-7.35-1.57l0.26-4.72a20.34,20.34,0,0,0,7.87,1.84c2.89,0,7.09-1.84,7.09-5.77,0-8.4-16-5.77-16-17.59,0-6.56,5.25-10,11.81-10a21.06,21.06,0,0,1,7.87,1.57Z" transform="translate(-90.02 -58.71)"/><path class="cls-10" d="M209.84,72.62A15.31,15.31,0,0,0,203,71c-2.89,0-6.3,1-6.3,4.72,0,7.09,16,5.51,16,17.59,0,8.14-6,11-13.39,11a33.24,33.24,0,0,1-7.35-1.57l0.26-4.72a20.34,20.34,0,0,0,7.87,1.84c2.89,0,7.09-1.84,7.09-5.77,0-8.4-16-5.77-16-17.59,0-6.56,5.25-10,11.81-10a21.06,21.06,0,0,1,7.87,1.57Z" transform="translate(-90.02 -58.71)"/><path class="cls-10" d="M247.37,67.11l5-.52V99.66h15v4.46H247.37v-37Z" transform="translate(-90.02 -58.71)"/></svg>