<svg width="30" height="30" viewBox="0 0 30 30" fill="none" xmlns="http://www.w3.org/2000/svg">
<path d="M9 22.5C9 19.1863 11.6863 16.5 15 16.5C18.3137 16.5 21 19.1863 21 22.5H19.5C19.5 20.0147 17.4853 18 15 18C12.5147 18 10.5 20.0147 10.5 22.5H9ZM15 15.75C12.5138 15.75 10.5 13.7362 10.5 11.25C10.5 8.76375 12.5138 6.75 15 6.75C17.4862 6.75 19.5 8.76375 19.5 11.25C19.5 13.7362 17.4862 15.75 15 15.75ZM15 14.25C16.6575 14.25 18 12.9075 18 11.25C18 9.5925 16.6575 8.25 15 8.25C13.3425 8.25 12 9.5925 12 11.25C12 12.9075 13.3425 14.25 15 14.25Z" fill="white"/>
</svg>
