<svg width="30" height="30" viewBox="0 0 30 30" fill="none" xmlns="http://www.w3.org/2000/svg">
<path d="M19.6242 12.7878C20.4149 12.788 21.0959 13.3465 21.251 14.1218L22.4673 20.2054C22.6724 21.2319 21.8874 22.1896 20.8405 22.1897H9.15949C8.11261 22.1896 7.32757 21.2319 7.53274 20.2054L8.74902 14.1218C8.90409 13.3465 9.5851 12.788 10.3758 12.7878H19.6242ZM10.3758 13.8939C10.1124 13.8941 9.88519 14.0806 9.83352 14.3389L8.61724 20.4225C8.54911 20.7645 8.81068 21.0835 9.15949 21.0836H20.8405C21.1893 21.0835 21.4509 20.7645 21.3828 20.4225L20.1665 14.3389C20.1148 14.0806 19.8876 13.8941 19.6242 13.8939H10.3758Z" fill="white"/>
<path d="M15.0002 7.81035C16.0482 7.81038 16.8926 8.03445 17.5678 8.42713C18.2433 8.8201 18.7169 9.36296 19.0519 9.9491C19.7065 11.0944 19.8535 12.4587 19.9712 13.2609L18.877 13.4208C18.7488 12.5471 18.62 11.4222 18.0917 10.4978C17.8352 10.0492 17.49 9.66147 17.0115 9.38308C16.5327 9.10467 15.8872 8.91648 15.0002 8.91645C14.1125 8.91645 13.4781 9.10544 13.0159 9.38092C12.5548 9.65596 12.2288 10.0388 11.9898 10.4849C11.4934 11.4114 11.4024 12.5275 11.2714 13.4208L10.1761 13.2609C10.2909 12.4784 10.402 11.1051 11.0144 9.96206C11.3297 9.37353 11.7851 8.82669 12.4499 8.43037C13.1141 8.03444 13.9522 7.81035 15.0002 7.81035Z" fill="white"/>
<path d="M15 7.69756C16.0643 7.69759 16.9292 7.92539 17.6243 8.32964C18.3198 8.73426 18.8069 9.29324 19.1499 9.89336C19.6871 10.8334 19.8865 11.9169 20.0054 12.7183C20.6795 12.8669 21.221 13.3998 21.3611 14.0997L22.5776 20.1832C22.7967 21.2793 21.9582 22.302 20.8403 22.302H9.15966C8.04179 22.302 7.20328 21.2793 7.42236 20.1832L8.63891 14.0997C8.78887 13.3502 9.39904 12.7921 10.1396 12.6927C10.2467 11.9041 10.4203 10.8327 10.9153 9.90874C11.2384 9.30577 11.7072 8.74262 12.3926 8.33403C13.0773 7.9259 13.9359 7.69758 15 7.69756ZM11.3826 13.4368L11.3665 13.5481L11.2551 13.532L10.1602 13.3724L10.0488 13.3562L10.0649 13.2449C10.0793 13.1473 10.0928 13.0393 10.1082 12.9234C9.4895 13.0319 8.98617 13.5102 8.85937 14.1436L7.64282 20.2271C7.45156 21.1841 8.18378 22.0771 9.15966 22.0772H20.8403C21.8162 22.0771 22.5484 21.1841 22.3572 20.2271L21.1406 14.1436C21.0242 13.5618 20.5899 13.1115 20.0405 12.9578C20.055 13.0601 20.0693 13.1563 20.0823 13.2449L20.0991 13.3562L19.9878 13.3724L18.8936 13.532L18.7822 13.5481L18.7654 13.4368C18.7402 13.2651 18.7142 13.0852 18.6863 12.8999H11.4573C11.432 13.0839 11.4079 13.2637 11.3826 13.4368ZM19.6245 13.7811L19.741 13.792C20.0064 13.8395 20.2227 14.0452 20.2771 14.3172L21.4929 20.4007C21.5748 20.8122 21.2601 21.196 20.8403 21.1961H9.15966C8.73993 21.196 8.42518 20.8122 8.50708 20.4007L9.7229 14.3172C9.78506 14.0064 10.0585 13.7814 10.3755 13.7811H19.6245ZM10.2986 14.0132C10.1229 14.0447 9.98009 14.1811 9.94409 14.3611L8.72754 20.4446C8.67338 20.717 8.88188 20.9712 9.15966 20.9712H20.8403C21.1181 20.9712 21.3266 20.717 21.2725 20.4446L20.0559 14.3611C20.0199 14.1811 19.8771 14.0447 19.7014 14.0132L19.6238 14.0066H10.3762L10.2986 14.0132ZM10.3381 12.9014C10.3258 12.9939 10.3138 13.082 10.3022 13.1651L11.1753 13.2925C11.1931 13.166 11.2111 13.0348 11.2295 12.8999H10.3755C10.363 12.9 10.3506 12.9011 10.3381 12.9014ZM18.9712 13.2925L19.8428 13.1658C19.8313 13.0855 19.8188 13.0009 19.8061 12.9124C19.7464 12.9053 19.6859 12.9 19.6245 12.8999H18.9141C18.9342 13.0352 18.953 13.1665 18.9712 13.2925ZM15 7.92314C13.9685 7.92317 13.1511 8.14309 12.5076 8.52666C11.8635 8.9106 11.4213 9.44104 11.1138 10.0149C10.6466 10.887 10.4768 11.8964 10.3696 12.6751H11.261C11.3653 11.9442 11.5143 11.1347 11.8909 10.4317C12.1376 9.97115 12.4763 9.5713 12.958 9.28398C13.4406 8.99629 14.096 8.80427 15 8.80424C15.9033 8.80427 16.5696 8.99615 17.0684 9.28618C17.5667 9.57618 17.9253 9.97941 18.1897 10.4419C18.5892 11.141 18.7646 11.9507 18.8804 12.6751H19.6245C19.6743 12.6751 19.7236 12.6776 19.7725 12.6817C19.6532 11.8954 19.4565 10.8833 18.9543 10.0047C18.6274 9.43266 18.1667 8.90573 17.5115 8.52446C16.8563 8.1434 16.0317 7.92317 15 7.92314ZM15 9.0291C14.1289 9.02913 13.5153 9.21418 13.0737 9.47734C12.6332 9.74006 12.3198 10.1063 12.0886 10.5379C11.7342 11.1994 11.5918 11.9601 11.4888 12.6751H18.6519C18.5376 11.9701 18.3687 11.2096 17.9941 10.554C17.7457 10.1194 17.4134 9.74702 16.9548 9.48027C16.496 9.2135 15.8705 9.02913 15 9.0291Z" fill="white"/>
</svg>
