<svg width="24" height="24" viewBox="0 0 24 24" fill="none" xmlns="http://www.w3.org/2000/svg">
<path d="M11.6111 16.3343H12.6111V10.8343H11.6111V16.3343ZM12.1111 9.41127C12.2854 9.41127 12.4316 9.35227 12.5496 9.23427C12.6676 9.11627 12.7266 8.97011 12.7266 8.79577C12.7266 8.62144 12.6676 8.47527 12.5496 8.35727C12.4316 8.23944 12.2854 8.18052 12.1111 8.18052C11.9368 8.18052 11.7906 8.23944 11.6726 8.35727C11.5546 8.47527 11.4956 8.62144 11.4956 8.79577C11.4956 8.97011 11.5546 9.11627 11.6726 9.23427C11.7906 9.35227 11.9368 9.41127 12.1111 9.41127ZM12.1143 20.8343C10.8698 20.8343 9.69975 20.5981 8.60408 20.1258C7.50858 19.6534 6.55558 19.0124 5.74508 18.2028C4.93458 17.3931 4.293 16.4409 3.82033 15.3463C3.3475 14.2518 3.11108 13.0822 3.11108 11.8375C3.11108 10.593 3.34725 9.42294 3.81958 8.32727C4.29192 7.23177 4.93292 6.27877 5.74258 5.46827C6.55225 4.65777 7.50442 4.01619 8.59908 3.54352C9.69358 3.07069 10.8632 2.83427 12.1078 2.83427C13.3523 2.83427 14.5224 3.07044 15.6181 3.54277C16.7136 4.01511 17.6666 4.65611 18.4771 5.46577C19.2876 6.27544 19.9292 7.22761 20.4018 8.32227C20.8747 9.41677 21.1111 10.5864 21.1111 11.831C21.1111 13.0755 20.8749 14.2456 20.4026 15.3413C19.9303 16.4368 19.2893 17.3898 18.4796 18.2003C17.6699 19.0108 16.7178 19.6524 15.6231 20.125C14.5286 20.5979 13.359 20.8343 12.1143 20.8343ZM12.1111 19.8343C14.3444 19.8343 16.2361 19.0593 17.7861 17.5093C19.3361 15.9593 20.1111 14.0676 20.1111 11.8343C20.1111 9.60094 19.3361 7.70927 17.7861 6.15927C16.2361 4.60927 14.3444 3.83427 12.1111 3.83427C9.87775 3.83427 7.98608 4.60927 6.43608 6.15927C4.88608 7.70927 4.11108 9.60094 4.11108 11.8343C4.11108 14.0676 4.88608 15.9593 6.43608 17.5093C7.98608 19.0593 9.87775 19.8343 12.1111 19.8343Z" fill="black"/>
</svg>
