<svg width="32" height="32" viewBox="0 0 32 32" fill="none" xmlns="http://www.w3.org/2000/svg">
<path d="M20.4851 18.2426L19.3638 17.1213L20.4851 16C21.7237 14.7614 21.7237 12.7533 20.4851 11.5147C19.2466 10.2761 17.2384 10.2761 15.9998 11.5147L14.8785 12.636L13.7572 11.5147L14.8785 10.3934C16.7363 8.53552 19.7485 8.53552 21.6064 10.3934C23.4643 12.2513 23.4643 15.2635 21.6064 17.1213L20.4851 18.2426ZM18.2424 20.4853L17.1211 21.6066C15.2633 23.4645 12.2511 23.4645 10.3932 21.6066C8.53535 19.7487 8.53535 16.7365 10.3932 14.8787L11.5145 13.7574L12.6359 14.8787L11.5145 16C10.276 17.2386 10.276 19.2467 11.5145 20.4853C12.7531 21.7238 14.7612 21.7238 15.9998 20.4853L17.1211 19.3639L18.2424 20.4853ZM18.2424 12.636L19.3638 13.7574L13.7572 19.3639L12.6359 18.2426L18.2424 12.636Z" fill="black"/>
</svg>
