<svg width="40" height="40" viewBox="0 0 40 40" fill="none" xmlns="http://www.w3.org/2000/svg">
<path d="M20 27.2693C19.5875 27.2693 19.2344 27.1223 18.9408 26.8285C18.6469 26.5348 18.5 26.1818 18.5 25.7693C18.5 25.3568 18.6469 25.0036 18.9408 24.7098C19.2344 24.4161 19.5875 24.2693 20 24.2693C20.4125 24.2693 20.7656 24.4161 21.0592 24.7098C21.3531 25.0036 21.5 25.3568 21.5 25.7693C21.5 26.1818 21.3531 26.5348 21.0592 26.8285C20.7656 27.1223 20.4125 27.2693 20 27.2693ZM20 21.5C19.5875 21.5 19.2344 21.3531 18.9408 21.0593C18.6469 20.7656 18.5 20.4125 18.5 20C18.5 19.5875 18.6469 19.2344 18.9408 18.9408C19.2344 18.6469 19.5875 18.5 20 18.5C20.4125 18.5 20.7656 18.6469 21.0592 18.9408C21.3531 19.2344 21.5 19.5875 21.5 20C21.5 20.4125 21.3531 20.7656 21.0592 21.0593C20.7656 21.3531 20.4125 21.5 20 21.5ZM20 15.7308C19.5875 15.7308 19.2344 15.5839 18.9408 15.2903C18.6469 14.9964 18.5 14.6433 18.5 14.2308C18.5 13.8183 18.6469 13.4652 18.9408 13.1715C19.2344 12.8777 19.5875 12.7308 20 12.7308C20.4125 12.7308 20.7656 12.8777 21.0592 13.1715C21.3531 13.4652 21.5 13.8183 21.5 14.2308C21.5 14.6433 21.3531 14.9964 21.0592 15.2903C20.7656 15.5839 20.4125 15.7308 20 15.7308Z" fill="black"/>
</svg>
