<svg width="24" height="24" viewBox="0 0 24 24" fill="none" xmlns="http://www.w3.org/2000/svg">
<path d="M6.8125 19V17.1333H13.4688C14.4531 17.1333 15.3086 16.8222 16.0352 16.2C16.7617 15.5778 17.125 14.8 17.125 13.8667C17.125 12.9333 16.7617 12.1556 16.0352 11.5333C15.3086 10.9111 14.4531 10.6 13.4688 10.6H7.5625L10 13.0267L8.6875 14.3333L4 9.66667L8.6875 5L10 6.30667L7.5625 8.73333H13.4688C14.9844 8.73333 16.2852 9.22333 17.3711 10.2033C18.457 11.1833 19 12.4044 19 13.8667C19 15.3289 18.457 16.55 17.3711 17.53C16.2852 18.51 14.9844 19 13.4688 19H6.8125Z" fill="black"/>
</svg>
