<svg width="30" height="30" viewBox="0 0 30 30" fill="none" xmlns="http://www.w3.org/2000/svg">
<path d="M19.5233 18.4626L22.7353 21.6746L21.6746 22.7353L18.4626 19.5233C17.3077 20.4473 15.843 21 14.25 21C10.524 21 7.5 17.976 7.5 14.25C7.5 10.524 10.524 7.5 14.25 7.5C17.976 7.5 21 10.524 21 14.25C21 15.843 20.4473 17.3077 19.5233 18.4626ZM18.0185 17.9061C18.9356 16.9609 19.5 15.6717 19.5 14.25C19.5 11.3494 17.1506 9 14.25 9C11.3494 9 9 11.3494 9 14.25C9 17.1506 11.3494 19.5 14.25 19.5C15.6717 19.5 16.9609 18.9356 17.9061 18.0185L18.0185 17.9061Z" fill="black"/>
</svg>
