<svg width="24" height="24" viewBox="0 0 24 24" fill="none" xmlns="http://www.w3.org/2000/svg">
<path d="M11.4 16.673L14.4423 10.75H11.75V6.75L8.59625 12.75H11.4V16.673ZM11.5033 20.75C10.2588 20.75 9.08867 20.5138 7.993 20.0415C6.8975 19.5692 5.9445 18.9282 5.134 18.1185C4.3235 17.3088 3.68192 16.3567 3.20925 15.262C2.73642 14.1675 2.5 12.9979 2.5 11.7533C2.5 10.5088 2.73617 9.33867 3.2085 8.243C3.68083 7.1475 4.32183 6.1945 5.1315 5.384C5.94117 4.5735 6.89333 3.93192 7.988 3.45925C9.0825 2.98642 10.2521 2.75 11.4967 2.75C12.7413 2.75 13.9113 2.98617 15.007 3.4585C16.1025 3.93083 17.0555 4.57183 17.866 5.3815C18.6765 6.19117 19.3181 7.14333 19.7908 8.238C20.2636 9.3325 20.5 10.5021 20.5 11.7467C20.5 12.9913 20.2638 14.1613 19.7915 15.257C19.3192 16.3525 18.6782 17.3055 17.8685 18.116C17.0588 18.9265 16.1067 19.5681 15.012 20.0408C13.9175 20.5136 12.7479 20.75 11.5033 20.75ZM11.5 19.75C13.7333 19.75 15.625 18.975 17.175 17.425C18.725 15.875 19.5 13.9833 19.5 11.75C19.5 9.51667 18.725 7.625 17.175 6.075C15.625 4.525 13.7333 3.75 11.5 3.75C9.26667 3.75 7.375 4.525 5.825 6.075C4.275 7.625 3.5 9.51667 3.5 11.75C3.5 13.9833 4.275 15.875 5.825 17.425C7.375 18.975 9.26667 19.75 11.5 19.75Z" fill="black"/>
</svg>
